<svg width="928" height="90" viewBox="0 0 928 90" fill="none" xmlns="http://www.w3.org/2000/svg">
<g clip-path="url(#clip0_4633_20)">
<path d="M0 2.14014H46.99V18.0901H31.5V87.1501H15.08V18.0901H0V2.14014Z" fill="white"/>
<path d="M58.03 2.14014H74.44V34.2101H102.82V2.14014H119.18V87.1501H102.82V49.8801H74.44V87.1601H58.03V2.14014Z" fill="white"/>
<path d="M138.65 2.14014H185.06V17.9701H154.72V33.3401H185.06V48.8901H154.72V71.2601H185.06V87.1501H138.65V2.14014Z" fill="white"/>
<path d="M233.26 87.1501V2.14014H246.63C254.38 2.14014 260.05 2.64014 263.64 3.64014C268.73 4.99014 272.78 7.49014 275.79 11.1501C278.8 14.8101 280.3 19.1301 280.3 24.1001C280.3 27.3401 279.62 30.2801 278.25 32.9101C276.88 35.5501 274.66 38.0301 271.57 40.3401C276.73 42.7701 280.51 45.8001 282.9 49.4401C285.29 53.0801 286.48 57.3901 286.48 62.3601C286.48 67.3301 285.25 71.4901 282.78 75.4201C280.31 79.3501 277.13 82.2901 273.23 84.2301C269.33 86.1801 263.95 87.1501 257.09 87.1501H233.25H233.26ZM249.44 17.5701V35.4901H252.98C256.92 35.4901 259.86 34.6601 261.77 33.0001C263.68 31.3401 264.64 29.0901 264.64 26.2401C264.64 23.5801 263.73 21.4701 261.91 19.9101C260.09 18.3501 257.33 17.5701 253.62 17.5701H249.44ZM249.44 49.9401V71.7301H253.5C260.22 71.7301 264.75 70.8801 267.09 69.1901C269.43 67.4901 270.6 65.0301 270.6 61.7901C270.6 58.1301 269.23 55.2401 266.48 53.1201C263.74 51.0001 259.18 49.9401 252.8 49.9401H249.44Z" fill="white"/>
<path d="M301.98 2.14014H348.39V17.9701H318.05V33.3401H348.39V48.8901H318.05V71.2601H348.39V87.1501H301.98V2.14014Z" fill="white"/>
<path d="M408.09 13.7002L396.1 24.2802C391.89 18.4202 387.61 15.4902 383.25 15.4902C381.13 15.4902 379.39 16.0602 378.04 17.2002C376.69 18.3402 376.01 19.6202 376.01 21.0402C376.01 22.4602 376.49 23.8102 377.46 25.0802C378.77 26.7802 382.73 30.4202 389.33 36.0002C395.5 41.1602 399.25 44.4202 400.56 45.7702C403.84 49.0802 406.17 52.2502 407.54 55.2802C408.91 58.3102 409.6 61.6102 409.6 65.1902C409.6 72.1602 407.19 77.9202 402.37 82.4702C397.55 87.0202 391.26 89.2902 383.51 89.2902C377.45 89.2902 372.18 87.8102 367.69 84.8402C363.2 81.8702 359.35 77.2102 356.15 70.8502L369.75 62.6402C373.84 70.1502 378.55 73.9102 383.87 73.9102C386.65 73.9102 388.98 73.1002 390.87 71.4802C392.76 69.8602 393.71 67.9902 393.71 65.8702C393.71 63.9402 393 62.0202 391.57 60.0902C390.14 58.1602 387 55.2202 382.13 51.2502C372.87 43.7002 366.88 37.8702 364.18 33.7702C361.48 29.6702 360.13 25.5702 360.13 21.4902C360.13 15.5902 362.38 10.5402 366.87 6.32023C371.36 2.10023 376.91 -0.00976562 383.51 -0.00976562C387.75 -0.00976562 391.79 0.970234 395.63 2.94023C399.47 4.91023 403.62 8.49023 408.1 13.6902L408.09 13.7002Z" fill="white"/>
<path d="M416.64 2.14014H463.63V18.0901H448.14V87.1501H431.73V18.0901H416.65V2.14014H416.64Z" fill="white"/>
<path d="M547.98 0C560.01 0 570.35 4.35 579.01 13.06C587.67 21.77 591.99 32.38 591.99 44.91C591.99 57.44 587.72 67.82 579.18 76.41C570.64 85 560.28 89.3 548.1 89.3C535.92 89.3 524.74 84.89 516.29 76.06C507.84 67.23 503.62 56.76 503.62 44.62C503.62 36.49 505.59 29.02 509.52 22.2C513.45 15.38 518.86 9.98 525.74 5.99C532.62 2 540.03 0.01 547.98 0.01V0ZM547.81 15.84C539.94 15.84 533.33 18.58 527.97 24.05C522.61 29.52 519.93 36.48 519.93 44.91C519.93 54.31 523.31 61.75 530.05 67.22C535.3 71.5 541.31 73.64 548.1 73.64C555.77 73.64 562.31 70.86 567.71 65.32C573.11 59.77 575.81 52.93 575.81 44.8C575.81 36.67 573.09 29.86 567.65 24.25C562.21 18.64 555.6 15.84 547.81 15.84Z" fill="white"/>
<path d="M607.48 2.14014H649.67V17.9201H623.55V33.3501H649.67V48.9001H623.55V87.1601H607.48V2.14014Z" fill="white"/>
<path d="M697.18 87.1501V2.14014H710.55C718.3 2.14014 723.97 2.64014 727.56 3.64014C732.65 4.99014 736.7 7.49014 739.71 11.1501C742.72 14.8101 744.22 19.1301 744.22 24.1001C744.22 27.3401 743.54 30.2801 742.17 32.9101C740.8 35.5501 738.58 38.0301 735.49 40.3401C740.65 42.7701 744.43 45.8001 746.82 49.4401C749.21 53.0801 750.4 57.3901 750.4 62.3601C750.4 67.3301 749.17 71.4901 746.7 75.4201C744.23 79.3501 741.05 82.2901 737.15 84.2301C733.25 86.1801 727.87 87.1501 721.01 87.1501H697.17H697.18ZM713.36 17.5701V35.4901H716.9C720.85 35.4901 723.78 34.6601 725.69 33.0001C727.6 31.3401 728.56 29.0901 728.56 26.2401C728.56 23.5801 727.65 21.4701 725.83 19.9101C724.01 18.3501 721.25 17.5701 717.53 17.5701H713.35H713.36ZM713.36 49.9401V71.7301H717.42C724.14 71.7301 728.67 70.8801 731.01 69.1901C733.35 67.4901 734.52 65.0301 734.52 61.7901C734.52 58.1301 733.15 55.2401 730.4 53.1201C727.65 51.0001 723.1 49.9401 716.72 49.9401H713.36Z" fill="white"/>
<path d="M765.9 2.14014H812.31V17.9701H781.97V33.3401H812.31V48.8901H781.97V71.2601H812.31V87.1501H765.9V2.14014Z" fill="white"/>
<path d="M872.01 13.7002L860.02 24.2802C855.81 18.4202 851.53 15.4902 847.17 15.4902C845.05 15.4902 843.31 16.0602 841.96 17.2002C840.61 18.3402 839.93 19.6202 839.93 21.0402C839.93 22.4602 840.41 23.8102 841.38 25.0802C842.69 26.7802 846.65 30.4202 853.25 36.0002C859.42 41.1602 863.17 44.4202 864.48 45.7702C867.76 49.0802 870.08 52.2502 871.46 55.2802C872.83 58.3102 873.52 61.6102 873.52 65.1902C873.52 72.1602 871.11 77.9202 866.29 82.4702C861.47 87.0202 855.18 89.2902 847.43 89.2902C841.37 89.2902 836.1 87.8102 831.61 84.8402C827.12 81.8702 823.27 77.2102 820.07 70.8502L833.67 62.6402C837.76 70.1502 842.47 73.9102 847.79 73.9102C850.57 73.9102 852.9 73.1002 854.79 71.4802C856.68 69.8602 857.63 67.9902 857.63 65.8702C857.63 63.9402 856.92 62.0202 855.49 60.0902C854.06 58.1602 850.92 55.2202 846.05 51.2502C836.79 43.7002 830.8 37.8702 828.1 33.7702C825.4 29.6702 824.05 25.5702 824.05 21.4902C824.05 15.5902 826.3 10.5402 830.79 6.32023C835.28 2.10023 840.83 -0.00976562 847.43 -0.00976562C851.67 -0.00976562 855.72 0.970234 859.55 2.94023C863.38 4.91023 867.54 8.49023 872.02 13.6902L872.01 13.7002Z" fill="white"/>
<path d="M880.56 2.14014H927.55V18.0901H912.06V87.1501H895.65V18.0901H880.57V2.14014H880.56Z" fill="white"/>
</g>
<defs>
<clipPath id="clip0_4633_20">
<rect width="927.55" height="89.29" fill="white"/>
</clipPath>
</defs>
</svg>
