<svg width="789.7" height="278" viewBox="0 0 789.7 278" fill="#FFF" xmlns="http://www.w3.org/2000/svg">
<path d="M174.5,248.2l-5.7,0.2c-2.9,0.1-3.7,0.6-4.4,2.4c-0.1,0.7-0.9,0.6-0.8-0.1c0-0.6,0.7-4.1,0.8-4.4
	c0.3-1.4,0.8-0.3,2.1-0.2c2.5,0.4,16.2,0.2,19,0.2c3.9,0,3.9-1.2,3.9,0.4c0,0.8-0.1,3.4-0.1,4.4c-0.1,1.3-0.7,0.3-0.7-0.6
	c0-1-1.1-2.1-4.5-2.1l-4.8-0.1c0.1,5-0.2,19.7,0.2,23.9c0.2,2,0.9,2.3,3.5,2.3c0.9,0,0.7,0.7-0.1,0.7c-5-0.1-6.4-0.2-10.8,0
	c-0.9,0-1.2-0.7-0.2-0.7c1.7,0,2.4-0.4,2.5-2.3C174.8,268.1,174.5,253,174.5,248.2z M216.8,258.2l-0.1-9.2c0-2-1.4-2.4-3.1-2.3
	c-1,0-0.9-0.7,0.1-0.6c4.5,0.1,6.1,0.1,10.3,0c1-0.1,1.1,0.7,0.1,0.6c-1.4,0-2.5,0.4-2.5,2.3c-0.1,3.4-0.3,18.7,0.1,23
	c-0.1,2.1,1.8,2.3,3.5,2.3c0.4,0,0.6,0.1,0.6,0.3c0,0.3-0.3,0.4-0.8,0.4c-5-0.1-6.3-0.1-10.8,0c-0.9,0.1-1.2-0.7-0.2-0.7
	c1.7,0,2.4-0.4,2.5-2.3l0.2-11.7h-14.9l0.2,11.8c-0.1,2.1,1.8,2.3,3.5,2.3c1,0,0.7,0.8-0.2,0.7c-5-0.1-6.3-0.1-10.8,0
	c-0.5,0-0.8-0.1-0.8-0.4c0-0.2,0.2-0.3,0.6-0.3c1.7,0,2.4-0.4,2.5-2.3c0.4-4.2,0.2-19.6,0.1-22.9c0-2-1.4-2.4-3.1-2.3
	c-1,0-0.9-0.7,0.1-0.6c4.5,0.1,6.1,0.1,10.3,0c1-0.1,1.1,0.7,0.1,0.6c-1.4,0-2.5,0.4-2.5,2.3l-0.1,9.2L216.8,258.2z M238.1,258.5
	c2.5,0,7.9,0.3,8.3-0.8c0.2-0.5,0.9-0.5,0.8-0.1c-0.2,0.9-0.5,5.1-0.5,5.4c0.1,0.8-0.6,0.9-0.6,0.4c-0.1-3.4-1.7-3-8-3l0.1,9.3
	c0.1,2.6,0.7,3.2,4.6,3.2c2.3,0.1,5.1-0.2,5.3-3.3c0.2-0.9,0.8-0.8,0.7,0.1c-0.5,5.3-0.3,5.2-2.6,5.2c-6.3,0-9.8-0.4-15.4-0.1
	c-0.9,0.1-1.2-0.7-0.2-0.7c1.7,0,2.4-0.4,2.5-2.3c0.2-1.6,0.5-18.9,0.3-22.8c-0.1-2-1.4-2.4-3.1-2.3c-1,0-0.9-0.7,0.1-0.6
	c4.1,0,11.8,0.1,15.1,0.1c2,0,2.5-0.8,2.4-0.1c-0.4,1.9-0.3,4.1-0.5,5c-0.1,0.6-0.8,0.5-0.8-0.1c0-2.8-1-3-8.5-3V258.5z M273.7,263
	c0,3.5,0.2,7.4,0.2,9c0.1,2.1,0.8,2.1,3.4,2.3c0.9,0.1,0.5,0.7-0.3,0.7c-2.3,0-6.3-0.2-10.1,0c-1.1,0-1.4-0.6-0.4-0.7
	c2-0.2,2.3-0.4,2.5-2.3c0.2-2.7,0.2-21.8,0.1-23c0-2-1.1-2.3-3.1-2.3c-1,0-0.9-0.6,0.1-0.6c9.8,0.4,14-0.8,17.6,1.6
	c4.4,3.5,3.1,9.5-2.5,13.8c7.4,9.1,9.4,12.8,13.7,12.8c0.7,0,0.7,0.7,0,0.7c-8.7,0-7.8,1.3-17.1-11.9L273.7,263z M281.9,254.9
	c0-6.3-4.7-7.7-8.2-6.7v12.6C275.6,261.5,281.9,263,281.9,254.9z M309.2,245.5c22.4,0,19.6,30-0.4,30
	C287.9,275.5,288.7,245.5,309.2,245.5z M308.1,247.3c-14.1,0-12,26.3,2.4,26.3C322.9,273.6,322.4,247.3,308.1,247.3z M575.2,245.5
	c22.4,0,19.6,30-0.4,30C553.9,275.5,554.7,245.5,575.2,245.5z M574.1,247.3c-14.1,0-12,26.3,2.4,26.3
	C588.9,273.6,588.4,247.3,574.1,247.3z M335.6,261.8c-7.1-11.7-8-14.5-11.3-15c-0.8-0.1-0.8-0.6,0.1-0.6c2.7,0.1,5.6,0.1,8.9,0
	c0.9,0,0.7,0.4-0.2,0.7c-1.5,0.5,0.4,2.9,6.5,13.4c5.8-10.5,7.4-12.6,5.4-13.5c-0.7-0.3-1.1-0.8,0-0.7c2.5,0.1,5.3,0.1,7.7,0
	c1-0.1,0.9,0.6,0,0.7c-3.1,0.3-5.2,3.7-11.1,14.6c-1.1,2.1-0.6,9.1-0.5,10.7c-0.1,2.1,1.9,2.3,3.5,2.3c1,0,0.7,0.7-0.2,0.7
	c-2.4-0.1-9.3-0.1-10.7,0c-0.9,0.1-1.2-0.7-0.2-0.7c1.6,0,2.4-0.5,2.5-2.3C336.1,270.5,336.5,263.2,335.6,261.8z M358.9,265
	l-2.2,5.8c-0.9,2.1-1.2,3.7,1.5,3.5c1-0.1,0.8,0.8-0.1,0.7c-1-0.1-6.4-0.1-8.6,0c-0.8,0-1-0.7-0.2-0.7c2.2,0,3.3-0.5,4.4-3.5l9.6-24
	c0.8-1.9,1.2-2.1,2.1-0.3c0.9,2.1,7,17.7,9.5,23.5c1.5,3.4,2.5,4.4,5,4.4c0.9,0,0.7,0.7-0.7,0.7c-2.2,0-5.9,0-8.3-0.1
	c-1.2,0-0.8-0.5-0.2-0.6c0.3,0,0.5-0.4,0.3-0.9l-3.2-8.4L358.9,265z M367.2,263.1l-3.7-10.2l-3.8,10.2H367.2z M465.2,265l-2.2,5.8
	c-0.9,2.1-1.2,3.7,1.5,3.5c1-0.1,0.8,0.8-0.1,0.7c-1-0.1-6.4-0.1-8.6,0c-0.8,0-1-0.7-0.2-0.7c2.2,0,3.3-0.5,4.4-3.5l9.6-24
	c0.8-1.9,1.2-2.1,2.1-0.3c0.9,2.1,7,17.7,9.5,23.5c1.5,3.4,2.5,4.4,5,4.4c0.9,0,0.7,0.7-0.7,0.7c-2.2,0-5.9,0-8.3-0.1
	c-1.2,0-0.8-0.5-0.2-0.6c0.3,0,0.5-0.4,0.3-0.9l-3.2-8.4L465.2,265z M473.5,263.1l-3.7-10.2l-3.8,10.2H473.5z M390.8,269.5
	c0.1,2.8,0.9,3.4,5.3,3.4c3.4,0,5.1-0.5,5.5-3.4c0-0.7,0.9-0.9,0.7,0.1c-0.9,5.4,0,5.4-3,5.4c-6.2,0-10.2-0.6-16-0.1
	c-0.9,0.1-1.2-0.7-0.2-0.7c1.6,0,2.4-0.4,2.5-2.3c0.4-4.2,0.2-19.6,0.1-22.9c0-1.9-1.2-2.4-2.9-2.3c-1,0-0.9-0.7,0.1-0.6
	c1.9,0.1,9,0.1,10.4,0c1-0.1,1.1,0.6,0.1,0.6c-1.5-0.1-2.8,0.1-2.9,2.3C390.2,254.9,390.6,265.4,390.8,269.5z M434.2,273.1
	c-1.6,3.1-1.3,2.5-2.7,0.2l-8.5-17.4l-2,15.4c-0.4,2.5,0.1,3.3,2.7,3.2c0.9,0,0.7,0.8-0.3,0.7c-3.5-0.1-4.5-0.1-7.8,0
	c-0.8,0.1-1-0.7-0.1-0.7c1.8,0.3,2.7-1.2,2.8-3.1l3.7-25.2l0,0c0.3-1.4,1-1.4,1.7,0.2l10.4,21.6l10.4-21.8c0.6-1.3,1.3-1.2,1.5,0.3
	l3.5,23.6c0.3,3.6,1.5,4.2,4.3,4.3c0.8,0,1.3,0.8-1.2,0.7c-3.7-0.2-9.9,0.1-7.7-1c0.2-0.1,0.3-0.6,0.2-1.6l-2.3-17.1L434.2,273.1z
	 M514.6,267.7l-0.4-17.2c0.1-3.4-1.1-3.6-3.3-3.6c-1.1,0-0.6-0.8,0.4-0.6c4.4,0.1,4,0.1,8.4,0c1-0.1,1.3,0.6,0.2,0.6
	c-1.9-0.1-2.7,0.6-2.6,3.3l-0.4,24.1c0,1.8-1,1.2-1.8,0.4l-20.5-20.8l0.4,15.9l0,0c0.2,4.3,0.7,4.3,3.3,4.5c1.1,0,0.9,0.8-0.2,0.7
	c-5.1-0.1-3.9-0.1-8.9,0c-0.9,0.2-1.2-0.7-0.2-0.7c2.7,0,2.9-0.5,2.9-4.9l0.3-22.6c0-2,0.9-1.4,1.9-0.1L514.6,267.7z M619.8,267.7
	l-0.4-17.2c0.1-3.4-1.1-3.6-3.3-3.6c-1.1,0-0.6-0.8,0.4-0.6c4.4,0.1,4,0.1,8.4,0c1-0.1,1.3,0.6,0.2,0.6c-1.9-0.1-2.7,0.6-2.6,3.3
	l-0.4,24.1c0,1.8-1,1.2-1.8,0.4l-20.5-20.8l0.4,15.9l0,0c0.2,4.3,0.7,4.3,3.3,4.5c1.1,0,0.9,0.8-0.2,0.7c-5.1-0.1-3.9-0.1-8.9,0
	c-0.9,0.2-1.2-0.7-0.2-0.7c2.7,0,2.9-0.5,2.9-4.9l0.3-22.6c0-2,0.9-1.4,1.9-0.1L619.8,267.7z M524.7,274.3c-0.8-0.4-0.2-5.5-0.2-6.1
	c0-1.2,1-1.4,0.9-0.3c-0.4,7.4,10.9,7.8,10.9,1.5c0-6.7-11.3-8-11.3-16.6c0-6.6,7.7-8.4,14-6.5c0.9,0.3,0.1,0.3,0.2,5.1
	c0,1.3-0.6,1.7-0.8,0.5c-0.8-6-9.8-5.6-9.8-0.5c0,5.5,11.5,7.2,11.5,16.1C540.1,274.7,532.2,277.8,524.7,274.3z M547.9,249
	c-0.1-2.1-1.2-2.2-2.7-2.3c-0.9,0-0.8-0.8,0.3-0.7c3.6,0.1,6,0.1,9.7,0c1-0.1,1.1,0.7,0.2,0.7c-1.5-0.1-2.6,0.3-2.6,2.3
	c-0.1,3.4-0.2,18.9,0.1,23.2c0,2,1.9,2.1,3.5,2.1c0.9,0,0.7,0.8-0.1,0.7c-5-0.1-6.3-0.1-10.8,0c-0.9,0.1-1.2-0.7-0.2-0.7
	c1.5-0.1,2.4-0.3,2.5-2.1C548.1,269.6,548,250.2,547.9,249z M273.2,13.4c9.9-14.6,30.9-14.3,41.2-0.4c18.9,24.5,45.5,46.9,72.4,61.4
	c16.2,9.6-2.8,31.1-16.7,21.8c-26.3-16.6-56.9-42.8-74.3-66.9c-0.5-0.8-2.1-0.8-2.6,0C276,54.5,246.7,79.9,219.5,97
	c-12.6,8.5-30.1-11.3-15.9-20.4C229.3,61.4,256.2,36.8,273.2,13.4L273.2,13.4z M310.5,173.2c0,1.2,0.9,2.1,2.1,2.1H376
	c15-0.3,15.1,23.5,0,23.2H215.7c-15,0.3-15.1-23.5,0-23.2h9.7c1.2,0,2.1-0.9,2.1-2.1v-60.1c0.3-16.2,25.1-16.2,25.2,0v60.1
	c0,1.2,0.9,2.1,2.1,2.1h26.5c1.2,0,2.1-0.9,2.1-2.1V76.9c0-17.7,26.9-17.6,27,0v32.8h46.3c14.8-0.4,14.8,23,0,22.6l-46.2-0.1V173.2z
	 M443,124.9h113.3c10.3,0,18.6,8.3,18.6,18.6v47c0,12.6-11.8,13.7-16.5,13.7c-5.7,0-10.9-0.5-10.9-8h-78.1c0,7.5-5.4,8.5-10.7,8.5
	c-7.5,0-15.7-4-15.7-13.2V124.9z M547.5,149.5c0-1.4-0.7-2.1-2.1-2.1h-74.1c-1.4,0-2.1,0.7-2.1,2.1V172c0,1.4,0.7,2.1,2.1,2.1h74.1
	c1.4,0,2.1-0.7,2.1-2.1V149.5z M570.7,89.5c0,10.3-8.3,18.6-18.6,18.6L428.8,108c-14.3-0.1-14.4-21.7,0-21.8L542,86.5
	c1.4,0,2.1-0.7,2.1-2.1V35.7l0,0c0-1.4-0.7-2.1-2.1-2.1h-42.6c-5.6,32.8-28.1,101.9-78.8,132.9c-13.1,8-30.7-11.1-16.1-20
	c48.8-29.8,61.7-87,67.4-113.2h-39.3c-14.3,0.4-14.3-22.2,0-21.8h119.5c10.3,0,18.6,8.3,18.6,18.6 M409.3,70.6
	c-14.5,0.2-14.5-22.4,0-22.2h172.3c14.5-0.2,14.5,22.4,0,22.2 M665.8,107.5c10.3,0,18.6,8.3,18.6,18.6v64.5
	c0,15.7-25.7,17.8-25.7,3.2h-32.2c0,15.8-24.2,13.4-24.2-1.6v-66.1c0-10.3,8.3-18.6,18.6-18.6H665.8z M658.7,134.1
	c0-1.4-0.7-2.1-2.1-2.1h-28c-1.4,0-2.1,0.7-2.1,2.1v32.8c0,1.4,0.7,2.1,2.1,2.1h28c1.4,0,2.1-0.7,2.1-2.1V134.1z M739.7,89.5h-89.1
	c-10.3,0-18.6-8.3-18.6-18.6V30.3c0-10.3,8.3-18.6,18.6-18.6l89.1,0c10.3,0,18.6,8.3,18.6,18.6v40.6C758.3,81.2,750,89.5,739.7,89.5
	z M730.1,65.4c1.4,0,2.1-0.7,2.1-2.1v-25c0-1.4-0.7-2.1-2.1-2.1h-71.2c-1.4,0-2.1,0.7-2.1,2.1v25c0,1.4,0.7,2.1,2.1,2.1H730.1z
	 M768.7,107.4c10.3,0,18.6,8.3,18.6,18.6v64.7c0,15.1-25.9,18-25.9,3h-34.1c0,15.7-24.4,13.2-24.4-1.6l-0.2-66
	c0-10.3,8.3-18.7,18.6-18.7H768.7z M727.3,166.9c0,1.4,0.7,2.1,2.1,2.1h29.9c1.4,0,2.1-0.7,2.1-2.1v-32.8c0-1.4-0.7-2.1-2.1-2.1
	h-29.9c-1.4,0-2.1,0.7-2.1,2.1V166.9z M42.2,116.1c-10,0-18.1-8.1-18.1-18.1V65.6c0-10,8.1-18.1,18.1-18.1h109.1
	c10,0,18.1,8.1,18.1,18.1V98c0,10-8.1,18.1-18.1,18.1 M107.9,158.7L107.9,158.7c0,0.6,0.2,1,0.6,1.5c0.4,0.4,0.9,0.6,1.5,0.6
	l12.6-0.8c0.7,0,0.9-0.3,0.6-1c-2.1-4.9,0.2-9.9,5.1-11.2c4.1-1.1,9.1-3.1,10.9,0.4c1.9,3.5,17.8,33.8,11.2,37.2
	c-9.7,4.9-16,2.9-19.1-4.5c-0.3-0.8-0.8-1.2-1.7-1c-6.3,0.4-30.6,2-72.8,4.6c-14.7,0.6-16-20.4-1.9-21.4l26.8-1
	c1.4-0.1,2.1-0.9,2.1-2.3l-0.1-93.6c0-1.4-0.7-2.1-2.1-2.1H50.9c-1.4,0-2.1,0.7-2.1,2.1v5.7c0,1.4,0.7,2.1,2.1,2.1l90.5,0
	c1.4,0,2.1-0.7,2.1-2.1v-5.7c0-1.4-0.7-2.1-2.1-2.1H110c-1.4,0-2.1,0.7-2.1,2.1 M37.2,145.9c-1.2,0-2.1,0.9-2.1,2.1l0,43.9
	c0,16.3-24.4,16.6-24.4,0.3v-49.1c0-10.2,8.2-18.4,18.4-18.4l137,0c10.2,0,18.4,8.2,18.4,18.4V183c0,21.5-21.1,21.4-25.2,20
	c-15.3-5.5-20.4-25.3-7.4-20.3c7.6,2.9,7.6-0.7,7.6-1.7V148c0-1.4-0.7-2.1-2.1-2.1 M141.4,99.4c1.4,0,2.1-0.7,2.1-2.1v-5.7
	c0-1.4-0.7-2.1-2.1-2.1H50.9c-1.4,0-2.1,0.7-2.1,2.1c0,0,0,5.7,0,5.7c0,1.4,0.7,2.1,2.1,2.1 M70.1,12.4c0-5-4-9-9-9h-7c-5,0-9,4-9,9
	v22.9c0,5,4,9,9,9h7c5,0,9-4,9-9 M179,35.3c13.9,0,13.9-21.3,0-21.3H13.1c-13.9,0-13.9,21.3,0,21.3 M146.3,12.4c0-5-4-9-9-9h-7
	c-5,0-9,4-9,9v22.9c0,5,4,9,9,9h7c5,0,9-4,9-9"/>
</svg>
