<svg width="551" height="66" viewBox="0 0 551 66" fill="none" xmlns="http://www.w3.org/2000/svg">
<path d="M35.7201 22.1099C35.3801 22.8099 34.1901 23.0699 32.1601 22.8999C30.1201 22.7299 28.7701 22.6399 28.0901 22.6399L27.0701 28.4099C27.2401 27.8899 27.6601 27.2699 28.3401 26.5699C28.8501 25.6999 29.2701 25.2599 29.6101 25.2599C30.2901 25.2599 31.3101 25.8699 32.6601 27.0999C34.1901 28.3199 35.0401 29.2899 35.2101 29.9799C35.0401 30.1499 34.8701 30.3299 34.7001 30.4999C34.5301 30.6699 34.3601 30.8499 34.1901 31.0199H26.5501C26.0401 32.9399 25.4501 34.5999 24.7701 35.9999C24.0901 37.3999 22.8201 38.5299 20.9501 39.4099L21.9701 39.9299C22.3101 39.9299 22.6501 40.0999 22.9901 40.4499C23.8401 39.0499 24.6001 37.9099 25.2801 37.0399C25.9601 35.9899 26.5501 34.8499 27.0601 33.6299C27.2301 33.2799 27.4001 33.1099 27.5701 33.1099C27.5701 32.9399 27.7401 32.9399 28.0801 33.1099C28.7601 33.1099 29.8601 33.4599 31.3901 34.1599C32.9201 35.0399 33.8501 35.9099 34.1901 36.7799C34.0201 37.4799 33.6801 37.9199 33.1701 38.0899C32.6601 38.2699 32.1501 38.3499 31.6401 38.3499H30.6201C29.7701 39.0499 28.8401 39.6599 27.8201 40.1899C26.6301 40.8899 25.7001 41.4999 25.0201 42.0199C25.5301 42.1999 25.8701 42.5399 26.0401 43.0699C26.3801 43.5899 26.5501 44.2899 26.5501 45.1699C26.3801 45.6899 26.1301 46.1299 25.7901 46.4799C25.2801 46.8299 24.6901 47.0899 24.0101 47.2699C22.6501 47.0999 21.4601 46.1299 20.4501 44.3899C19.4301 42.6399 18.5801 41.1599 17.9001 39.9299H16.3701C15.8601 37.1299 15.1801 35.4699 14.3301 34.9499C13.3101 34.2499 12.8001 33.6399 12.8001 33.1199L13.3101 32.5999C14.1601 32.5999 15.0101 32.6899 15.8601 32.8599C16.7101 32.8599 17.5601 32.9499 18.4101 33.1199C19.2601 33.1199 19.9401 32.9499 20.4501 32.5999C20.7901 32.2499 21.1301 31.7299 21.4701 31.0299H8.23008C8.23008 32.0799 7.98008 32.9499 7.47008 33.6499C7.13008 34.1799 6.37008 34.5299 5.18008 34.6999C4.84008 34.6999 4.33008 34.6099 3.65008 34.4399C2.97008 34.2699 2.63008 33.9999 2.63008 33.6499C2.63008 32.9499 3.05008 31.1999 3.90008 28.4099C4.58008 25.6099 5.17008 23.8599 5.68008 23.1699L1.61008 23.6899L0.590078 21.0699L1.10008 20.5499H1.61008L5.68008 21.0699C5.85008 19.4999 6.10008 17.9199 6.44008 16.3499C6.61008 14.7799 6.86008 13.1999 7.20008 11.6299C6.69008 11.9799 5.76008 12.6799 4.40008 13.7299C3.04008 14.9499 1.94008 15.6499 1.09008 15.8299H0.580078V15.3099L1.09008 14.7899C2.79008 12.8699 4.14008 10.6799 5.16008 8.22987C6.35008 5.77987 7.20008 3.41987 7.71008 1.14987C7.71008 0.799872 7.88008 0.629883 8.22008 0.629883C8.90008 0.629883 10.0901 0.979871 11.7801 1.67987C13.4801 2.37987 14.5001 3.07988 14.8301 3.77988C14.6601 4.47988 14.4101 4.91987 14.0701 5.08987C13.7301 5.25987 13.3101 5.34988 12.8001 5.34988C12.4601 5.34988 12.2101 5.43988 12.0401 5.60988C11.8701 5.78988 11.7801 6.04987 11.7801 6.39987H20.9401C21.2801 5.86987 22.0401 4.99988 23.2301 3.77988C24.2501 2.37988 25.0101 1.67987 25.5201 1.67987C25.8601 1.67987 26.9601 2.37988 28.8301 3.77988C30.7001 5.17988 31.8001 6.22987 32.1401 6.92987C31.9701 7.27987 31.7201 7.53988 31.3801 7.71988C31.0401 7.88988 30.7901 7.97987 30.6201 7.97987H10.2701C9.93008 8.32987 9.59008 8.76987 9.25008 9.28987C8.74008 9.63987 8.40008 10.0799 8.23008 10.5999C8.74008 10.7699 9.25008 11.0399 9.76008 11.3899C10.2701 11.5699 10.7801 11.8299 11.2901 12.1799H23.0001C23.3401 11.6599 23.9301 10.9599 24.7801 10.0799C25.6301 9.02988 26.2201 8.50987 26.5601 8.50987C26.9001 8.85987 27.6601 9.64987 28.8501 10.8699C30.2101 12.2699 30.9701 13.5799 31.1401 14.7999C30.9701 15.3199 30.7201 15.6699 30.3801 15.8499C30.0401 16.1999 29.6201 16.3699 29.1101 16.3699C28.6001 16.3699 28.2601 16.9799 28.0901 18.1999C27.9201 19.4199 27.9201 20.3899 28.0901 21.0799H28.6001C28.6001 20.5599 29.0201 19.7699 29.8701 18.7199C30.5501 17.4999 31.1401 16.8799 31.6501 16.8799L32.1601 17.3999C32.1601 17.7499 32.7501 18.5399 33.9401 19.7599C34.9601 20.8099 35.5501 21.5999 35.7201 22.1199V22.1099ZM25.5401 58.2999C25.5401 58.4699 25.3701 58.7399 25.0301 59.0899C24.8601 59.4399 24.5201 59.6999 24.0101 59.8799C23.6701 59.6999 23.3301 59.5299 22.9901 59.3599C22.6501 59.0099 22.3101 58.8399 21.9701 58.8399L21.4601 59.3599C20.1001 59.8799 18.7401 60.4999 17.3901 61.1999C16.0301 61.7199 14.6701 62.3399 13.3201 63.0299C11.9601 63.1999 10.4301 63.4699 8.74008 63.8199C7.21008 64.1699 5.69008 64.4299 4.16008 64.6099C3.99008 64.4399 3.90008 64.2599 3.90008 64.0899C3.73008 63.9099 3.65008 63.7399 3.65008 63.5699C3.48008 63.3999 3.48008 63.3099 3.65008 63.3099C3.65008 63.1399 3.82008 63.0499 4.16008 63.0499C5.52008 62.5299 6.87008 61.9999 8.23008 61.4799C9.59008 61.1299 10.9401 60.5999 12.3001 59.9099C13.8301 59.0299 15.1801 58.0699 16.3701 57.0299C17.7301 55.9799 18.9201 54.8399 19.9301 53.6199H20.4401C20.9501 53.7999 21.8801 54.4099 23.2401 55.4599C24.6001 56.5099 25.3601 57.4699 25.5301 58.3399L25.5401 58.2999ZM58.6301 50.9599C58.4601 51.6599 58.2101 52.2699 57.8701 52.7999C57.3601 53.1499 56.7701 53.4099 56.0901 53.5899C54.7301 53.4199 53.6301 52.5399 52.7801 50.9699C51.9301 49.3999 51.1701 48.1699 50.4901 47.2999C47.6101 47.8199 44.8001 48.3499 42.0901 48.8699C39.2001 49.5699 36.4001 50.0899 33.6901 50.4399V63.0299C33.5201 63.5499 33.1001 63.9899 32.4201 64.3399C31.7401 64.6899 31.1501 64.9499 30.6401 65.1299C30.3001 65.1299 29.7901 64.9599 29.1101 64.6099C28.4301 64.4399 28.0901 64.0899 28.0901 63.5599V51.4999C26.2201 51.6699 24.3601 51.8499 22.4901 52.0199C20.4501 52.1999 18.5901 52.3699 16.8901 52.5399L11.2901 53.0599C10.2701 53.0599 9.76008 53.6699 9.76008 54.8899C9.76008 55.9399 9.25008 56.5499 8.23008 56.7299C7.38008 56.3799 6.62008 55.0699 5.94008 52.7999C5.43008 50.5299 5.18008 48.8699 5.18008 47.8199C5.18008 47.2999 5.26008 46.9499 5.43008 46.7699C5.60008 46.5999 5.85008 46.5999 6.19008 46.7699L10.7701 47.2899L20.9501 47.8099H26.0401C28.5901 46.2399 30.9601 44.3999 33.1701 42.2999C35.3701 40.1999 37.4101 37.8399 39.2801 35.2199L40.3001 34.1699C40.3001 33.8199 40.4701 33.6399 40.8101 33.6399C41.4901 33.6399 42.5901 34.1699 44.1201 35.2099C45.6501 36.2599 46.5801 37.1299 46.9201 37.8299C46.7501 38.3499 46.5001 38.7099 46.1601 38.8799C45.8201 39.2299 45.5701 39.3999 45.4001 39.3999L43.3601 38.8799L42.8501 39.3999C40.9801 40.6199 39.2001 41.9399 37.5001 43.3299C35.8001 44.7299 33.8501 46.0399 31.6501 47.2599C34.7001 47.2599 37.6701 47.0899 40.5601 46.7399C43.6101 46.3899 46.5801 45.8699 49.4701 45.1699C48.9601 44.8199 48.2801 44.2099 47.4301 43.3299C46.4101 42.4599 45.9001 41.8499 45.9001 41.4999L46.4101 40.9799C48.1101 40.9799 50.2301 41.8599 52.7701 43.5999C55.1501 45.1699 56.7601 46.7499 57.6101 48.3199C57.7801 48.6699 57.9501 49.1099 58.1201 49.6299C58.2901 49.9799 58.4601 50.4199 58.6301 50.9399V50.9599ZM22.9901 22.6399H10.2701C9.93008 23.6899 9.68008 24.7399 9.51008 25.7899C9.17008 26.8399 8.92008 27.8899 8.75008 28.9399H15.8801C15.5401 28.5899 15.2901 28.1499 15.1201 27.6299C14.9501 26.9299 14.7001 26.4899 14.3601 26.3199C14.1901 25.9699 14.0201 25.6199 13.8501 25.2699C13.5101 24.7499 13.3401 24.3999 13.3401 24.2199L14.3601 23.6999C14.8701 23.8799 15.7201 24.1399 16.9101 24.4899C17.9301 24.8399 18.7801 25.2799 19.4601 25.7999L19.9701 27.8999L19.4601 28.9499H22.0101C22.1801 27.8999 22.3501 26.8499 22.5201 25.7999C22.5201 24.7499 22.6901 23.6999 23.0301 22.6499L22.9901 22.6399ZM23.5001 14.2499H11.8001C11.4601 15.2999 11.2901 16.4399 11.2901 17.6599C11.1201 18.7099 10.9501 19.8499 10.7801 21.0699H17.4001C16.8901 20.5499 16.3001 19.5899 15.6201 18.1899C14.7701 16.7899 14.3501 16.0099 14.3501 15.8299V15.3099C14.1801 15.1399 14.1801 15.0499 14.3501 15.0499C14.3501 14.8799 14.5201 14.7899 14.8601 14.7899C15.3701 14.7899 16.3001 15.1399 17.6601 15.8399C18.8501 16.5399 19.7801 17.2399 20.4601 17.9399L20.9701 20.5599C20.6301 20.5599 20.4601 20.7299 20.4601 21.0799H23.0101L23.5201 14.2599L23.5001 14.2499ZM61.6801 31.0299L60.6601 32.0799C59.3001 32.2599 58.2801 32.5999 57.6101 33.1299C56.9301 33.4799 56.4201 34.3499 56.0801 35.7499H55.5701C54.0401 35.3999 52.1801 34.3499 49.9701 32.5999C47.7601 30.6799 46.2401 29.0999 45.3901 27.8799C44.2001 28.9299 42.3401 30.1499 39.7901 31.5499C37.4101 32.7699 35.3801 33.4699 33.6801 33.6499L33.4301 33.3899L33.1801 33.1299C33.5201 32.7799 33.6901 32.4299 33.6901 32.0799C35.5601 31.0299 37.2501 29.9799 38.7801 28.9299C40.3101 27.8799 41.8301 26.6599 43.3601 25.2599C42.0001 23.3399 40.9801 21.4099 40.3101 19.4899C39.6301 17.5699 38.9501 15.4699 38.2701 13.1999C37.7601 13.7199 37.0001 14.5099 35.9801 15.5599C34.9601 16.6099 34.2001 17.2199 33.6901 17.3999L33.1801 16.8799L33.6901 15.8299C34.2001 14.9599 34.6201 13.9899 34.9601 12.9499C35.4701 12.0799 35.8901 11.1099 36.2301 10.0699C36.4001 9.19989 36.6501 8.22988 36.9901 7.18988C37.1601 6.31988 37.4101 5.35988 37.7501 4.30988C37.5801 3.78988 37.5801 3.16987 37.7501 2.47987C37.7501 1.60987 37.9201 1.16988 38.2601 1.16988C39.1101 1.16988 40.5501 1.51988 42.5901 2.21988C44.4601 2.73988 45.5601 3.61987 45.9001 4.83987C45.7301 5.53987 45.2201 5.88988 44.3701 5.88988C43.3501 5.88988 42.8401 6.06988 42.8401 6.41988C42.3301 6.58988 41.9901 6.93988 41.8201 7.46988C41.6501 7.81988 41.4801 8.16988 41.3101 8.51988H49.9601C50.4701 7.99988 51.2301 7.20988 52.2501 6.15988C53.1001 4.93988 53.8601 4.31989 54.5401 4.31989C54.8801 4.31989 55.9801 5.01988 57.8501 6.41988C59.7201 7.81988 60.8201 8.86989 61.1601 9.56989C60.8201 10.2699 59.9701 10.6199 58.6101 10.6199H56.0601C55.3801 12.7199 54.4501 15.1699 53.2601 17.9599C51.9001 20.7599 50.4601 23.0299 48.9301 24.7799C50.4601 25.9999 52.3201 27.1399 54.5301 28.1899C56.7401 29.0699 58.9401 29.8499 61.1501 30.5499L61.6601 31.0699L61.6801 31.0299ZM56.5901 61.9799L56.0801 63.5499L54.5501 64.5999C54.2101 64.2499 53.8701 64.0799 53.5301 64.0799C52.8501 63.7299 51.0701 62.5099 48.1801 60.4099C45.1301 58.3099 43.0001 56.9099 41.8201 56.2099C41.3101 55.8599 40.6301 55.3399 39.7801 54.6399C38.7601 54.1199 38.2501 53.5899 38.2501 53.0699L38.7601 52.5499C41.1401 52.5499 44.6101 53.4199 49.2001 55.1699C53.6101 56.9199 56.0701 59.1899 56.5801 61.9899L56.5901 61.9799ZM49.9701 10.5799H40.3001L39.7901 11.0999C40.4701 12.8499 41.3201 14.5999 42.3401 16.3499C43.3601 18.0999 44.5501 19.8499 45.9001 21.5899C47.0901 19.6699 48.0201 17.8299 48.7001 16.0799C49.2101 14.3299 49.6301 12.4999 49.9701 10.5699V10.5799Z" fill="#12A095"/>
<path d="M125.83 29.9796C125.66 30.4996 125.41 30.8596 125.07 31.0296C124.73 31.3796 124.48 31.5496 124.31 31.5496H112.09V40.4696H112.6C112.94 39.9496 113.62 39.0696 114.64 37.8496C115.66 36.4496 116.51 35.7496 117.19 35.7496C121.6 38.5496 123.81 40.4696 123.81 41.5196C123.64 41.6896 123.39 41.8696 123.05 42.0396C122.71 42.2196 122.46 42.3896 122.29 42.5596H98.3601V49.8996H114.14C114.48 49.3796 115.16 48.4996 116.18 47.2796C117.2 45.8796 118.05 45.1796 118.73 45.1796C123.48 47.9796 125.86 49.8996 125.86 50.9496C125.69 51.1296 125.44 51.2996 125.1 51.4696C124.76 51.6396 124.51 51.8196 124.34 51.9896H98.3801V62.9996C98.2101 63.5196 97.7901 63.9596 97.1101 64.3096C96.4301 64.6596 96.0101 64.9196 95.8401 65.0996C95.1601 65.0996 94.5701 64.9296 94.0601 64.5796C93.5501 64.4096 93.3001 64.0596 93.3001 63.5296V51.9896H71.9201C71.0701 51.9896 70.3901 52.0796 69.8801 52.2496C69.2001 52.2496 68.5201 52.3396 67.8401 52.5096C67.5001 52.3396 67.2501 51.8996 67.0801 51.1996C66.9101 50.4996 66.8301 50.0596 66.8301 49.8896C66.8301 49.5396 66.9101 49.3696 67.0801 49.3696C67.0801 49.1996 67.1601 49.1996 67.3401 49.3696L71.9201 49.8896H93.3001V42.5496H74.4601C73.6101 42.5496 72.9301 42.6396 72.4201 42.8096C71.7401 42.8096 71.0601 42.8996 70.3801 43.0696C70.0401 42.8996 69.7901 42.4596 69.6201 41.7596C69.4501 41.0596 69.3701 40.6196 69.3701 40.4496L69.8801 39.9296L79.0401 40.4496V31.5296H71.4001C70.5501 31.5296 69.7901 31.6196 69.1101 31.7896C68.4301 31.7896 67.8401 31.8796 67.3301 32.0496C66.9901 31.8796 66.7401 31.4396 66.5701 30.7396C66.4001 30.0396 66.3201 29.5996 66.3201 29.4296L66.8301 28.9096L71.4101 29.4296H79.0501V19.9896H73.9601C73.2801 19.9896 72.6901 20.0796 72.1801 20.2496C71.5001 20.2496 70.9101 20.3396 70.4001 20.5096C70.0601 20.3396 69.7201 19.8996 69.3801 19.1996C69.0401 18.4996 68.8701 18.0596 68.8701 17.8896C68.8701 17.5396 68.9501 17.3696 69.1201 17.3696C69.2901 17.1996 69.5401 17.1996 69.8801 17.3696L73.9501 17.8896H111.11C111.45 17.3696 112.13 16.4896 113.15 15.2696C114 13.8696 114.68 13.1696 115.19 13.1696C119.94 15.9696 122.32 17.7196 122.32 18.4096C122.15 18.9296 121.9 19.2896 121.56 19.4596C121.22 19.8096 120.97 19.9796 120.8 19.9796H112.15V29.4196H114.19C114.53 28.8996 115.21 28.0196 116.23 26.7996C117.25 25.3996 118.1 24.6996 118.78 24.6996C123.53 27.4996 125.91 29.2496 125.91 29.9396L125.83 29.9796ZM124.3 8.4696C124.13 8.8196 123.88 9.07959 123.54 9.25959C123.2 9.42959 122.95 9.5196 122.78 9.5196H107.51C107.51 11.6196 107.42 13.3696 107.26 14.7596C107.09 15.9796 105.99 16.6796 103.95 16.8596C103.61 16.8596 103.19 16.7696 102.68 16.5996C102.17 16.4296 101.92 16.1596 101.92 15.8096V9.5196H89.1901V14.7596C89.1901 15.9796 88.1701 16.6796 86.1401 16.8596C85.4601 16.8596 84.9501 16.7696 84.6101 16.5996C84.2701 16.4296 84.1001 16.1596 84.1001 15.8096V9.5196H72.3901C71.5401 9.5196 70.8601 9.6096 70.3501 9.7796C69.6701 9.7796 68.9901 9.86959 68.3101 10.0396H67.8001C67.6301 9.68959 67.5501 9.24959 67.5501 8.72959C67.3801 8.02959 67.3001 7.58959 67.3001 7.41959C67.3001 7.06959 67.3801 6.89959 67.5501 6.89959L67.8001 7.41959L72.3801 7.9396H84.0901V0.599603C85.2801 0.429603 86.8001 0.599592 88.6701 1.11959C90.3701 1.46959 91.3801 2.1696 91.7201 3.2196C91.5501 3.5696 91.3001 3.9196 90.9601 4.2696C90.6201 4.6196 90.2001 4.9696 89.6901 5.3196L89.1801 5.83959V7.9396H101.91V1.11959L102.42 0.599603H102.93C103.78 0.429603 105.14 0.509597 107 0.859597C108.7 1.0296 109.71 1.8196 110.05 3.2196C109.88 3.5696 109.63 3.9196 109.29 4.2696C108.95 4.6196 108.53 4.9696 108.02 5.3196L107.51 5.83959V7.9396H113.11C113.45 7.2396 114.13 6.18959 115.15 4.78959C116.17 3.38959 117.02 2.6896 117.7 2.6896C122.11 5.8396 124.32 7.7596 124.32 8.4596L124.3 8.4696ZM93.2501 29.4496V20.0096H84.6001V29.4496H93.2501ZM93.2501 40.4696V31.5496H84.6001V40.4696H93.2501ZM107 29.4496V20.0096H98.3501V29.4496H107ZM107 40.4696V31.5496H98.3501V40.4696H107Z" fill="#12A095"/>
<path d="M163.5 8.99994C163.5 9.34994 163.33 9.60993 162.99 9.78993C162.82 9.96993 162.48 10.0499 161.97 10.0499H137.03L133.47 10.5699C132.96 10.3999 132.54 9.95993 132.2 9.25993C132.03 8.55993 131.95 8.11993 131.95 7.94993H132.97C133.65 7.94993 134.33 8.03994 135.01 8.20994C135.52 8.20994 136.2 8.29994 137.05 8.46994H144.69V3.74994C144.52 3.57994 144.52 3.13994 144.69 2.43994C144.69 1.56994 144.86 1.12994 145.2 1.12994C146.05 0.959941 147.58 1.12993 149.78 1.64993C151.82 1.99993 153 2.69994 153.34 3.74994C153.17 4.79994 152.58 5.49994 151.56 5.84994C150.37 6.02994 149.78 6.37993 149.78 6.89993V8.46994H153.34C153.68 7.76994 154.36 6.80993 155.38 5.58993C156.23 4.36993 156.91 3.75993 157.42 3.75993C158.1 4.10993 159.2 4.89993 160.73 6.11993C162.26 7.33993 163.19 8.30994 163.53 8.99994H163.5ZM161.97 36.7999C161.29 37.6799 159.42 38.6399 156.37 39.6799C153.32 40.8999 151.11 41.6899 149.75 42.0399C149.75 44.8399 149.5 46.9399 148.99 48.3299C148.48 49.8999 146.7 50.9499 143.64 51.4799V50.4299C143.47 49.0299 142.79 47.9799 141.6 47.2799C140.41 46.5799 139.73 46.0599 139.56 45.7099L140.58 45.1899H144.14L144.65 43.6199C143.46 43.6199 142.36 43.7099 141.34 43.8799C140.15 44.0599 139.05 44.3199 138.03 44.6699C137.35 45.0199 137.01 45.6299 137.01 46.4999C137.01 47.5499 136.5 48.1599 135.48 48.3399C134.63 47.9899 133.78 46.7699 132.93 44.6699C132.25 42.5699 131.91 41.1699 131.91 40.4699C132.08 39.9499 132.84 39.5999 134.2 39.4199C135.56 39.2499 136.49 39.2499 137 39.4199H144.64V35.2199C144.47 35.0499 144.47 34.6099 144.64 33.9099C144.64 33.0399 144.81 32.5999 145.15 32.5999L148.71 33.1199C149.39 32.4199 149.98 31.8099 150.49 31.2799C151.17 30.5799 151.76 29.9699 152.27 29.4399H138.02C137.17 29.4399 136.49 29.5299 135.98 29.6999C135.3 29.6999 134.62 29.7899 133.94 29.9599L133.43 29.4399L132.92 27.3399V26.8099C133.77 26.8099 134.62 26.8999 135.47 27.0699C136.32 27.0699 137.17 27.1599 138.02 27.3299H152.27L154.82 25.2299C154.31 24.8799 154.06 24.5299 154.06 24.1799C154.06 23.6599 154.14 23.3099 154.32 23.1299H141.08V24.1799L140.57 25.7499L138.02 26.2699L136.49 25.7499C136.15 25.3999 135.98 25.0499 135.98 24.6999V11.5899L136.49 11.0699C137.17 11.5899 137.93 12.0299 138.78 12.3799C139.46 12.8999 140.22 13.3399 141.07 13.6899H154.31C154.31 13.3399 154.65 12.8199 155.33 12.1199C156.01 11.4199 156.52 11.0699 156.86 11.0699C157.71 11.0699 158.64 11.6799 159.66 12.9099C160.68 14.1299 161.27 15.2699 161.44 16.3199C161.27 16.4899 161.02 16.6699 160.68 16.8399C160.34 17.0199 160.09 17.1899 159.92 17.3599C159.24 18.4099 159.16 19.8999 159.66 21.8199C160.17 23.7399 159.24 25.0599 156.86 25.7499C157.37 26.4499 158.05 27.3199 158.9 28.3699C159.75 29.2499 160.26 30.1199 160.43 30.9899C160.26 31.5099 160.01 31.9499 159.67 32.2999C159.33 32.6499 158.91 32.9099 158.4 33.0899C157.89 32.9199 157.47 32.7399 157.13 32.5699C156.62 32.3999 156.2 32.2199 155.86 32.0499C155.18 32.0499 154.5 32.3099 153.82 32.8399C152.97 33.3599 152.29 33.7999 151.78 34.1499C151.95 34.1499 152.12 34.3199 152.29 34.6699C152.46 35.0199 152.63 35.3699 152.8 35.7199C152.63 36.4199 152.12 36.8599 151.27 37.0299C150.25 37.3799 149.74 37.8199 149.74 38.3399V38.8599C151.44 38.5099 153.47 37.9899 155.85 37.2899C158.4 36.5899 160.26 36.2399 161.45 36.2399L161.96 36.7599L161.97 36.7999ZM141.1 52.5399C141.1 54.6399 140.59 57.0899 139.57 59.8799C138.55 62.6799 136.86 64.2499 134.48 64.5999C133.97 64.5999 133.55 64.4299 133.21 64.0799C132.87 63.8999 132.62 63.5599 132.45 63.0299C132.11 62.6799 131.94 62.3299 131.94 61.9799C131.94 60.5799 132.62 59.4399 133.98 58.5699C135.34 57.6899 136.53 56.9099 137.54 56.2099C138.22 55.3399 138.73 54.5499 139.07 53.8499C139.24 52.9799 139.75 52.1899 140.6 51.4899C140.77 51.3199 140.85 51.3199 140.85 51.4899C141.02 51.6599 141.11 52.0099 141.11 52.5399H141.1ZM154.34 21.5899V15.8199H141.1V21.5899H154.34ZM156.89 60.3999C156.89 61.0999 156.72 61.8899 156.38 62.7599C155.87 63.4599 155.19 63.8999 154.34 64.0699C153.49 63.8899 152.81 63.4599 152.3 62.7599C151.96 62.0599 151.79 61.4499 151.79 60.9199C151.79 59.8699 151.87 58.9099 152.04 58.0399C152.04 57.1599 152.12 56.3799 152.3 55.6799C152.13 54.7999 152.04 54.1099 152.04 53.5799C151.87 52.8799 151.79 52.3599 151.79 52.0099L152.3 51.4899C153.32 51.6599 154.34 52.8899 155.35 55.1599C156.2 57.4299 156.71 59.1799 156.88 60.3999H156.89ZM192.53 47.2899C192.36 47.9899 192.11 48.5099 191.77 48.8599C191.26 49.2099 190.67 49.3799 189.99 49.3799C188.63 49.2099 187.19 48.3299 185.66 46.7599C184.13 45.3599 183.03 43.9599 182.35 42.5599C180.82 38.8899 179.97 34.5199 179.8 29.4499C179.63 24.3799 179.63 19.8299 179.8 15.8099H174.71C174.71 18.0799 174.54 20.4399 174.2 22.8899C173.86 25.3399 173.35 27.6999 172.67 29.9699C173.69 31.0199 174.88 32.5099 176.23 34.4299C177.42 36.1799 178.1 37.8399 178.27 39.4099C178.1 40.1099 177.85 40.7199 177.51 41.2499C177 41.5999 176.41 41.8599 175.73 42.0399C174.37 41.8699 173.27 41.0799 172.42 39.6799C171.57 38.1099 170.98 36.7999 170.64 35.7499C168.77 38.8999 166.4 41.6099 163.51 43.8799C160.62 46.1499 157.4 47.6399 153.84 48.3399H152.82L153.33 47.2899C153.5 46.9399 153.84 46.6799 154.35 46.4999C154.69 46.3299 155.03 46.2399 155.37 46.2399C158.25 44.4899 160.8 42.2199 163.01 39.4199C165.39 36.4499 166.91 33.2999 167.59 29.9799C166.91 28.7599 166.15 27.7099 165.3 26.8299C164.45 25.7799 163.52 24.9099 162.5 24.2099V23.6899L163.01 22.6399C163.52 22.6399 164.45 23.1599 165.81 24.2099C167 25.0899 167.93 25.7799 168.61 26.3099C168.78 24.5599 168.95 22.8099 169.12 21.0599C169.29 19.3099 169.46 17.5599 169.63 15.8199H167.59C166.91 15.8199 166.23 15.9999 165.55 16.3399C164.87 16.5099 164.19 16.6899 163.51 16.8599V16.3399L163 13.7199H163.51L168.6 14.2399H169.62V1.64993C169.62 1.29993 169.7 1.12994 169.88 1.12994C169.88 0.959941 169.96 0.959941 170.13 1.12994C170.98 0.959941 172.42 1.03994 174.46 1.38994C176.33 1.56994 177.43 2.17993 177.77 3.22993C177.6 4.10993 177.18 4.62994 176.5 4.79994C175.65 4.96994 175.23 5.31994 175.23 5.84994V14.2399H179.3C179.47 13.7199 179.98 13.0999 180.83 12.3999C181.51 11.5299 182.02 11.0899 182.36 11.0899C183.04 11.2699 184.06 12.0499 185.41 13.4499C186.94 15.0199 187.79 16.1599 187.96 16.8599C187.79 17.7399 187.28 18.2599 186.43 18.4299C185.41 18.4299 184.9 18.9499 184.9 19.9999L184.39 28.3899C184.22 29.6099 184.39 31.5399 184.9 34.1599C185.24 36.7799 185.92 38.5299 186.94 39.3999C187.62 39.0499 188.3 37.7399 188.98 35.4699C189.66 33.0199 190.34 31.7099 191.02 31.5399L192.04 32.0599C191.87 33.6299 191.62 35.2099 191.28 36.7799C190.77 38.3499 190.52 39.9299 190.52 41.4999C190.52 42.8999 190.86 43.9499 191.54 44.6499C192.05 45.3499 192.39 46.2199 192.56 47.2699L192.53 47.2899ZM173.19 60.3999C173.19 61.0999 173.02 61.8899 172.68 62.7599C172.34 63.4599 171.83 63.8999 171.15 64.0699C169.45 63.8899 168.43 62.9299 168.1 61.1899C167.76 59.6199 167.59 58.1299 167.59 56.7299C167.42 55.8499 167.25 54.9799 167.08 54.1099C166.91 53.2399 166.74 52.5399 166.57 52.0099C166.4 51.6599 166.4 51.3999 166.57 51.2199C166.57 51.0499 166.74 50.9599 167.08 50.9599C168.1 51.1399 169.37 52.4499 170.9 54.8899C172.26 57.1599 173.02 58.9999 173.19 60.3999ZM189.99 61.9699C189.82 62.6699 189.57 63.2799 189.23 63.8099C188.72 64.1599 188.13 64.4199 187.45 64.5999C185.92 64.4299 184.9 63.3799 184.4 61.4499C183.89 59.6999 183.55 58.1299 183.38 56.7299C183.04 55.8499 182.62 54.8099 182.11 53.5799C181.6 52.5299 181.35 51.8299 181.35 51.4799V50.9599L181.86 50.4399C183.39 51.1399 185.08 52.7099 186.95 55.1599C188.82 57.6099 189.83 59.8799 190 61.9799L189.99 61.9699Z" fill="#323333"/>
<path d="M257.17 48.8598C257 50.0798 256.66 51.3898 256.15 52.7898C255.47 54.0098 255.13 55.3198 255.13 56.7198C255.13 57.9398 255.38 58.8198 255.89 59.3398C256.23 59.8598 256.48 60.5598 256.65 61.4398C256.48 62.1398 256.23 62.6598 255.89 63.0098C255.38 63.3598 254.79 63.5298 254.11 63.5298C250.38 63.1798 246.81 61.6098 243.42 58.8098C240.2 55.8398 237.65 52.8698 235.78 49.8898C234.25 51.1098 232.73 52.4298 231.2 53.8198C229.84 55.2198 228.31 56.5298 226.62 57.7498C225.26 58.6198 223.23 59.7598 220.51 61.1598C217.79 62.5598 215.76 63.3498 214.4 63.5198L212.87 62.9998L213.89 61.9498C217.11 60.1998 220.42 58.1898 223.82 55.9198C227.04 53.6498 229.84 51.1098 232.22 48.3098C232.39 47.7798 232.64 47.3498 232.98 46.9998C233.15 46.6498 233.4 46.3898 233.74 46.2098C231.87 41.1398 230.43 36.1598 229.41 31.2598C228.39 26.3698 227.8 21.3798 227.63 16.3098H206.25V27.8498H216.94C217.28 27.3298 217.87 26.6298 218.72 25.7498C219.57 24.6998 220.16 24.1798 220.5 24.1798C220.84 24.1798 221.77 24.9698 223.3 26.5398C224.83 28.1098 225.76 29.4198 226.1 30.4698C225.93 31.3398 225.42 31.7798 224.57 31.7798C223.55 31.6098 223.04 32.0398 223.04 33.0898C222.87 35.8898 222.62 39.3798 222.28 43.5798C221.94 47.5998 220.84 50.5698 218.97 52.4998C217.78 53.1998 216.59 53.7198 215.41 54.0698C214.05 54.4198 212.86 54.7698 211.85 55.1198L211.34 50.9198C210.83 50.2198 210.15 49.5198 209.3 48.8198C208.28 47.9498 207.77 47.4198 207.77 47.2498C207.77 46.8998 207.85 46.7298 208.02 46.7298C208.19 46.5598 208.44 46.5598 208.78 46.7298C209.46 46.7298 210.31 46.9098 211.33 47.2498C212.18 47.4198 213.2 47.5998 214.38 47.7698H214.89C216.25 46.0198 217.1 43.1398 217.44 39.1198C217.78 35.0998 217.95 32.0398 217.95 29.9398H206.24C206.07 35.7098 205.48 41.6498 204.46 47.7698C203.44 53.8898 200.98 59.3098 197.08 64.0298H195.55V63.5098C195.55 63.1598 195.72 62.8098 196.06 62.4598C198.44 56.5098 199.88 50.3998 200.39 44.0998C200.9 37.6298 201.15 31.1598 201.15 24.6898V11.5798C201.15 11.2298 201.32 11.0598 201.66 11.0598C202.34 11.5798 203.1 12.1098 203.95 12.6298C204.8 13.1598 205.73 13.6798 206.75 14.1998H227.62L226.6 1.08981L227.11 0.569824L233.22 1.08981C233.9 1.08981 234.41 1.25982 234.75 1.60982C235.09 1.95982 235.26 2.48981 235.26 3.17981C235.09 4.05981 234.58 4.57982 233.73 4.74982C232.71 4.91982 232.2 5.26982 232.2 5.79982L232.71 14.1898H243.4C243.91 13.6698 244.76 12.7898 245.95 11.5698C247.14 10.1698 247.99 9.46982 248.5 9.46982C253.25 12.6198 255.63 14.5398 255.63 15.2398C255.46 15.4198 255.29 15.5898 255.12 15.7598C254.95 15.9398 254.78 16.1098 254.61 16.2798H232.72C232.89 19.9498 233.31 24.0598 233.99 28.6098C234.67 33.1598 235.77 37.2598 237.3 40.9398C238.66 38.4898 239.93 35.8698 241.12 33.0698C242.31 30.4498 243.41 27.8198 244.43 25.1998C244.43 24.6798 244.6 23.8898 244.94 22.8398C245.28 21.6198 245.62 20.9998 245.96 20.9998C246.47 20.9998 247.74 21.5198 249.78 22.5698C251.99 23.6198 253.26 24.6698 253.6 25.7198C253.43 26.4198 253.01 26.8598 252.33 27.0298C251.65 27.1998 251.06 27.2898 250.55 27.2898C250.21 27.1198 250.04 27.1198 250.04 27.2898C249.87 27.2898 249.7 27.4598 249.53 27.8098C247.83 30.7798 246.22 33.7598 244.69 36.7298C243.33 39.6998 241.55 42.6698 239.34 45.6498C240.19 47.3998 241.63 49.4098 243.67 51.6798C245.54 53.9498 247.49 55.2598 249.52 55.6098C251.39 55.2598 252.74 53.9498 253.59 51.6798C254.44 49.2298 255.29 47.9198 256.14 47.7498C256.31 47.7498 256.48 47.8398 256.65 48.0098C256.82 48.1898 256.99 48.4498 257.16 48.7998L257.17 48.8598ZM245.46 8.99982C245.29 9.69982 245.04 10.3098 244.7 10.8398C244.36 11.1898 243.94 11.4498 243.43 11.6298C241.73 11.2798 240.54 10.2298 239.87 8.47981C239.36 6.55981 238.68 4.97981 237.83 3.75981L237.32 3.23982C237.15 2.88982 237.15 2.62981 237.32 2.44981C237.32 2.27981 237.49 2.18982 237.83 2.18982C239.19 2.18982 240.71 2.88981 242.41 4.28981C244.28 5.68981 245.29 7.25981 245.46 9.00981V8.99982Z" fill="#323333"/>
<path d="M355.43 58.2998C355.26 58.4698 355.09 58.6499 354.92 58.8199C354.75 58.8199 354.58 58.9898 354.41 59.3398C352.88 59.5098 351.78 59.7799 351.1 60.1299C350.59 60.2999 350 61.0898 349.32 62.4898C349.32 62.8398 349.15 63.0099 348.81 63.0099L348.3 62.4898C346.43 61.7898 344.4 60.4798 342.19 58.5598C340.15 56.4598 338.46 54.6298 337.1 53.0498C334.05 49.1998 331.5 45.0998 329.46 40.7198C327.42 36.1698 325.9 31.5399 324.88 26.8199C324.03 29.2699 323.27 31.7998 322.59 34.4298C321.91 36.8798 320.98 39.4098 319.79 42.0298C317.07 46.9298 313.51 51.2999 309.1 55.1399C304.86 58.8099 300.28 61.7798 295.36 64.0598H294.85C294.51 63.8798 294.34 63.7099 294.34 63.5399C294.17 63.3699 294.17 63.1898 294.34 63.0198C294.17 62.8498 294.17 62.7599 294.34 62.7599C294.34 62.5799 294.51 62.4998 294.85 62.4998C297.9 60.3998 300.79 58.2198 303.5 55.9398C306.21 53.4898 308.76 50.7798 311.14 47.8098C314.02 43.7898 316.15 39.7698 317.5 35.7498C318.86 31.5498 319.79 27.1798 320.3 22.6398H299.43C298.58 22.6398 297.9 22.7298 297.39 22.8998C296.71 22.8998 296.03 22.9899 295.35 23.1599C295.01 22.9899 294.76 22.5499 294.59 21.8499C294.42 21.1499 294.34 20.7098 294.34 20.5398L294.85 20.0098L299.43 20.5398H320.81C320.98 17.2198 321.06 13.8999 321.06 10.5699C321.23 7.24985 321.31 3.92985 321.31 0.599854L321.82 0.339844H325.13C326.15 0.519844 327.25 0.779852 328.44 1.12985C328.95 0.959852 329.37 1.03985 329.71 1.38985C330.05 1.73985 330.3 2.34984 330.47 3.22984C330.3 4.10984 329.79 4.53984 328.94 4.53984C327.92 4.71984 327.41 5.14985 327.41 5.84985C327.07 8.11985 326.82 10.5698 326.65 13.1898C326.31 15.6398 326.06 18.0898 325.89 20.5298H342.69C343.03 19.9998 343.71 19.1299 344.73 17.9099C345.58 16.5099 346.26 15.8098 346.77 15.8098C347.45 15.9898 348.72 16.7698 350.59 18.1698C352.46 19.7398 353.56 20.8798 353.9 21.5798C353.73 21.7498 353.48 21.9299 353.14 22.0999C352.8 22.2699 352.55 22.4498 352.38 22.6198H326.42C327.27 27.5198 328.88 32.3199 331.26 37.0399C333.64 41.7599 336.77 45.8698 340.68 49.3698C342.21 50.5898 343.82 51.8199 345.52 53.0399C347.39 54.0899 349.34 54.9599 351.37 55.6599C351.88 55.8299 352.39 56.0999 352.9 56.4499C353.41 56.6199 353.92 56.8898 354.43 57.2398C354.6 57.2398 354.77 57.3298 354.94 57.4998C355.11 57.6698 355.28 57.9399 355.45 58.2899L355.43 58.2998Z" fill="#323333"/>
<path d="M380.88 6.37988C380.71 7.24988 380.12 7.68988 379.1 7.68988C378.25 7.85988 377.66 8.29988 377.32 8.99988C376.81 9.69988 376.39 10.3999 376.05 11.0999C375.71 11.7999 375.46 12.4999 375.29 13.1999C374.44 14.9499 373.59 16.6099 372.74 18.1799C371.72 19.5799 370.87 21.2399 370.19 23.1599V23.6799C370.53 23.8599 371.97 25.3399 374.52 28.1399C376.9 30.7599 378.34 34.3499 378.85 38.8899C378.85 42.2099 378 44.7499 376.3 46.4899C374.77 48.2399 372.4 49.1999 369.17 49.3699C369 49.0199 368.91 48.2299 368.91 47.0099C368.91 45.7899 367.98 44.6499 366.11 43.5999V63.0099C365.94 63.7099 365.52 64.1499 364.84 64.3199C364.16 64.4899 363.57 64.5799 363.06 64.5799C362.72 64.5799 362.3 64.4899 361.79 64.3199C361.28 64.1399 361.03 63.7099 361.03 63.0099V1.63988C361.03 1.28988 361.2 1.11987 361.54 1.11987C362.22 1.63987 362.98 2.16988 363.83 2.68988C364.51 3.20988 365.27 3.73987 366.12 4.25987H371.21C371.38 3.90987 371.89 3.38988 372.74 2.68988C373.42 1.98988 374.1 1.63988 374.78 1.63988C375.12 1.63988 376.14 2.15988 377.83 3.20988C379.53 4.25988 380.54 5.30988 380.88 6.35988V6.37988ZM373.75 37.8499C373.58 36.2799 373.24 34.5299 372.73 32.6099C372.05 30.5099 371.37 28.9399 370.69 27.8899C370.35 27.3699 369.93 26.8399 369.42 26.3199C369.08 25.7999 368.66 25.2699 368.15 24.7499L367.64 23.6999C367.64 23.1799 367.89 22.2199 368.4 20.8199C368.91 19.2499 369.33 18.2799 369.67 17.9399C370.18 16.0199 370.69 14.0899 371.2 12.1699C371.71 10.0699 372.22 8.14987 372.73 6.39987H366.11V42.0699C368.15 42.4199 369.5 42.5899 370.18 42.5899C371.54 42.5899 372.47 42.1499 372.98 41.2799C373.49 40.5799 373.74 39.4399 373.74 37.8699L373.75 37.8499ZM380.88 49.3899C380.88 51.4899 380.29 53.9399 379.1 56.7299C378.08 59.5299 376.47 61.0999 374.26 61.4499C373.41 61.4499 372.65 61.2699 371.97 60.9299C371.46 60.5799 371.21 60.0499 371.21 59.3599C371.21 57.7899 371.97 56.5599 373.5 55.6899C374.86 54.9899 376.13 54.2899 377.32 53.5899C377.83 52.8899 378.25 52.1899 378.59 51.4899C379.1 50.7899 379.52 50.0899 379.86 49.3899L380.37 48.8699H380.88V49.3899ZM414.48 4.80988C414.31 5.32988 414.06 5.67988 413.72 5.85988C413.38 6.20988 413.13 6.38988 412.96 6.38988C412.28 6.21988 411.77 6.12988 411.43 6.12988C410.92 5.95988 410.58 5.86987 410.41 5.86987H409.9C407.86 6.04987 405.83 6.39988 403.79 6.91988C401.92 7.26988 399.89 7.61988 397.68 7.96988H386.99C386.31 9.53988 384.95 11.7299 382.92 14.5299C380.71 17.4999 378.85 19.1599 377.32 19.5099H376.81V18.4599C377.49 17.5899 378.17 16.6299 378.85 15.5799C379.53 14.7099 380.21 13.7499 380.89 12.6999C381.23 11.2999 381.48 10.0799 381.65 9.02988C381.82 7.80988 382.07 6.57988 382.41 5.35988C382.41 5.00988 382.49 4.65988 382.66 4.30988C382.83 3.95988 383.08 3.78987 383.42 3.78987C383.76 3.78987 384.44 4.13987 385.46 4.83987C386.31 5.53987 386.99 6.05988 387.5 6.40988C390.55 5.87988 394.03 5.18988 397.94 4.30988C401.84 3.25988 405.32 2.03988 408.38 0.639877L409.4 0.379883C409.74 0.379883 410.59 0.989879 411.95 2.21988C413.31 3.43988 414.16 4.31987 414.5 4.83987L414.48 4.80988ZM417.53 24.2199C417.36 24.5699 417.11 24.8299 416.77 25.0099C416.43 25.1799 416.18 25.2699 416.01 25.2699H383.43C382.58 25.2699 381.82 25.4499 381.14 25.7899C380.29 25.9599 379.53 26.1399 378.85 26.3099C378.68 26.1399 378.51 25.6999 378.34 24.9999L377.83 23.6899L378.85 23.1699L383.43 23.6899H394.63V18.9699H389.03C388.18 18.9699 387.42 19.0599 386.74 19.2299C385.89 19.2299 385.13 19.3199 384.45 19.4899C384.11 19.3199 383.86 18.8799 383.69 18.1799C383.52 17.4799 383.44 17.0399 383.44 16.8699V16.3499H383.95L389.04 16.8699H402.78C402.95 16.3499 403.46 15.5599 404.31 14.5099C404.99 13.2899 405.5 12.6699 405.84 12.6699C406.18 12.6699 406.94 13.3699 408.13 14.7699C409.49 16.1699 410.25 17.2199 410.42 17.9199V18.4399L409.4 18.9599H399.73V23.6799H407.37C407.71 23.1599 408.39 22.2799 409.41 21.0599C410.26 19.6599 410.94 18.9599 411.45 18.9599C411.79 19.3099 412.81 20.0999 414.5 21.3199C416.2 22.5399 417.21 23.5099 417.55 24.1999L417.53 24.2199ZM420.08 36.2799C419.91 36.4499 419.74 36.6299 419.57 36.7999C419.4 36.9799 419.23 37.1499 419.06 37.3199H410.91V44.6599C410.74 45.1799 410.32 45.5299 409.64 45.7099C408.96 46.0599 408.37 46.2299 407.86 46.2299C406.5 46.2299 405.74 46.0599 405.57 45.7099C405.23 45.1899 405.15 44.4899 405.32 43.6099H386.48L382.41 44.1299L381.9 43.6099L381.39 41.5099L381.9 40.9899C382.58 40.9899 383.34 41.0799 384.19 41.2499C384.87 41.2499 385.63 41.3399 386.48 41.5099H405.32V37.3099H384.96C384.11 37.3099 383.35 37.3999 382.67 37.5699C381.82 37.5699 381.06 37.6599 380.38 37.8299L379.36 35.2099V34.6899H379.87L384.96 35.2099H405.32V31.0099H386.99C386.14 31.0099 385.38 31.0999 384.7 31.2699C384.02 31.2699 383.43 31.3599 382.92 31.5299H382.41L381.9 28.9099V28.3899C382.58 28.3899 383.43 28.4799 384.45 28.6499C385.3 28.6499 386.15 28.7399 387 28.9099H405.33C405.5 28.5599 406.01 28.0399 406.86 27.3399C407.54 26.6399 408.05 26.2899 408.39 26.2899C408.73 26.2899 409.49 26.8099 410.68 27.8599C412.04 28.9099 412.8 29.9599 412.97 31.0099C412.8 31.5299 412.55 31.8899 412.21 32.0599C411.87 32.4099 411.45 32.5799 410.94 32.5799V35.1999H412.98C412.98 34.6799 413.32 33.9799 414 33.0999C414.68 32.0499 415.36 31.5299 416.04 31.5299H416.55C416.55 31.8799 417.14 32.6699 418.33 33.8899C419.35 34.9399 419.94 35.7299 420.11 36.2499L420.08 36.2799ZM412.44 59.8799C411.93 61.9799 409.72 63.1999 405.82 63.5499C402.09 63.8999 399.37 64.0699 397.67 64.0699C394.45 64.0699 391.56 63.7199 389.02 63.0199C386.3 62.1499 384.95 59.8699 384.95 56.1999V46.7599C384.78 46.4099 384.78 46.2399 384.95 46.2399C384.95 46.0699 385.12 46.0699 385.46 46.2399C386.14 46.2399 386.99 46.3299 388.01 46.4999C388.86 46.6799 389.71 46.9399 390.56 47.2899C391.24 47.1199 391.75 47.1999 392.09 47.5499C392.43 47.8999 392.6 48.5099 392.6 49.3899C392.43 50.2699 392.01 50.7899 391.33 50.9599C390.48 50.9599 390.06 51.1399 390.06 51.4799V54.6299C390.06 56.5499 390.99 57.6899 392.86 58.0399C394.73 58.2099 396.51 58.2999 398.21 58.2999C401.94 58.2999 404.15 58.0399 404.83 57.5099C405.51 56.9899 406.53 55.1499 407.88 51.9999C407.88 51.6499 407.96 51.3899 408.13 51.2099C408.3 51.0399 408.55 50.9499 408.89 50.9499C409.23 50.9499 409.48 51.6499 409.65 53.0499C409.82 54.4499 409.9 55.4999 409.9 56.1999C410.07 57.0699 410.49 57.5999 411.17 57.7699C411.85 57.9399 412.27 58.6399 412.44 59.8699V59.8799ZM399.71 14.2499C399.71 14.7699 399.54 15.2099 399.2 15.5599C398.86 15.9099 398.35 16.1699 397.67 16.3499C396.31 16.1799 395.55 15.5599 395.38 14.5099C395.04 13.4599 394.79 12.4999 394.62 11.6299C394.45 11.2799 394.2 10.8399 393.86 10.3199C393.35 9.61989 393.1 9.17987 393.1 9.00987C393.1 8.65987 393.18 8.48988 393.35 8.48988C393.52 8.31988 393.77 8.31988 394.11 8.48988C395.13 8.48988 396.32 9.09988 397.67 10.3299C398.86 11.5499 399.54 12.8699 399.71 14.2599V14.2499ZM403.78 51.4899C403.61 52.1899 403.36 52.7999 403.02 53.3199C402.51 53.6699 401.92 53.9299 401.24 54.1099C400.22 53.9299 399.37 53.4099 398.69 52.5399C398.01 51.4899 397.5 50.4399 397.16 49.3899C396.99 48.8699 396.65 48.2499 396.14 47.5499L395.12 46.2399C394.95 45.8899 394.95 45.7199 395.12 45.7199C395.12 45.5499 395.29 45.5499 395.63 45.7199C397.16 45.7199 398.85 46.1599 400.72 47.0299C402.59 48.0799 403.6 49.5699 403.77 51.4899H403.78ZM418.54 16.3499C418.37 17.0499 418.03 17.6599 417.52 18.1799C417.01 18.5299 416.5 18.7899 415.99 18.9699C414.63 18.7999 413.61 17.9199 412.94 16.3499C412.09 14.7799 411.58 13.5499 411.41 12.6799C410.9 11.9799 410.14 11.0199 409.12 9.79988L407.34 7.96988C407.34 7.61988 407.42 7.35987 407.59 7.17987C407.76 7.00987 408.01 6.91988 408.35 6.91988C410.05 7.09988 412.08 8.22988 414.46 10.3299C416.84 12.4299 418.19 14.4399 418.53 16.3599L418.54 16.3499ZM420.07 58.3099C420.07 59.0099 419.9 59.7099 419.56 60.4099C419.22 60.9299 418.71 61.2799 418.03 61.4599C416.5 61.2799 415.48 60.3199 414.98 58.5799C414.47 56.8299 414.13 55.3399 413.96 54.1199C413.62 53.0699 413.28 52.1099 412.94 51.2399C412.6 50.3699 412.26 49.5799 411.92 48.8799C411.58 48.8799 411.41 48.7099 411.41 48.3599H411.92L412.43 47.8299C413.96 48.3599 415.57 49.7499 417.27 52.0299C418.97 54.1299 419.9 56.2299 420.07 58.3199V58.3099Z" fill="#323333"/>
<path d="M453.17 37.3196C453 37.4896 452.75 37.6696 452.41 37.8396C452.07 38.0196 451.82 38.1896 451.65 38.3596H441.98V40.9796C443.68 41.3296 445.63 42.3796 447.83 44.1296C450.03 45.8796 451.31 47.7996 451.65 49.8996C451.48 50.5996 451.23 51.2096 450.89 51.7296C450.38 52.0796 449.79 52.3396 449.11 52.5196C447.58 52.1696 446.22 50.9496 445.04 48.8496C443.85 46.5796 442.83 44.8296 441.99 43.5996V63.0096C441.82 63.5296 441.4 63.8796 440.72 64.0596C440.04 64.4096 439.45 64.5796 438.94 64.5796C438.26 64.5796 437.75 64.4096 437.41 64.0596C437.07 63.8796 436.9 63.5396 436.9 63.0096V46.2296C435.37 48.3296 433.68 50.5196 431.81 52.7896C429.77 54.8896 427.57 56.5496 425.19 57.7696H424.68L424.17 57.2496C424 56.8996 424 56.7296 424.17 56.7296C424.17 56.5496 424.34 56.3796 424.68 56.2096C427.06 53.5896 429.09 50.8796 430.79 48.0796C432.49 45.1096 433.84 41.8696 434.86 38.3796H430.28C429.6 38.3796 429.01 38.4696 428.5 38.6396C427.82 38.6396 427.23 38.7296 426.72 38.8996C426.21 38.7296 425.79 38.2896 425.45 37.5896C425.28 36.8896 425.2 36.4496 425.2 36.2796L426.22 35.7596L430.29 36.2796H436.91V27.8896C437.59 27.8896 438.44 27.9796 439.46 28.1496C440.31 28.3296 441.33 28.5896 442.51 28.9396C443.02 29.1096 443.53 29.2896 444.04 29.4596C444.55 29.6396 444.89 30.1596 445.06 31.0296C444.89 32.0796 444.3 32.7796 443.28 33.1296C442.26 33.2996 441.84 33.6496 442.01 34.1796V36.2796H443.03C443.37 35.7596 444.05 34.9696 445.07 33.9196C445.92 32.6996 446.6 32.0796 447.11 32.0796C447.45 32.4296 448.47 33.2196 450.16 34.4396C451.86 35.6596 452.87 36.6296 453.21 37.3196H453.17ZM482.7 24.2096C482.53 24.3896 482.45 24.5596 482.45 24.7296C482.28 24.7296 482.2 24.8996 482.2 25.2496C480.84 25.5996 479.99 26.0396 479.65 26.5596C479.14 27.0796 478.8 28.0496 478.63 29.4396C478.46 29.6196 478.29 29.6996 478.12 29.6996C477.95 29.8796 477.78 29.9596 477.61 29.9596H477.1C472.86 28.5596 468.95 26.2896 465.39 23.1396C461.83 20.1696 458.94 16.8496 456.74 13.1696V28.3796C456.57 29.0796 456.15 29.5996 455.47 29.9496C454.79 30.2996 454.2 30.4696 453.69 30.4696C453.01 30.4696 452.5 30.2996 452.16 29.9496C451.82 29.7796 451.65 29.4296 451.65 28.8996V14.2096C448.26 18.4096 444.52 21.5496 440.45 23.6496C436.38 25.5696 431.96 27.3196 427.21 28.8996H426.7C426.36 28.8996 426.11 28.8096 425.94 28.6396C425.77 28.6396 425.69 28.5496 425.69 28.3796L426.2 27.3296C426.71 26.9796 427.3 26.7196 427.98 26.5396C428.49 26.1896 429.08 25.9296 429.76 25.7496C431.29 25.2296 432.81 24.5296 434.34 23.6496C435.87 22.9496 437.39 22.0796 438.92 21.0296C440.62 19.6296 442.23 18.1496 443.76 16.5696C445.12 14.9996 446.39 13.3296 447.58 11.5896H433.83L429.76 12.1096H429.25C429.08 11.9396 428.91 11.4996 428.74 10.7996C428.4 10.0996 428.23 9.65961 428.23 9.48961L429.25 8.9696L433.83 9.48961H451.65V1.09961C452.84 1.09961 454.45 1.3596 456.49 1.8896C458.36 2.4096 459.46 3.1996 459.8 4.2496C459.63 4.9496 459.29 5.46961 458.78 5.81961C458.27 6.16961 457.76 6.5196 457.25 6.8696C456.91 6.8696 456.74 7.0496 456.74 7.3896V9.48961H468.96C469.3 8.96961 469.98 8.0896 471 6.8696C471.85 5.4696 472.53 4.76961 473.04 4.76961C473.72 4.93961 474.99 5.72961 476.86 7.12961C478.73 8.69961 479.83 9.8396 480.17 10.5396C480 10.7096 479.75 10.8896 479.41 11.0596C479.07 11.2396 478.82 11.4096 478.65 11.5796H458.29C460.33 13.8496 462.53 15.7796 464.91 17.3496C467.46 19.0996 470.17 20.4996 473.06 21.5496C474.59 21.8996 476.03 22.2496 477.39 22.5996C478.92 22.7796 480.36 23.1196 481.72 23.6496C481.89 23.4796 482.06 23.4796 482.23 23.6496C482.4 23.6496 482.57 23.8296 482.74 24.1696L482.7 24.2096ZM485.75 52.5296L485.24 53.0496C484.05 53.3996 483.12 53.8396 482.44 54.3596C481.76 54.8796 481.34 55.6696 481.17 56.7196H479.64C477.26 54.9696 475.23 52.6996 473.53 49.8996C471.83 46.9296 470.48 44.1296 469.46 41.5096V63.0096C469.29 63.7096 468.87 64.1496 468.19 64.3196C467.51 64.4896 466.92 64.5796 466.41 64.5796C465.73 64.5796 465.22 64.4896 464.88 64.3196C464.54 64.1396 464.37 63.7096 464.37 63.0096V46.2296C462.67 48.3296 460.55 50.5996 458.01 53.0496C455.46 55.4996 452.83 57.2496 450.12 58.2896H449.61L449.1 57.7696C449.1 57.4196 449.27 57.0696 449.61 56.7196C450.29 56.0196 451.14 55.3196 452.16 54.6196C453.01 53.9196 453.86 53.2196 454.71 52.5196C456.41 50.4196 457.93 48.1496 459.29 45.6996C460.48 43.4296 461.5 40.9796 462.34 38.3596H459.29C458.44 38.3596 457.68 38.4496 457 38.6196C456.32 38.6196 455.73 38.7096 455.22 38.8796C454.88 38.7096 454.54 38.2696 454.2 37.5696C453.86 36.8696 453.69 36.4296 453.69 36.2596L454.71 35.7396L459.29 36.2596H464.38V27.8696C465.06 27.8696 465.99 28.0496 467.18 28.3896C468.2 28.7396 469.13 29.0896 469.98 29.4396C470.49 29.2696 471 29.3496 471.51 29.6996C472.02 30.0496 472.36 30.6596 472.53 31.5396C472.36 32.4096 471.77 32.9396 470.75 33.1096C469.73 33.2796 469.31 33.6296 469.48 34.1596V36.2596H472.03C472.37 35.7396 473.05 34.8596 474.07 33.6396C474.92 32.2396 475.6 31.5396 476.11 31.5396C480.52 34.6896 482.73 36.6096 482.73 37.3096C482.73 37.4796 482.56 37.6596 482.22 37.8296C482.05 38.0096 481.71 38.1796 481.2 38.3496H470C470.85 39.9196 471.87 41.4096 473.05 42.8096C474.24 44.3796 475.6 45.8696 477.12 47.2696C478.31 48.3196 479.58 49.1896 480.94 49.8896C482.3 50.7596 483.74 51.4596 485.27 51.9896L485.78 52.5096L485.75 52.5296Z" fill="#12A095"/>
<path d="M510.19 39.9499C509.68 41.1699 507.39 43.0998 503.32 45.7198C499.42 48.5198 496.62 50.4398 494.92 51.4898C494.58 51.6598 494.5 51.9298 494.67 52.2798C494.67 52.4598 494.75 52.7199 494.92 53.0699C494.92 53.5899 494.75 54.0299 494.41 54.3799C494.24 54.7299 493.9 54.9899 493.39 55.1699C492.71 54.8199 491.78 53.6799 490.59 51.7599C489.4 49.8399 488.81 48.5298 488.81 47.8298L489.32 47.3098C490.34 46.7898 491.53 46.3498 492.88 45.9998C494.07 45.8298 495.26 45.7398 496.44 45.7398V23.7099H493.89C493.04 23.7099 492.28 23.7998 491.6 23.9698C490.75 23.9698 489.99 24.0598 489.31 24.2298L488.8 21.6098V21.0898H489.31L493.89 21.6098H496.44V3.77985C496.27 3.42985 496.19 3.07984 496.19 2.72984C496.19 2.37984 496.44 2.20985 496.95 2.20985C497.8 2.20985 499.24 2.46985 501.28 2.99985C503.15 3.51985 504.25 4.30985 504.59 5.35985C504.42 6.22985 503.91 6.75984 503.06 6.92984C502.04 7.10984 501.53 7.44984 501.53 7.97984V21.6198H502.04C502.04 21.0998 502.46 20.3098 503.31 19.2598C503.99 18.0398 504.58 17.4198 505.09 17.4198L505.6 17.9398C505.94 18.2898 506.53 18.9898 507.38 20.0398C508.4 21.0898 508.99 21.9599 509.16 22.6599C508.82 23.3599 507.63 23.7099 505.6 23.7099H501.53V43.6399C502.72 42.9399 503.99 42.2399 505.35 41.5399C506.54 40.8399 507.81 40.1398 509.17 39.4398H509.68C510.02 39.4398 510.19 39.6198 510.19 39.9598V39.9499ZM550.41 59.3598C550.07 61.2798 548.37 62.5098 545.32 63.0298C542.43 63.3798 540.23 63.5498 538.7 63.5498C532.59 63.3798 529.28 61.6298 528.77 58.3098C528.09 54.9898 528.01 50.6199 528.52 45.1999H525.97C525.29 49.3999 523.68 52.8898 521.13 55.6898C518.58 58.6598 515.44 60.9299 511.71 62.5099C510.52 62.6799 509.16 63.0298 507.64 63.5598C505.94 64.0798 504.59 64.4298 503.57 64.6098L502.55 64.0898C502.38 63.7398 502.38 63.4798 502.55 63.2998C502.72 63.1298 503.06 63.0399 503.57 63.0399C504.59 62.6899 505.69 62.2499 506.88 61.7299C507.9 61.3799 509 60.9399 510.19 60.4199C513.41 58.4999 515.79 56.3999 517.32 54.1299C518.85 51.6799 520.03 48.7098 520.88 45.2098H517.83C517.83 45.9098 517.74 46.4298 517.58 46.7798C517.58 47.2998 517.49 47.8299 517.33 48.3499C516.82 48.5199 516.4 48.6098 516.06 48.6098C515.55 48.7798 515.13 48.8698 514.79 48.8698H512.75C512.58 48.5198 512.49 48.2598 512.49 48.0798L512.24 47.8199V26.3199H512.75C513.43 26.4899 514.19 26.8398 515.04 27.3698C515.72 27.7198 516.48 28.0698 517.33 28.4198L519.37 28.9398H537.19C537.36 28.5898 537.87 28.0698 538.72 27.3698C539.4 26.6698 539.91 26.3199 540.25 26.3199C540.59 26.3199 541.35 26.8398 542.54 27.8898C543.9 28.9398 544.66 29.9898 544.83 31.0398C544.66 31.3898 544.41 31.6498 544.07 31.8298C543.73 31.9998 543.48 32.2698 543.31 32.6198L542.8 33.1398V46.7798C542.63 47.4798 542.21 47.9999 541.53 48.3499C540.85 48.6999 540.26 48.8698 539.75 48.8698C538.39 48.6998 537.71 48.3499 537.71 47.8199C537.54 47.1199 537.54 46.2499 537.71 45.1999H534.15V54.1198C533.98 55.8698 534.23 56.9998 534.91 57.5298C535.59 58.0498 536.86 58.3199 538.73 58.3199L542.29 57.7998L543.31 56.7498C543.99 56.0498 544.5 54.9098 544.84 53.3398C545.35 51.9398 545.86 51.1599 546.37 50.9799C547.22 51.1599 547.56 51.9398 547.39 53.3398C547.39 54.9098 547.73 56.0498 548.41 56.7498C548.92 56.9198 549.34 57.2698 549.68 57.7998C550.02 58.1498 550.27 58.6698 550.44 59.3698L550.41 59.3598ZM549.39 22.6398C549.22 22.8198 548.97 22.9899 548.63 23.1599C548.29 23.3299 548.04 23.5098 547.87 23.6798H514.78C513.93 23.6798 513.25 23.7698 512.74 23.9398C512.06 23.9398 511.38 24.0298 510.7 24.1998C510.36 24.0298 510.11 23.5898 509.94 22.8898C509.77 22.1898 509.69 21.7498 509.69 21.5798L510.2 21.0598L514.78 21.5798H531.58C531.75 20.1798 532 18.7799 532.34 17.3799C532.51 15.9799 532.76 14.5798 533.1 13.1798C533.1 12.4798 533.27 12.1299 533.61 12.1299C534.46 12.1299 535.9 12.3898 537.94 12.9198C539.81 13.4398 540.91 14.2298 541.25 15.2798C541.08 16.1598 540.57 16.5898 539.72 16.5898C538.87 16.5898 538.19 16.8499 537.68 17.3799C536.83 18.0799 536.15 18.7798 535.64 19.4798C534.96 20.1798 534.45 20.8798 534.11 21.5798H538.69C539.03 21.0598 539.71 20.2698 540.73 19.2198C541.58 17.9998 542.26 17.3799 542.77 17.3799C547.18 20.1799 549.39 21.9298 549.39 22.6198V22.6398ZM546.84 10.0499C546.67 10.2299 546.42 10.3999 546.08 10.5699C545.74 10.7399 545.49 10.9198 545.32 11.0898H515.79C514.94 11.0898 514.26 11.1799 513.75 11.3499C513.07 11.3499 512.39 11.4398 511.71 11.6098C511.37 11.4398 511.12 10.9999 510.95 10.2999C510.78 9.59985 510.7 9.15985 510.7 8.98985H511.21L515.79 9.50984H525.46C525.29 8.10984 525.21 6.35984 525.21 4.25984C525.21 1.98984 525.46 0.759844 525.97 0.589844C526.65 0.589844 527.5 0.679854 528.52 0.849854C529.37 1.01985 530.39 1.28985 531.57 1.63985C532.08 1.46985 532.59 1.54984 533.1 1.89984C533.61 2.24984 533.95 2.85985 534.12 3.73985C533.95 4.60985 533.44 5.13984 532.59 5.30984C531.57 5.47984 531.06 5.82985 531.06 6.35985V9.50984H535.64C535.98 8.80984 536.74 7.75985 537.93 6.35985C538.95 4.95985 539.71 4.25984 540.22 4.25984L540.73 4.77985C541.07 5.12985 542.09 5.91985 543.78 7.13985C545.48 8.35985 546.49 9.32985 546.83 10.0199L546.84 10.0499ZM523.42 18.9698C523.42 19.4898 523.25 19.9298 522.91 20.2798C522.74 20.7998 522.4 21.2398 521.89 21.5898H521.38C519.68 21.5898 518.66 20.6299 518.33 18.7099C517.99 16.7899 517.65 15.1298 517.31 13.7298V13.2099C517.14 12.8599 517.14 12.5998 517.31 12.4198C517.31 12.2498 517.48 12.1599 517.82 12.1599C518.84 12.1599 520.03 12.9499 521.38 14.5199C522.57 15.9199 523.25 17.3998 523.42 18.9798V18.9698ZM537.67 36.2798V30.5098H519.34L517.81 31.0298V36.2798H537.66H537.67ZM537.67 43.0999V38.3799H517.82V43.0999H537.67Z" fill="#323333"/>
</svg>
