<svg width="556" height="372" viewBox="0 0 556 372" fill="none" xmlns="http://www.w3.org/2000/svg">
<g clip-path="url(#clip0_4621_2)">
<path d="M36.7201 244.11C36.3801 244.81 35.1901 245.07 33.1601 244.9C31.1201 244.73 29.7701 244.64 29.0901 244.64L28.0701 250.41C28.2401 249.89 28.6601 249.27 29.3401 248.57C29.8501 247.7 30.2701 247.26 30.6101 247.26C31.2901 247.26 32.3101 247.87 33.6601 249.1C35.1901 250.32 36.0401 251.29 36.2101 251.98C36.0401 252.15 35.8701 252.33 35.7001 252.5C35.5301 252.67 35.3601 252.85 35.1901 253.02H27.5501C27.0401 254.94 26.4501 256.6 25.7701 258C25.0901 259.4 23.8201 260.53 21.9501 261.41L22.9701 261.93C23.3101 261.93 23.6501 262.1 23.9901 262.45C24.8401 261.05 25.6001 259.91 26.2801 259.04C26.9601 257.99 27.5501 256.85 28.0601 255.63C28.2301 255.28 28.4001 255.11 28.5701 255.11C28.5701 254.94 28.7401 254.94 29.0801 255.11C29.7601 255.11 30.8601 255.46 32.3901 256.16C33.9201 257.04 34.8501 257.91 35.1901 258.78C35.0201 259.48 34.6801 259.92 34.1701 260.09C33.6601 260.27 33.1501 260.35 32.6401 260.35H31.6201C30.7701 261.05 29.8401 261.66 28.8201 262.19C27.6301 262.89 26.7001 263.5 26.0201 264.02C26.5301 264.2 26.8701 264.54 27.0401 265.07C27.3801 265.59 27.5501 266.29 27.5501 267.17C27.3801 267.69 27.1301 268.13 26.7901 268.48C26.2801 268.83 25.6901 269.09 25.0101 269.27C23.6501 269.1 22.4601 268.13 21.4501 266.39C20.4301 264.64 19.5801 263.16 18.9001 261.93H17.3701C16.8601 259.13 16.1801 257.47 15.3301 256.95C14.3101 256.25 13.8001 255.64 13.8001 255.12L14.3101 254.6C15.1601 254.6 16.0101 254.69 16.8601 254.86C17.7101 254.86 18.5601 254.95 19.4101 255.12C20.2601 255.12 20.9401 254.95 21.4501 254.6C21.7901 254.25 22.1301 253.73 22.4701 253.03H9.23008C9.23008 254.08 8.98008 254.95 8.47008 255.65C8.13008 256.18 7.37008 256.53 6.18008 256.7C5.84008 256.7 5.33008 256.61 4.65008 256.44C3.97008 256.27 3.63008 256 3.63008 255.65C3.63008 254.95 4.05008 253.2 4.90008 250.41C5.58008 247.61 6.17008 245.86 6.68008 245.17L2.61008 245.69L1.59008 243.07L2.10008 242.55H2.61008L6.68008 243.07C6.85008 241.5 7.10008 239.92 7.44008 238.35C7.61008 236.78 7.86008 235.2 8.20008 233.63C7.69008 233.98 6.76008 234.68 5.40008 235.73C4.04008 236.95 2.94008 237.65 2.09008 237.83H1.58008V237.31L2.09008 236.79C3.79008 234.87 5.14008 232.68 6.16008 230.23C7.35008 227.78 8.20008 225.42 8.71008 223.15C8.71008 222.8 8.88008 222.63 9.22008 222.63C9.90008 222.63 11.0901 222.98 12.7801 223.68C14.4801 224.38 15.5001 225.08 15.8301 225.78C15.6601 226.48 15.4101 226.92 15.0701 227.09C14.7301 227.26 14.3101 227.35 13.8001 227.35C13.4601 227.35 13.2101 227.44 13.0401 227.61C12.8701 227.79 12.7801 228.05 12.7801 228.4H21.9401C22.2801 227.87 23.0401 227 24.2301 225.78C25.2501 224.38 26.0101 223.68 26.5201 223.68C26.8601 223.68 27.9601 224.38 29.8301 225.78C31.7001 227.18 32.8001 228.23 33.1401 228.93C32.9701 229.28 32.7201 229.54 32.3801 229.72C32.0401 229.89 31.7901 229.98 31.6201 229.98H11.2701C10.9301 230.33 10.5901 230.77 10.2501 231.29C9.74008 231.64 9.40008 232.08 9.23008 232.6C9.74008 232.77 10.2501 233.04 10.7601 233.39C11.2701 233.57 11.7801 233.83 12.2901 234.18H24.0001C24.3401 233.66 24.9301 232.96 25.7801 232.08C26.6301 231.03 27.2201 230.51 27.5601 230.51C27.9001 230.86 28.6601 231.65 29.8501 232.87C31.2101 234.27 31.9701 235.58 32.1401 236.8C31.9701 237.32 31.7201 237.67 31.3801 237.85C31.0401 238.2 30.6201 238.37 30.1101 238.37C29.6001 238.37 29.2601 238.98 29.0901 240.2C28.9201 241.42 28.9201 242.39 29.0901 243.08H29.6001C29.6001 242.56 30.0201 241.77 30.8701 240.72C31.5501 239.5 32.1401 238.88 32.6501 238.88L33.1601 239.4C33.1601 239.75 33.7501 240.54 34.9401 241.76C35.9601 242.81 36.5501 243.6 36.7201 244.12V244.11ZM26.5401 280.3C26.5401 280.47 26.3701 280.74 26.0301 281.09C25.8601 281.44 25.5201 281.7 25.0101 281.88C24.6701 281.7 24.3301 281.53 23.9901 281.36C23.6501 281.01 23.3101 280.84 22.9701 280.84L22.4601 281.36C21.1001 281.88 19.7401 282.5 18.3901 283.2C17.0301 283.72 15.6701 284.34 14.3201 285.03C12.9601 285.2 11.4301 285.47 9.74008 285.82C8.21008 286.17 6.69008 286.43 5.16008 286.61C4.99008 286.44 4.90008 286.26 4.90008 286.09C4.73008 285.91 4.65008 285.74 4.65008 285.57C4.48008 285.4 4.48008 285.31 4.65008 285.31C4.65008 285.14 4.82008 285.05 5.16008 285.05C6.52008 284.53 7.87008 284 9.23008 283.48C10.5901 283.13 11.9401 282.6 13.3001 281.91C14.8301 281.03 16.1801 280.07 17.3701 279.03C18.7301 277.98 19.9201 276.84 20.9301 275.62H21.4401C21.9501 275.8 22.8801 276.41 24.2401 277.46C25.6001 278.51 26.3601 279.47 26.5301 280.34L26.5401 280.3ZM59.6301 272.96C59.4601 273.66 59.2101 274.27 58.8701 274.8C58.3601 275.15 57.7701 275.41 57.0901 275.59C55.7301 275.42 54.6301 274.54 53.7801 272.97C52.9301 271.4 52.1701 270.17 51.4901 269.3C48.6101 269.82 45.8001 270.35 43.0901 270.87C40.2001 271.57 37.4001 272.09 34.6901 272.44V285.03C34.5201 285.55 34.1001 285.99 33.4201 286.34C32.7401 286.69 32.1501 286.95 31.6401 287.13C31.3001 287.13 30.7901 286.96 30.1101 286.61C29.4301 286.44 29.0901 286.09 29.0901 285.56V273.5C27.2201 273.67 25.3601 273.85 23.4901 274.02C21.4501 274.2 19.5901 274.37 17.8901 274.54L12.2901 275.06C11.2701 275.06 10.7601 275.67 10.7601 276.89C10.7601 277.94 10.2501 278.55 9.23008 278.73C8.38008 278.38 7.62008 277.07 6.94008 274.8C6.43008 272.53 6.18008 270.87 6.18008 269.82C6.18008 269.3 6.26008 268.95 6.43008 268.77C6.60008 268.6 6.85008 268.6 7.19008 268.77L11.7701 269.29L21.9501 269.81H27.0401C29.5901 268.24 31.9601 266.4 34.1701 264.3C36.3701 262.2 38.4101 259.84 40.2801 257.22L41.3001 256.17C41.3001 255.82 41.4701 255.64 41.8101 255.64C42.4901 255.64 43.5901 256.17 45.1201 257.21C46.6501 258.26 47.5801 259.13 47.9201 259.83C47.7501 260.35 47.5001 260.71 47.1601 260.88C46.8201 261.23 46.5701 261.4 46.4001 261.4L44.3601 260.88L43.8501 261.4C41.9801 262.62 40.2001 263.94 38.5001 265.33C36.8001 266.73 34.8501 268.04 32.6501 269.26C35.7001 269.26 38.6701 269.09 41.5601 268.74C44.6101 268.39 47.5801 267.87 50.4701 267.17C49.9601 266.82 49.2801 266.21 48.4301 265.33C47.4101 264.46 46.9001 263.85 46.9001 263.5L47.4101 262.98C49.1101 262.98 51.2301 263.86 53.7701 265.6C56.1501 267.17 57.7601 268.75 58.6101 270.32C58.7801 270.67 58.9501 271.11 59.1201 271.63C59.2901 271.98 59.4601 272.42 59.6301 272.94V272.96ZM23.9901 244.64H11.2701C10.9301 245.69 10.6801 246.74 10.5101 247.79C10.1701 248.84 9.92008 249.89 9.75008 250.94H16.8801C16.5401 250.59 16.2901 250.15 16.1201 249.63C15.9501 248.93 15.7001 248.49 15.3601 248.32C15.1901 247.97 15.0201 247.62 14.8501 247.27C14.5101 246.75 14.3401 246.4 14.3401 246.22L15.3601 245.7C15.8701 245.88 16.7201 246.14 17.9101 246.49C18.9301 246.84 19.7801 247.28 20.4601 247.8L20.9701 249.9L20.4601 250.95H23.0101C23.1801 249.9 23.3501 248.85 23.5201 247.8C23.5201 246.75 23.6901 245.7 24.0301 244.65L23.9901 244.64ZM24.5001 236.25H12.8001C12.4601 237.3 12.2901 238.44 12.2901 239.66C12.1201 240.71 11.9501 241.85 11.7801 243.07H18.4001C17.8901 242.55 17.3001 241.59 16.6201 240.19C15.7701 238.79 15.3501 238.01 15.3501 237.83V237.31C15.1801 237.14 15.1801 237.05 15.3501 237.05C15.3501 236.88 15.5201 236.79 15.8601 236.79C16.3701 236.79 17.3001 237.14 18.6601 237.84C19.8501 238.54 20.7801 239.24 21.4601 239.94L21.9701 242.56C21.6301 242.56 21.4601 242.73 21.4601 243.08H24.0101L24.5201 236.26L24.5001 236.25ZM62.6801 253.03L61.6601 254.08C60.3001 254.26 59.2801 254.6 58.6101 255.13C57.9301 255.48 57.4201 256.35 57.0801 257.75H56.5701C55.0401 257.4 53.1801 256.35 50.9701 254.6C48.7601 252.68 47.2401 251.1 46.3901 249.88C45.2001 250.93 43.3401 252.15 40.7901 253.55C38.4101 254.77 36.3801 255.47 34.6801 255.65L34.4301 255.39L34.1801 255.13C34.5201 254.78 34.6901 254.43 34.6901 254.08C36.5601 253.03 38.2501 251.98 39.7801 250.93C41.3101 249.88 42.8301 248.66 44.3601 247.26C43.0001 245.34 41.9801 243.41 41.3101 241.49C40.6301 239.57 39.9501 237.47 39.2701 235.2C38.7601 235.72 38.0001 236.51 36.9801 237.56C35.9601 238.61 35.2001 239.22 34.6901 239.4L34.1801 238.88L34.6901 237.83C35.2001 236.96 35.6201 235.99 35.9601 234.95C36.4701 234.08 36.8901 233.11 37.2301 232.07C37.4001 231.2 37.6501 230.23 37.9901 229.19C38.1601 228.32 38.4101 227.36 38.7501 226.31C38.5801 225.79 38.5801 225.17 38.7501 224.48C38.7501 223.61 38.9201 223.17 39.2601 223.17C40.1101 223.17 41.5501 223.52 43.5901 224.22C45.4601 224.74 46.5601 225.62 46.9001 226.84C46.7301 227.54 46.2201 227.89 45.3701 227.89C44.3501 227.89 43.8401 228.07 43.8401 228.42C43.3301 228.59 42.9901 228.94 42.8201 229.47C42.6501 229.82 42.4801 230.17 42.3101 230.52H50.9601C51.4701 230 52.2301 229.21 53.2501 228.16C54.1001 226.94 54.8601 226.32 55.5401 226.32C55.8801 226.32 56.9801 227.02 58.8501 228.42C60.7201 229.82 61.8201 230.87 62.1601 231.57C61.8201 232.27 60.9701 232.62 59.6101 232.62H57.0601C56.3801 234.72 55.4501 237.17 54.2601 239.96C52.9001 242.76 51.4601 245.03 49.9301 246.78C51.4601 248 53.3201 249.14 55.5301 250.19C57.7401 251.07 59.9401 251.85 62.1501 252.55L62.6601 253.07L62.6801 253.03ZM57.5901 283.98L57.0801 285.55L55.5501 286.6C55.2101 286.25 54.8701 286.08 54.5301 286.08C53.8501 285.73 52.0701 284.51 49.1801 282.41C46.1301 280.31 44.0001 278.91 42.8201 278.21C42.3101 277.86 41.6301 277.34 40.7801 276.64C39.7601 276.12 39.2501 275.59 39.2501 275.07L39.7601 274.55C42.1401 274.55 45.6101 275.42 50.2001 277.17C54.6101 278.92 57.0701 281.19 57.5801 283.99L57.5901 283.98ZM50.9701 232.58H41.3001L40.7901 233.1C41.4701 234.85 42.3201 236.6 43.3401 238.35C44.3601 240.1 45.5501 241.85 46.9001 243.59C48.0901 241.67 49.0201 239.83 49.7001 238.08C50.2101 236.33 50.6301 234.5 50.9701 232.57V232.58Z" fill="#12A095"/>
<path d="M126.83 251.98C126.66 252.5 126.41 252.86 126.07 253.03C125.73 253.38 125.48 253.55 125.31 253.55H113.09V262.47H113.6C113.94 261.95 114.62 261.07 115.64 259.85C116.66 258.45 117.51 257.75 118.19 257.75C122.6 260.55 124.81 262.47 124.81 263.52C124.64 263.69 124.39 263.87 124.05 264.04C123.71 264.22 123.46 264.39 123.29 264.56H99.3601V271.9H115.14C115.48 271.38 116.16 270.5 117.18 269.28C118.2 267.88 119.05 267.18 119.73 267.18C124.48 269.98 126.86 271.9 126.86 272.95C126.69 273.13 126.44 273.3 126.1 273.47C125.76 273.64 125.51 273.82 125.34 273.99H99.3801V285C99.2101 285.52 98.7901 285.96 98.1101 286.31C97.4301 286.66 97.0101 286.92 96.8401 287.1C96.1601 287.1 95.5701 286.93 95.0601 286.58C94.5501 286.41 94.3001 286.06 94.3001 285.53V273.99H72.9201C72.0701 273.99 71.3901 274.08 70.8801 274.25C70.2001 274.25 69.5201 274.34 68.8401 274.51C68.5001 274.34 68.2501 273.9 68.0801 273.2C67.9101 272.5 67.8301 272.06 67.8301 271.89C67.8301 271.54 67.9101 271.37 68.0801 271.37C68.0801 271.2 68.1601 271.2 68.3401 271.37L72.9201 271.89H94.3001V264.55H75.4601C74.6101 264.55 73.9301 264.64 73.4201 264.81C72.7401 264.81 72.0601 264.9 71.3801 265.07C71.0401 264.9 70.7901 264.46 70.6201 263.76C70.4501 263.06 70.3701 262.62 70.3701 262.45L70.8801 261.93L80.0401 262.45V253.53H72.4001C71.5501 253.53 70.7901 253.62 70.1101 253.79C69.4301 253.79 68.8401 253.88 68.3301 254.05C67.9901 253.88 67.7401 253.44 67.5701 252.74C67.4001 252.04 67.3201 251.6 67.3201 251.43L67.8301 250.91L72.4101 251.43H80.0501V241.99H74.9601C74.2801 241.99 73.6901 242.08 73.1801 242.25C72.5001 242.25 71.9101 242.34 71.4001 242.51C71.0601 242.34 70.7201 241.9 70.3801 241.2C70.0401 240.5 69.8701 240.06 69.8701 239.89C69.8701 239.54 69.9501 239.37 70.1201 239.37C70.2901 239.2 70.5401 239.2 70.8801 239.37L74.9501 239.89H112.11C112.45 239.37 113.13 238.49 114.15 237.27C115 235.87 115.68 235.17 116.19 235.17C120.94 237.97 123.32 239.72 123.32 240.41C123.15 240.93 122.9 241.29 122.56 241.46C122.22 241.81 121.97 241.98 121.8 241.98H113.15V251.42H115.19C115.53 250.9 116.21 250.02 117.23 248.8C118.25 247.4 119.1 246.7 119.78 246.7C124.53 249.5 126.91 251.25 126.91 251.94L126.83 251.98ZM125.3 230.47C125.13 230.82 124.88 231.08 124.54 231.26C124.2 231.43 123.95 231.52 123.78 231.52H108.51C108.51 233.62 108.42 235.37 108.26 236.76C108.09 237.98 106.99 238.68 104.95 238.86C104.61 238.86 104.19 238.77 103.68 238.6C103.17 238.43 102.92 238.16 102.92 237.81V231.52H90.1901V236.76C90.1901 237.98 89.1701 238.68 87.1401 238.86C86.4601 238.86 85.9501 238.77 85.6101 238.6C85.2701 238.43 85.1001 238.16 85.1001 237.81V231.52H73.3901C72.5401 231.52 71.8601 231.61 71.3501 231.78C70.6701 231.78 69.9901 231.87 69.3101 232.04H68.8001C68.6301 231.69 68.5501 231.25 68.5501 230.73C68.3801 230.03 68.3001 229.59 68.3001 229.42C68.3001 229.07 68.3801 228.9 68.5501 228.9L68.8001 229.42L73.3801 229.94H85.0901V222.6C86.2801 222.43 87.8001 222.6 89.6701 223.12C91.3701 223.47 92.3801 224.17 92.7201 225.22C92.5501 225.57 92.3001 225.92 91.9601 226.27C91.6201 226.62 91.2001 226.97 90.6901 227.32L90.1801 227.84V229.94H102.91V223.12L103.42 222.6H103.93C104.78 222.43 106.14 222.51 108 222.86C109.7 223.03 110.71 223.82 111.05 225.22C110.88 225.57 110.63 225.92 110.29 226.27C109.95 226.62 109.53 226.97 109.02 227.32L108.51 227.84V229.94H114.11C114.45 229.24 115.13 228.19 116.15 226.79C117.17 225.39 118.02 224.69 118.7 224.69C123.11 227.84 125.32 229.76 125.32 230.46L125.3 230.47ZM94.2501 251.45V242.01H85.6001V251.45H94.2501ZM94.2501 262.47V253.55H85.6001V262.47H94.2501ZM108 251.45V242.01H99.3501V251.45H108ZM108 262.47V253.55H99.3501V262.47H108Z" fill="#12A095"/>
<path d="M164.5 231C164.5 231.35 164.33 231.61 163.99 231.79C163.82 231.97 163.48 232.05 162.97 232.05H138.03L134.47 232.57C133.96 232.4 133.54 231.96 133.2 231.26C133.03 230.56 132.95 230.12 132.95 229.95H133.97C134.65 229.95 135.33 230.04 136.01 230.21C136.52 230.21 137.2 230.3 138.05 230.47H145.69V225.75C145.52 225.58 145.52 225.14 145.69 224.44C145.69 223.57 145.86 223.13 146.2 223.13C147.05 222.96 148.58 223.13 150.78 223.65C152.82 224 154 224.7 154.34 225.75C154.17 226.8 153.58 227.5 152.56 227.85C151.37 228.03 150.78 228.38 150.78 228.9V230.47H154.34C154.68 229.77 155.36 228.81 156.38 227.59C157.23 226.37 157.91 225.76 158.42 225.76C159.1 226.11 160.2 226.9 161.73 228.12C163.26 229.34 164.19 230.31 164.53 231H164.5ZM162.97 258.8C162.29 259.68 160.42 260.64 157.37 261.68C154.32 262.9 152.11 263.69 150.75 264.04C150.75 266.84 150.5 268.94 149.99 270.33C149.48 271.9 147.7 272.95 144.64 273.48V272.43C144.47 271.03 143.79 269.98 142.6 269.28C141.41 268.58 140.73 268.06 140.56 267.71L141.58 267.19H145.14L145.65 265.62C144.46 265.62 143.36 265.71 142.34 265.88C141.15 266.06 140.05 266.32 139.03 266.67C138.35 267.02 138.01 267.63 138.01 268.5C138.01 269.55 137.5 270.16 136.48 270.34C135.63 269.99 134.78 268.77 133.93 266.67C133.25 264.57 132.91 263.17 132.91 262.47C133.08 261.95 133.84 261.6 135.2 261.42C136.56 261.25 137.49 261.25 138 261.42H145.64V257.22C145.47 257.05 145.47 256.61 145.64 255.91C145.64 255.04 145.81 254.6 146.15 254.6L149.71 255.12C150.39 254.42 150.98 253.81 151.49 253.28C152.17 252.58 152.76 251.97 153.27 251.44H139.02C138.17 251.44 137.49 251.53 136.98 251.7C136.3 251.7 135.62 251.79 134.94 251.96L134.43 251.44L133.92 249.34V248.81C134.77 248.81 135.62 248.9 136.47 249.07C137.32 249.07 138.17 249.16 139.02 249.33H153.27L155.82 247.23C155.31 246.88 155.06 246.53 155.06 246.18C155.06 245.66 155.14 245.31 155.32 245.13H142.08V246.18L141.57 247.75L139.02 248.27L137.49 247.75C137.15 247.4 136.98 247.05 136.98 246.7V233.59L137.49 233.07C138.17 233.59 138.93 234.03 139.78 234.38C140.46 234.9 141.22 235.34 142.07 235.69H155.31C155.31 235.34 155.65 234.82 156.33 234.12C157.01 233.42 157.52 233.07 157.86 233.07C158.71 233.07 159.64 233.68 160.66 234.91C161.68 236.13 162.27 237.27 162.44 238.32C162.27 238.49 162.02 238.67 161.68 238.84C161.34 239.02 161.09 239.19 160.92 239.36C160.24 240.41 160.16 241.9 160.66 243.82C161.17 245.74 160.24 247.06 157.86 247.75C158.37 248.45 159.05 249.32 159.9 250.37C160.75 251.25 161.26 252.12 161.43 252.99C161.26 253.51 161.01 253.95 160.67 254.3C160.33 254.65 159.91 254.91 159.4 255.09C158.89 254.92 158.47 254.74 158.13 254.57C157.62 254.4 157.2 254.22 156.86 254.05C156.18 254.05 155.5 254.31 154.82 254.84C153.97 255.36 153.29 255.8 152.78 256.15C152.95 256.15 153.12 256.32 153.29 256.67C153.46 257.02 153.63 257.37 153.8 257.72C153.63 258.42 153.12 258.86 152.27 259.03C151.25 259.38 150.74 259.82 150.74 260.34V260.86C152.44 260.51 154.47 259.99 156.85 259.29C159.4 258.59 161.26 258.24 162.45 258.24L162.96 258.76L162.97 258.8ZM142.1 274.54C142.1 276.64 141.59 279.09 140.57 281.88C139.55 284.68 137.86 286.25 135.48 286.6C134.97 286.6 134.55 286.43 134.21 286.08C133.87 285.9 133.62 285.56 133.45 285.03C133.11 284.68 132.94 284.33 132.94 283.98C132.94 282.58 133.62 281.44 134.98 280.57C136.34 279.69 137.53 278.91 138.54 278.21C139.22 277.34 139.73 276.55 140.07 275.85C140.24 274.98 140.75 274.19 141.6 273.49C141.77 273.32 141.85 273.32 141.85 273.49C142.02 273.66 142.11 274.01 142.11 274.54H142.1ZM155.34 243.59V237.82H142.1V243.59H155.34ZM157.89 282.4C157.89 283.1 157.72 283.89 157.38 284.76C156.87 285.46 156.19 285.9 155.34 286.07C154.49 285.89 153.81 285.46 153.3 284.76C152.96 284.06 152.79 283.45 152.79 282.92C152.79 281.87 152.87 280.91 153.04 280.04C153.04 279.16 153.12 278.38 153.3 277.68C153.13 276.8 153.04 276.11 153.04 275.58C152.87 274.88 152.79 274.36 152.79 274.01L153.3 273.49C154.32 273.66 155.34 274.89 156.35 277.16C157.2 279.43 157.71 281.18 157.88 282.4H157.89ZM193.53 269.29C193.36 269.99 193.11 270.51 192.77 270.86C192.26 271.21 191.67 271.38 190.99 271.38C189.63 271.21 188.19 270.33 186.66 268.76C185.13 267.36 184.03 265.96 183.35 264.56C181.82 260.89 180.97 256.52 180.8 251.45C180.63 246.38 180.63 241.83 180.8 237.81H175.71C175.71 240.08 175.54 242.44 175.2 244.89C174.86 247.34 174.35 249.7 173.67 251.97C174.69 253.02 175.88 254.51 177.23 256.43C178.42 258.18 179.1 259.84 179.27 261.41C179.1 262.11 178.85 262.72 178.51 263.25C178 263.6 177.41 263.86 176.73 264.04C175.37 263.87 174.27 263.08 173.42 261.68C172.57 260.11 171.98 258.8 171.64 257.75C169.77 260.9 167.4 263.61 164.51 265.88C161.62 268.15 158.4 269.64 154.84 270.34H153.82L154.33 269.29C154.5 268.94 154.84 268.68 155.35 268.5C155.69 268.33 156.03 268.24 156.37 268.24C159.25 266.49 161.8 264.22 164.01 261.42C166.39 258.45 167.91 255.3 168.59 251.98C167.91 250.76 167.15 249.71 166.3 248.83C165.45 247.78 164.52 246.91 163.5 246.21V245.69L164.01 244.64C164.52 244.64 165.45 245.16 166.81 246.21C168 247.09 168.93 247.78 169.61 248.31C169.78 246.56 169.95 244.81 170.12 243.06C170.29 241.31 170.46 239.56 170.63 237.82H168.59C167.91 237.82 167.23 238 166.55 238.34C165.87 238.51 165.19 238.69 164.51 238.86V238.34L164 235.72H164.51L169.6 236.24H170.62V223.65C170.62 223.3 170.7 223.13 170.88 223.13C170.88 222.96 170.96 222.96 171.13 223.13C171.98 222.96 173.42 223.04 175.46 223.39C177.33 223.57 178.43 224.18 178.77 225.23C178.6 226.11 178.18 226.63 177.5 226.8C176.65 226.97 176.23 227.32 176.23 227.85V236.24H180.3C180.47 235.72 180.98 235.1 181.83 234.4C182.51 233.53 183.02 233.09 183.36 233.09C184.04 233.27 185.06 234.05 186.41 235.45C187.94 237.02 188.79 238.16 188.96 238.86C188.79 239.74 188.28 240.26 187.43 240.43C186.41 240.43 185.9 240.95 185.9 242L185.39 250.39C185.22 251.61 185.39 253.54 185.9 256.16C186.24 258.78 186.92 260.53 187.94 261.4C188.62 261.05 189.3 259.74 189.98 257.47C190.66 255.02 191.34 253.71 192.02 253.54L193.04 254.06C192.87 255.63 192.62 257.21 192.28 258.78C191.77 260.35 191.52 261.93 191.52 263.5C191.52 264.9 191.86 265.95 192.54 266.65C193.05 267.35 193.39 268.22 193.56 269.27L193.53 269.29ZM174.19 282.4C174.19 283.1 174.02 283.89 173.68 284.76C173.34 285.46 172.83 285.9 172.15 286.07C170.45 285.89 169.43 284.93 169.1 283.19C168.76 281.62 168.59 280.13 168.59 278.73C168.42 277.85 168.25 276.98 168.08 276.11C167.91 275.24 167.74 274.54 167.57 274.01C167.4 273.66 167.4 273.4 167.57 273.22C167.57 273.05 167.74 272.96 168.08 272.96C169.1 273.14 170.37 274.45 171.9 276.89C173.26 279.16 174.02 281 174.19 282.4ZM190.99 283.97C190.82 284.67 190.57 285.28 190.23 285.81C189.72 286.16 189.13 286.42 188.45 286.6C186.92 286.43 185.9 285.38 185.4 283.45C184.89 281.7 184.55 280.13 184.38 278.73C184.04 277.85 183.62 276.81 183.11 275.58C182.6 274.53 182.35 273.83 182.35 273.48V272.96L182.86 272.44C184.39 273.14 186.08 274.71 187.95 277.16C189.82 279.61 190.83 281.88 191 283.98L190.99 283.97Z" fill="#323333"/>
<path d="M258.17 270.86C258 272.08 257.66 273.39 257.15 274.79C256.47 276.01 256.13 277.32 256.13 278.72C256.13 279.94 256.38 280.82 256.89 281.34C257.23 281.86 257.48 282.56 257.65 283.44C257.48 284.14 257.23 284.66 256.89 285.01C256.38 285.36 255.79 285.53 255.11 285.53C251.38 285.18 247.81 283.61 244.42 280.81C241.2 277.84 238.65 274.87 236.78 271.89C235.25 273.11 233.73 274.43 232.2 275.82C230.84 277.22 229.31 278.53 227.62 279.75C226.26 280.62 224.23 281.76 221.51 283.16C218.79 284.56 216.76 285.35 215.4 285.52L213.87 285L214.89 283.95C218.11 282.2 221.42 280.19 224.82 277.92C228.04 275.65 230.84 273.11 233.22 270.31C233.39 269.78 233.64 269.35 233.98 269C234.15 268.65 234.4 268.39 234.74 268.21C232.87 263.14 231.43 258.16 230.41 253.26C229.39 248.37 228.8 243.38 228.63 238.31H207.25V249.85H217.94C218.28 249.33 218.87 248.63 219.72 247.75C220.57 246.7 221.16 246.18 221.5 246.18C221.84 246.18 222.77 246.97 224.3 248.54C225.83 250.11 226.76 251.42 227.1 252.47C226.93 253.34 226.42 253.78 225.57 253.78C224.55 253.61 224.04 254.04 224.04 255.09C223.87 257.89 223.62 261.38 223.28 265.58C222.94 269.6 221.84 272.57 219.97 274.5C218.78 275.2 217.59 275.72 216.41 276.07C215.05 276.42 213.86 276.77 212.85 277.12L212.34 272.92C211.83 272.22 211.15 271.52 210.3 270.82C209.28 269.95 208.77 269.42 208.77 269.25C208.77 268.9 208.85 268.73 209.02 268.73C209.19 268.56 209.44 268.56 209.78 268.73C210.46 268.73 211.31 268.91 212.33 269.25C213.18 269.42 214.2 269.6 215.38 269.77H215.89C217.25 268.02 218.1 265.14 218.44 261.12C218.78 257.1 218.95 254.04 218.95 251.94H207.24C207.07 257.71 206.48 263.65 205.46 269.77C204.44 275.89 201.98 281.31 198.08 286.03H196.55V285.51C196.55 285.16 196.72 284.81 197.06 284.46C199.44 278.51 200.88 272.4 201.39 266.1C201.9 259.63 202.15 253.16 202.15 246.69V233.58C202.15 233.23 202.32 233.06 202.66 233.06C203.34 233.58 204.1 234.11 204.95 234.63C205.8 235.16 206.73 235.68 207.75 236.2H228.62L227.6 223.09L228.11 222.57L234.22 223.09C234.9 223.09 235.41 223.26 235.75 223.61C236.09 223.96 236.26 224.49 236.26 225.18C236.09 226.06 235.58 226.58 234.73 226.75C233.71 226.92 233.2 227.27 233.2 227.8L233.71 236.19H244.4C244.91 235.67 245.76 234.79 246.95 233.57C248.14 232.17 248.99 231.47 249.5 231.47C254.25 234.62 256.63 236.54 256.63 237.24C256.46 237.42 256.29 237.59 256.12 237.76C255.95 237.94 255.78 238.11 255.61 238.28H233.72C233.89 241.95 234.31 246.06 234.99 250.61C235.67 255.16 236.77 259.26 238.3 262.94C239.66 260.49 240.93 257.87 242.12 255.07C243.31 252.45 244.41 249.82 245.43 247.2C245.43 246.68 245.6 245.89 245.94 244.84C246.28 243.62 246.62 243 246.96 243C247.47 243 248.74 243.52 250.78 244.57C252.99 245.62 254.26 246.67 254.6 247.72C254.43 248.42 254.01 248.86 253.33 249.03C252.65 249.2 252.06 249.29 251.55 249.29C251.21 249.12 251.04 249.12 251.04 249.29C250.87 249.29 250.7 249.46 250.53 249.81C248.83 252.78 247.22 255.76 245.69 258.73C244.33 261.7 242.55 264.67 240.34 267.65C241.19 269.4 242.63 271.41 244.67 273.68C246.54 275.95 248.49 277.26 250.52 277.61C252.39 277.26 253.74 275.95 254.59 273.68C255.44 271.23 256.29 269.92 257.14 269.75C257.31 269.75 257.48 269.84 257.65 270.01C257.82 270.19 257.99 270.45 258.16 270.8L258.17 270.86ZM246.46 231C246.29 231.7 246.04 232.31 245.7 232.84C245.36 233.19 244.94 233.45 244.43 233.63C242.73 233.28 241.54 232.23 240.87 230.48C240.36 228.56 239.68 226.98 238.83 225.76L238.32 225.24C238.15 224.89 238.15 224.63 238.32 224.45C238.32 224.28 238.49 224.19 238.83 224.19C240.19 224.19 241.71 224.89 243.41 226.29C245.28 227.69 246.29 229.26 246.46 231.01V231Z" fill="#323333"/>
<path d="M356.43 280.3C356.26 280.47 356.09 280.65 355.92 280.82C355.75 280.82 355.58 280.99 355.41 281.34C353.88 281.51 352.78 281.78 352.1 282.13C351.59 282.3 351 283.09 350.32 284.49C350.32 284.84 350.15 285.01 349.81 285.01L349.3 284.49C347.43 283.79 345.4 282.48 343.19 280.56C341.15 278.46 339.46 276.63 338.1 275.05C335.05 271.2 332.5 267.1 330.46 262.72C328.42 258.17 326.9 253.54 325.88 248.82C325.03 251.27 324.27 253.8 323.59 256.43C322.91 258.88 321.98 261.41 320.79 264.03C318.07 268.93 314.51 273.3 310.1 277.14C305.86 280.81 301.28 283.78 296.36 286.06H295.85C295.51 285.88 295.34 285.71 295.34 285.54C295.17 285.37 295.17 285.19 295.34 285.02C295.17 284.85 295.17 284.76 295.34 284.76C295.34 284.58 295.51 284.5 295.85 284.5C298.9 282.4 301.79 280.22 304.5 277.94C307.21 275.49 309.76 272.78 312.14 269.81C315.02 265.79 317.15 261.77 318.5 257.75C319.86 253.55 320.79 249.18 321.3 244.64H300.43C299.58 244.64 298.9 244.73 298.39 244.9C297.71 244.9 297.03 244.99 296.35 245.16C296.01 244.99 295.76 244.55 295.59 243.85C295.42 243.15 295.34 242.71 295.34 242.54L295.85 242.01L300.43 242.54H321.81C321.98 239.22 322.06 235.9 322.06 232.57C322.23 229.25 322.31 225.93 322.31 222.6L322.82 222.34H326.13C327.15 222.52 328.25 222.78 329.44 223.13C329.95 222.96 330.37 223.04 330.71 223.39C331.05 223.74 331.3 224.35 331.47 225.23C331.3 226.11 330.79 226.54 329.94 226.54C328.92 226.72 328.41 227.15 328.41 227.85C328.07 230.12 327.82 232.57 327.65 235.19C327.31 237.64 327.06 240.09 326.89 242.53H343.69C344.03 242 344.71 241.13 345.73 239.91C346.58 238.51 347.26 237.81 347.77 237.81C348.45 237.99 349.72 238.77 351.59 240.17C353.46 241.74 354.56 242.88 354.9 243.58C354.73 243.75 354.48 243.93 354.14 244.1C353.8 244.27 353.55 244.45 353.38 244.62H327.42C328.27 249.52 329.88 254.32 332.26 259.04C334.64 263.76 337.77 267.87 341.68 271.37C343.21 272.59 344.82 273.82 346.52 275.04C348.39 276.09 350.34 276.96 352.37 277.66C352.88 277.83 353.39 278.1 353.9 278.45C354.41 278.62 354.92 278.89 355.43 279.24C355.6 279.24 355.77 279.33 355.94 279.5C356.11 279.67 356.28 279.94 356.45 280.29L356.43 280.3Z" fill="#323333"/>
<path d="M381.88 228.38C381.71 229.25 381.12 229.69 380.1 229.69C379.25 229.86 378.66 230.3 378.32 231C377.81 231.7 377.39 232.4 377.05 233.1C376.71 233.8 376.46 234.5 376.29 235.2C375.44 236.95 374.59 238.61 373.74 240.18C372.72 241.58 371.87 243.24 371.19 245.16V245.68C371.53 245.86 372.97 247.34 375.52 250.14C377.9 252.76 379.34 256.35 379.85 260.89C379.85 264.21 379 266.75 377.3 268.49C375.77 270.24 373.4 271.2 370.17 271.37C370 271.02 369.91 270.23 369.91 269.01C369.91 267.79 368.98 266.65 367.11 265.6V285.01C366.94 285.71 366.52 286.15 365.84 286.32C365.16 286.49 364.57 286.58 364.06 286.58C363.72 286.58 363.3 286.49 362.79 286.32C362.28 286.14 362.03 285.71 362.03 285.01V223.64C362.03 223.29 362.2 223.12 362.54 223.12C363.22 223.64 363.98 224.17 364.83 224.69C365.51 225.21 366.27 225.74 367.12 226.26H372.21C372.38 225.91 372.89 225.39 373.74 224.69C374.42 223.99 375.1 223.64 375.78 223.64C376.12 223.64 377.14 224.16 378.83 225.21C380.53 226.26 381.54 227.31 381.88 228.36V228.38ZM374.75 259.85C374.58 258.28 374.24 256.53 373.73 254.61C373.05 252.51 372.37 250.94 371.69 249.89C371.35 249.37 370.93 248.84 370.42 248.32C370.08 247.8 369.66 247.27 369.15 246.75L368.64 245.7C368.64 245.18 368.89 244.22 369.4 242.82C369.91 241.25 370.33 240.28 370.67 239.94C371.18 238.02 371.69 236.09 372.2 234.17C372.71 232.07 373.22 230.15 373.73 228.4H367.11V264.07C369.15 264.42 370.5 264.59 371.18 264.59C372.54 264.59 373.47 264.15 373.98 263.28C374.49 262.58 374.74 261.44 374.74 259.87L374.75 259.85ZM381.88 271.39C381.88 273.49 381.29 275.94 380.1 278.73C379.08 281.53 377.47 283.1 375.26 283.45C374.41 283.45 373.65 283.27 372.97 282.93C372.46 282.58 372.21 282.05 372.21 281.36C372.21 279.79 372.97 278.56 374.5 277.69C375.86 276.99 377.13 276.29 378.32 275.59C378.83 274.89 379.25 274.19 379.59 273.49C380.1 272.79 380.52 272.09 380.86 271.39L381.37 270.87H381.88V271.39ZM415.48 226.81C415.31 227.33 415.06 227.68 414.72 227.86C414.38 228.21 414.13 228.39 413.96 228.39C413.28 228.22 412.77 228.13 412.43 228.13C411.92 227.96 411.58 227.87 411.41 227.87H410.9C408.86 228.05 406.83 228.4 404.79 228.92C402.92 229.27 400.89 229.62 398.68 229.97H387.99C387.31 231.54 385.95 233.73 383.92 236.53C381.71 239.5 379.85 241.16 378.32 241.51H377.81V240.46C378.49 239.59 379.17 238.63 379.85 237.58C380.53 236.71 381.21 235.75 381.89 234.7C382.23 233.3 382.48 232.08 382.65 231.03C382.82 229.81 383.07 228.58 383.41 227.36C383.41 227.01 383.49 226.66 383.66 226.31C383.83 225.96 384.08 225.79 384.42 225.79C384.76 225.79 385.44 226.14 386.46 226.84C387.31 227.54 387.99 228.06 388.5 228.41C391.55 227.88 395.03 227.19 398.94 226.31C402.84 225.26 406.32 224.04 409.38 222.64L410.4 222.38C410.74 222.38 411.59 222.99 412.95 224.22C414.31 225.44 415.16 226.32 415.5 226.84L415.48 226.81ZM418.53 246.22C418.36 246.57 418.11 246.83 417.77 247.01C417.43 247.18 417.18 247.27 417.01 247.27H384.43C383.58 247.27 382.82 247.45 382.14 247.79C381.29 247.96 380.53 248.14 379.85 248.31C379.68 248.14 379.51 247.7 379.34 247L378.83 245.69L379.85 245.17L384.43 245.69H395.63V240.97H390.03C389.18 240.97 388.42 241.06 387.74 241.23C386.89 241.23 386.13 241.32 385.45 241.49C385.11 241.32 384.86 240.88 384.69 240.18C384.52 239.48 384.44 239.04 384.44 238.87V238.35H384.95L390.04 238.87H403.78C403.95 238.35 404.46 237.56 405.31 236.51C405.99 235.29 406.5 234.67 406.84 234.67C407.18 234.67 407.94 235.37 409.13 236.77C410.49 238.17 411.25 239.22 411.42 239.92V240.44L410.4 240.96H400.73V245.68H408.37C408.71 245.16 409.39 244.28 410.41 243.06C411.26 241.66 411.94 240.96 412.45 240.96C412.79 241.31 413.81 242.1 415.5 243.32C417.2 244.54 418.21 245.51 418.55 246.2L418.53 246.22ZM421.08 258.28C420.91 258.45 420.74 258.63 420.57 258.8C420.4 258.98 420.23 259.15 420.06 259.32H411.91V266.66C411.74 267.18 411.32 267.53 410.64 267.71C409.96 268.06 409.37 268.23 408.86 268.23C407.5 268.23 406.74 268.06 406.57 267.71C406.23 267.19 406.15 266.49 406.32 265.61H387.48L383.41 266.13L382.9 265.61L382.39 263.51L382.9 262.99C383.58 262.99 384.34 263.08 385.19 263.25C385.87 263.25 386.63 263.34 387.48 263.51H406.32V259.31H385.96C385.11 259.31 384.35 259.4 383.67 259.57C382.82 259.57 382.06 259.66 381.38 259.83L380.36 257.21V256.69H380.87L385.96 257.21H406.32V253.01H387.99C387.14 253.01 386.38 253.1 385.7 253.27C385.02 253.27 384.43 253.36 383.92 253.53H383.41L382.9 250.91V250.39C383.58 250.39 384.43 250.48 385.45 250.65C386.3 250.65 387.15 250.74 388 250.91H406.33C406.5 250.56 407.01 250.04 407.86 249.34C408.54 248.64 409.05 248.29 409.39 248.29C409.73 248.29 410.49 248.81 411.68 249.86C413.04 250.91 413.8 251.96 413.97 253.01C413.8 253.53 413.55 253.89 413.21 254.06C412.87 254.41 412.45 254.58 411.94 254.58V257.2H413.98C413.98 256.68 414.32 255.98 415 255.1C415.68 254.05 416.36 253.53 417.04 253.53H417.55C417.55 253.88 418.14 254.67 419.33 255.89C420.35 256.94 420.94 257.73 421.11 258.25L421.08 258.28ZM413.44 281.88C412.93 283.98 410.72 285.2 406.82 285.55C403.09 285.9 400.37 286.07 398.67 286.07C395.45 286.07 392.56 285.72 390.02 285.02C387.3 284.15 385.95 281.87 385.95 278.2V268.76C385.78 268.41 385.78 268.24 385.95 268.24C385.95 268.07 386.12 268.07 386.46 268.24C387.14 268.24 387.99 268.33 389.01 268.5C389.86 268.68 390.71 268.94 391.56 269.29C392.24 269.12 392.75 269.2 393.09 269.55C393.43 269.9 393.6 270.51 393.6 271.39C393.43 272.27 393.01 272.79 392.33 272.96C391.48 272.96 391.06 273.14 391.06 273.48V276.63C391.06 278.55 391.99 279.69 393.86 280.04C395.73 280.21 397.51 280.3 399.21 280.3C402.94 280.3 405.15 280.04 405.83 279.51C406.51 278.99 407.53 277.15 408.88 274C408.88 273.65 408.96 273.39 409.13 273.21C409.3 273.04 409.55 272.95 409.89 272.95C410.23 272.95 410.48 273.65 410.65 275.05C410.82 276.45 410.9 277.5 410.9 278.2C411.07 279.07 411.49 279.6 412.17 279.77C412.85 279.94 413.27 280.64 413.44 281.87V281.88ZM400.71 236.25C400.71 236.77 400.54 237.21 400.2 237.56C399.86 237.91 399.35 238.17 398.67 238.35C397.31 238.18 396.55 237.56 396.38 236.51C396.04 235.46 395.79 234.5 395.62 233.63C395.45 233.28 395.2 232.84 394.86 232.32C394.35 231.62 394.1 231.18 394.1 231.01C394.1 230.66 394.18 230.49 394.35 230.49C394.52 230.32 394.77 230.32 395.11 230.49C396.13 230.49 397.32 231.1 398.67 232.33C399.86 233.55 400.54 234.87 400.71 236.26V236.25ZM404.78 273.49C404.61 274.19 404.36 274.8 404.02 275.32C403.51 275.67 402.92 275.93 402.24 276.11C401.22 275.93 400.37 275.41 399.69 274.54C399.01 273.49 398.5 272.44 398.16 271.39C397.99 270.87 397.65 270.25 397.14 269.55L396.12 268.24C395.95 267.89 395.95 267.72 396.12 267.72C396.12 267.55 396.29 267.55 396.63 267.72C398.16 267.72 399.85 268.16 401.72 269.03C403.59 270.08 404.6 271.57 404.77 273.49H404.78ZM419.54 238.35C419.37 239.05 419.03 239.66 418.52 240.18C418.01 240.53 417.5 240.79 416.99 240.97C415.63 240.8 414.61 239.92 413.94 238.35C413.09 236.78 412.58 235.55 412.41 234.68C411.9 233.98 411.14 233.02 410.12 231.8L408.34 229.97C408.34 229.62 408.42 229.36 408.59 229.18C408.76 229.01 409.01 228.92 409.35 228.92C411.05 229.1 413.08 230.23 415.46 232.33C417.84 234.43 419.19 236.44 419.53 238.36L419.54 238.35ZM421.07 280.31C421.07 281.01 420.9 281.71 420.56 282.41C420.22 282.93 419.71 283.28 419.03 283.46C417.5 283.28 416.48 282.32 415.98 280.58C415.47 278.83 415.13 277.34 414.96 276.12C414.62 275.07 414.28 274.11 413.94 273.24C413.6 272.37 413.26 271.58 412.92 270.88C412.58 270.88 412.41 270.71 412.41 270.36H412.92L413.43 269.83C414.96 270.36 416.57 271.75 418.27 274.03C419.97 276.13 420.9 278.23 421.07 280.32V280.31Z" fill="#323333"/>
<path d="M454.17 259.32C454 259.49 453.75 259.67 453.41 259.84C453.07 260.02 452.82 260.19 452.65 260.36H442.98V262.98C444.68 263.33 446.63 264.38 448.83 266.13C451.03 267.88 452.31 269.8 452.65 271.9C452.48 272.6 452.23 273.21 451.89 273.73C451.38 274.08 450.79 274.34 450.11 274.52C448.58 274.17 447.22 272.95 446.04 270.85C444.85 268.58 443.83 266.83 442.99 265.6V285.01C442.82 285.53 442.4 285.88 441.72 286.06C441.04 286.41 440.45 286.58 439.94 286.58C439.26 286.58 438.75 286.41 438.41 286.06C438.07 285.88 437.9 285.54 437.9 285.01V268.23C436.37 270.33 434.68 272.52 432.81 274.79C430.77 276.89 428.57 278.55 426.19 279.77H425.68L425.17 279.25C425 278.9 425 278.73 425.17 278.73C425.17 278.55 425.34 278.38 425.68 278.21C428.06 275.59 430.09 272.88 431.79 270.08C433.49 267.11 434.84 263.87 435.86 260.38H431.28C430.6 260.38 430.01 260.47 429.5 260.64C428.82 260.64 428.23 260.73 427.72 260.9C427.21 260.73 426.79 260.29 426.45 259.59C426.28 258.89 426.2 258.45 426.2 258.28L427.22 257.76L431.29 258.28H437.91V249.89C438.59 249.89 439.44 249.98 440.46 250.15C441.31 250.33 442.33 250.59 443.51 250.94C444.02 251.11 444.53 251.29 445.04 251.46C445.55 251.64 445.89 252.16 446.06 253.03C445.89 254.08 445.3 254.78 444.28 255.13C443.26 255.3 442.84 255.65 443.01 256.18V258.28H444.03C444.37 257.76 445.05 256.97 446.07 255.92C446.92 254.7 447.6 254.08 448.11 254.08C448.45 254.43 449.47 255.22 451.16 256.44C452.86 257.66 453.87 258.63 454.21 259.32H454.17ZM483.7 246.21C483.53 246.39 483.45 246.56 483.45 246.73C483.28 246.73 483.2 246.9 483.2 247.25C481.84 247.6 480.99 248.04 480.65 248.56C480.14 249.08 479.8 250.05 479.63 251.44C479.46 251.62 479.29 251.7 479.12 251.7C478.95 251.88 478.78 251.96 478.61 251.96H478.1C473.86 250.56 469.95 248.29 466.39 245.14C462.83 242.17 459.94 238.85 457.74 235.17V250.38C457.57 251.08 457.15 251.6 456.47 251.95C455.79 252.3 455.2 252.47 454.69 252.47C454.01 252.47 453.5 252.3 453.16 251.95C452.82 251.78 452.65 251.43 452.65 250.9V236.21C449.26 240.41 445.52 243.55 441.45 245.65C437.38 247.57 432.96 249.32 428.21 250.9H427.7C427.36 250.9 427.11 250.81 426.94 250.64C426.77 250.64 426.69 250.55 426.69 250.38L427.2 249.33C427.71 248.98 428.3 248.72 428.98 248.54C429.49 248.19 430.08 247.93 430.76 247.75C432.29 247.23 433.81 246.53 435.34 245.65C436.87 244.95 438.39 244.08 439.92 243.03C441.62 241.63 443.23 240.15 444.76 238.57C446.12 237 447.39 235.33 448.58 233.59H434.83L430.76 234.11H430.25C430.08 233.94 429.91 233.5 429.74 232.8C429.4 232.1 429.23 231.66 429.23 231.49L430.25 230.97L434.83 231.49H452.65V223.1C453.84 223.1 455.45 223.36 457.49 223.89C459.36 224.41 460.46 225.2 460.8 226.25C460.63 226.95 460.29 227.47 459.78 227.82C459.27 228.17 458.76 228.52 458.25 228.87C457.91 228.87 457.74 229.05 457.74 229.39V231.49H469.96C470.3 230.97 470.98 230.09 472 228.87C472.85 227.47 473.53 226.77 474.04 226.77C474.72 226.94 475.99 227.73 477.86 229.13C479.73 230.7 480.83 231.84 481.17 232.54C481 232.71 480.75 232.89 480.41 233.06C480.07 233.24 479.82 233.41 479.65 233.58H459.29C461.33 235.85 463.53 237.78 465.91 239.35C468.46 241.1 471.17 242.5 474.06 243.55C475.59 243.9 477.03 244.25 478.39 244.6C479.92 244.78 481.36 245.12 482.72 245.65C482.89 245.48 483.06 245.48 483.23 245.65C483.4 245.65 483.57 245.83 483.74 246.17L483.7 246.21ZM486.75 274.53L486.24 275.05C485.05 275.4 484.12 275.84 483.44 276.36C482.76 276.88 482.34 277.67 482.17 278.72H480.64C478.26 276.97 476.23 274.7 474.53 271.9C472.83 268.93 471.48 266.13 470.46 263.51V285.01C470.29 285.71 469.87 286.15 469.19 286.32C468.51 286.49 467.92 286.58 467.41 286.58C466.73 286.58 466.22 286.49 465.88 286.32C465.54 286.14 465.37 285.71 465.37 285.01V268.23C463.67 270.33 461.55 272.6 459.01 275.05C456.46 277.5 453.83 279.25 451.12 280.29H450.61L450.1 279.77C450.1 279.42 450.27 279.07 450.61 278.72C451.29 278.02 452.14 277.32 453.16 276.62C454.01 275.92 454.86 275.22 455.71 274.52C457.41 272.42 458.93 270.15 460.29 267.7C461.48 265.43 462.5 262.98 463.34 260.36H460.29C459.44 260.36 458.68 260.45 458 260.62C457.32 260.62 456.73 260.71 456.22 260.88C455.88 260.71 455.54 260.27 455.2 259.57C454.86 258.87 454.69 258.43 454.69 258.26L455.71 257.74L460.29 258.26H465.38V249.87C466.06 249.87 466.99 250.05 468.18 250.39C469.2 250.74 470.13 251.09 470.98 251.44C471.49 251.27 472 251.35 472.51 251.7C473.02 252.05 473.36 252.66 473.53 253.54C473.36 254.41 472.77 254.94 471.75 255.11C470.73 255.28 470.31 255.63 470.48 256.16V258.26H473.03C473.37 257.74 474.05 256.86 475.07 255.64C475.92 254.24 476.6 253.54 477.11 253.54C481.52 256.69 483.73 258.61 483.73 259.31C483.73 259.48 483.56 259.66 483.22 259.83C483.05 260.01 482.71 260.18 482.2 260.35H471C471.85 261.92 472.87 263.41 474.05 264.81C475.24 266.38 476.6 267.87 478.12 269.27C479.31 270.32 480.58 271.19 481.94 271.89C483.3 272.76 484.74 273.46 486.27 273.99L486.78 274.51L486.75 274.53Z" fill="#12A095"/>
<path d="M511.19 261.95C510.68 263.17 508.39 265.1 504.32 267.72C500.42 270.52 497.62 272.44 495.92 273.49C495.58 273.66 495.5 273.93 495.67 274.28C495.67 274.46 495.75 274.72 495.92 275.07C495.92 275.59 495.75 276.03 495.41 276.38C495.24 276.73 494.9 276.99 494.39 277.17C493.71 276.82 492.78 275.68 491.59 273.76C490.4 271.84 489.81 270.53 489.81 269.83L490.32 269.31C491.34 268.79 492.53 268.35 493.88 268C495.07 267.83 496.26 267.74 497.44 267.74V245.71H494.89C494.04 245.71 493.28 245.8 492.6 245.97C491.75 245.97 490.99 246.06 490.31 246.23L489.8 243.61V243.09H490.31L494.89 243.61H497.44V225.78C497.27 225.43 497.19 225.08 497.19 224.73C497.19 224.38 497.44 224.21 497.95 224.21C498.8 224.21 500.24 224.47 502.28 225C504.15 225.52 505.25 226.31 505.59 227.36C505.42 228.23 504.91 228.76 504.06 228.93C503.04 229.11 502.53 229.45 502.53 229.98V243.62H503.04C503.04 243.1 503.46 242.31 504.31 241.26C504.99 240.04 505.58 239.42 506.09 239.42L506.6 239.94C506.94 240.29 507.53 240.99 508.38 242.04C509.4 243.09 509.99 243.96 510.16 244.66C509.82 245.36 508.63 245.71 506.6 245.71H502.53V265.64C503.72 264.94 504.99 264.24 506.35 263.54C507.54 262.84 508.81 262.14 510.17 261.44H510.68C511.02 261.44 511.19 261.62 511.19 261.96V261.95ZM551.41 281.36C551.07 283.28 549.37 284.51 546.32 285.03C543.43 285.38 541.23 285.55 539.7 285.55C533.59 285.38 530.28 283.63 529.77 280.31C529.09 276.99 529.01 272.62 529.52 267.2H526.97C526.29 271.4 524.68 274.89 522.13 277.69C519.58 280.66 516.44 282.93 512.71 284.51C511.52 284.68 510.16 285.03 508.64 285.56C506.94 286.08 505.59 286.43 504.57 286.61L503.55 286.09C503.38 285.74 503.38 285.48 503.55 285.3C503.72 285.13 504.06 285.04 504.57 285.04C505.59 284.69 506.69 284.25 507.88 283.73C508.9 283.38 510 282.94 511.19 282.42C514.41 280.5 516.79 278.4 518.32 276.13C519.85 273.68 521.03 270.71 521.88 267.21H518.83C518.83 267.91 518.74 268.43 518.58 268.78C518.58 269.3 518.49 269.83 518.33 270.35C517.82 270.52 517.4 270.61 517.06 270.61C516.55 270.78 516.13 270.87 515.79 270.87H513.75C513.58 270.52 513.49 270.26 513.49 270.08L513.24 269.82V248.32H513.75C514.43 248.49 515.19 248.84 516.04 249.37C516.72 249.72 517.48 250.07 518.33 250.42L520.37 250.94H538.19C538.36 250.59 538.87 250.07 539.72 249.37C540.4 248.67 540.91 248.32 541.25 248.32C541.59 248.32 542.35 248.84 543.54 249.89C544.9 250.94 545.66 251.99 545.83 253.04C545.66 253.39 545.41 253.65 545.07 253.83C544.73 254 544.48 254.27 544.31 254.62L543.8 255.14V268.78C543.63 269.48 543.21 270 542.53 270.35C541.85 270.7 541.26 270.87 540.75 270.87C539.39 270.7 538.71 270.35 538.71 269.82C538.54 269.12 538.54 268.25 538.71 267.2H535.15V276.12C534.98 277.87 535.23 279 535.91 279.53C536.59 280.05 537.86 280.32 539.73 280.32L543.29 279.8L544.31 278.75C544.99 278.05 545.5 276.91 545.84 275.34C546.35 273.94 546.86 273.16 547.37 272.98C548.22 273.16 548.56 273.94 548.39 275.34C548.39 276.91 548.73 278.05 549.41 278.75C549.92 278.92 550.34 279.27 550.68 279.8C551.02 280.15 551.27 280.67 551.44 281.37L551.41 281.36ZM550.39 244.64C550.22 244.82 549.97 244.99 549.63 245.16C549.29 245.33 549.04 245.51 548.87 245.68H515.78C514.93 245.68 514.25 245.77 513.74 245.94C513.06 245.94 512.38 246.03 511.7 246.2C511.36 246.03 511.11 245.59 510.94 244.89C510.77 244.19 510.69 243.75 510.69 243.58L511.2 243.06L515.78 243.58H532.58C532.75 242.18 533 240.78 533.34 239.38C533.51 237.98 533.76 236.58 534.1 235.18C534.1 234.48 534.27 234.13 534.61 234.13C535.46 234.13 536.9 234.39 538.94 234.92C540.81 235.44 541.91 236.23 542.25 237.28C542.08 238.16 541.57 238.59 540.72 238.59C539.87 238.59 539.19 238.85 538.68 239.38C537.83 240.08 537.15 240.78 536.64 241.48C535.96 242.18 535.45 242.88 535.11 243.58H539.69C540.03 243.06 540.71 242.27 541.73 241.22C542.58 240 543.26 239.38 543.77 239.38C548.18 242.18 550.39 243.93 550.39 244.62V244.64ZM547.84 232.05C547.67 232.23 547.42 232.4 547.08 232.57C546.74 232.74 546.49 232.92 546.32 233.09H516.79C515.94 233.09 515.26 233.18 514.75 233.35C514.07 233.35 513.39 233.44 512.71 233.61C512.37 233.44 512.12 233 511.95 232.3C511.78 231.6 511.7 231.16 511.7 230.99H512.21L516.79 231.51H526.46C526.29 230.11 526.21 228.36 526.21 226.26C526.21 223.99 526.46 222.76 526.97 222.59C527.65 222.59 528.5 222.68 529.52 222.85C530.37 223.02 531.39 223.29 532.57 223.64C533.08 223.47 533.59 223.55 534.1 223.9C534.61 224.25 534.95 224.86 535.12 225.74C534.95 226.61 534.44 227.14 533.59 227.31C532.57 227.48 532.06 227.83 532.06 228.36V231.51H536.64C536.98 230.81 537.74 229.76 538.93 228.36C539.95 226.96 540.71 226.26 541.22 226.26L541.73 226.78C542.07 227.13 543.09 227.92 544.78 229.14C546.48 230.36 547.49 231.33 547.83 232.02L547.84 232.05ZM524.42 240.97C524.42 241.49 524.25 241.93 523.91 242.28C523.74 242.8 523.4 243.24 522.89 243.59H522.38C520.68 243.59 519.66 242.63 519.33 240.71C518.99 238.79 518.65 237.13 518.31 235.73V235.21C518.14 234.86 518.14 234.6 518.31 234.42C518.31 234.25 518.48 234.16 518.82 234.16C519.84 234.16 521.03 234.95 522.38 236.52C523.57 237.92 524.25 239.4 524.42 240.98V240.97ZM538.67 258.28V252.51H520.34L518.81 253.03V258.28H538.66H538.67ZM538.67 265.1V260.38H518.82V265.1H538.67Z" fill="#323333"/>
<path d="M42.23 345.04C42.11 345.28 41.93 345.46 41.69 345.58C41.45 345.7 41.27 345.76 41.15 345.76H3.61001C3.13001 345.76 2.65001 345.88 2.17001 346.12C1.69001 346.24 1.21001 346.36 0.73001 346.48C0.49001 346.36 0.31001 346.06 0.19001 345.58L0.0100098 344.68L0.73001 344.32L3.62001 344.68H19.85V340.35H10.83V341.61C10.83 341.85 10.71 342.27 10.47 342.87L8.66001 343.23L7.58001 342.87L7.22001 342.15V327.35C7.70001 327.59 8.24001 327.89 8.84001 328.25C9.32001 328.49 9.86001 328.79 10.46 329.15H31.77C31.77 328.91 32.01 328.55 32.49 328.07C32.97 327.59 33.33 327.35 33.57 327.35C33.93 327.35 34.53 327.71 35.38 328.43C36.22 329.15 36.7 329.87 36.82 330.6C36.7 330.96 36.52 331.2 36.28 331.32C36.04 331.56 35.86 331.68 35.74 331.68C35.5 331.92 35.38 332.16 35.38 332.4V341.79C35.26 342.27 35.02 342.57 34.66 342.69C34.18 342.81 33.7 342.87 33.22 342.87C32.26 342.87 31.78 342.63 31.78 342.15C31.66 341.79 31.66 341.19 31.78 340.34H23.48V344.67H33.95C34.19 344.19 34.67 343.53 35.39 342.68C36.11 341.84 36.71 341.42 37.2 341.42C40.57 343.35 42.25 344.55 42.25 345.03L42.23 345.04ZM16.96 362.01C16.84 362.49 16.54 362.73 16.06 362.73H14.8L14.08 363.09C12.76 364.29 10.71 365.62 7.94001 367.06C5.17001 368.5 3.01001 369.35 1.44001 369.59L0.72001 369.23L1.44001 368.51C2.40001 367.91 3.36001 367.31 4.33001 366.7C5.29001 366.1 6.25001 365.5 7.22001 364.89C8.06001 364.17 8.90001 363.33 9.75001 362.36C10.59 361.52 11.43 360.55 12.28 359.47C12.28 359.23 12.4 359.11 12.64 359.11C13.12 359.23 13.9 359.59 14.99 360.19C16.07 360.79 16.73 361.39 16.97 361.99L16.96 362.01ZM35.73 350.82C35.61 351.18 35.43 351.42 35.19 351.54C34.95 351.78 34.65 351.9 34.29 351.9V358.4C34.17 358.76 33.87 359 33.39 359.12C32.91 359.36 32.49 359.48 32.13 359.48C31.17 359.48 30.63 359.3 30.51 358.94C30.27 358.58 30.21 358.04 30.33 357.31H23.47V366.7C23.35 367.9 22.69 368.81 21.48 369.41C20.4 370.01 19.37 370.43 18.41 370.67C18.29 369.59 17.93 368.8 17.33 368.32C16.61 367.72 15.89 367.3 15.16 367.06L14.44 366.7C14.44 366.1 14.86 365.86 15.7 365.98C16.42 366.1 16.96 366.22 17.32 366.34L19.12 365.98L19.48 364.9V357.32H11.9C11.9 357.44 11.84 357.68 11.72 358.04C11.72 358.28 11.66 358.52 11.54 358.76L9.73001 359.12H8.65001C8.41001 358.88 8.29001 358.64 8.29001 358.4V347.57C8.77001 347.81 9.31001 348.11 9.91001 348.47C10.39 348.71 10.93 349.01 11.53 349.37H30.32C30.44 349.13 30.8 348.77 31.4 348.29C31.88 347.81 32.24 347.57 32.48 347.57C32.72 347.57 33.26 347.93 34.1 348.65C35.06 349.37 35.6 350.09 35.72 350.82H35.73ZM31.76 334.21V330.6H10.83V334.21H31.77H31.76ZM31.76 338.9V335.29H10.83V338.9H31.77H31.76ZM30.32 355.87V350.82H11.91V355.87H30.32ZM38.98 368.14C38.86 368.62 38.62 369.04 38.26 369.4C37.9 369.64 37.54 369.82 37.18 369.94C36.22 369.7 35.25 368.98 34.29 367.78C33.33 366.46 32.61 365.37 32.12 364.53C31.4 363.81 30.68 363.15 29.95 362.54C29.23 361.94 28.51 361.4 27.78 360.92C27.54 360.92 27.42 360.8 27.42 360.56L27.78 360.2C29.46 360.32 31.69 361.22 34.46 362.91C37.11 364.59 38.61 366.34 38.97 368.14H38.98Z" fill="#231815"/>
<path d="M69.74 351.18C69.62 351.3 69.44 351.42 69.2 351.54C68.96 351.66 68.78 351.78 68.66 351.9H62.52V355.51C62.52 355.15 62.82 354.67 63.42 354.07C63.9 353.35 64.32 352.99 64.68 352.99C64.92 352.99 65.58 353.41 66.66 354.25C67.74 355.09 68.4 355.75 68.64 356.23C68.64 356.47 68.52 356.65 68.28 356.77C68.16 356.89 67.92 356.95 67.56 356.95H62.51V360.56C62.51 360.2 62.81 359.66 63.41 358.94C63.89 358.1 64.31 357.68 64.67 357.68C64.91 357.68 65.57 358.16 66.65 359.12C67.73 360.08 68.39 360.8 68.63 361.29C68.63 361.41 68.51 361.53 68.27 361.65C68.15 361.77 67.91 361.89 67.55 362.01H62.5V365.62C62.62 365.26 62.98 364.72 63.58 364C64.06 363.16 64.54 362.74 65.02 362.74C65.26 362.74 65.98 363.22 67.19 364.18C68.39 365.14 69.11 365.86 69.36 366.34C69.24 366.46 69.06 366.58 68.82 366.7C68.58 366.82 68.4 366.94 68.28 367.06H54.2C54.2 367.54 54.14 368.08 54.02 368.68C54.02 369.16 53.96 369.7 53.84 370.31L52.03 370.67C51.55 370.67 51.13 370.55 50.77 370.31C50.41 370.19 50.23 369.95 50.23 369.59V354.79C49.87 354.91 49.33 355.21 48.61 355.69C47.77 356.17 47.23 356.47 46.99 356.59C46.75 356.47 46.57 356.41 46.45 356.41L46.27 356.23C46.51 355.99 46.63 355.75 46.63 355.51C47.95 354.43 48.98 353.22 49.7 351.9C50.42 350.46 51.08 348.89 51.69 347.21C51.57 346.85 51.57 346.43 51.69 345.95C51.81 345.35 52.05 345.05 52.41 345.05C52.89 345.05 53.85 345.29 55.3 345.77C56.74 346.37 57.59 346.97 57.83 347.58C57.71 348.18 57.29 348.48 56.57 348.48C55.97 348.48 55.55 348.66 55.31 349.02C55.07 349.26 54.89 349.5 54.77 349.74C54.53 349.98 54.35 350.22 54.23 350.46H58.92C58.8 349.86 58.8 349.02 58.92 347.93C58.92 346.85 59.04 346.25 59.28 346.12C60.12 346 61.14 346.12 62.35 346.48C63.55 346.72 64.21 347.2 64.33 347.93C64.21 348.41 63.85 348.65 63.25 348.65C62.77 348.77 62.41 349.01 62.17 349.37L60.73 350.45H63.26C63.38 350.09 63.74 349.55 64.34 348.82C64.82 347.98 65.18 347.56 65.42 347.56C65.66 347.56 66.38 348.04 67.59 349C68.79 349.96 69.51 350.68 69.76 351.16L69.74 351.18ZM70.82 332.05C70.7 332.17 70.58 332.29 70.46 332.41C70.34 332.53 70.22 332.65 70.1 332.77H65.05C65.05 333.85 64.93 334.64 64.69 335.12C64.45 335.72 63.73 336.02 62.52 336.02C61.44 335.9 60.9 335.54 60.9 334.94C60.9 334.22 60.96 333.5 61.08 332.77H56.03C56.03 333.85 55.97 334.64 55.85 335.12C55.61 335.72 54.95 336.02 53.87 336.02C52.79 335.9 52.25 335.54 52.25 334.94C52.25 334.22 52.31 333.5 52.43 332.77H50.62C50.14 332.77 49.66 332.83 49.18 332.95C48.58 332.95 48.1 333.01 47.74 333.13C47.5 333.01 47.32 332.71 47.2 332.23C47.08 331.75 47.02 331.45 47.02 331.33V330.97H47.38L52.43 331.33C52.31 330.49 52.25 329.53 52.25 328.44C52.25 327.24 52.43 326.63 52.79 326.63C53.39 326.51 54.35 326.63 55.68 326.99C56.88 327.23 57.6 327.71 57.85 328.43C57.73 328.91 57.55 329.27 57.31 329.51C57.07 329.75 56.77 329.87 56.41 329.87L56.05 330.23V331.31H61.1C60.98 330.47 60.98 329.57 61.1 328.6C61.1 327.52 61.22 326.97 61.46 326.97C62.3 326.85 63.38 326.91 64.71 327.15C65.91 327.27 66.63 327.81 66.88 328.77C66.76 329.01 66.52 329.25 66.16 329.49C65.8 329.73 65.44 329.97 65.08 330.21V331.29H66.16C66.16 330.93 66.46 330.45 67.06 329.85C67.54 329.13 67.96 328.77 68.32 328.77C70 330.45 70.85 331.54 70.85 332.02L70.82 332.05ZM71.18 338.91C71.18 339.27 71.06 339.51 70.82 339.63C70.7 339.87 70.46 339.99 70.1 339.99L69.74 340.35V345.04C69.62 345.52 69.38 345.88 69.02 346.12C68.54 346.36 68.06 346.48 67.58 346.48C66.62 346.36 66.14 346.12 66.14 345.76C66.02 345.28 66.02 344.68 66.14 343.95H63.25C63.25 344.67 63.07 345.21 62.71 345.58C62.47 345.94 61.93 346.12 61.09 346.12C60.85 346.12 60.55 346.06 60.19 345.94C59.83 345.82 59.65 345.52 59.65 345.04V339.26C59.41 339.38 59.23 339.5 59.11 339.62C58.87 339.74 58.69 339.86 58.57 339.98V344.67C58.45 345.03 58.15 345.27 57.67 345.39C57.19 345.63 56.77 345.75 56.41 345.75C55.69 345.75 55.27 345.63 55.15 345.39C54.91 345.03 54.85 344.55 54.97 343.95H51.72C51.72 344.79 51.6 345.39 51.36 345.76C51.24 346.24 50.76 346.48 49.92 346.48C49.44 346.48 49.02 346.42 48.66 346.3C48.3 346.18 48.12 345.88 48.12 345.4V336.01C48.12 335.77 48.24 335.65 48.48 335.65C48.72 335.65 49.2 335.89 49.92 336.37C50.64 336.85 51.24 337.21 51.73 337.45H54.98C54.98 337.21 55.22 336.85 55.7 336.37C56.18 335.89 56.54 335.65 56.78 335.65C58.46 337.09 59.43 337.94 59.67 338.18C59.55 337.82 59.49 337.34 59.49 336.74C59.37 336.02 59.43 335.66 59.67 335.66C59.91 335.66 60.45 335.9 61.29 336.38C62.01 336.86 62.55 337.22 62.91 337.46H66.16C66.28 337.22 66.58 336.86 67.06 336.38C67.42 335.9 67.72 335.66 67.96 335.66C68.2 335.66 68.74 336.02 69.58 336.74C70.54 337.46 71.08 338.18 71.2 338.9L71.18 338.91ZM54.94 342.52V338.91H51.69V342.52H54.94ZM58.55 355.88V351.91H54.22V355.88H58.55ZM58.55 360.57V356.96H54.22V360.57H58.55ZM58.55 365.62V362.01H54.22V365.62H58.55ZM66.13 342.52V338.91H63.24V342.52H66.13ZM90.68 331.69C90.56 332.29 90.2 332.65 89.6 332.77C88.88 332.77 88.52 333.13 88.52 333.85V355.51L88.16 356.23L86.35 356.59H85.27C84.91 356.11 84.73 355.63 84.73 355.15C84.73 354.55 84.79 354.07 84.91 353.71H84.19V366.7H84.91C86.35 366.46 87.08 365.86 87.08 364.89C87.2 363.81 87.56 363.21 88.16 363.09C88.64 363.09 88.88 363.27 88.88 363.63V364.89C88.88 365.97 89.12 366.57 89.6 366.7C89.96 366.82 90.2 367.3 90.32 368.14C90.08 369.1 89.36 369.77 88.15 370.13C86.83 370.49 85.74 370.67 84.9 370.67C83.22 370.67 82.01 370.31 81.29 369.59C80.45 368.99 80.09 367.91 80.21 366.34V353.71H79.49C79.49 357.08 79.01 360.21 78.05 363.1C76.97 365.87 74.68 368.03 71.19 369.6C70.47 369.72 69.63 369.96 68.66 370.32C67.58 370.68 66.74 370.92 66.13 371.04C65.89 370.92 65.71 370.8 65.59 370.68C65.47 370.56 65.41 370.44 65.41 370.32C65.41 370.08 65.47 369.96 65.59 369.96C65.71 369.84 65.89 369.72 66.13 369.6C67.57 369 68.96 368.34 70.28 367.61C71.6 366.89 72.75 365.87 73.71 364.54C74.55 362.86 75.09 361.05 75.33 359.12C75.69 357.31 75.87 355.51 75.87 353.71H75.15C75.15 354.55 75.09 355.21 74.97 355.7C74.85 356.18 74.31 356.48 73.35 356.6C72.87 356.6 72.45 356.48 72.09 356.24C71.73 356 71.55 355.64 71.55 355.16V328.45L71.91 328.09C72.39 328.21 72.93 328.51 73.53 328.99C74.01 329.35 74.55 329.77 75.15 330.25H84.9C85.02 329.89 85.38 329.41 85.98 328.81C86.46 328.09 86.94 327.73 87.42 327.73C87.66 327.73 88.2 328.21 89.04 329.17C90 330.13 90.54 330.98 90.66 331.7L90.68 331.69ZM84.9 337.47V331.33H76.24L75.16 331.69V337.47H84.91H84.9ZM84.9 345.05V338.91H75.15V345.05H84.9ZM84.9 352.63V346.49H75.15V352.63H84.9Z" fill="#231815"/>
<path d="M122.38 362.38L119.36 370.67H93.9399V369.49C101.42 362.67 106.68 357.1 109.73 352.78C112.78 348.46 114.3 344.51 114.3 340.93C114.3 338.2 113.46 335.95 111.79 334.19C110.12 332.43 108.11 331.55 105.79 331.55C103.67 331.55 101.77 332.17 100.09 333.41C98.4099 334.65 97.1599 336.47 96.3599 338.86H95.1799C95.7099 334.94 97.0699 331.93 99.2599 329.84C101.45 327.74 104.19 326.7 107.47 326.7C110.97 326.7 113.88 327.82 116.22 330.07C118.56 332.31 119.73 334.96 119.73 338.01C119.73 340.19 119.22 342.37 118.21 344.56C116.64 347.99 114.1 351.62 110.59 355.46C105.32 361.22 102.02 364.7 100.71 365.88H111.96C114.25 365.88 115.85 365.79 116.77 365.63C117.69 365.46 118.52 365.12 119.26 364.6C120 364.08 120.65 363.34 121.2 362.39H122.38V362.38Z" fill="#231815"/>
<path d="M129.35 353.67H145.77V358.47H129.35V353.67Z" fill="#231815"/>
<path d="M153.31 335.79C154.54 332.89 156.09 330.65 157.96 329.07C159.83 327.49 162.17 326.7 164.96 326.7C168.41 326.7 171.06 327.82 172.9 330.07C174.3 331.74 175 333.53 175 335.44C175 338.57 173.03 341.81 169.09 345.16C171.74 346.2 173.74 347.68 175.09 349.61C176.45 351.54 177.12 353.8 177.12 356.41C177.12 360.14 175.93 363.37 173.56 366.1C170.47 369.66 165.99 371.44 160.12 371.44C157.22 371.44 155.24 371.08 154.19 370.36C153.14 369.64 152.62 368.87 152.62 368.04C152.62 367.43 152.87 366.89 153.37 366.42C153.87 365.95 154.47 365.72 155.16 365.72C155.69 365.72 156.23 365.81 156.78 365.97C157.14 366.08 157.96 366.46 159.23 367.13C160.5 367.8 161.38 368.19 161.87 368.32C162.65 368.55 163.49 368.67 164.38 368.67C166.54 368.67 168.42 367.83 170.02 366.16C171.62 364.49 172.42 362.51 172.42 360.22C172.42 358.55 172.05 356.92 171.31 355.33C170.76 354.14 170.16 353.24 169.5 352.63C168.59 351.78 167.34 351.01 165.75 350.33C164.16 349.64 162.54 349.3 160.89 349.3H159.87V348.35C161.54 348.14 163.22 347.54 164.91 346.54C166.59 345.54 167.82 344.35 168.58 342.95C169.34 341.55 169.72 340.02 169.72 338.34C169.72 336.16 169.04 334.4 167.67 333.05C166.3 331.71 164.6 331.03 162.57 331.03C159.29 331.03 156.54 332.79 154.34 336.3L153.29 335.79H153.31Z" fill="#231815"/>
<path d="M226.03 337.1C225.91 337.34 225.73 337.52 225.49 337.64C225.25 337.76 224.95 337.94 224.59 338.18C224.35 338.54 224.29 339.62 224.41 341.43C224.41 343.24 224.47 344.44 224.59 345.04C224.47 345.52 224.17 345.88 223.69 346.12C223.21 346.36 222.79 346.48 222.43 346.48C221.35 346.36 220.75 346.12 220.62 345.76C220.5 345.28 220.5 344.68 220.62 343.95H195.71C195.59 347.32 195.29 350.69 194.81 354.06C194.33 357.43 193.31 360.8 191.74 364.17C191.26 365.13 190.6 366.21 189.75 367.42C188.91 368.62 188.13 369.46 187.4 369.95L187.04 370.31C186.8 370.07 186.56 369.95 186.32 369.95V369.59L186.68 369.23C189.21 364.42 190.77 359.54 191.37 354.61C191.85 349.56 192.09 344.44 192.09 339.27V332.77C191.97 332.05 191.91 331.21 191.91 330.24C191.91 329.27 192.09 328.8 192.45 328.8C192.93 328.92 193.53 329.22 194.26 329.7C194.86 330.06 195.46 330.48 196.06 330.96C198.23 330.84 200.33 330.66 202.38 330.42C204.55 330.18 206.65 329.88 208.7 329.52C210.38 329.28 212.19 328.98 214.11 328.62C216.16 328.14 217.96 327.6 219.52 326.99L220.24 326.63H220.6C220.96 326.99 221.56 327.53 222.41 328.26C223.25 328.98 223.73 329.64 223.85 330.25C223.85 330.61 223.73 330.85 223.49 330.97C223.37 331.21 223.13 331.33 222.77 331.33C222.29 331.21 221.93 331.09 221.69 330.97C221.33 330.73 221.09 330.61 220.97 330.61L220.61 330.97C217.48 331.33 214.47 331.63 211.59 331.87C208.58 332.11 205.57 332.29 202.57 332.41L195.71 332.05L196.07 335.3L196.79 335.66H220.61C220.73 335.3 221.09 334.88 221.69 334.4C222.17 333.8 222.53 333.5 222.77 333.5C223.01 333.5 223.55 333.92 224.39 334.76C225.35 335.6 225.89 336.38 226.01 337.11L226.03 337.1ZM228.56 350.46C228.44 350.58 228.26 350.7 228.02 350.82C227.78 350.94 227.6 351.06 227.48 351.18H209.79C209.55 351.9 209.43 352.62 209.43 353.35C209.31 354.07 209.19 354.79 209.07 355.52H219.18C219.3 355.16 219.72 354.68 220.44 354.08C221.04 353.36 221.58 353 222.06 353C222.18 353 222.78 353.48 223.86 354.44C224.82 355.4 225.42 356.25 225.67 356.97C225.55 357.69 225.19 358.11 224.59 358.23C224.11 358.23 223.75 358.41 223.51 358.77C223.27 362.02 222.73 364.67 221.89 366.71C221.05 368.76 218.82 370.08 215.21 370.68C215.21 369.6 214.97 368.75 214.49 368.15C214.13 367.67 213.53 367.19 212.69 366.71C212.45 366.71 212.27 366.65 212.15 366.53C212.03 366.53 211.97 366.47 211.97 366.35C211.97 366.11 212.03 365.93 212.15 365.81C212.27 365.69 212.45 365.63 212.69 365.63C213.17 365.63 213.71 365.69 214.31 365.81C214.79 365.81 215.33 365.87 215.93 365.99C217.61 365.75 218.64 364.55 219 362.38C219.36 360.22 219.54 358.41 219.54 356.97H208.71C207.87 359.5 206.78 361.72 205.46 363.65C204.26 365.57 202.45 367.2 200.05 368.52C199.33 368.88 198.43 369.3 197.34 369.78C196.26 370.26 195.35 370.56 194.63 370.68L193.91 370.32C193.91 370.08 193.97 369.9 194.09 369.78C194.09 369.66 194.15 369.6 194.27 369.6C195.11 369.24 195.89 368.82 196.62 368.34C197.34 367.98 198 367.56 198.61 367.08C201.26 364.91 203.06 362.51 204.02 359.86C205.1 357.21 205.7 354.33 205.83 351.2H200.42C199.94 351.2 199.46 351.26 198.98 351.38C198.5 351.38 198.02 351.44 197.54 351.56C197.3 351.44 197.12 351.14 197 350.66C196.88 350.18 196.82 349.88 196.82 349.76L197.54 349.4C197.9 349.52 198.32 349.64 198.8 349.76C199.28 349.88 199.82 350 200.42 350.12H208C207.88 349.4 207.88 348.31 208 346.87C208 345.55 208.12 344.83 208.36 344.71C209.2 344.83 210.35 345.01 211.79 345.25C213.11 345.37 213.89 345.91 214.14 346.87C214.02 347.47 213.66 347.83 213.06 347.95C212.34 348.07 211.98 348.31 211.98 348.67V350.11H220.28L223.17 346.5H223.89C224.13 346.86 224.91 347.52 226.24 348.49C227.56 349.33 228.35 349.99 228.59 350.47L228.56 350.46ZM220.62 342.52V336.74H196.8L196.08 337.1L195.72 342.51H220.63L220.62 342.52Z" fill="#231815"/>
<path d="M361.32 74.9396C362.62 76.3596 363.58 77.6196 364.67 78.7196C368.17 82.2296 371.67 85.7196 375.15 89.2096C381.59 95.6396 388.99 100.82 396.71 105.46C400.37 107.69 404.35 109.44 408.19 111.35C409.5 112.01 410.05 113.2 409.37 114.42C408.15 116.63 406.84 118.83 405.55 121C404.99 121.92 403.67 122.21 402.77 121.64C398.65 119.09 394.5 116.64 390.45 113.98C387.64 112.13 384.98 110.02 382.31 107.98C380.93 106.94 380.95 107.03 379.68 108.21C377.29 110.37 374.87 112.52 372.3 114.48C367.38 118.25 362.05 121.32 356.48 123.97C355.84 124.31 354.87 124.06 354.09 123.89C353.88 123.84 353.73 123.04 353.74 122.61C353.76 122.24 354.09 121.88 354.33 121.62C356.94 118.91 359.67 116.33 362.13 113.51C365.51 109.59 368.68 105.42 371.91 101.38C372.43 100.76 373.5 100.23 372.61 99.1796C372 98.4996 371.33 97.8396 370.66 97.1696C367.02 93.6096 363.91 89.5796 361.08 85.3396C358.97 82.2296 357.18 78.9196 355.17 75.7196C354.9 75.3496 354.31 74.9396 353.85 74.9396C346.05 74.8896 338.29 74.8996 330.52 74.9396C330.13 74.9396 329.57 75.1996 329.39 75.5296C325.85 81.6296 322.21 87.6596 317.82 93.1796C315.35 96.3096 312.68 99.2596 309.93 102.52C311.12 103.3 312.35 104.1 313.58 104.92C316.95 107.21 320.45 109.37 323.65 111.84C325.91 113.53 328.1 115.48 329.73 117.7C331.63 120.29 330.99 123.95 327.56 125.3C325.6 126.05 322.6 124.85 321.2 122.82C318.17 118.45 315 114.22 311.23 110.46C309.98 109.2 308.81 107.85 307.6 106.6C307.37 106.35 306.99 106.26 306.92 106.23C301.39 110.62 296.01 114.96 290.54 119.13C288.08 121.02 285.37 122.57 282.75 124.25C281.31 125.12 279.91 126.01 278.46 126.93C277.77 127.38 276.98 128.09 276.3 127.05C275.71 126.17 275.94 125.19 276.79 124.51C277.98 123.53 279.28 122.65 280.49 121.67C282.46 120.03 284.56 118.46 286.45 116.72C289.54 113.85 292.68 111 295.54 107.86C299.09 104.01 302.51 100.04 305.67 95.8596C308.95 91.5696 311.95 87.0796 314.92 82.5696C316.43 80.1996 317.58 77.6696 318.97 75.0896C318.65 74.9696 318.37 74.6896 318.07 74.6896C309.09 74.7696 300.11 74.9196 291.12 74.8896C288.01 74.8696 285.77 72.9196 284.13 70.4296C283.39 69.2496 282.7 68.0996 282.8 66.5796C282.87 65.3596 283.11 64.8296 284.49 64.8496C296.89 64.9296 309.28 64.8796 321.68 64.8796C323.89 64.8796 324.41 64.5096 325.15 62.4896C325.74 60.9496 326.47 59.4896 327.03 57.9596C327.71 56.0696 328.32 54.2096 328.94 52.3296C329.2 51.4996 328.76 51.0796 327.98 51.0796C325.65 51.1196 323.35 51.2896 321.01 51.3196C317.24 51.3696 313.48 51.3396 309.73 51.3196C306.5 51.2996 304.1 49.6896 302.07 47.2596C300.92 45.8896 300.66 44.1896 299.99 42.6096C299.7 41.8096 300.13 41.3296 300.86 41.0896C301.29 40.9696 301.76 40.9996 302.18 40.9996H330.69C331.47 40.9996 332.08 41.1196 332.29 39.9496C332.99 36.1196 333.87 32.3196 334.68 28.5296C334.75 28.2596 334.85 27.9496 334.94 27.6696C335.21 26.6996 334.83 26.2796 333.8 26.3296C332.84 26.3696 331.88 26.2996 330.93 26.3396C329.73 26.3896 328.49 26.6096 327.3 26.6096C318.31 26.5396 309.33 26.5896 300.34 26.2396C297.49 26.1596 295.19 24.2696 293.7 21.6896C293 20.4196 292.11 19.2596 292.27 17.5996C292.41 16.4696 292.9 16.2996 293.81 16.2996C295.54 16.3196 297.27 16.2796 299.02 16.3196C300.34 16.3596 301.69 16.5496 303.06 16.5596C308.64 16.5796 314.22 16.5896 319.85 16.5596C322.27 16.5496 324.69 16.3196 327.16 16.3196C329.72 16.3396 332.28 16.5096 334.85 16.5596C336.65 16.5896 336.74 16.3496 336.9 14.5896C337.17 11.1696 337.53 7.7196 338.02 4.3296C338.3 2.3296 340.89 0.799601 343.01 1.1196C343.66 1.1996 344.36 1.1496 344.95 1.4096C345.69 1.7296 346.44 2.2096 346.92 2.8096C348.34 4.6996 348.11 6.7796 347.64 8.9696C347.22 11.0096 347.08 13.1796 346.98 15.3096C346.98 15.7096 347.62 16.4696 348.02 16.4996C349.51 16.6596 350.99 16.5696 352.51 16.5696C357.53 16.5696 362.57 16.5896 367.61 16.5696C371.06 16.5396 374.49 16.3296 377.92 16.3296C382.85 16.3596 387.75 16.4796 392.67 16.5896C393.68 16.5996 394.11 17.3896 393.8 18.3996C393.05 21.0396 391.51 23.2596 389.3 24.7196C387.09 26.1996 384.53 27.0996 381.73 26.4496C381.31 26.3596 380.85 26.3496 380.39 26.3496H353.39C351.46 26.3496 349.55 26.3596 347.62 26.3496C344.63 26.3096 345.22 26.8096 344.77 29.0596C344.21 31.9696 343.73 34.9196 343.19 37.7996C343.1 38.3596 342.8 38.8896 342.57 39.4196C342.05 40.5896 342.27 40.9896 343.54 41.0196C343.78 41.0296 344.07 41.0196 344.32 41.0196H383.82C385.84 41.0196 386.47 41.8996 385.82 43.7996C384.33 48.1996 380.3 51.3296 375.56 51.3296C364.55 51.3296 353.58 51.3296 342.56 51.3296C341.74 51.3296 340.9 51.2096 340.14 51.3696C339.7 51.4496 339.23 52.0196 339.08 52.4796C337.83 55.7796 336.68 59.1196 335.52 62.4396C335.39 62.8496 335.33 63.3096 335.14 63.6996C334.71 64.6896 335.23 64.8996 336.05 64.8896H336.99C358.16 64.8896 379.35 64.9396 400.53 64.8596C403.05 64.8396 403.64 66.1596 402.77 68.3296C401.46 71.5496 399.26 73.7896 395.88 74.6896C395.36 74.8596 394.82 74.9396 394.31 74.9396C383.91 74.9496 373.5 74.9496 363.09 74.9496H361.33L361.32 74.9396ZM347.92 96.4596C347.92 94.8096 347.04 93.0596 346.25 91.5496C344.92 89.1596 342.56 87.9996 340.06 87.1796C338.84 86.7696 338.16 87.1096 337.99 88.3796C337.77 89.7996 337.69 91.2196 337.66 92.6296C337.66 108.29 337.66 123.95 337.66 139.62V147.18C337.66 157.12 337.66 167.08 337.66 177C337.66 179.14 338.64 179.88 340.7 179.36C344.33 178.46 348 173.8 348 169.96V133.08C348 120.89 348.06 108.67 347.92 96.4596ZM393.16 157.16C389.83 153.43 386.01 150.24 381.92 147.42C378.02 144.74 374 142.17 369.88 139.9C365.69 137.62 361.29 135.74 356.97 133.7C356.18 133.33 355.27 133.29 354.75 134.21C354.22 135.18 354.53 135.95 355.44 136.58C356.36 137.2 357.23 137.92 358.08 138.61C361.25 141.23 364.47 143.73 367.56 146.44C371.51 149.98 375.38 153.58 379.2 157.26C381.74 159.71 384.1 162.38 386.6 164.92C388.01 166.3 389.75 166.87 391.62 166.09C393.67 165.23 395.23 163.9 395.28 161.01C395.43 159.59 394.22 158.36 393.17 157.16H393.16ZM297.76 164.86C300.16 163.4 302.6 162.05 304.83 160.39C308.68 157.48 312.55 154.6 316.1 151.35C319.67 148.04 322.92 144.32 326.23 140.74C327.73 139.11 329.01 137.26 330.39 135.5C331.08 134.62 331.06 133.2 330.39 132.67C329.52 131.99 328.95 132.82 328.41 133.21C325.03 135.73 321.69 138.27 318.33 140.81C312.48 145.23 306.19 148.96 299.74 152.36C297.48 153.55 295.23 154.78 293.01 156.05C290.99 157.17 290.93 158.98 291.22 161.02C291.59 163.57 293.27 165.3 295.8 165.44C296.45 165.22 297.19 165.17 297.77 164.85L297.76 164.86Z" fill="#313333"/>
<path d="M226.89 139.12C226.27 140.29 225.9 141.22 225.35 141.96C222.7 145.7 220.06 149.44 217.25 153.05C214.39 156.71 211.47 160.31 208.38 163.8C205.31 167.27 201.97 170.6 198.76 174C198.15 174.68 197.67 175.47 196.97 176.02C196.34 176.49 195.58 176.83 194.85 176.89C194.49 176.93 193.71 176.22 193.71 175.89C193.74 175.17 194.02 174.36 194.47 173.75C198.02 168.84 201.75 164 205.3 159.05C210.49 151.69 215.23 143.97 219.57 136.01C220.74 133.88 221.85 131.73 223.05 129.59C224.16 127.66 223.99 125.7 223.47 123.59C222.68 120.46 222.31 117.22 221.74 114.05C221.47 112.68 221 111.28 220.92 109.89C220.74 105.87 219.09 102.07 219.24 98.0198C219.31 96.2798 218.72 94.5098 218.49 92.7398C218.25 90.7998 218.11 88.8298 217.96 86.8898C217.66 83.3698 217.39 79.8598 217.14 76.3098C216.93 73.3498 216.73 70.3298 216.58 67.3398C216.38 62.0698 216.29 56.8398 216.02 51.5598C215.87 47.8098 215.51 44.0798 215.2 40.3298C215.18 39.9698 214.62 39.6198 214.23 39.3998C214 39.2698 213.62 39.3798 213.29 39.3798H168.24C167.81 39.3798 167.43 39.4198 167.03 39.3598C165.877 39.1664 165.3 39.6231 165.3 40.7298C165.3 49.2298 165.32 57.7198 165.27 66.2498C165.27 67.5898 165.7 67.8798 166.97 67.8798C177.24 67.8498 187.49 67.8698 197.78 67.8698C200.01 67.8698 200.31 68.1498 200.31 70.4298C200.31 95.1698 200.36 119.91 200.28 144.63C200.23 150.25 196.63 153.11 191.83 154.36C191.4 154.47 190.61 153.92 190.29 153.45C189.99 152.98 190.01 152.25 190.01 151.64C190.01 127.76 190.01 103.89 190.01 79.9998C190.01 78.7864 189.38 78.1798 188.12 78.1798C180.93 78.1798 173.75 78.1998 166.55 78.1398C165.32 78.1398 164.98 78.5998 164.99 79.7198C165.04 82.4598 165.09 85.2198 164.99 87.9698C164.81 92.6598 164.4 97.3798 164.24 102.06C164.1 106.48 162.64 110.77 162.8 115.23C162.84 116.61 162.15 117.97 161.93 119.39C161.41 122.66 160.96 125.96 160.39 129.22C160.06 131.08 159.55 132.91 159.08 134.73C158.37 137.45 157.68 140.2 156.86 142.89C155.86 146.26 154.73 149.58 153.57 152.89C152.85 155.02 152.1 157.14 151.14 159.16C149.07 163.64 146.9 168.02 144.68 172.41C143.77 174.27 142.59 176.01 141.68 177.88C141.23 178.81 140.5 179.09 139.73 178.7C139.4 178.54 139.14 177.48 139.31 176.98C140.12 174.87 141.13 172.82 141.9 170.75C142.55 169.02 143 167.23 143.57 165.5C144.17 163.63 144.91 161.74 145.46 159.85C146.16 157.44 146.76 155.02 147.36 152.57C148.02 149.9 148.77 147.21 149.3 144.49C149.84 141.68 150.17 138.8 150.63 135.96C150.75 135.1 151.04 134.24 151.15 133.37C151.44 131.12 151.7 128.87 151.99 126.62C152.28 124.29 152.61 121.97 152.89 119.6C152.98 118.78 153 117.9 153.06 117.08C153.44 112.56 153.78 108.07 154.14 103.59C154.14 103.43 154.14 103.2 154.14 103.04C154.25 99.5298 154.16 95.9598 154.44 92.4598C156.11 71.9698 154.83 51.4698 155.19 31.0198C155.21 29.5298 155.77 29.3098 157.01 29.3198C175.67 29.3298 194.31 29.3198 212.94 29.3498C214.28 29.3698 214.77 29.0398 214.72 27.6398C214.61 24.9298 214.76 22.1998 214.69 19.4998C214.55 15.1098 214.32 10.7098 214.14 6.30977C214.08 4.78977 213.9 3.25977 213.86 1.72977C213.83 0.419774 214.52 -0.170226 215.75 0.179774C219.86 1.28977 224.05 4.88977 223.95 9.86977C223.88 13.4998 224.06 17.0798 224.19 20.6898C224.3 23.2498 224.52 25.7698 224.77 28.3198C224.8 28.6598 225.23 29.0798 225.59 29.2898C225.91 29.4398 226.37 29.3398 226.78 29.3398H259.65C260.11 29.3398 260.55 29.2898 260.97 29.4198C261.85 29.6498 262.35 30.0398 261.99 31.2098C261.18 33.8698 259.93 36.2198 257.53 37.5998C256.01 38.4398 254.25 39.2798 252.59 39.2998C244.36 39.4598 236.14 39.3798 227.89 39.3798C225.38 39.3798 225.4 39.3698 225.56 41.8798C225.74 46.0898 225.93 50.3098 226.11 54.5398C226.21 58.5798 226.16 62.6298 226.38 66.6798C226.62 70.4898 227.1 74.2598 227.42 78.0098C227.58 80.0898 227.53 82.1598 227.76 84.2098C227.99 86.8598 228.4 89.4898 228.73 92.1498C229.12 95.2798 229.48 98.4398 229.92 101.53C230.12 103.21 230.52 104.84 230.75 106.52C230.88 107.49 230.87 108.49 231 109.47C231.05 109.9 231.17 110.31 231.27 110.76C231.42 110.77 231.59 110.8 231.74 110.8C232.18 109.77 232.64 108.76 233 107.73C234.66 103.41 236.48 99.1198 237.92 94.7098C239.5 89.9498 240.73 85.0698 242.1 80.2198C242.82 77.6598 243.55 75.0298 244.15 72.4098C244.68 70.1398 245.03 67.8298 245.35 65.4998C245.63 63.3498 248.29 60.3198 250.39 60.0098C252.68 59.6398 255.75 62.3198 255.64 64.8198C255.5 67.2198 255.12 69.5898 254.69 71.9598C254.2 74.6698 253.58 77.3898 252.96 80.0998C252.59 81.6698 252.16 83.2198 251.7 84.7198C250.19 89.6098 248.71 94.5298 246.96 99.2898C245.37 103.7 243.58 108.07 241.65 112.35C239.6 116.86 237.31 121.27 235.11 125.72C234.65 126.63 234.56 127.45 234.93 128.44C235.77 131.1 236.38 133.81 237.21 136.48C239 142.43 241.37 148.16 244.45 153.56C246.05 156.35 248.06 158.94 250.18 161.39C251.11 162.49 252.7 163.11 254.1 163.78C254.91 164.2 256.81 163.17 257.57 162.05C259.2 159.6 260.82 157.17 262.44 154.75C262.53 154.6 262.58 154.41 262.69 154.31C263.15 153.97 263.18 152.69 264.07 153.4C264.54 153.78 264.82 154.76 264.75 155.44C264.57 156.87 264.1 158.27 263.76 159.67C263.34 161.49 262.78 163.26 262.62 165.08C262.57 165.76 263.43 166.62 264.05 167.22C264.89 168.1 266.35 168.55 265.96 170.11C265.79 170.8 265.47 171.5 265.04 172.02C262.3 175.26 258.91 177.05 254.55 176.1C252.5 175.64 250.47 175.16 248.47 174.61C245.47 173.78 243.37 171.67 241.6 169.31C239.34 166.29 237.12 163.21 235.37 159.91C233.37 156.18 231.77 152.18 230.16 148.2C228.99 145.36 228.06 142.42 226.88 139.1L226.89 139.12ZM250.1 19.0698C247.14 14.1098 243.47 9.72977 238.74 6.34977C236.56 4.77977 234.22 3.35977 231.89 2.00977C231.48 1.73977 230.71 2.04977 230.11 2.08977C230.23 2.73977 230.13 3.54977 230.51 3.97977C233.54 7.94977 236.01 12.1998 238.08 16.7398C239.38 19.5398 240.62 22.3498 241.87 25.1598C242.32 26.1098 242.96 26.8598 244.07 26.8698C245.18 26.8698 246.34 26.8598 247.43 26.6298C249.72 26.1298 251.03 24.4398 251.28 22.1498C250.88 21.0998 250.63 20.0098 250.08 19.0698H250.1Z" fill="#313333"/>
<path d="M495.77 26.9598C501.55 26.9598 507.34 26.9598 513.15 26.9598C513.79 26.9598 514.44 27.1598 515.12 27.1598C520.46 27.0798 525.83 26.9498 531.19 26.8998C533.36 26.8698 533.68 27.8298 532.9 29.8198C531.99 31.9698 530.87 33.9298 528.84 35.0398C527.26 35.9198 525.4 36.8098 523.66 36.8398C512.54 37.0098 501.44 36.9598 490.27 36.9098C489.02 36.9098 488.55 37.1798 488.58 38.5098C488.65 42.7898 488.6 47.0298 488.6 51.2998C488.6 52.5598 489.22 53.1898 490.46 53.1898H522.05C523.75 53.1898 524.48 54.1598 523.95 55.7698C522.84 59.1298 520.65 61.4898 517.37 62.8198C516.98 62.9698 516.49 62.9698 516.05 62.9698C507.43 62.9698 498.78 62.9998 490.13 62.9498C488.96 62.9498 488.55 63.2398 488.57 64.4698C488.62 68.7298 488.62 72.9598 488.57 77.2298C488.55 78.4098 488.94 78.7498 490.11 78.7498C506.2 78.7098 522.33 78.7198 538.43 78.7198C540.36 78.7198 540.86 79.1698 540.68 81.1098C540.48 83.9198 538.67 85.7698 536.61 87.3898C534.97 88.6698 533.04 89.0798 530.95 89.0598C499.09 88.9998 467.23 89.0498 435.38 88.9998C432.32 88.9998 430.12 87.3898 428.29 84.9898C427.35 83.7398 426.73 82.3598 426.58 80.7398C426.46 79.3798 426.9 78.7198 428.34 78.7198C439.08 78.7198 449.81 78.7198 460.51 78.7198H475.73C475.99 78.7198 476.28 78.7198 476.53 78.7198C478.68 78.7698 478.77 78.6998 478.77 76.4498C478.77 75.0098 478.55 73.5698 478.57 72.1498C478.57 70.3398 478.74 68.5598 478.79 66.7698C478.84 65.8598 478.88 64.9498 478.78 64.0298C478.74 63.1598 478.13 62.9798 477.37 62.9798C475.3 62.9998 473.22 62.9798 471.14 62.9798C464.56 62.9798 458.01 62.9598 451.47 63.0198C450.25 63.0298 449.31 62.6098 448.37 61.9798C445.98 60.4198 444.19 58.4098 443.44 55.5898C443 53.8398 443.53 53.1898 445.3 53.1898H476.64C478.56 53.1898 478.77 53.0898 478.78 51.2098C478.8 47.1398 478.69 43.0898 478.64 39.0398C478.64 38.5798 478.66 38.1098 478.56 37.6498C478.4 36.9998 478.07 36.4898 477.24 36.8798C476.91 37.0398 476.49 36.9598 476.17 36.9598C465.28 36.9598 454.44 37.0098 443.58 36.8798C440.1 36.8498 437.46 34.9198 435.58 32.0698C434.87 31.0498 434.34 29.8598 434.08 28.6698C433.76 27.3898 434.3 26.9098 435.86 26.9098C440.82 26.8798 445.75 26.8598 450.69 26.9098C453.84 26.9198 457.01 27.1698 460.12 27.1698C464.52 27.1498 468.93 26.9298 473.36 26.9198C476.41 26.9198 479.45 27.1298 482.47 27.1698C483.96 27.1698 485.41 26.9898 486.89 26.8998C487.22 26.8798 487.52 26.8798 487.85 26.9198C489.683 27.0931 491.03 26.3298 491.89 24.6298C493.31 21.8298 494.82 19.0998 496.09 16.2398C497.2 13.6898 497.96 10.9998 498.96 8.42978C499.71 6.36978 500.39 4.20978 501.53 2.32978C502.63 0.539781 505.32 -1.02022 507.53 0.849782C508.14 1.34978 508.88 1.69978 509.42 2.28978C511.1 4.11978 511.13 5.92978 509.66 8.17978C507.64 11.2298 505.72 14.3198 503.53 17.2198C501.28 20.2098 498.75 22.9698 496.31 25.8198C496.1 26.0998 495.88 26.3498 495.66 26.6298C495.69 26.7398 495.74 26.8598 495.79 26.9698L495.77 26.9598ZM530.09 119.43C530.61 119.43 531.15 119.32 531.65 119.21C535.53 118.3 537.79 115.64 539.2 112.13C540.03 110.09 539.22 108.85 537.07 108.85H489.2C487.34 108.85 487.25 108.61 487.99 106.83C488.35 105.95 488.44 104.96 488.6 104.01C488.71 103.19 488.77 102.42 488.85 101.6C489.18 99.3098 489.98 97.0598 488.67 94.7298C487.86 93.2398 486.66 92.5898 485.2 92.3598C483.65 92.0798 481.97 92.2698 481.15 93.7798C480.33 95.2598 479.79 96.9098 479.38 98.5598C478.98 100.42 478.89 102.41 478.54 104.31C478.37 105.4 477.92 106.45 477.8 107.52C477.66 108.53 477.37 108.89 476.3 108.89C469.16 108.85 462.05 108.86 454.92 108.87C451.56 108.87 448.21 108.89 444.81 108.89C439.69 108.89 434.53 108.87 429.36 108.89C428.28 108.89 427.67 109.61 427.82 110.57C427.9 110.92 428.02 111.25 428.08 111.61C428.82 115.87 432.92 119.38 437.32 119.42C448.66 119.53 460.01 119.46 471.38 119.46C471.87 119.46 472.4 119.48 472.83 119.33C473.8 118.96 474.09 119.5 473.91 120.21C473.58 121.75 473.22 123.33 472.58 124.77C471.27 127.75 469.89 130.69 468.35 133.59C464.98 139.94 460.61 145.66 455.66 150.84C451.63 155.12 447.3 159.06 442.6 162.66C437.25 166.73 431.62 170.47 425.74 173.77C424.1 174.71 422.35 175.54 420.68 176.46C419.71 177.01 419.33 177.85 419.87 178.94C420.37 179.97 421.16 179.8 422.01 179.44C425.61 178 429.33 176.76 432.82 175.05C437.4 172.81 441.82 170.28 446.23 167.75C451.21 164.88 455.76 161.34 459.93 157.39C463.33 154.15 466.5 150.62 469.53 147.01C474.58 141.06 478.51 134.4 481.55 127.25C482.4 125.36 483.35 123.49 483.96 121.56C484.58 119.57 484.51 119.46 486.51 119.46H508.24C515.52 119.46 522.81 119.46 530.1 119.46L530.09 119.43ZM546.18 166.52C545.3 166.26 544.41 165.97 543.56 165.59C539.89 164 536.14 162.56 532.55 160.72C527.32 158.03 522.38 154.79 517.86 150.97C514.58 148.2 511.28 145.47 508.15 142.53C505.78 140.32 503.6 137.91 501.53 135.4C498.68 132 495.96 128.45 493.19 124.99C492.61 124.25 491.75 123.84 491.04 124.41C490.67 124.73 490.58 125.83 490.8 126.37C492.09 129.37 493.35 132.39 494.93 135.25C496.78 138.66 498.9 141.94 501 145.24C504.76 151.06 509.36 156.14 514.58 160.68C515.97 161.9 517.38 163.2 518.9 164.23C522.6 166.74 526.28 169.36 530.15 171.57C533.77 173.62 537.62 175.26 541.39 176.96C542.73 177.57 543.45 177.2 544.11 175.91C544.83 174.52 545.52 173.13 546.19 171.72C546.71 170.61 547.21 169.51 547.73 168.41C547.66 167.29 547.18 166.74 546.2 166.52H546.18ZM472.75 18.0298C469.28 12.9198 464.89 8.64978 460.06 4.79978C458.33 3.40978 456.35 2.29978 454.43 1.13978C454.03 0.919781 453.11 0.929781 453.02 1.10978C452.81 1.56978 452.86 2.20978 452.92 2.73978C452.96 3.03978 453.23 3.28978 453.41 3.54978C457.13 8.29978 460.28 13.4398 462.56 19.0298C463.21 20.5798 463.88 22.1498 464.81 23.4898C466.04 25.3498 468.2 26.4598 469.72 25.8898C472.59 24.8598 473.65 23.7198 473.92 21.1798C473.55 20.1198 473.36 18.9298 472.74 18.0198L472.75 18.0298Z" fill="#313333"/>
<path d="M10.29 115.38H17.41V116.57H11.54V120.48H17.35V121.68H11.54V126.57H17.35V127.8H10.28V115.37L10.29 115.38Z" fill="#313333"/>
<path d="M18.6201 115.38H19.9701L24.1101 124.97L28.2801 115.38H29.6401L24.2301 127.81H23.9401L18.6301 115.38H18.6201Z" fill="#313333"/>
<path d="M31.73 115.38H38.83V116.57H32.95V120.48H38.8V121.68H32.95V126.57H38.8V127.8H31.73V115.37V115.38Z" fill="#313333"/>
<path d="M41.0601 115.38H43.5201C44.8901 115.38 45.8401 115.41 46.3201 115.52C47.0801 115.72 47.6801 116.06 48.1301 116.65C48.6001 117.2 48.8001 117.88 48.8001 118.7C48.8001 119.36 48.6701 119.95 48.3201 120.48C48.0001 120.97 47.5601 121.38 46.9601 121.64C46.3701 121.91 45.5801 122.03 44.5001 122.03L48.9801 127.82H47.4401L42.9701 122.03H42.2701V127.82H41.0601V115.39V115.38ZM42.2701 116.57V120.81L44.4301 120.84C45.2501 120.84 45.8501 120.73 46.2601 120.56C46.6801 120.43 46.9701 120.18 47.2001 119.82C47.4101 119.49 47.5401 119.1 47.5401 118.68C47.5401 118.26 47.4101 117.88 47.2001 117.52C46.9501 117.2 46.6701 116.93 46.2901 116.81C45.9101 116.67 45.3101 116.57 44.4601 116.57H42.2601H42.2701Z" fill="#313333"/>
<path d="M50.49 115.38H51.92L55.11 120.48L58.23 115.38H59.68L55.74 121.85V127.81H54.49V121.85L50.5 115.38H50.49Z" fill="#313333"/>
<path d="M61.71 127.81V115.38H64.29C66.15 115.38 67.49 115.51 68.33 115.83C69.54 116.23 70.48 116.94 71.18 118.01C71.85 119.05 72.18 120.3 72.18 121.75C72.18 122.98 71.91 124.09 71.39 125.01C70.84 125.97 70.16 126.69 69.29 127.14C68.41 127.58 67.22 127.82 65.68 127.82H61.72L61.71 127.81ZM62.89 126.61H64.35C66.05 126.61 67.25 126.51 67.9 126.3C68.84 126.01 69.6 125.45 70.14 124.67C70.66 123.87 70.89 122.9 70.89 121.77C70.89 120.54 70.64 119.52 70.03 118.7C69.45 117.84 68.65 117.28 67.64 116.93C66.82 116.71 65.54 116.57 63.77 116.57H62.88V126.61H62.89Z" fill="#313333"/>
<path d="M79.67 115.38L85.45 127.81H84.13L82.19 123.69H76.82L74.87 127.81H73.47L79.36 115.38H79.66H79.67ZM79.49 118L77.38 122.49H81.64L79.49 118Z" fill="#313333"/>
<path d="M86.3901 115.38H87.8201L91.0001 120.48L94.1501 115.38H95.5501L91.6501 121.85V127.81H90.4001V121.85L86.3901 115.38Z" fill="#313333"/>
<path d="M114.85 115.38H116.05V127.81H114.85V115.38Z" fill="#313333"/>
<path d="M117.62 125.47L118.68 124.86C119.43 126.22 120.3 126.9 121.27 126.9C121.7 126.9 122.07 126.8 122.43 126.61C122.8 126.4 123.08 126.15 123.28 125.81C123.47 125.47 123.56 125.16 123.56 124.77C123.56 124.38 123.42 123.96 123.13 123.54C122.74 122.99 122.03 122.35 121.01 121.55C119.98 120.78 119.33 120.23 119.07 119.88C118.62 119.29 118.4 118.66 118.4 117.95C118.4 117.41 118.52 116.92 118.81 116.45C119.05 116.03 119.42 115.7 119.88 115.43C120.36 115.18 120.87 115.03 121.42 115.03C122 115.03 122.55 115.2 123.07 115.47C123.57 115.77 124.11 116.33 124.71 117.1L123.68 117.88C123.23 117.24 122.81 116.83 122.48 116.66C122.15 116.44 121.79 116.34 121.41 116.34C120.9 116.34 120.49 116.46 120.18 116.79C119.86 117.1 119.7 117.47 119.7 117.92C119.7 118.2 119.76 118.47 119.87 118.7C119.98 118.94 120.19 119.23 120.48 119.51C120.65 119.69 121.19 120.11 122.07 120.77C123.16 121.55 123.91 122.26 124.31 122.87C124.72 123.52 124.91 124.14 124.91 124.74C124.91 125.67 124.57 126.45 123.87 127.09C123.2 127.77 122.36 128.08 121.38 128.08C120.61 128.08 119.94 127.9 119.33 127.47C118.72 127.09 118.13 126.41 117.62 125.45V125.47Z" fill="#313333"/>
<path d="M24.5401 140.46L22.5001 142.46C21.2101 141.09 19.7001 140.44 18.0101 140.44C16.5001 140.44 15.2401 140.93 14.2301 141.9C13.2301 142.91 12.7201 144.12 12.7201 145.54C12.7201 146.96 13.2401 148.27 14.2901 149.26C15.3301 150.29 16.6501 150.79 18.1701 150.79C19.1701 150.79 20.0201 150.56 20.6801 150.16C21.3701 149.76 21.9201 149.09 22.3501 148.2H17.9501V145.47H25.5901L25.6201 146.12C25.6201 147.44 25.2501 148.73 24.5701 149.88C23.8801 151.07 23.0001 151.99 21.8901 152.6C20.8001 153.25 19.5301 153.54 18.0501 153.54C16.4701 153.54 15.0601 153.24 13.8201 152.53C12.6001 151.86 11.6301 150.88 10.8901 149.59C10.1901 148.33 9.81006 146.96 9.81006 145.51C9.81006 143.51 10.5101 141.77 11.8201 140.27C13.3801 138.5 15.4201 137.59 17.9501 137.59C19.2901 137.59 20.5401 137.86 21.6701 138.34C22.6401 138.76 23.6001 139.45 24.5201 140.46H24.5401Z" fill="#313333"/>
<path d="M37.0001 137.58C39.1601 137.58 40.9901 138.37 42.5601 139.95C44.1101 141.5 44.8601 143.38 44.8601 145.6C44.8601 147.82 44.1201 149.72 42.6101 151.24C41.0801 152.79 39.2201 153.52 37.0601 153.52C34.7501 153.52 32.8601 152.76 31.3701 151.19C29.8401 149.57 29.1101 147.73 29.1101 145.54C29.1101 144.11 29.4401 142.76 30.1701 141.53C30.8601 140.32 31.8301 139.38 33.0501 138.67C34.2901 137.94 35.6201 137.57 37.0201 137.57L37.0001 137.58ZM36.9901 140.44C35.5901 140.44 34.4001 140.93 33.4201 141.87C32.4701 142.85 31.9901 144.12 31.9901 145.6C31.9901 147.3 32.6201 148.61 33.8101 149.57C34.7401 150.35 35.8101 150.76 37.0501 150.76C38.4001 150.76 39.5701 150.25 40.5501 149.26C41.4801 148.25 41.9801 147.04 41.9801 145.58C41.9801 144.12 41.4801 142.92 40.5401 141.91C39.5801 140.92 38.3701 140.43 36.9901 140.43V140.44Z" fill="#313333"/>
<path d="M56.3401 137.58C58.4801 137.58 60.3401 138.37 61.8701 139.95C63.4301 141.5 64.2101 143.38 64.2101 145.6C64.2101 147.82 63.4401 149.72 61.9101 151.24C60.3801 152.79 58.5301 153.52 56.3601 153.52C54.1901 153.52 52.1901 152.76 50.6801 151.19C49.1701 149.57 48.4001 147.73 48.4001 145.54C48.4001 144.11 48.7801 142.76 49.4601 141.53C50.1801 140.32 51.1501 139.38 52.3701 138.67C53.6201 137.94 54.9101 137.57 56.3401 137.57V137.58ZM56.3101 140.44C54.9001 140.44 53.7201 140.93 52.7601 141.87C51.8001 142.85 51.3201 144.12 51.3201 145.6C51.3201 147.3 51.9101 148.61 53.1501 149.57C54.0801 150.35 55.1601 150.76 56.3501 150.76C57.7201 150.76 58.8901 150.25 59.8501 149.26C60.8201 148.25 61.3001 147.04 61.3001 145.58C61.3001 144.12 60.8101 142.92 59.8501 141.91C58.8701 140.92 57.7101 140.43 56.3101 140.43V140.44Z" fill="#313333"/>
<path d="M68.48 137.97H71.91C74.15 137.97 75.77 138.27 76.85 138.81C77.91 139.36 78.8 140.23 79.47 141.48C80.18 142.7 80.53 144.13 80.53 145.78C80.53 146.95 80.34 148.03 79.94 149C79.55 149.98 79.02 150.82 78.35 151.45C77.68 152.1 76.93 152.53 76.13 152.81C75.33 153.02 73.94 153.15 71.96 153.15H68.48V137.97ZM71.38 140.76V150.34H72.73C74.02 150.34 74.98 150.2 75.59 149.89C76.18 149.56 76.67 149.07 77.04 148.37C77.42 147.64 77.62 146.77 77.62 145.72C77.62 144.12 77.17 142.85 76.28 141.97C75.46 141.17 74.16 140.76 72.37 140.76H71.39H71.38Z" fill="#313333"/>
<path d="M89.5002 137.97H92.4402L98.2902 153.15H95.2902L94.0702 150.03H87.8902L86.6802 153.15H83.6702L89.5002 137.97ZM90.9802 141.99L88.9402 147.23H93.0002L90.9802 141.99Z" fill="#313333"/>
<path d="M101 137.97H104.09L106.94 143.44L109.77 137.97H112.83L108.37 146.6V153.14H105.48V146.6L101.01 137.97H101Z" fill="#313333"/>
<path d="M124.76 140.03L122.6 141.92C121.84 140.88 121.08 140.36 120.31 140.36C119.91 140.36 119.6 140.45 119.36 140.67C119.12 140.87 119 141.06 119 141.34C119 141.58 119.08 141.86 119.27 142.07C119.51 142.35 120.21 143.01 121.38 144C122.48 144.93 123.14 145.52 123.39 145.75C123.97 146.35 124.38 146.91 124.62 147.43C124.87 148 125.01 148.6 125.01 149.22C125.01 150.47 124.56 151.49 123.71 152.32C122.84 153.1 121.72 153.51 120.34 153.51C119.25 153.51 118.31 153.28 117.5 152.75C116.71 152.23 116.01 151.35 115.44 150.25L117.88 148.77C118.58 150.11 119.44 150.8 120.4 150.8C120.89 150.8 121.31 150.63 121.64 150.34C121.97 150.05 122.13 149.75 122.13 149.33C122.13 149 122.01 148.7 121.76 148.32C121.51 147.98 120.95 147.43 120.06 146.72C118.42 145.39 117.37 144.33 116.86 143.62C116.39 142.88 116.13 142.16 116.13 141.41C116.13 140.38 116.53 139.47 117.37 138.71C118.13 137.95 119.12 137.57 120.33 137.57C121.07 137.57 121.81 137.76 122.48 138.09C123.18 138.45 123.92 139.08 124.74 140.02L124.76 140.03Z" fill="#313333"/>
<path fill-rule="evenodd" clip-rule="evenodd" d="M45.53 95.9996V92.7796H18.42V95.9996H11.61V69.9996H52.35V95.9996H45.53ZM26.7001 43.1796H21.5401V38.5996H35.3801C41.3901 49.7796 52.3101 58.8096 60.93 62.6096V65.8296C52.14 62.7296 38.51 54.9896 31.99 46.2596C25.47 54.9896 11.84 62.7296 3.05005 65.8296V62.6096C10.46 59.3396 19.99 52.2196 26.71 43.1796M17.81 60.1596H46.18V64.0396H17.8V60.1596H17.81ZM45.5401 73.8796H18.42V88.8796H45.53V73.8796H45.5401Z" fill="#313333"/>
<path d="M130.99 63.1098L129.1 65.9398C123.44 63.2698 118.49 60.2798 114.25 56.9798C109.85 53.6798 105.84 49.5898 102.23 44.7198C97.99 49.4398 93.58 53.3698 89.03 56.5098C84.47 59.6498 79.44 62.6398 73.94 65.4698L73 63.1098C75.04 61.8498 77.09 60.5198 79.13 59.0998C81.17 57.8398 83.22 56.5098 85.26 55.0898C84.47 53.6698 83.53 52.3398 82.43 51.0798C81.33 49.8198 80.23 48.6398 79.13 47.5398L81.49 44.7098C83.06 45.6498 84.4 46.7498 85.5 48.0098C86.76 49.2698 88.09 50.5198 89.51 51.7798C90.14 50.9998 90.77 50.2098 91.4 49.4298C92.03 48.6398 92.65 47.8598 93.29 47.0698C93.92 46.2898 94.55 45.4998 95.17 44.7098C95.64 43.7698 96.27 42.9798 97.06 42.3498H77.73V39.5198H105.55C106.02 41.0898 106.57 42.3498 107.2 43.2898C107.99 44.2298 108.85 45.3298 109.79 46.5898C110.89 45.3298 111.99 43.9998 113.09 42.5798C114.19 41.3198 115.29 39.9898 116.39 38.5698L120.63 42.3398C118.9 43.4398 117.33 44.6198 115.91 45.8798C114.34 46.9798 112.92 48.1598 111.67 49.4198C112.45 50.3598 113.32 51.2298 114.26 52.0098C115.04 52.9498 116.07 53.8198 117.32 54.5998C118.58 53.3398 119.83 51.9298 121.09 50.3598C122.35 48.7898 123.6 47.2198 124.86 45.6398L129.57 49.4198L120.14 56.9598C121.71 58.2198 123.36 59.3198 125.09 60.2598C126.82 61.1998 128.78 62.1398 130.98 63.0898L130.99 63.1098ZM130.52 93.7598H73.47V90.3998H130.52V93.7598ZM121.56 78.7598H82.43V64.1398H121.56V78.7598ZM116.46 75.9598V66.9498H87.52V75.9598H116.46ZM112.65 60.7698H88.89V57.4598H112.65V60.7698Z" fill="#313333"/>
<path fill-rule="evenodd" clip-rule="evenodd" d="M94.5301 41.1296C94.5301 41.1296 90.6601 51.6596 74.1101 62.6196L75.6201 63.9096C75.6201 63.9096 95.6101 49.7296 99.9101 42.4096L94.5401 41.1196L94.5301 41.1296Z" fill="#313333"/>
<path d="M87.7599 64.2397H80.6799V80.7897H87.7599V64.2397Z" fill="#313333"/>
<path d="M121.72 64.2397H114.64V80.7897H121.72V64.2397Z" fill="#313333"/>
<path fill-rule="evenodd" clip-rule="evenodd" d="M111.37 80.54L117.28 83.33L111.8 89.56H107.18L111.37 80.54Z" fill="#313333"/>
<path fill-rule="evenodd" clip-rule="evenodd" d="M91.16 80.54L85.25 83.33L90.73 89.56H95.36L91.16 80.54Z" fill="#313333"/>
<path d="M266.47 341.74C269.87 344.31 272.23 346.71 273.55 348.92C274.87 351.14 275.53 353.68 275.53 356.54C275.53 360.56 274.06 363.96 271.12 366.74C268.18 369.52 264.19 370.91 259.15 370.91C254.37 370.91 250.67 369.7 248.06 367.27C245.44 364.84 244.14 361.88 244.14 358.38C244.14 355.71 244.89 353.37 246.41 351.36C247.92 349.35 250.43 347.51 253.95 345.85C250.12 342.84 247.67 340.38 246.58 338.46C245.5 336.55 244.96 334.33 244.96 331.81C244.96 328.48 246.33 325.54 249.08 323.01C251.83 320.47 255.59 319.21 260.37 319.21C265.15 319.21 268.53 320.33 271.02 322.57C273.5 324.81 274.75 327.5 274.75 330.64C274.75 332.99 274.08 335.07 272.73 336.87C271.39 338.67 269.3 340.29 266.47 341.74ZM256.63 347.62C255.89 348.31 255.37 348.93 255.06 349.49C254.58 350.35 254.16 351.6 253.78 353.24C253.4 354.88 253.21 356.6 253.21 358.38C253.21 360.68 253.5 362.61 254.07 364.17C254.64 365.73 255.45 366.85 256.51 367.53C257.57 368.22 258.66 368.56 259.77 368.56C261.51 368.56 262.97 367.91 264.16 366.59C265.35 365.28 265.94 363.48 265.94 361.21C265.94 356.46 262.84 351.93 256.63 347.61V347.62ZM263.76 339.87C264.64 338.65 265.29 337.27 265.72 335.76C266.15 334.24 266.36 332.57 266.36 330.76C266.36 327.58 265.69 325.14 264.36 323.45C263.36 322.15 261.98 321.5 260.22 321.5C258.63 321.5 257.27 322.09 256.15 323.28C255.03 324.47 254.47 325.94 254.47 327.71C254.47 329.48 255.09 331.35 256.34 333.28C257.59 335.2 260.05 337.4 263.74 339.88L263.76 339.87Z" fill="#E95513"/>
<path d="M308.35 369.89H279.89V369.08C288.62 358.37 293.91 351.17 295.78 347.47C297.65 343.77 298.58 340.16 298.58 336.63C298.58 334.06 297.81 331.92 296.26 330.22C294.71 328.52 292.82 327.67 290.59 327.67C286.93 327.67 284.09 329.56 282.07 333.33L280.75 332.85C282.03 328.15 283.98 324.67 286.6 322.41C289.22 320.16 292.24 319.03 295.66 319.03C298.11 319.03 300.34 319.62 302.37 320.79C304.39 321.97 305.97 323.58 307.11 325.62C308.25 327.67 308.82 329.58 308.82 331.37C308.82 334.63 307.94 337.94 306.18 341.29C303.78 345.82 298.53 352.14 290.45 360.25H300.9C303.47 360.25 305.14 360.14 305.91 359.92C306.68 359.7 307.32 359.33 307.82 358.8C308.32 358.27 308.97 357.16 309.78 355.47H311.06L308.35 369.88V369.89Z" fill="#E95513"/>
<path d="M316.87 370.92V369.89C320.82 368.96 324.16 367.59 326.91 365.77C329.66 363.96 331.83 361.72 333.44 359.05C335.04 356.38 336.17 353.31 336.81 349.83C335.34 350.61 334.08 351.16 333.05 351.47C332.02 351.78 330.93 351.93 329.79 351.93C326.13 351.93 323.08 350.57 320.64 347.85C318.2 345.13 316.98 341.41 316.98 336.68C316.98 333.4 317.64 330.39 318.96 327.66C320.28 324.93 322.16 322.81 324.61 321.3C327.06 319.79 329.6 319.04 332.24 319.04C335.07 319.04 337.74 319.87 340.27 321.54C342.79 323.21 344.8 325.62 346.3 328.78C347.8 331.94 348.55 335.54 348.55 339.58C348.55 344.82 347.33 349.85 344.89 354.65C342.45 359.45 338.82 363.3 333.99 366.21C329.16 369.11 323.46 370.69 316.87 370.93V370.92ZM337.34 346.74C337.58 344 337.7 341.58 337.7 339.5C337.7 335.04 337.2 330.89 336.2 327.04C335.63 324.91 334.78 323.34 333.67 322.34C333.08 321.8 332.3 321.53 331.35 321.53C330.16 321.53 329.23 322.06 328.57 323.11C327.64 324.56 327.18 327.31 327.18 331.38C327.18 338.17 327.96 342.84 329.53 345.42C330.55 347.09 331.93 347.92 333.67 347.92C334.6 347.92 335.82 347.53 337.34 346.74Z" fill="#E95513"/>
<path d="M381.4 369.89H352.94V369.08C361.67 358.37 366.96 351.17 368.83 347.47C370.7 343.77 371.63 340.16 371.63 336.63C371.63 334.06 370.86 331.92 369.31 330.22C367.76 328.52 365.87 327.67 363.64 327.67C359.98 327.67 357.14 329.56 355.12 333.33L353.8 332.85C355.08 328.15 357.03 324.67 359.65 322.41C362.27 320.16 365.29 319.03 368.71 319.03C371.16 319.03 373.39 319.62 375.42 320.79C377.44 321.97 379.02 323.58 380.16 325.62C381.3 327.67 381.87 329.58 381.87 331.37C381.87 334.63 380.99 337.94 379.23 341.29C376.83 345.82 371.58 352.14 363.5 360.25H373.95C376.52 360.25 378.19 360.14 378.96 359.92C379.73 359.7 380.37 359.33 380.87 358.8C381.37 358.27 382.02 357.16 382.83 355.47H384.11L381.4 369.88V369.89Z" fill="#E95513"/>
<path d="M410.25 356.4H389.46V348.79H410.25V356.4Z" fill="#E95513"/>
<path d="M442.25 369.89H413.79V369.08C422.52 358.37 427.81 351.17 429.68 347.47C431.55 343.77 432.48 340.16 432.48 336.63C432.48 334.06 431.71 331.92 430.16 330.22C428.61 328.52 426.72 327.67 424.49 327.67C420.83 327.67 417.99 329.56 415.97 333.33L414.65 332.85C415.93 328.15 417.88 324.67 420.5 322.41C423.12 320.16 426.14 319.03 429.56 319.03C432.01 319.03 434.24 319.62 436.27 320.79C438.29 321.97 439.87 323.58 441.01 325.62C442.15 327.67 442.72 329.58 442.72 331.37C442.72 334.63 441.84 337.94 440.08 341.29C437.68 345.82 432.44 352.14 424.35 360.25H434.8C437.37 360.25 439.04 360.14 439.81 359.92C440.58 359.7 441.22 359.33 441.72 358.8C442.22 358.27 442.87 357.16 443.68 355.47H444.96L442.25 369.88V369.89Z" fill="#E95513"/>
<path d="M478.77 369.89H450.31V369.08C459.04 358.37 464.33 351.17 466.2 347.47C468.07 343.77 469 340.16 469 336.63C469 334.06 468.23 331.92 466.68 330.22C465.13 328.52 463.24 327.67 461.01 327.67C457.35 327.67 454.51 329.56 452.49 333.33L451.17 332.85C452.45 328.15 454.4 324.67 457.02 322.41C459.64 320.16 462.66 319.03 466.08 319.03C468.53 319.03 470.76 319.62 472.79 320.79C474.81 321.97 476.39 323.58 477.53 325.62C478.67 327.67 479.24 329.58 479.24 331.37C479.24 334.63 478.36 337.94 476.6 341.29C474.2 345.82 468.95 352.14 460.87 360.25H471.32C473.89 360.25 475.56 360.14 476.33 359.92C477.1 359.7 477.74 359.33 478.24 358.8C478.74 358.27 479.39 357.16 480.2 355.47H481.48L478.77 369.88V369.89Z" fill="#E95513"/>
<path d="M487.29 370.92V369.89C491.24 368.96 494.58 367.59 497.33 365.77C500.08 363.96 502.25 361.72 503.86 359.05C505.46 356.38 506.59 353.31 507.23 349.83C505.76 350.61 504.5 351.16 503.47 351.47C502.44 351.78 501.35 351.93 500.21 351.93C496.55 351.93 493.5 350.57 491.06 347.85C488.62 345.13 487.4 341.41 487.4 336.68C487.4 333.4 488.06 330.39 489.38 327.66C490.7 324.93 492.58 322.81 495.03 321.3C497.48 319.79 500.02 319.04 502.66 319.04C505.49 319.04 508.16 319.87 510.69 321.54C513.21 323.21 515.22 325.62 516.72 328.78C518.22 331.94 518.97 335.54 518.97 339.58C518.97 344.82 517.75 349.85 515.31 354.65C512.87 359.45 509.24 363.3 504.41 366.21C499.58 369.11 493.88 370.69 487.29 370.93V370.92ZM507.76 346.74C508 344 508.12 341.58 508.12 339.5C508.12 335.04 507.62 330.89 506.62 327.04C506.05 324.91 505.2 323.34 504.09 322.34C503.5 321.8 502.72 321.53 501.77 321.53C500.58 321.53 499.65 322.06 498.99 323.11C498.06 324.56 497.6 327.31 497.6 331.38C497.6 338.17 498.38 342.84 499.95 345.42C500.97 347.09 502.35 347.92 504.09 347.92C505.02 347.92 506.24 347.53 507.76 346.74Z" fill="#E95513"/>
<path d="M523.82 370.92V369.89C527.77 368.96 531.11 367.59 533.86 365.77C536.61 363.96 538.78 361.72 540.39 359.05C541.99 356.38 543.12 353.31 543.76 349.83C542.29 350.61 541.03 351.16 540 351.47C538.97 351.78 537.88 351.93 536.74 351.93C533.08 351.93 530.03 350.57 527.59 347.85C525.15 345.13 523.93 341.41 523.93 336.68C523.93 333.4 524.59 330.39 525.91 327.66C527.23 324.93 529.11 322.81 531.56 321.3C534.01 319.79 536.55 319.04 539.19 319.04C542.02 319.04 544.69 319.87 547.22 321.54C549.74 323.21 551.75 325.62 553.25 328.78C554.75 331.94 555.5 335.54 555.5 339.58C555.5 344.82 554.28 349.85 551.84 354.65C549.4 359.45 545.77 363.3 540.94 366.21C536.11 369.11 530.41 370.69 523.82 370.93V370.92ZM544.29 346.74C544.53 344 544.65 341.58 544.65 339.5C544.65 335.04 544.15 330.89 543.15 327.04C542.58 324.91 541.73 323.34 540.62 322.34C540.03 321.8 539.25 321.53 538.3 321.53C537.11 321.53 536.18 322.06 535.52 323.11C534.59 324.56 534.13 327.31 534.13 331.38C534.13 338.17 534.91 342.84 536.48 345.42C537.5 347.09 538.88 347.92 540.62 347.92C541.55 347.92 542.77 347.53 544.29 346.74Z" fill="#E95513"/>
</g>
<defs>
<clipPath id="clip0_4621_2">
<rect width="555.49" height="371.43" fill="white"/>
</clipPath>
</defs>
</svg>
