<?xml version="1.0" encoding="utf-8"?>
<!-- Generator: Adobe Illustrator 26.5.0, SVG Export Plug-In . SVG Version: 6.00 Build 0)  -->
<svg version="1.1" id="圖層_1" xmlns="http://www.w3.org/2000/svg" xmlns:xlink="http://www.w3.org/1999/xlink" x="0px" y="0px"
	 viewBox="0 0 610 540" style="enable-background:new 0 0 610 540;" xml:space="preserve">
<style type="text/css">
	.st0{fill:url(#SVGID_1_);}
	.st1{fill:url(#SVGID_00000008835359596998013100000007006985730904387729_);}
	.st2{fill:url(#SVGID_00000059267513055918646240000003728727503678793112_);}
	.st3{opacity:0.71;fill:url(#SVGID_00000014602579024733058150000017228501215976809607_);}
	.st4{opacity:0.71;fill:url(#SVGID_00000093896818841072359950000013760767463930045058_);}
	.st5{fill:url(#SVGID_00000162330323816959126660000008291941051943347888_);}
	.st6{fill:url(#SVGID_00000107549288457460073670000006109267261421806726_);}
	.st7{fill:#723B00;}
	.st8{fill:#F6D85C;}
	.st9{fill:url(#SVGID_00000040551346344613897900000004820188934313282987_);}
	.st10{fill:url(#SVGID_00000099635233930528407020000017851546507501815963_);}
	.st11{fill:url(#SVGID_00000155843930038531072930000001152825645921054355_);}
	.st12{fill:url(#SVGID_00000031172481420287649480000002815531639292928440_);}
	.st13{fill:url(#SVGID_00000075850109498749993770000008957604341619228567_);}
	.st14{fill:#FFFFFF;}
</style>
<g>
	<g>
		
			<linearGradient id="SVGID_1_" gradientUnits="userSpaceOnUse" x1="-157.417" y1="1288.6143" x2="-72.1491" y2="1288.6143" gradientTransform="matrix(0.9853 0.1707 -0.1707 0.9853 885.3808 -1089.6339)">
			<stop  offset="2.453990e-02" style="stop-color:#7D4524"/>
			<stop  offset="0.135" style="stop-color:#C07F2A"/>
			<stop  offset="0.2699" style="stop-color:#F6D85C"/>
			<stop  offset="0.4908" style="stop-color:#C07F2A"/>
			<stop  offset="0.7239" style="stop-color:#F6D85C"/>
			<stop  offset="0.8466" style="stop-color:#C07F2A"/>
			<stop  offset="0.9693" style="stop-color:#7D4524"/>
		</linearGradient>
		<path class="st0" d="M592.9,165.4c-12.6,15.7-19.6,7.9-15.5-2.1l-1-0.4c-16.6,14.6-18.6-16.4-19-19.7c-1-0.2-3-0.5-4-0.7
			c-1.6,3.1-13.8,31.4-24.5,12.1l-1.1,0c0.5,10.8-8.7,15.7-15.3-3.3l-2,0.9c0,0,3.1,16.3,2.8,19.3c33,0.9,67.3,11,72.1,12.5
			c0.8-3,9.1-17.3,9.1-17.3L592.9,165.4z"/>
		
			<linearGradient id="SVGID_00000037664327364139716950000004956630038637383837_" gradientUnits="userSpaceOnUse" x1="-151.3743" y1="1311.2354" x2="-78.1934" y2="1311.2354" gradientTransform="matrix(0.9853 0.1707 -0.1707 0.9853 885.3808 -1089.6339)">
			<stop  offset="0" style="stop-color:#C07F2A"/>
			<stop  offset="5.521470e-02" style="stop-color:#54230A"/>
			<stop  offset="0.1227" style="stop-color:#C07F2A"/>
			<stop  offset="0.1779" style="stop-color:#F6D85C"/>
			<stop  offset="0.2331" style="stop-color:#FBEEBB"/>
			<stop  offset="0.2945" style="stop-color:#F6D85C"/>
			<stop  offset="0.4908" style="stop-color:#C07F2A"/>
			<stop  offset="0.6933" style="stop-color:#F6D85C"/>
			<stop  offset="0.7607" style="stop-color:#FBEEBB"/>
			<stop  offset="0.816" style="stop-color:#F6D85C"/>
			<stop  offset="0.8773" style="stop-color:#C07F2A"/>
			<stop  offset="0.9448" style="stop-color:#54230A"/>
			<stop  offset="1" style="stop-color:#C07F2A"/>
		</linearGradient>
		<path style="fill:url(#SVGID_00000037664327364139716950000004956630038637383837_);" d="M513.2,171.7c0,0.2-2,11.5-2,11.7
			c5.2-1.9,67.8,9.1,72,12.6c0-0.2,2-11.6,2.1-11.8C580.5,182.7,546.2,172.6,513.2,171.7z"/>
		
			<linearGradient id="SVGID_00000152238836121030987530000009950934441200500887_" gradientUnits="userSpaceOnUse" x1="355.1763" y1="1281.5919" x2="349.8976" y2="1284.7637" gradientTransform="matrix(-0.9853 -0.1707 -0.1707 0.9853 1113.2172 -1049.8345)">
			<stop  offset="0.3436" style="stop-color:#FFFFFF"/>
			<stop  offset="0.9509" style="stop-color:#FFFFFF;stop-opacity:0"/>
		</linearGradient>
		<path style="fill:url(#SVGID_00000152238836121030987530000009950934441200500887_);" d="M553.1,144.2c0,0-7.1,18.1-17.3,18.1
			c0,0,13.9,1.4,19.7-18.1L553.1,144.2z"/>
		
			<linearGradient id="SVGID_00000083059332989887106950000015668709916590993317_" gradientUnits="userSpaceOnUse" x1="-154.5594" y1="1296.104" x2="-152.9098" y2="1295.568" gradientTransform="matrix(0.9853 0.1707 -0.1707 0.9853 885.3808 -1089.6339)">
			<stop  offset="0" style="stop-color:#FFFFFF"/>
			<stop  offset="0.6626" style="stop-color:#FFFFFF;stop-opacity:0"/>
		</linearGradient>
		<polygon style="opacity:0.71;fill:url(#SVGID_00000083059332989887106950000015668709916590993317_);" points="510.6,152.2 
			513.6,169.8 512.4,152.5 		"/>
		
			<linearGradient id="SVGID_00000005258211329919084880000001378579748298375356_" gradientUnits="userSpaceOnUse" x1="722.5138" y1="1296.2545" x2="724.1632" y2="1295.7186" gradientTransform="matrix(-0.9853 -0.1707 -0.1707 0.9853 1523.0068 -978.8311)">
			<stop  offset="0" style="stop-color:#FFFFFF"/>
			<stop  offset="0.6626" style="stop-color:#FFFFFF;stop-opacity:0"/>
		</linearGradient>
		<polygon style="opacity:0.71;fill:url(#SVGID_00000005258211329919084880000001378579748298375356_);" points="594,167.2 
			585.3,182.7 592.2,166.8 		"/>
		
			<linearGradient id="SVGID_00000103258777403314118130000011182621138705488548_" gradientUnits="userSpaceOnUse" x1="-140.6641" y1="1292.5776" x2="-138.3695" y2="1293.2792" gradientTransform="matrix(0.9853 0.1707 -0.1707 0.9853 885.3808 -1089.6339)">
			<stop  offset="0" style="stop-color:#FFFFFF"/>
			<stop  offset="1" style="stop-color:#FFFFFF;stop-opacity:0"/>
		</linearGradient>
		<path style="fill:url(#SVGID_00000103258777403314118130000011182621138705488548_);" d="M528,156.2c0,0-0.1,7.4-3.9,8.5
			c0,0,5.2-1,5.2-9.1L528,156.2z"/>
		
			<linearGradient id="SVGID_00000026124614468899650160000010694778975171301030_" gradientUnits="userSpaceOnUse" x1="524.6118" y1="1292.0458" x2="526.9069" y2="1292.7474" gradientTransform="matrix(-0.9853 -0.1707 -0.1707 0.9853 1314.7388 -1014.9172)">
			<stop  offset="0" style="stop-color:#FFFFFF"/>
			<stop  offset="1" style="stop-color:#FFFFFF;stop-opacity:0"/>
		</linearGradient>
		<path style="fill:url(#SVGID_00000026124614468899650160000010694778975171301030_);" d="M576.8,164.5c0,0-2.4,7,0.8,9.4
			c0,0-4.6-2.6-1.9-10.3L576.8,164.5z"/>
		<path class="st7" d="M571,191.6c16.7,4.4,16.2,6.5-0.6,2.2"/>
		<path class="st8" d="M583.2,196c-25.2-9.7-55.2-13.1-72.1-12.4l0.1-0.4c17-0.7,46.7,2.8,72,12.5L583.2,196z M585.4,184
			c-31.3-8.5-53.4-12.2-72.2-12.5l0,0.4c18.7,0.3,40.8,4,72,12.5L585.4,184z"/>
	</g>
	
		<radialGradient id="SVGID_00000181787325607547660610000008734952017945173146_" cx="-157.3137" cy="1284.9155" r="3.7343" fx="-159.2853" fy="1282.9674" gradientTransform="matrix(0.9853 0.1707 -0.1707 0.9853 885.3808 -1089.6339)" gradientUnits="userSpaceOnUse">
		<stop  offset="0.1288" style="stop-color:#FFFFFF"/>
		<stop  offset="0.3006" style="stop-color:#F6D85C"/>
		<stop  offset="0.4969" style="stop-color:#C07F2A"/>
		<stop  offset="0.7546" style="stop-color:#7D4524"/>
		<stop  offset="0.818" style="stop-color:#814824"/>
		<stop  offset="0.8761" style="stop-color:#8C5225"/>
		<stop  offset="0.9321" style="stop-color:#9E6227"/>
		<stop  offset="0.9864" style="stop-color:#B87829"/>
		<stop  offset="1" style="stop-color:#C07F2A"/>
	</radialGradient>
	<path style="fill:url(#SVGID_00000181787325607547660610000008734952017945173146_);" d="M514.8,150.2c-0.8,4.9-8.4,3.5-7.5-1.3
		C508.1,144,515.7,145.4,514.8,150.2z"/>
	
		<radialGradient id="SVGID_00000116954997156138068570000012732242187454783895_" cx="-140.5736" cy="1284.916" r="3.7722" fx="-142.5652" fy="1282.9481" gradientTransform="matrix(0.9853 0.1707 -0.1707 0.9853 885.3808 -1089.6339)" gradientUnits="userSpaceOnUse">
		<stop  offset="0.1288" style="stop-color:#FFFFFF"/>
		<stop  offset="0.3006" style="stop-color:#F6D85C"/>
		<stop  offset="0.4969" style="stop-color:#C07F2A"/>
		<stop  offset="0.7546" style="stop-color:#7D4524"/>
		<stop  offset="0.818" style="stop-color:#814824"/>
		<stop  offset="0.8761" style="stop-color:#8C5225"/>
		<stop  offset="0.9321" style="stop-color:#9E6227"/>
		<stop  offset="0.9864" style="stop-color:#B87829"/>
		<stop  offset="1" style="stop-color:#C07F2A"/>
	</radialGradient>
	<path style="fill:url(#SVGID_00000116954997156138068570000012732242187454783895_);" d="M531.3,153.1c-0.8,4.9-8.5,3.6-7.5-1.3
		C524.5,146.8,532.2,148.2,531.3,153.1z"/>
	
		<radialGradient id="SVGID_00000105417598766878463710000014824948913086372497_" cx="-88.4499" cy="1284.9169" r="3.7342" fx="-90.4215" fy="1282.9688" gradientTransform="matrix(0.9853 0.1707 -0.1707 0.9853 885.3808 -1089.6339)" gradientUnits="userSpaceOnUse">
		<stop  offset="0.1288" style="stop-color:#FFFFFF"/>
		<stop  offset="0.3006" style="stop-color:#F6D85C"/>
		<stop  offset="0.4969" style="stop-color:#C07F2A"/>
		<stop  offset="0.7546" style="stop-color:#7D4524"/>
		<stop  offset="0.818" style="stop-color:#814824"/>
		<stop  offset="0.8761" style="stop-color:#8C5225"/>
		<stop  offset="0.9321" style="stop-color:#9E6227"/>
		<stop  offset="0.9864" style="stop-color:#B87829"/>
		<stop  offset="1" style="stop-color:#C07F2A"/>
	</radialGradient>
	<path style="fill:url(#SVGID_00000105417598766878463710000014824948913086372497_);" d="M582.6,161.9c-0.8,4.9-8.4,3.5-7.5-1.3
		C575.9,155.8,583.5,157.1,582.6,161.9z"/>
	
		<radialGradient id="SVGID_00000043431465037043673370000016727075509970467758_" cx="-71.7097" cy="1284.9174" r="3.7722" fx="-73.7013" fy="1282.9495" gradientTransform="matrix(0.9853 0.1707 -0.1707 0.9853 885.3808 -1089.6339)" gradientUnits="userSpaceOnUse">
		<stop  offset="0.1288" style="stop-color:#FFFFFF"/>
		<stop  offset="0.3006" style="stop-color:#F6D85C"/>
		<stop  offset="0.4969" style="stop-color:#C07F2A"/>
		<stop  offset="0.7546" style="stop-color:#7D4524"/>
		<stop  offset="0.818" style="stop-color:#814824"/>
		<stop  offset="0.8761" style="stop-color:#8C5225"/>
		<stop  offset="0.9321" style="stop-color:#9E6227"/>
		<stop  offset="0.9864" style="stop-color:#B87829"/>
		<stop  offset="1" style="stop-color:#C07F2A"/>
	</radialGradient>
	<path style="fill:url(#SVGID_00000043431465037043673370000016727075509970467758_);" d="M599.2,164.8c-0.8,4.9-8.5,3.6-7.5-1.3
		C592.4,158.6,600.1,159.9,599.2,164.8z"/>
	
		<radialGradient id="SVGID_00000140707661343176277370000004736510339414871708_" cx="-114.4923" cy="1267.6547" r="5.1935" fx="-117.2343" fy="1264.9453" gradientTransform="matrix(0.9853 0.1707 -0.1707 0.9853 885.3808 -1089.6339)" gradientUnits="userSpaceOnUse">
		<stop  offset="0.1288" style="stop-color:#FFFFFF"/>
		<stop  offset="0.3006" style="stop-color:#F6D85C"/>
		<stop  offset="0.4969" style="stop-color:#C07F2A"/>
		<stop  offset="0.7546" style="stop-color:#7D4524"/>
		<stop  offset="0.818" style="stop-color:#814824"/>
		<stop  offset="0.8761" style="stop-color:#8C5225"/>
		<stop  offset="0.9321" style="stop-color:#9E6227"/>
		<stop  offset="0.9864" style="stop-color:#B87829"/>
		<stop  offset="1" style="stop-color:#C07F2A"/>
	</radialGradient>
	<path style="fill:url(#SVGID_00000140707661343176277370000004736510339414871708_);" d="M561.4,140.7c-1.1,6.7-11.6,4.9-10.4-1.8
		C552.1,132.2,562.6,134,561.4,140.7z"/>
</g>
<path class="st14" d="M202.1,31.9h-20.3v51.1h45.9v5.8h-56.4v53.5h18v-39.5h38.3v9.9c-7.7,0.3-27.5,0.5-34.5,1.3l2.2,13.3
	c12.9-0.9,54.2-1.6,67.3-2.4l0.5,1.7h-1.6l2.8,11.5v3.1h19.9c9.3,0,16.8-4.6,16.8-14.8V88.9h-56.4v-5.8h45.9V31.9h-20.3v-7h36.6
	V10.4h-36.6V1.1h-18.6v9.3h-31.4V1.1h-18v9.3h-36.6V25h36.6V31.9z M283.4,102.9V122c0,3.1-1.3,4.7-4.7,4.7
	c-2.2-4.7-7.1-16.5-10.9-23.9H283.4z M227.7,69.7h-28.5v-6.4h28.5V69.7z M262.1,102.9l-7.5,2.2l2.2,6.6l-12.2,0.5v-9.2H262.1z
	 M273,69.7h-28.5v-6.4H273V69.7z M273,44.7v6.4h-28.5v-6.4H273z M220.1,25h31.4v7h-31.4V25z M227.7,44.7v6.4h-28.5v-6.4H227.7z
	 M304,53.3c31.8-14.8,55.3-32.9,66.8-52.8l22.7,1.4c-2,2.1-2.9,3.8-4.5,5.8c13,17.2,34.4,32.2,61.5,42.4c-4.1,5.8-7.8,11.6-11,17.1
	c-26.6-12.3-47.7-27.9-61.1-45.4c-14.1,17.5-36.1,34-63.4,47.8C312.9,65.6,307.3,56.5,304,53.3z M391.1,120.3h52.9v16.3H309.7v-16.3
	h19.8V66.8h19.2v53.5h23.8V45.9h18.6v28.5h39.5v16.9h-39.5V120.3z M331,285.5H230v120.1H331V285.5z M303.2,377.8h-45.5v-64.5h45.5
	V377.8z M340.3,405.6h101.1V285.5H340.3V405.6z M368,313.3h45.5v64.5H368V313.3z M252.4,269.8h167.3v-87.5H252.4V269.8z
	 M280.2,210.1h111.7v31.9H280.2V210.1z M214.2,405.6V299.2h-130l7.1-11.7h123.6V182.4l-196.9,0v27.8h48.7V221H18v27.8h48.7v10.9H18
	v27.8h43.4L3.2,383.4h30l35.5-58.6v80.8H214.2z M96.4,327h90v50.8h-90V327z M94.5,210.1h92.6V221H94.5V210.1z M94.5,248.8h92.6v10.9
	H94.5V248.8z M606.8,378.1V408H464.7v-23.3c43.4-34.5,94.2-88.5,94.2-134c0-24.4-6.4-41.6-35.1-41.6c-19.8,0-36.9,5.1-53.7,18.6
	v-31.2c33-21.1,133.3-33.1,133.3,51.7c0,48.1-44.7,92.3-87.1,129.8H606.8z M175.1,511.5c0.1,0.3,0.1,1.2-0.1,1.4
	c0-1-1.7-0.9-2.7-0.9v4.4c0.2,1.4-0.5,2.9,0.9,2.8c0.2,0,0.1,0.2-0.1,0.1c-1.3,0-1.2,0-2.3,0c1-0.6,0.4-5.6,0.6-7.3
	c-0.7,0.1-2.6-0.3-2.7,0.7c-0.3,0.4,0.1-1.2,0.2-1.3C170.3,511.7,173.8,511.6,175.1,511.5z M181,519.2c1.1-0.2,0.5-2.2,0.6-3.3
	c0-0.1-3.8,0-3.8-0.1c0,1-0.5,3.5,0.7,3.3c0.1,0,0.1,0.2-0.1,0.1c-1.1,0-1,0-2,0c-0.1,0-0.2-0.1-0.1-0.1c0.9-0.2,0.4-1.3,0.6-2.4
	c-0.2-1.1,0.4-3.7-0.4-3.9c-1.4-0.2,1.7-0.3,1.8-0.1c-0.2,0.2-0.7,0-0.6,0.6c0,0.3,0,0.5,0,1.9c0,0,0,0.3,0.1,0.2
	c0.1,0,3.9,0.1,3.8-0.1c-0.2-1.8,0.5-2.4-0.8-2.7c0.9-0.2,1.2,0,2.1-0.1c0.2,0,0.2,0.1,0.1,0.1c-1.1,0-0.3,2.8-0.6,3.9
	c0.2,1.2-0.4,2.4,0.8,2.4c0.1,0,0.1,0.2-0.1,0.1C182,519.2,181.8,519.4,181,519.2z M188.8,518.3c-0.1,0.3,0.1,1.2-0.6,1.1
	c-0.7-0.1-4.1,0.1-3-0.2c0.6-0.7,0.2-2.8,0.3-3.9c-0.2-1.7,0.5-2.2-0.7-2.4c0.7-0.5,2.8,0.2,3.8-0.2c0.1,0.2-0.1,0.8-0.1,1.1
	c-0.2,0.3-0.1-0.2-0.2-0.3c-0.1-0.3-1.8-0.4-2-0.2c0,2.3-0.5,2.9,2.2,2.3c-0.1,0.1,0,1.5-0.3,1.1c0.2-0.8-1.5-0.5-1.9-0.6
	c-0.1,0,0,0.7-0.1,0.8c0.1,1-0.6,2.3,1.1,2.2c0.5,0,1.3,0,1.3-0.7C188.6,518.1,188.8,518.1,188.8,518.3z M193.8,516.3
	c3.2-3.2-1.1-4-3.6-3.5c1.2,0.3,0.6,0.6,0.8,2.5c-0.2,1.1,0.5,3.7-0.6,3.9c-0.1,0-0.1,0.2,0.1,0.1c0.9-0.1,1.2,0.1,2.1-0.1
	c-1.3-0.1-0.8-1.4-0.9-2.7c-0.1-0.2,1.2,0,1.2,0c1,1,2.5,3.7,4,2.6C195.7,519.1,195,517.5,193.8,516.3z M191.8,516c0,0,0-2.8,0-2.8
	C194.8,511.8,194.9,517.7,191.8,516z M201.3,518.3c-0.1,0.3,0.1,1.2-0.6,1.1c-0.7-0.1-4.1,0.1-3-0.2c0.6-0.7,0.2-2.8,0.3-3.9
	c-0.2-1.7,0.5-2.2-0.7-2.4c0.7-0.5,2.8,0.2,3.8-0.2c0.1,0.2-0.1,0.8-0.1,1.1c-0.2,0.3-0.1-0.2-0.2-0.3c-0.1-0.3-1.8-0.4-2-0.2
	c0,2.3-0.5,2.9,2.2,2.3c-0.1,0.1,0,1.5-0.3,1.1c0.2-0.8-1.5-0.5-1.9-0.6c-0.1,0,0,0.7-0.1,0.8c0.1,1-0.6,2.3,1.1,2.2
	c0.5,0,1.3,0,1.3-0.7C201.2,518.1,201.4,518.1,201.3,518.3z M210.6,518.1c0.5,2.2-2.9,0.9-4.1,1.2c0.8-0.9,0.4-2.3,0.5-4.1
	c-0.2-1.7,0.5-2.2-0.7-2.4c-0.1,0-0.1-0.2,0.1-0.1c1,0,1.1,0,2,0c-1,0.5-0.4,2.2-0.6,4.1c0,1.3,0,1.8,0.2,2
	C208.5,519.1,210.5,519.2,210.6,518.1z M214,519.3c-1.1,0-1.1,0-2,0c-0.5-0.2,0.6-0.1,0.4-0.6c-0.2-1.2,0.7-5.7-0.6-5.9
	c0.3-0.1,2.8-0.1,1.8,0.1c-0.7,0.3-0.2,2.8-0.3,3.9c0.1,1.2-0.4,2.4,0.8,2.4C214.2,519.2,214.2,519.3,214,519.3z M220.8,513.9
	c0-0.9-1.5-0.7-2.3-0.8v3.7c0.1,1.2-0.4,2.4,0.8,2.4c0.1,0,0.1,0.2-0.1,0.1c-1.1,0-1.1,0-2.1,0c0.9-0.6,0.4-4.7,0.5-6.2
	c-0.6,0.1-2.3-0.2-2.4,0.6c-0.3,0.3,0-1.1,0.1-1.1c1.2,0.4,4.4,0,5.5,0.2C220.8,513.1,220.9,513.7,220.8,513.9z M227.3,512.7
	c-0.1,0.3,0.1,1-0.1,1.1c0-0.9-1.5-0.7-2.3-0.8v3.7c0.1,1.2-0.4,2.4,0.8,2.4c0.1,0,0.1,0.2-0.1,0.1c-1.1,0-1.1,0-2.1,0
	c0.9-0.6,0.4-4.7,0.5-6.2c-0.6,0.1-2.3-0.2-2.4,0.6c-0.3,0.4,0-1.1,0.1-1.1C223,513,226.2,512.6,227.3,512.7z M230,516.8
	c0,1.3,0,1.8,0.2,2c0.5,0.3,2.5,0.4,2.6-0.7c0.5,2.2-2.9,0.9-4.1,1.2c0.8-0.9,0.4-2.3,0.5-4.1c-0.2-1.7,0.5-2.2-0.7-2.4
	c-0.1,0-0.1-0.2,0.1-0.1c1,0,1.1,0,2,0C229.5,513.2,230.1,515,230,516.8z M234.3,519.1c0.6-0.7,0.2-2.8,0.3-3.9
	c-0.2-1.7,0.5-2.2-0.7-2.4c0.7-0.5,2.8,0.2,3.8-0.2c0.1,0.2-0.1,0.8-0.1,1.1c-0.2,0.3-0.1-0.2-0.2-0.3c-0.1-0.3-1.8-0.4-2-0.2
	c0,2.3-0.5,2.9,2.2,2.3c-0.1,0.1,0,1.5-0.3,1.1c0.2-0.8-1.5-0.5-1.9-0.6c-0.1,0,0,0.7-0.1,0.8c0.1,1-0.6,2.3,1.1,2.2
	c0.5,0,1.3,0,1.3-0.7c0-0.2,0.2-0.2,0.2,0c-0.1,0.3,0.1,1.2-0.6,1.1C236.7,519.3,233.3,519.4,234.3,519.1z M242.4,513.7
	c-0.3,0.4,0-1.1,0.1-1.1c1.2,0.4,4.4,0,5.5,0.2c-0.1,0.3,0.1,1-0.1,1.1c0-0.9-1.5-0.7-2.3-0.8v3.7c0.1,1.2-0.4,2.4,0.8,2.4
	c0.1,0,0.1,0.2-0.1,0.1c-1.1,0-1.1,0-2.1,0c0.9-0.6,0.4-4.7,0.5-6.2C244.2,513.2,242.5,512.9,242.4,513.7z M249.4,519.3
	c-0.5-0.2,0.6-0.1,0.4-0.6c-0.2-1.2,0.8-6-0.7-5.9c0.2-0.2,1.2,0,1.2-0.1c0,0.1,1.2-0.2,1,0.1c-0.3,0-0.6,0.1-0.5,0.5
	c0-0.2-0.1,1.3,0,2.1c0.1-0.1,4.2,0.3,3.8-0.2c-0.2-1.7,0.5-2.2-0.7-2.4c-0.1,0-0.1-0.2,0.1-0.1c1,0,1,0,1.9,0c0.3,0,0,0.2-0.2,0.2
	c-0.7,0.3-0.2,2.8-0.3,3.9c0.2,1.2-0.4,2.4,0.8,2.4c0.1,0,0.1,0.2-0.1,0.1c-1.1,0-1,0-2,0c-0.2,0-0.2-0.1-0.1-0.1
	c1-0.2,0.4-2.2,0.6-3.2c0-0.1-3.8-0.1-3.9,0c0.2,1-0.4,2.8,0.4,3.2c0.2,0,0.8,0.1,0.3,0.2C250.3,519.3,250.4,519.3,249.4,519.3z
	 M261,512.6c-4.8,0.2-4.8,6.7,0,6.9C265.7,519.5,265.8,512.3,261,512.6z M261.2,519.1c-3.4,0.3-4-6.4-0.3-6.2
	C264.5,512.6,264.4,519.5,261.2,519.1z M266.3,515.2c-0.2-1.7,0.5-2.2-0.7-2.4c-0.1,0-0.1-0.2,0.1-0.1c1,0.1,1.3-0.1,2.1,0.1
	c-1.1,0.4-0.5,0.6-0.6,2.5c-0.4,2.5,1.1,5.1,3.4,3.2c0.6-0.7,0.5-2.2,0.5-3.2c-0.2-1.9,0.5-2.1-0.8-2.5c0.2-0.2,1.1,0,1.1-0.1
	c0,0,0.8-0.1,0.9,0.1c-1.1,0.2-0.4,2-0.6,3.4C271.9,521.1,265.2,520.3,266.3,515.2z M279.4,518.6c-0.4,1.5-3.8,1-5-0.1
	c-3.4-3.6,1.5-7.3,5.1-5.6c-0.1,0,0.1,0.9-0.2,1.4c-1.8-3.7-7.5,0.2-4.2,3.8c0.9,0.8,2.7,1.4,3.5,0.5c0,0,0-1.5,0-1.5
	c0.1-1-0.3-0.8-0.8-1c0.2-0.2,1.2,0,1.2-0.1c-0.1,0,1.3-0.2,1,0.1C278.9,516.2,279.5,517.9,279.4,518.6z M288.3,519.3
	c-1.1,0-1.1,0-2,0c-0.2,0-0.2-0.1-0.1-0.1c1-0.2,0.4-2.2,0.6-3.2c0-0.1-3.8-0.1-3.9,0c0.2,1.1-0.6,3.3,0.8,3.3
	c0.2,0.3-1.4,0-1.2,0.1c0-0.1-0.9,0.1-1,0c1-0.3,0.5-1.3,0.6-2.5c-0.2-1.1,0.4-3.7-0.4-3.9c-1.3-0.2,0.9-0.1,0.8-0.1
	c0,0.1,1.2-0.2,1,0.1c-0.3,0-0.6,0.1-0.5,0.5c0-0.2-0.1,1.3,0,2.1c0.1-0.1,4.2,0.3,3.8-0.2c-0.2-1.7,0.5-2.2-0.7-2.4
	c-0.1,0-0.1-0.2,0.1-0.1c1,0,1,0,1.9,0c0.3,0,0,0.2-0.2,0.2c-0.7,0.3-0.2,2.8-0.3,3.9c0.2,1.2-0.4,2.4,0.8,2.4
	C288.6,519.2,288.5,519.3,288.3,519.3z M295.2,512.7c-0.1,0.3,0.1,1-0.1,1.1c0-0.9-1.5-0.7-2.3-0.8v3.7c0.1,1.2-0.4,2.4,0.8,2.4
	c0.1,0,0.1,0.2-0.1,0.1c-1.1,0-1.1,0-2.1,0c0.9-0.6,0.4-4.7,0.5-6.2c-0.6,0.1-2.3-0.2-2.4,0.6c-0.3,0.3,0-1.1,0.1-1.1
	C290.9,513,294.1,512.6,295.2,512.7z M299.8,517.6c0.1,1.7-2.3,2.2-3.6,1.6c-0.4-0.3,0-2.2,0.1-1c0.3,1.3,2.9,1,2.8-0.3
	c0.1-1.3-3.2-2.4-2.8-3.7c-0.1-1.6,2-1.8,3.3-1.5c0.1-0.2,0.1,0.9,0,1.2c0.1-1.1-2.5-1.5-2.6,0C296.8,515.1,300.2,516.3,299.8,517.6
	z M307.1,512.9c-0.6,0.7-1.8,6.6-3.2,6.3c-0.6,0.2,2.5,0.2,1.9,0c-1,0,0.2-1.8,0.3-2.2c0-0.2,2.1,0,2.2-0.1c0.1,0,1.1,2.3,0.8,2.3
	c-0.2,0.1,0,0.1,0.3,0.1c0.7,0,1.9,0.2,1.5-0.1C309.2,519.5,307.8,511.2,307.1,512.9z M308.1,516.5c0,0-1.8,0-1.8,0
	c-0.1,0,0.8-2.4,0.8-2.5c0.1-0.1,0.1-0.1,0.2,0C307.2,514.1,308.2,516.5,308.1,516.5z M317.4,519.3c0.1,0,1.1,0.1,0.7-0.1
	c-1.4-0.1-2.1-1.7-3.2-2.9c3.2-3.3-1-4-3.5-3.5c1.2,0.3,0.6,0.6,0.8,2.5c-0.2,1.2,0.6,3.7-0.6,4c0.9,0.2,1,0,2.2,0.1
	c0.4-0.1-0.2-0.2-0.3-0.2c-0.7-0.3-0.4-1.7-0.3-2.6C315.1,516,315.3,519.6,317.4,519.3z M312.9,516c0,0,0-2.8,0-2.8
	C315.9,511.8,315.9,517.7,312.9,516z M318.7,519.1c0.6-0.7,0.2-2.8,0.3-3.9c-0.2-1.7,0.5-2.2-0.7-2.4c0.7-0.5,2.8,0.2,3.8-0.2
	c0.1,0.2-0.1,0.8-0.1,1.1c-0.2,0.3-0.1-0.2-0.2-0.3c-0.1-0.3-1.8-0.4-2-0.2c0,2.3-0.5,2.9,2.2,2.3c-0.1,0.1,0,1.5-0.3,1.1
	c0.2-0.8-1.5-0.5-1.9-0.6c-0.1,0,0,0.7-0.1,0.8c0.1,1-0.6,2.3,1.1,2.2c0.5,0,1.3,0,1.3-0.7c0-0.2,0.2-0.2,0.2,0
	c-0.1,0.3,0.1,1.2-0.6,1.1C321.1,519.3,317.7,519.4,318.7,519.1z M326.8,513.7c-0.3,0.4,0-1.1,0.1-1.1c1.2,0.4,4.4,0,5.5,0.2
	c-0.1,0.3,0.1,1-0.1,1.1c0-0.9-1.5-0.7-2.3-0.8v3.7c0.1,1.2-0.5,2.4,0.8,2.4c0.1,0,0.1,0.2-0.1,0.1c-1.1,0-1.1,0-2.1,0
	c0.9-0.6,0.4-4.7,0.5-6.2C328.6,513.2,326.9,512.9,326.8,513.7z M340.5,519.3c-1.1-0.1-1.3,0.1-2.2-0.1c1.1-0.2,0.5-2.2,0.6-3.3
	c0-0.1-3.8,0-3.8-0.1c0,1.2-0.6,3.3,0.8,3.4c-0.3,0.2-1.3,0-1.3,0c0,0-0.9,0.1-1,0c1.2-0.3,0.4-2.8,0.6-4c-0.2-1.7,0.5-2.2-0.7-2.4
	c-0.2-0.3,1.1-0.1,1.1-0.1c0,0.1,1.2-0.2,1,0.1c-1,0.3-0.4,0.7-0.6,2.4c-0.3,0.5,3.9,0.2,3.9,0.2c-0.2-1.6,0.5-2.5-0.7-2.6
	c-0.1,0-0.1-0.2,0.1-0.1c1,0,1,0,1.9,0c0.3,0,0,0.2-0.2,0.2c-0.7,0.3-0.2,2.8-0.3,3.9c0.2,1.2-0.4,2.4,0.8,2.4
	C340.8,519.2,340.7,519.3,340.5,519.3z M342.5,519.1c0.6-0.7,0.2-2.8,0.3-3.9c-0.2-1.7,0.5-2.2-0.7-2.4c0.7-0.5,2.8,0.2,3.8-0.2
	c0.1,0.2-0.1,0.8-0.1,1.1c-0.2,0.3-0.1-0.2-0.2-0.3c-0.1-0.3-1.8-0.4-2-0.2c0,2.5-0.6,2.9,2.2,2.3c-0.1,0.1,0,1.5-0.3,1.1
	c0.2-0.8-1.5-0.5-1.9-0.6c-0.1,0,0,0.7-0.1,0.8c0.1,1-0.6,2.3,1.1,2.2c0.5,0,1.3,0,1.3-0.7c0-0.2,0.2-0.2,0.2,0
	c-0.1,0.3,0.1,1.2-0.6,1.1C344.9,519.3,341.5,519.4,342.5,519.1z M357.1,519.3c0.1,0,1.1,0.1,0.7-0.1c-1.4-0.1-2.1-1.7-3.2-2.9
	c3.2-3.3-1-4-3.5-3.5c1.2,0.3,0.6,0.6,0.8,2.5c-0.2,1.2,0.6,3.7-0.6,4c0.9,0.2,1,0,2.2,0.1c0.4-0.1-0.2-0.2-0.3-0.2
	c-0.7-0.3-0.4-1.7-0.3-2.6C354.8,516,355,519.6,357.1,519.3z M352.6,513.2c3-1.3,3,4.5,0,2.8C352.6,516,352.6,513.2,352.6,513.2z
	 M364.3,512.8c-1.1,0.2-0.4,2-0.6,3.4c0.2,4.9-6.5,4.1-5.4-0.9c-0.1-1.9,0.5-2.1-0.8-2.5c0.8-0.1,1.5-0.1,2.3,0
	c-1.1,0.4-0.5,0.6-0.6,2.5c-0.4,2.5,1.1,5.1,3.4,3.2c0.6-0.7,0.5-2.2,0.5-3.2c-0.2-1.9,0.5-2.1-0.8-2.5c0.2-0.2,1.1,0,1.1-0.1
	C363.4,512.8,364.2,512.6,364.3,512.8z M369.1,517.6c0.1,1.7-2.3,2.2-3.6,1.6c-0.4-0.3,0-2.2,0.1-1c0.3,1.3,2.9,1,2.8-0.3
	c0.1-1.3-3.2-2.4-2.8-3.7c-0.1-1.6,2-1.8,3.3-1.5c0.1-0.2,0.1,0.9,0,1.2c0.1-1.1-2.5-1.5-2.6,0C366.1,515.1,369.5,516.3,369.1,517.6
	z M376,512.7c-0.1,0.3,0.1,1-0.1,1.1c0-0.9-1.5-0.7-2.3-0.8v3.7c0.1,1.2-0.4,2.4,0.8,2.4c0.1,0,0.1,0.2-0.1,0.1c-1.1,0-1.1,0-2.1,0
	c0.9-0.6,0.4-4.7,0.5-6.2c-0.6,0.1-2.3-0.2-2.4,0.6c-0.3,0.3,0-1.1,0.1-1.1C371.7,513,374.9,512.6,376,512.7z M377.4,519.3
	c0.9-0.9,0.4-2.3,0.5-4.1c-0.2-1.7,0.5-2.2-0.7-2.4c-0.1,0-0.1-0.2,0.1-0.1c1,0,1.1,0,2,0c-1,0.5-0.4,2.2-0.6,4.1c0,1.3,0,1.8,0.2,2
	c0.5,0.3,2.5,0.4,2.6-0.7C382,520.3,378.6,519,377.4,519.3z M383.1,519.1c0.6-0.7,0.2-2.8,0.3-3.9c-0.2-1.7,0.5-2.2-0.7-2.4
	c0.7-0.5,2.8,0.2,3.8-0.2c0.1,0.2-0.1,0.8-0.1,1.1c-0.2,0.3-0.1-0.2-0.2-0.3c-0.1-0.3-1.8-0.4-2-0.2c0,2.3-0.5,2.9,2.2,2.3
	c-0.1,0.1,0,1.5-0.3,1.1c0.2-0.8-1.5-0.5-1.9-0.6c-0.1,0,0,0.7-0.1,0.8c0.1,1-0.6,2.3,1.1,2.2c0.5,0,1.3,0,1.3-0.7
	c0-0.2,0.2-0.2,0.2,0c-0.1,0.3,0.1,1.2-0.6,1.1C385.5,519.3,382.1,519.4,383.1,519.1z M395,512.6c-4.8,0.2-4.8,6.7-0.1,6.9
	C399.6,519.5,399.7,512.3,395,512.6z M395.2,519.1c-3.4,0.3-4-6.4-0.3-6.2C398.5,512.6,398.3,519.5,395.2,519.1z M401.3,513.1
	c-0.3,2.4-0.4,3,2.2,2.4c-0.4,2.5,0.3-0.2-2.3,0.6c0.2,1.3-0.5,3.1,0.9,3.2c-0.3,0.2-1.3,0-1.3,0c0-0.1-0.9,0.1-1,0
	c1.2-0.3,0.4-2.8,0.6-4c-0.2-1.7,0.5-2.2-0.7-2.4c0.7-0.5,3,0.2,4-0.2c0.1,0.1-0.1,0.8-0.1,1.1c-0.2,0.3-0.2-0.2-0.2-0.3
	C403.3,512.9,401.7,513.1,401.3,513.1z M408.8,519.3c0.8-0.9,0.4-2.3,0.5-4.1c-0.2-1.7,0.5-2.2-0.7-2.4c-0.1,0-0.1-0.2,0.1-0.1
	c1,0,1.1,0,2,0c-1,0.5-0.4,2.2-0.6,4.1c0,1.3,0,1.8,0.2,2c0.5,0.3,2.5,0.4,2.6-0.7C413.4,520.3,410,519,408.8,519.3z M414.5,519.1
	c0.6-0.7,0.2-2.8,0.3-3.9c-0.2-1.7,0.5-2.2-0.7-2.4c0.7-0.5,2.8,0.2,3.8-0.2c0.1,0.2-0.1,0.8-0.1,1.1c-0.2,0.3-0.1-0.2-0.2-0.3
	c-0.1-0.3-1.8-0.4-2-0.2c0,2.3-0.5,2.9,2.2,2.3c-0.1,0.1,0,1.5-0.3,1.1c0.2-0.8-1.5-0.5-1.9-0.6c-0.1,0,0,0.7-0.1,0.8
	c0.1,1-0.6,2.3,1.1,2.2c0.5,0,1.3,0,1.3-0.7c0-0.2,0.2-0.2,0.2,0c-0.1,0.3,0.1,1.2-0.6,1.1C416.8,519.3,413.5,519.4,414.5,519.1z
	 M423.1,516.9c0,0.1,1.1,2.2,0.7,2.2c-0.2,0.1,0.1,0.1,0.3,0.1c0.7,0,1.9,0.2,1.5-0.1c-1.6,0.3-3.1-7.9-3.7-6.3
	c-0.6,0.8-1.8,6.5-3.2,6.4c0.1,0.2,2.7,0.1,1.9-0.1c-0.8-0.1,0.3-1.8,0.3-2.2C420.8,516.8,423.1,516.8,423.1,516.9z M422.8,516.5
	c0-0.1-1.9,0.1-1.9-0.1C422.1,513.1,421.8,513.5,422.8,516.5z M431.4,512.9c-1.6,0.5-2.4,5.5-3.5,6.6c-0.8-0.6-2.1-6.8-3.6-6.7
	c0.9-0.2,1.3,0,2.1-0.1c0.2,0,0.3,0.1,0.2,0.1c-1.3-0.3,1.6,4.9,1.5,5.3c0.5-1.5,2.1-4.4,1.9-5.3
	C428.6,512.7,431.9,512.6,431.4,512.9z M436.2,518.3c-0.1,0.3,0.1,1.2-0.6,1.1c-0.7-0.1-4.1,0.1-3-0.2c0.6-0.7,0.2-2.8,0.3-3.9
	c-0.2-1.7,0.5-2.2-0.7-2.4c0.7-0.5,2.8,0.2,3.8-0.2c0.1,0.2-0.1,0.8-0.1,1.1c-0.2,0.3-0.1-0.2-0.2-0.3c-0.1-0.3-1.8-0.4-2-0.2
	c0,2.5-0.6,2.9,2.2,2.3c-0.1,0.1,0,1.5-0.3,1.1c0.2-0.8-1.5-0.5-1.9-0.6c-0.1,0,0,0.7-0.1,0.8c0.1,1-0.6,2.3,1.1,2.2
	c0.5,0,1.3,0,1.3-0.7C436.1,518.1,436.2,518.1,436.2,518.3z M441.3,517.6c0.1,1.7-2.3,2.2-3.6,1.6c-0.4-0.3,0-2.2,0.1-1
	c0.3,1.3,2.9,1,2.8-0.3c0.1-1.3-3.2-2.4-2.9-3.7c-0.4-1.6,3.9-2.6,3.3-0.5c-0.1,0.6-0.2-0.2-0.3-0.3c-0.1-0.1-0.4-0.4-1.2-0.4
	C435.9,513.8,441.8,516.1,441.3,517.6z M187.6,529.4c-0.1,0.3,0.1,1-0.1,1.1c0-0.9-1.5-0.7-2.3-0.8v3.7c0.1,1.2-0.4,2.4,0.8,2.4
	c0.1,0,0.1,0.2-0.1,0.1c-1.1,0-1.1,0-2.1,0c0.9-0.6,0.4-4.7,0.5-6.2c-0.6,0.1-2.3-0.2-2.4,0.6c-0.3,0.4,0-1.1,0.1-1.1
	C183.3,529.6,186.5,529.2,187.6,529.4z M195.7,535.8c-1.1,0-1.1,0-2,0c-0.2,0-0.2-0.1-0.1-0.1c1-0.2,0.4-1.3,0.6-2.4
	c0,0,0.1-1,0-0.9c0,0-3.8,0-3.8,0c0,1.2-0.6,3.3,0.8,3.4c-0.3,0.2-1.3,0-1.3,0c0.1-0.1-1.3,0.2-1-0.1c1.1-0.2,0.3-2.9,0.6-3.9
	c-0.2-1.7,0.5-2.2-0.7-2.4c-0.5-0.3,3.3-0.1,1.9,0c-0.6,0.4-0.3,1.2-0.3,2.6c0.1-0.1,4.2,0.3,3.8-0.2c-0.2-1.7,0.5-2.2-0.7-2.4
	c-0.1,0-0.1-0.2,0.1-0.1c1,0,1,0,1.9,0c0.3,0,0,0.2-0.2,0.2c-0.7,0.3-0.2,2.8-0.3,3.9c0.2,1.2-0.4,2.4,0.8,2.4
	C195.9,535.7,195.8,535.8,195.7,535.8z M201.3,534.8c-0.1,0.3,0.1,1.2-0.6,1.1c-0.7-0.1-4.1,0.1-3-0.2c0.6-0.7,0.2-2.8,0.3-3.9
	c-0.2-1.7,0.5-2.2-0.7-2.4c0.7-0.5,2.8,0.2,3.8-0.2c0.1,0.2-0.1,0.8-0.1,1.1c-0.2,0.3-0.1-0.2-0.2-0.3c-0.1-0.3-1.8-0.4-2-0.2
	c0,2.3-0.5,2.9,2.2,2.3c-0.1,0.1,0,1.5-0.3,1.1c0.2-0.8-1.5-0.5-1.9-0.6c-0.1,0,0,0.7-0.1,0.8c0.1,1-0.6,2.3,1.1,2.2
	c0.5,0,1.3,0,1.3-0.7C201.2,534.6,201.3,534.7,201.3,534.8z M208.6,529.2c-1.3,0.5-2.8,3-2.9,4.3c0.1,0.7-0.4,2.3,0.8,2.1
	c0.1,0,0.1,0.2-0.1,0.1c-1.1,0-1.1,0-2,0c-0.2,0-0.2-0.1-0.1-0.1c1,0,0.4-1.6,0.6-2.1c0-1.3-2-3.7-2.8-4.3c0.7,0.1,1.1-0.1,1.8,0.1
	c-0.9,0.2,1.5,2.9,1.5,3.3c0.2-0.8,2.2-2.7,1.4-3.3C207.3,529.2,208,529.2,208.6,529.2z M220.2,535.8c-1.1,0-1,0-2,0
	c-0.2,0-0.2-0.1-0.1-0.1c0.9-0.2,0.4-1.3,0.6-2.4c0,0,0.1-1-0.1-0.9h-3.8c0,0.9-0.4,2.9,0.3,3.3c1.6,0.2-1.6,0.3-1.8,0.1
	c1.2-0.3,0.4-2.8,0.6-4c-0.2-1.7,0.5-2.2-0.7-2.4c-0.1,0-0.1-0.2,0.1-0.1c1,0.1,1.3-0.1,2.1,0.1c-0.2,0.2-0.7,0-0.6,0.6
	c0.1-0.2-0.1,1.3,0,2.1c0.1,0,3.9,0.1,3.8-0.1c-0.2-1.7,0.5-2.4-0.8-2.7c0.4-0.1,2.9-0.1,1.9,0.1c-0.7,0.3-0.2,2.8-0.3,3.9
	c0.2,1.2-0.4,2.4,0.8,2.4C220.4,535.7,220.4,535.8,220.2,535.8z M224.1,529.4c-0.6,0.7-1.8,6.6-3.2,6.3c-0.6,0.2,2.5,0.2,1.9,0
	c-1,0,0.2-1.8,0.3-2.2c0-0.2,2.1,0,2.2-0.1c0.1,0,1.1,2.3,0.8,2.3c-0.2,0.1,0,0.1,0.3,0.1c0.7,0,1.9,0.2,1.5-0.1
	C226.2,536,224.7,527.7,224.1,529.4z M223.2,532.9c1.1-3.3,0.8-3,1.9,0.1C225.1,533,223.1,533.1,223.2,532.9z M233.6,529.3
	c-1.6,0.5-2.4,5.5-3.5,6.6c-0.8-0.6-2.1-6.8-3.6-6.7c0.9-0.2,1.3,0,2.1-0.1c0.7,0.1-0.3,0.1-0.3,0.3c0,0.4,1.8,4.6,2,5.1
	c0.5-1.5,2.1-4.4,1.9-5.3c-0.2,0-0.7-0.1-0.2-0.2C232.4,529.3,234,529,233.6,529.3z M238.4,534.8c-0.1,0.3,0.1,1.2-0.6,1.1
	c-0.7-0.1-4.1,0.1-3-0.2c0.6-0.7,0.2-2.8,0.3-3.9c-0.2-1.7,0.5-2.2-0.7-2.4c0.7-0.5,2.8,0.2,3.8-0.2c0.1,0.1-0.1,0.8-0.1,1.1
	c-0.2,0.3-0.1-0.2-0.2-0.3c-0.1-0.3-1.8-0.4-2-0.2c0,2.3-0.5,2.9,2.2,2.3c-0.1,0.1,0,1.5-0.3,1.1c0.2-0.8-1.5-0.5-1.9-0.6
	c-0.1,0,0,0.7-0.1,0.8c0.1,1-0.6,2.3,1.1,2.2c0.5,0,1.3,0,1.3-0.7C238.3,534.6,238.5,534.6,238.4,534.8z M248.5,529.2
	c-0.1,0.3,0.1,1-0.1,1.1c0-0.9-1.5-0.7-2.3-0.8v3.7c0.1,1.2-0.5,2.4,0.8,2.4c0.1,0,0.1,0.2-0.1,0.1c-1.1,0-1.1,0-2.1,0
	c0.9-0.6,0.4-4.7,0.5-6.2c-0.6,0.1-2.3-0.2-2.4,0.6c-0.3,0.3,0.1-1.1,0.1-1.1C244.2,529.4,247.4,529,248.5,529.2z M256.6,535.8
	c-1.1,0-1.1,0-2,0c-0.2,0-0.2-0.1-0.1-0.1c1-0.1,0.4-1.3,0.6-2.4c0,0,0.1-1,0-0.9h-3.8c0,0.9-0.4,2.9,0.3,3.3c0.2,0,0.8,0.1,0.3,0.2
	c-1.1,0-1.1,0-2,0c-0.1,0-0.2-0.1-0.1-0.1c0.9-0.1,0.4-1.3,0.6-2.4c-0.2-1.1,0.4-3.7-0.4-3.9c-0.1,0-0.6-0.1-0.2-0.2c1,0,1,0,1.9,0
	c0.5,0.2-0.6,0.1-0.5,0.6c0-0.2-0.1,1.3,0,2.1c0.1-0.1,4.2,0.3,3.8-0.2c-0.2-1.7,0.5-2.2-0.7-2.4c-0.1,0-0.1-0.2,0.1-0.1
	c1,0,1,0,1.9,0c0.3,0,0,0.2-0.2,0.2c-0.7,0.3-0.2,2.8-0.3,3.9c0.2,1.2-0.4,2.4,0.8,2.4C256.8,535.7,256.7,535.8,256.6,535.8z
	 M262.2,534.8c-0.1,0.3,0.1,1.2-0.6,1.1c-0.7-0.1-4.1,0.1-3-0.2c0.6-0.7,0.2-2.8,0.3-3.9c-0.2-1.7,0.5-2.2-0.7-2.4
	c0.7-0.5,2.8,0.2,3.8-0.2c0.1,0.1-0.1,0.8-0.1,1.1c-0.2,0.3-0.1-0.2-0.2-0.3c-0.1-0.3-1.8-0.4-2-0.2c0,2.3-0.5,2.9,2.2,2.3
	c-0.1,0.1,0,1.5-0.3,1.1c0.2-0.8-1.5-0.5-1.9-0.6c-0.1,0,0,0.7-0.1,0.8c0.1,1-0.6,2.3,1.1,2.2c0.5,0,1.3,0,1.3-0.7
	C262.1,534.6,262.2,534.6,262.2,534.8z M266.1,535.8c-1.1,0-1.1,0-2,0c-0.5-0.2,0.6-0.1,0.4-0.6c-0.2-1.2,0.7-5.7-0.6-5.9
	c0.3-0.1,2.8-0.1,1.8,0.1c-0.7,0.3-0.2,2.8-0.3,3.9c0.1,1.2-0.4,2.4,0.8,2.4C266.2,535.7,266.2,535.8,266.1,535.8z M271.1,532.8
	c3.2-3.3-1-4-3.6-3.5c1.2,0.3,0.6,0.6,0.8,2.5c-0.2,1.2,0.6,3.7-0.6,4c0.9,0.2,1.1,0,2.1,0.1c0.2,0,0.2-0.1,0.1-0.1
	c-1.2,0.1-0.8-1.6-0.7-2.7c2.3-0.4,2.6,3.8,5.2,2.7C273,535.5,272.2,534.1,271.1,532.8z M269.1,532.5c0,0,0-2.8,0-2.8
	C272.1,528.3,272.1,534.2,269.1,532.5z M287.1,529.2c-1.8,0.8-1.9,5.3-3,6.7c-0.3,0.1-1.9-5-2.1-5.2c-0.5,1-1.5,4.4-2.2,5.2
	c-0.9-0.7-1.3-6.7-2.9-6.7c1-0.1,1.4-0.1,2.3,0c-1.4,0.2,0.9,4.5,0.8,5.3h0c2.7-6.6,1.6-6.8,4.2,0h0c-0.1-0.7,2.4-5,0.9-5.3
	C285.9,529.1,286.3,529.2,287.1,529.2z M294.7,535.8c-1.1,0-1.1,0-2,0c-0.2,0-0.2-0.1-0.1-0.1c1.1-0.1,0.4-2.2,0.6-3.2
	c0-0.1-3.8-0.1-3.9,0c0.2,1.1-0.6,3.3,0.8,3.3c0.3,0.3-1.4,0-1.2,0.1c0.1-0.1-1.3,0.2-1-0.1c1.1-0.2,0.3-2.9,0.6-3.9
	c-0.2-1.7,0.5-2.2-0.7-2.4c-0.2-0.3,1.1-0.1,1.1-0.1c0,0.1,0.9-0.1,1,0.1c-0.2,0.2-0.7,0-0.6,0.6c0-0.2-0.1,1.3,0,2.1
	c0.1-0.1,4.2,0.3,3.8-0.2c-0.2-1.7,0.5-2.2-0.7-2.4c-0.1,0-0.1-0.2,0.1-0.1c1,0,1,0,1.9,0c0.3,0,0,0.2-0.2,0.2
	c-0.7,0.3-0.2,2.8-0.3,3.9c0.2,1.2-0.4,2.4,0.8,2.4C295,535.7,294.9,535.8,294.7,535.8z M298.6,535.8c-1.1,0-1.1,0-2,0
	c-0.5-0.2,0.6-0.1,0.4-0.6c-0.2-1.1,0.7-5.7-0.5-5.8c-0.3-0.3,1-0.1,1-0.1c-0.1,0.1,1.3-0.2,1,0.1c-1.1,0-0.3,2.8-0.6,3.9
	c0.1,1.2-0.4,2.4,0.8,2.4C298.7,535.7,298.7,535.8,298.6,535.8z M303.9,534.1c0.1,1.7-2.3,2.2-3.6,1.6c-0.4-0.3,0-2.2,0.1-1
	c0.3,1.3,2.9,1,2.8-0.3c0.1-1.3-3.2-2.4-2.9-3.7c-0.4-1.6,3.9-2.6,3.3-0.5c-0.1,0.6-0.2-0.2-0.3-0.3c-0.1-0.1-0.4-0.4-1.2-0.4
	C298.4,530.2,304.3,532.6,303.9,534.1z M309.6,529.7c1.3,1.4-0.3,3.4-2.1,3.1c-0.2,0-0.1-0.2,0.1-0.2c1,0,1.7-0.6,1.7-1.4
	c0.3-1-1.7-2.4-2.3-1.5c0,1.1,0,4.5,0,5.5c-0.2,0.6,1.2,0.4,0.7,0.6c-1.1-0.1-1.3,0.1-2.2-0.1c1.2-0.3,0.4-2.8,0.6-4
	c-0.2-1.7,0.5-2.2-0.7-2.4c-0.1,0-0.1-0.2,0.1-0.1C306.7,529.2,309.1,529,309.6,529.7z M315.5,534.8c-0.1,0.3,0.1,1.2-0.6,1.1
	c-0.7-0.1-4.1,0.1-3-0.2c0.6-0.7,0.2-2.8,0.3-3.9c-0.2-1.7,0.5-2.2-0.7-2.4c0.7-0.5,2.8,0.2,3.8-0.2c0.1,0.2-0.1,0.8-0.1,1.1
	c-0.2,0.3-0.1-0.2-0.2-0.3c-0.1-0.3-1.8-0.4-2-0.2c0,2.3-0.5,2.9,2.2,2.3c-0.1,0.1,0,1.5-0.3,1.1c0.2-0.8-1.5-0.5-1.9-0.6
	c-0.1,0,0,0.7-0.1,0.8c0.1,1-0.6,2.3,1.1,2.2c0.5,0,1.3,0,1.3-0.7C315.3,534.6,315.5,534.6,315.5,534.8z M320.5,532.8
	c3.2-3.3-1.1-4-3.6-3.5c1.2,0.3,0.6,0.6,0.8,2.5c-0.2,1.2,0.6,3.7-0.6,4c0.9,0.2,1.1,0,2.1,0.1c0.4-0.1-0.2-0.2-0.3-0.2
	c-0.7-0.3-0.4-1.7-0.3-2.6c2.3-0.5,2.7,3.8,5.2,2.7C322.4,535.5,321.7,534.1,320.5,532.8z M318.5,532.5c0,0,0-2.8,0-2.8
	C321.5,528.3,321.5,534.2,318.5,532.5z M330.6,529.1c-4.8,0.2-4.8,6.7,0,6.8C335.2,536,335.3,528.8,330.6,529.1z M330.8,535.6
	c-3.4,0.3-4-6.4-0.3-6.2C334.1,529.1,333.9,536,330.8,535.6z M339.3,529.1c0.1,0.1-0.1,0.8,0,1.1c-0.2,0.3-0.2-0.2-0.2-0.3
	c-0.2-0.4-1.7-0.2-2.1-0.3c-0.3,2.4-0.4,3,2.2,2.4c-0.1,0.1,0,1.5-0.3,1.2c0.1-0.8-1.7-0.7-2-0.5c0.2,1.3-0.5,3.1,0.9,3.2
	c-0.3,0.2-1.3,0-1.3,0c0,0-0.9,0.1-1,0c1.2-0.3,0.4-2.8,0.6-4c-0.2-1.7,0.5-2.2-0.7-2.4C336,528.9,338.3,529.5,339.3,529.1z
	 M346.2,529.2c0.2,0,0.2,0.1,0.1,0.1c-1.1,0-0.3,3.4-0.6,4.5c0,2.3-0.2,3.3-2.1,4.1c1.5-0.6,1.3-4.2,1.3-6.2
	c-0.2-1.7,0.5-2.2-0.7-2.4c-0.1,0-0.1-0.2,0.1-0.1C345.2,529.2,345.3,529.2,346.2,529.2z M351.1,529.1c-4.8,0.2-4.8,6.7-0.1,6.8
	C355.8,536,355.9,528.8,351.1,529.1z M351.3,535.6c-3.4,0.3-4-6.4-0.3-6.2C354.6,529.1,354.5,536,351.3,535.6z M361.5,529.2
	c-1.3,0.5-2.8,3-2.9,4.3c0.1,0.7-0.4,2.3,0.8,2.1c0.1,0,0.1,0.2-0.1,0.1c-1.1,0-1.1,0-2,0c-0.2,0-0.2-0.1-0.1-0.1
	c1,0,0.4-1.6,0.6-2.1c0-1.3-2-3.7-2.8-4.3c0.7,0.1,1.1-0.1,1.8,0.1c-0.9,0.2,1.5,2.9,1.5,3.3c0.2-0.8,2.2-2.7,1.4-3.3
	C360.3,529.2,360.9,529.2,361.5,529.2z M367.6,535.8c-1.1,0-1.1,0-2,0c-0.5-0.2,0.6-0.1,0.4-0.6c-0.2-1.2,0.7-5.7-0.6-5.9
	c0.3-0.1,2.8-0.1,1.8,0.1c-0.7,0.3-0.2,2.8-0.3,3.9c0.1,1.2-0.4,2.4,0.8,2.4C367.8,535.7,367.7,535.8,367.6,535.8z M376.1,529.3
	c-1.2,0-0.2,6-0.6,6.5c-0.9-0.5-4.6-4.6-5.4-5.4l0.1,4.1c0,1.2,0.3,0.9,0.9,1.1c-0.5,0.1-3.1,0.1-1.7-0.1c1-8.5-1.5-8.2,5.7-1
	l-0.1-4.4c0.1-1-0.5-0.7-0.9-0.9C374.4,529.2,376.6,529.1,376.1,529.3z M389.6,535.7c-0.2,0.2-1.3,0-1.7,0c-0.2,0.5-0.5-4.7-0.6-4.9
	h0c-3.1,6-1.8,6.5-5,0.1h0c0.2,0.8-1.1,4.9,0.3,4.8c-0.3,0.2-2.6,0.1-1.6-0.1c0.6,0,0.8-6,1-6.4c0.2-0.9,2.9,5.5,3,5.4
	c3-5.4,2.7-8.7,3.5,0C388.5,535.5,389.1,535.6,389.6,535.7z M395.8,529.2c-1.3,0.5-2.8,3-2.9,4.3c0.1,0.7-0.4,2.3,0.8,2.1
	c0.1,0,0.1,0.2-0.1,0.1c-1.1,0-1.1,0-2,0c-0.2,0-0.2-0.1-0.1-0.1c1,0,0.4-1.6,0.6-2.1c0-1.3-2-3.7-2.8-4.3c0.7,0.1,1.1-0.1,1.8,0.1
	c-0.9,0.2,1.5,2.9,1.5,3.3c0.2-0.8,2.2-2.7,1.4-3.3C394.6,529.2,395.3,529.2,395.8,529.2z M408.3,535.7c-0.2,0.2-1.3,0-1.7,0
	c-0.3,0.5-0.5-4.7-0.6-4.9h0c-3.1,6-1.8,6.5-5,0.1h0c0.2,0.8-1.1,4.9,0.3,4.8c-0.3,0.2-2.6,0.1-1.6-0.1c0.6,0,0.8-6,1-6.4
	c0.2-0.9,2.9,5.5,3,5.4c3-5.4,2.7-8.7,3.5,0C407.1,535.5,407.8,535.6,408.3,535.7z M411.4,535.8c-1.1,0-1.1,0-2,0
	c-0.5-0.2,0.6-0.1,0.4-0.6c-0.2-1.2,0.7-5.7-0.6-5.9c0.3-0.1,2.8-0.1,1.8,0.1c-0.7,0.3-0.2,2.8-0.3,3.9c0.1,1.2-0.5,2.4,0.8,2.4
	C411.6,535.7,411.6,535.8,411.4,535.8z M420,529.3c-1.2,0-0.1,6-0.6,6.5c-0.9-0.5-4.6-4.5-5.4-5.4l0.1,4.1c0,1.2,0.3,0.9,0.9,1.1
	c-0.5,0.1-3.1,0.1-1.7-0.1c1-8.5-1.5-8.2,5.7-1l-0.1-4.4c0.1-1-0.5-0.7-0.9-0.9C418.2,529.2,420.5,529.1,420,529.3z M423.7,529.2
	c-1.2,0-1.1,0-2.3,0c-0.2,0-0.2,0.1-0.1,0.1c1.2,0.2,0.5,0.6,0.7,2.4c-0.2,1.1,0.5,3.7-0.6,3.9c0.3,0.3,2.2,0.1,3,0.2
	C430.3,535.7,428.6,528.1,423.7,529.2z M424.5,535.6c-2.5,0-1.4-0.9-1.6-2.9c0.2-0.5-0.5-3.6,0.7-3.2
	C427.5,528.7,429,535.5,424.5,535.6z M114.6,470c0.1,0.5-0.1,7.4-0.9,3.6c0.4-2.3-6.7-2.1-8.7-2.1c0.1,4.6-0.2,18.4,0.2,22.3
	c-0.1,2,1.7,2.1,3.2,2.1c3.1,1-10.7,0.7-10.9,0.3c4.7-0.6,2.6-5,3.1-10c0,0,0-14.7,0-14.7c-1.8,0.3-8-0.4-8.8,1.2
	c-2.2,5.1-1-3.3-0.1-3.7c3.2,1.2,15.7,0.4,19.3,0.6C112.4,470,114.8,468.4,114.6,470z M147.8,496.6c-1.5-0.3-13.1,0.5-10.2-0.6
	c4.1-0.1,1.9-5.5,2.5-9.7c-0.1-0.2,0.3-3.5-0.2-3.4c0,0-13.7,0-13.7,0c-0.5-0.2-0.1,3.2-0.2,3.4c0.5,5.7-1.8,9.6,4,10
	c-1.6,0.9-5.5,0-6.3,0.3c-0.8-0.2-4.3,0.7-5.2-0.3c1.3-0.8,2.8,0.3,2.9-2.4c0.3-2.5,0.2-10.4,0.2-13.9c-0.5-6.7,1.7-9.6-3-9.7
	c-3.1-1,10.1-0.7,10.5-0.3c-1,0.9-3.1-0.2-3,2.5c-0.1,0.4,0,3.9-0.1,8.3c-0.1,0.7,13.7,0,13.9,0.2c0.4,0,0.2-0.8,0.2-1
	c-0.5-6.8,1.7-9.5-3-9.7c-2.6-1.1,5.6-0.4,5.3-0.5c0.9,0.2,4.3-0.6,5.3,0.2c-1,0.9-3.1-0.2-3,2.5c-0.1,3.2-0.2,17.5,0.1,21.5
	c-0.1,2,1.7,2.1,3.2,2.1C148.8,495.9,148.5,496.6,147.8,496.6z M167.7,496.7c-1.7-0.3-17.9,0.4-14.6-0.8c4.4,1,1.9-12.6,2.5-16
	c-0.4-6.2,1.2-8.5-1.6-9.6c-5-0.6,0.3-0.9,1.7-0.7c3.7,0,10.1,0.4,13.3-0.3c0.3-0.7-0.1,7.4-0.9,4.9c0.5-3.5-5.4-2.5-7.7-2.7
	c-0.4-0.4-0.4,10.2,0,9.8c2-0.2,6.6,0.6,8-1.1c0.6,0.5,0,0.8,0,2.9c0.1,1.8-0.5,5.2-0.9,1.5c-0.5-2.2-5.2-1.3-7.1-1.5
	c-0.5,0-0.1,2.9-0.2,3.2c0.5,3.8-2.1,9.2,4.3,8.5c3.6,0.1,4.1-0.4,5.4-3.6c0.8,0.7-0.1,3.7-0.2,4.6
	C169.4,496.7,169.1,496.7,167.7,496.7z M212.9,496.6c1.6-0.3,0-0.8-0.8-0.8c-4.5-1.2-7.5-7-11.8-11.8c5.3-3.9,6.3-9.6,2.3-12.9
	c-3.4-2.2-7.7-1.4-11.6-1.4c-0.6,0.2-4.5-0.6-5.7,0.2c5.2,0.9,3.2,2.4,3.6,10c-0.6,3.5,1.8,17-2.5,16c-0.9,0-0.7,0.7,0.1,0.6
	c0.7-0.3,12.4,0.6,9.9-0.6c-5.2,0.3-2.7-5.6-3.3-10.3c-0.2-0.7,3.2,0,3.4-0.2C201.8,490.3,203.4,498.4,212.9,496.6z M193.2,482.7
	c0,0,0-10.9,0-10.9C202.5,466.6,204,489.1,193.2,482.7z M211.6,483c-0.8,18.1,29.5,19,29.2-0.6C241,462.9,210.2,466.3,211.6,483z
	 M227.5,495.3c-13.5,1-14.7-25.7-2.2-24.5c5.9,0,10.5,5,10.5,13C235.8,494,230,495.3,227.5,495.3z M259.1,496.6
	c-2.1-0.1-15.2,0.3-8.9-0.8c2.2-1.4,0.8-6.4,1.2-8.5c-0.2-4.1-6.8-16.1-11.6-17.4c0.7-0.8,3.6,0,5.2-0.2c0.6,0.2,3.4-0.6,4.4,0.2
	c-0.9,0.7-1.9,0.5-0.9,2.3c0.5,1.1,5.5,9.7,6.1,10.7c0.4-0.9,4.9-8.7,5.4-9.8c0.8-2,0.8-2.3-0.9-3.1c0.8-0.8,2.9,0,4-0.2
	c1,0.2,3.8-0.5,4.5,0.2c-4.5,0.5-11.8,13.4-11.5,17.5c0.4,1.9-1.2,7.8,1.6,8.5C258.2,495.8,261.3,496,259.1,496.6z M283.8,495.9
	c-2.7,1,10.2,0.8,9,0.3c-2.4-1-3.1,0.4-5.1-4.3c-13.9-34-7-26.6-19.7,0.8c-1.1,3.3-2.3,2.8-4.6,3.6c0.9,0.9,4.8,0,4.9,0.3
	c1.2-0.2,3.6,0.7,4.4-0.3c-0.4-0.8-2.6,0.3-2.5-1.4c0.2-1.4,1.9-6.4,2.8-7.6c0.2,0.1,8.5-0.3,8.3,0.3
	C281.1,487.9,285.1,495.8,283.8,495.9z M280.2,485.4c-10,0.2-6.5,1.1-3.4-9c0.1-0.4,0.3-0.4,0.4,0
	C277,476.6,280.9,485.4,280.2,485.4z M298,486.2c0,0,0-6.3,0-6.3c-0.5-6.6,1.7-9.4-2.8-9.7c-2.7-1.1,5.2-0.5,5.1-0.5
	c-0.1,0,7.8-0.5,5,0.5c-4.4,0.1-2.3,3.2-2.8,9.7c0,0,0,6.3,0,6.3c0,4.6,0,7,0.8,7.7c1.6,1.2,9.6,1.8,9.4-2.4
	c1.2-2.2,0.5,3.2,0.1,4.2c-0.8,2.1-7,0.5-8.3,0.9c-3.1-0.5-6.8,0.6-9.6-0.4C299.6,495.6,297.5,491.2,298,486.2z M351,478.3
	c-0.8,1.2-8.1,18-9.1,18.2c-4-5.9-5.6-10.9-9.1-17.8h-0.1l-1.9,14.2c-0.7,3.4,1.1,2.5,3,3.3c0,0.3-0.3,0.4-0.9,0.4
	c-1.6-0.1-11.8,0.2-6.3-0.8c2.3-0.2,4.2-24.4,5-26.1c0.4-5.6,11,20.9,11.3,20.3l9.7-20.4c2.9-5.3,3.3,27.2,6.4,26
	c8.1,1.2-5,1.4-6.4,0.4c1.7-0.4-1.8-16.4-1.6-17.7H351z M367.5,496.4c1.2-0.2,3.6,0.7,4.4-0.3c-0.4-0.8-2.6,0.3-2.5-1.4
	c0.2-1.4,1.9-6.4,2.8-7.6c0.2,0.1,8.5-0.3,8.3,0.3c-0.1,0.5,3.8,8.4,2.5,8.4c-2.7,1,10.2,0.8,9,0.3c-2.4-1-3.1,0.4-5.1-4.3
	c-13.9-34-7-26.6-19.7,0.8c-1.1,3.3-2.3,2.8-4.6,3.6C363.5,497.1,367.4,496.2,367.5,496.4z M376,476.4c0.1-0.4,0.3-0.4,0.4,0
	c-0.2,0.2,3.8,9.1,3,9h-6.6c-0.1,0-0.2-0.1-0.1-0.3C372.8,485.2,376,476.4,376,476.4z M402.7,496.6c-4.8-0.1-3.7-0.1-8.3,0
	c-0.5,0-0.8,0-0.8-0.4c0.3-0.6,1.6-0.1,2.2-0.5c5.8-31.8-8.9-36.6,22.2-6.1h0.2l-0.4-16.1c0.1-4.3-1.8-2.8-3.7-3.8
	c1.1-0.8,4.7,0,5.3-0.2c0,0.2,3.6-0.6,4.3,0.2c-1.7,1-3.1-0.3-3,3.5c0,0-0.4,22.6-0.4,22.6c0.1,1.7-0.9,1.1-1.7,0.3
	c-3.6-3.4-16.4-16.4-19.1-19.5h-0.1l0.4,15c0,4.7,1.3,3.7,3.7,4.5C403.5,496.5,403.2,496.6,402.7,496.6z M442.2,489.4
	c0.5,6.7-9.1,9.4-14.3,6.8c-1.6-0.4-0.2-11.5,0.6-4.4c1.2,5.4,10.2,4.2,9.9-0.5c0.4-5.2-11.8-9.9-10.4-15.5c-0.6-5.9,8.5-7.9,13-6.1
	c1.2,0.7,0.1,1.4,0.4,4.7c-0.7,3.9-0.2-4.2-5.6-3.7c-5.7,0.5-5.6,5.6-0.5,8.8C439.6,482.4,442.4,485.8,442.2,489.4z M457.1,496.6
	c-4.7-0.4-6.9,0.6-10.8-0.4c1.1-0.8,2.9,0.2,2.9-2.2c0.3-2.5,0.1-10.5,0.2-14.1c-0.4-7.4,1.5-8.9-3.1-10.1c1.1-0.7,4.4,0,5.5-0.2
	c0.6-0.1,8.5-0.2,3.5,0.6c-2.7,0.4-0.9,11.8-1.4,15.9c0.6,4.9-1.9,10,3.4,9.7C458.1,495.9,457.8,496.6,457.1,496.6z M460.1,483
	c-0.8,18.1,29.5,19,29.2-0.6C489.4,462.9,458.7,466.3,460.1,483z M476,495.3c-13.5,1-14.7-25.7-2.2-24.5c5.9,0,10.5,5,10.5,13
	C484.3,494,478.5,495.3,476,495.3z M521.9,469.8c-1.7,1-3.1-0.3-3,3.5c0,0-0.4,22.6-0.4,22.6c0.1,1.7-0.9,1.1-1.7,0.3
	c-3.6-3.4-16.4-16.4-19.1-19.5h-0.1l0.4,15c0,4.7,1.3,3.7,3.7,4.5c0,0.3-0.3,0.4-0.8,0.4c-4.8-0.1-3.7-0.1-8.3,0
	c-0.5,0-0.8,0-0.8-0.4c0.3-0.6,1.6-0.1,2.2-0.5c5.8-31.8-8.9-36.6,22.2-6.1h0.2l-0.4-16.1c0.1-4.3-1.8-2.8-3.7-3.8
	c1.1-0.8,4.7,0,5.3-0.2C517.6,469.8,521.1,469,521.9,469.8z"/>
</svg>
