<?xml version="1.0" encoding="utf-8"?>
<!-- Generator: Adobe Illustrator 26.5.0, SVG Export Plug-In . SVG Version: 6.00 Build 0)  -->
<svg version="1.1" id="圖層_1" xmlns="http://www.w3.org/2000/svg" xmlns:xlink="http://www.w3.org/1999/xlink" x="0px" y="0px"
	 viewBox="0 0 1077.5 365" style="enable-background:new 0 0 1077.5 365;" xml:space="preserve">
<style type="text/css">
	.st0{fill:url(#SVGID_1_);}
	.st1{fill:url(#SVGID_00000043450928355380753070000006034163612558584453_);}
	.st2{fill:url(#SVGID_00000103265650441219388450000000631871681377726899_);}
	.st3{opacity:0.71;fill:url(#SVGID_00000172424130058091265510000006557094255457019016_);}
	.st4{opacity:0.71;fill:url(#SVGID_00000039835592895443583190000007833703341493897645_);}
	.st5{fill:url(#SVGID_00000182524124795117964820000017246904854694787737_);}
	.st6{fill:url(#SVGID_00000154409810670036964110000005525041141654338987_);}
	.st7{fill:#723B00;}
	.st8{fill:#F6D85C;}
	.st9{fill:url(#SVGID_00000173853607566292492320000013869645542955454337_);}
	.st10{fill:url(#SVGID_00000057845017817415668950000011102415018000897707_);}
	.st11{fill:url(#SVGID_00000063631157051231380730000003410318170073558161_);}
	.st12{fill:url(#SVGID_00000101824604928951031770000016476070066228740518_);}
	.st13{fill:url(#SVGID_00000093884862394826012160000015131557373581515418_);}
	.st14{fill:#FFFFFF;}
</style>
<g>
	<g>
		
			<linearGradient id="SVGID_1_" gradientUnits="userSpaceOnUse" x1="310.0515" y1="1169.9851" x2="395.3194" y2="1169.9851" gradientTransform="matrix(0.9853 0.1707 -0.1707 0.9853 872.0026 -1171.1747)">
			<stop  offset="2.453990e-02" style="stop-color:#7D4524"/>
			<stop  offset="0.135" style="stop-color:#C07F2A"/>
			<stop  offset="0.2699" style="stop-color:#F6D85C"/>
			<stop  offset="0.4908" style="stop-color:#C07F2A"/>
			<stop  offset="0.7239" style="stop-color:#F6D85C"/>
			<stop  offset="0.8466" style="stop-color:#C07F2A"/>
			<stop  offset="0.9693" style="stop-color:#7D4524"/>
		</linearGradient>
		<path class="st0" d="M1060.3,46.8c-12.6,15.7-19.6,7.9-15.5-2.1l-1-0.4c-16.6,14.6-18.6-16.4-19-19.7c-1-0.2-3-0.5-4-0.7
			c-1.6,3.1-13.8,31.4-24.5,12.1l-1.1,0c0.5,10.8-8.7,15.7-15.3-3.3l-2,0.9c0,0,3.1,16.3,2.8,19.3c33,0.9,67.3,11,72.1,12.5
			c0.8-3,9.1-17.3,9.1-17.3L1060.3,46.8z"/>
		
			<linearGradient id="SVGID_00000043439264326807404980000001933218975175838610_" gradientUnits="userSpaceOnUse" x1="316.0942" y1="1192.6062" x2="389.2751" y2="1192.6062" gradientTransform="matrix(0.9853 0.1707 -0.1707 0.9853 872.0026 -1171.1747)">
			<stop  offset="0" style="stop-color:#C07F2A"/>
			<stop  offset="5.521470e-02" style="stop-color:#54230A"/>
			<stop  offset="0.1227" style="stop-color:#C07F2A"/>
			<stop  offset="0.1779" style="stop-color:#F6D85C"/>
			<stop  offset="0.2331" style="stop-color:#FBEEBB"/>
			<stop  offset="0.2945" style="stop-color:#F6D85C"/>
			<stop  offset="0.4908" style="stop-color:#C07F2A"/>
			<stop  offset="0.6933" style="stop-color:#F6D85C"/>
			<stop  offset="0.7607" style="stop-color:#FBEEBB"/>
			<stop  offset="0.816" style="stop-color:#F6D85C"/>
			<stop  offset="0.8773" style="stop-color:#C07F2A"/>
			<stop  offset="0.9448" style="stop-color:#54230A"/>
			<stop  offset="1" style="stop-color:#C07F2A"/>
		</linearGradient>
		<path style="fill:url(#SVGID_00000043439264326807404980000001933218975175838610_);" d="M980.7,53.1c0,0.2-2,11.5-2,11.7
			c5.2-1.9,67.8,9.1,72,12.6c0-0.2,2-11.6,2.1-11.8C1048,64.1,1013.7,54,980.7,53.1z"/>
		
			<linearGradient id="SVGID_00000039843177539888657600000016702227805536017597_" gradientUnits="userSpaceOnUse" x1="822.6447" y1="1162.9628" x2="817.366" y2="1166.1345" gradientTransform="matrix(-0.9853 -0.1707 -0.1707 0.9853 2021.0322 -971.7814)">
			<stop  offset="0.3436" style="stop-color:#FFFFFF"/>
			<stop  offset="0.9509" style="stop-color:#FFFFFF;stop-opacity:0"/>
		</linearGradient>
		<path style="fill:url(#SVGID_00000039843177539888657600000016702227805536017597_);" d="M1020.5,25.6c0,0-7.1,18.1-17.3,18.1
			c0,0,13.9,1.4,19.7-18.1L1020.5,25.6z"/>
		
			<linearGradient id="SVGID_00000127733734655735613250000010395410862340170132_" gradientUnits="userSpaceOnUse" x1="312.9091" y1="1177.4749" x2="314.5587" y2="1176.9388" gradientTransform="matrix(0.9853 0.1707 -0.1707 0.9853 872.0026 -1171.1747)">
			<stop  offset="0" style="stop-color:#FFFFFF"/>
			<stop  offset="0.6626" style="stop-color:#FFFFFF;stop-opacity:0"/>
		</linearGradient>
		<polygon style="opacity:0.71;fill:url(#SVGID_00000127733734655735613250000010395410862340170132_);" points="978.1,33.6 
			981,51.2 979.8,33.9 		"/>
		
			<linearGradient id="SVGID_00000041256990593414218590000004066226480966990726_" gradientUnits="userSpaceOnUse" x1="1189.9823" y1="1177.6255" x2="1191.6317" y2="1177.0895" gradientTransform="matrix(-0.9853 -0.1707 -0.1707 0.9853 2430.822 -900.7781)">
			<stop  offset="0" style="stop-color:#FFFFFF"/>
			<stop  offset="0.6626" style="stop-color:#FFFFFF;stop-opacity:0"/>
		</linearGradient>
		<polygon style="opacity:0.71;fill:url(#SVGID_00000041256990593414218590000004066226480966990726_);" points="1061.5,48.5 
			1052.7,64.1 1059.7,48.2 		"/>
		
			<linearGradient id="SVGID_00000002372048836737680800000016467337733656129182_" gradientUnits="userSpaceOnUse" x1="326.8043" y1="1173.9485" x2="329.099" y2="1174.65" gradientTransform="matrix(0.9853 0.1707 -0.1707 0.9853 872.0026 -1171.1747)">
			<stop  offset="0" style="stop-color:#FFFFFF"/>
			<stop  offset="1" style="stop-color:#FFFFFF;stop-opacity:0"/>
		</linearGradient>
		<path style="fill:url(#SVGID_00000002372048836737680800000016467337733656129182_);" d="M995.5,37.6c0,0-0.1,7.4-3.9,8.5
			c0,0,5.2-1,5.2-9.1L995.5,37.6z"/>
		
			<linearGradient id="SVGID_00000053524848619422662060000005714873530898096297_" gradientUnits="userSpaceOnUse" x1="992.0803" y1="1173.4166" x2="994.3754" y2="1174.1183" gradientTransform="matrix(-0.9853 -0.1707 -0.1707 0.9853 2222.554 -936.8642)">
			<stop  offset="0" style="stop-color:#FFFFFF"/>
			<stop  offset="1" style="stop-color:#FFFFFF;stop-opacity:0"/>
		</linearGradient>
		<path style="fill:url(#SVGID_00000053524848619422662060000005714873530898096297_);" d="M1044.2,45.8c0,0-2.4,7,0.8,9.4
			c0,0-4.6-2.6-1.9-10.3L1044.2,45.8z"/>
		<path class="st7" d="M1038.4,73c16.7,4.4,16.2,6.5-0.6,2.2"/>
		<path class="st8" d="M1050.7,77.4c-25.2-9.7-55.2-13.1-72.1-12.4l0.1-0.4c17-0.7,46.7,2.8,72,12.5L1050.7,77.4z M1052.9,65.4
			c-31.3-8.5-53.4-12.2-72.2-12.5l0,0.4c18.7,0.3,40.8,4,72,12.5L1052.9,65.4z"/>
	</g>
	
		<radialGradient id="SVGID_00000152944127693935139280000002860733781050979462_" cx="310.1548" cy="1166.2864" r="3.7343" fx="308.1832" fy="1164.3383" gradientTransform="matrix(0.9853 0.1707 -0.1707 0.9853 872.0026 -1171.1747)" gradientUnits="userSpaceOnUse">
		<stop  offset="0.1288" style="stop-color:#FFFFFF"/>
		<stop  offset="0.3006" style="stop-color:#F6D85C"/>
		<stop  offset="0.4969" style="stop-color:#C07F2A"/>
		<stop  offset="0.7546" style="stop-color:#7D4524"/>
		<stop  offset="0.818" style="stop-color:#814824"/>
		<stop  offset="0.8761" style="stop-color:#8C5225"/>
		<stop  offset="0.9321" style="stop-color:#9E6227"/>
		<stop  offset="0.9864" style="stop-color:#B87829"/>
		<stop  offset="1" style="stop-color:#C07F2A"/>
	</radialGradient>
	<path style="fill:url(#SVGID_00000152944127693935139280000002860733781050979462_);" d="M982.2,31.6c-0.8,4.9-8.4,3.5-7.5-1.3
		C975.6,25.4,983.2,26.7,982.2,31.6z"/>
	
		<radialGradient id="SVGID_00000150789792416262149640000000272838460566033294_" cx="326.8949" cy="1166.2869" r="3.7722" fx="324.9033" fy="1164.319" gradientTransform="matrix(0.9853 0.1707 -0.1707 0.9853 872.0026 -1171.1747)" gradientUnits="userSpaceOnUse">
		<stop  offset="0.1288" style="stop-color:#FFFFFF"/>
		<stop  offset="0.3006" style="stop-color:#F6D85C"/>
		<stop  offset="0.4969" style="stop-color:#C07F2A"/>
		<stop  offset="0.7546" style="stop-color:#7D4524"/>
		<stop  offset="0.818" style="stop-color:#814824"/>
		<stop  offset="0.8761" style="stop-color:#8C5225"/>
		<stop  offset="0.9321" style="stop-color:#9E6227"/>
		<stop  offset="0.9864" style="stop-color:#B87829"/>
		<stop  offset="1" style="stop-color:#C07F2A"/>
	</radialGradient>
	<path style="fill:url(#SVGID_00000150789792416262149640000000272838460566033294_);" d="M998.8,34.4c-0.8,4.9-8.5,3.6-7.5-1.3
		C992,28.2,999.7,29.5,998.8,34.4z"/>
	
		<radialGradient id="SVGID_00000124852358554126577700000018004969686197242803_" cx="379.0186" cy="1166.2878" r="3.7342" fx="377.047" fy="1164.3397" gradientTransform="matrix(0.9853 0.1707 -0.1707 0.9853 872.0026 -1171.1747)" gradientUnits="userSpaceOnUse">
		<stop  offset="0.1288" style="stop-color:#FFFFFF"/>
		<stop  offset="0.3006" style="stop-color:#F6D85C"/>
		<stop  offset="0.4969" style="stop-color:#C07F2A"/>
		<stop  offset="0.7546" style="stop-color:#7D4524"/>
		<stop  offset="0.818" style="stop-color:#814824"/>
		<stop  offset="0.8761" style="stop-color:#8C5225"/>
		<stop  offset="0.9321" style="stop-color:#9E6227"/>
		<stop  offset="0.9864" style="stop-color:#B87829"/>
		<stop  offset="1" style="stop-color:#C07F2A"/>
	</radialGradient>
	<path style="fill:url(#SVGID_00000124852358554126577700000018004969686197242803_);" d="M1050.1,43.3c-0.8,4.9-8.4,3.5-7.5-1.3
		C1043.4,37.2,1051,38.5,1050.1,43.3z"/>
	
		<radialGradient id="SVGID_00000133501943115658261640000009602205375914099623_" cx="395.7588" cy="1166.2882" r="3.7722" fx="393.7672" fy="1164.3203" gradientTransform="matrix(0.9853 0.1707 -0.1707 0.9853 872.0026 -1171.1747)" gradientUnits="userSpaceOnUse">
		<stop  offset="0.1288" style="stop-color:#FFFFFF"/>
		<stop  offset="0.3006" style="stop-color:#F6D85C"/>
		<stop  offset="0.4969" style="stop-color:#C07F2A"/>
		<stop  offset="0.7546" style="stop-color:#7D4524"/>
		<stop  offset="0.818" style="stop-color:#814824"/>
		<stop  offset="0.8761" style="stop-color:#8C5225"/>
		<stop  offset="0.9321" style="stop-color:#9E6227"/>
		<stop  offset="0.9864" style="stop-color:#B87829"/>
		<stop  offset="1" style="stop-color:#C07F2A"/>
	</radialGradient>
	<path style="fill:url(#SVGID_00000133501943115658261640000009602205375914099623_);" d="M1066.6,46.2c-0.8,4.9-8.5,3.6-7.5-1.3
		C1059.9,40,1067.5,41.3,1066.6,46.2z"/>
	
		<radialGradient id="SVGID_00000009550773721289458810000005217372282415080610_" cx="352.9762" cy="1149.0255" r="5.1935" fx="350.2342" fy="1146.3162" gradientTransform="matrix(0.9853 0.1707 -0.1707 0.9853 872.0026 -1171.1747)" gradientUnits="userSpaceOnUse">
		<stop  offset="0.1288" style="stop-color:#FFFFFF"/>
		<stop  offset="0.3006" style="stop-color:#F6D85C"/>
		<stop  offset="0.4969" style="stop-color:#C07F2A"/>
		<stop  offset="0.7546" style="stop-color:#7D4524"/>
		<stop  offset="0.818" style="stop-color:#814824"/>
		<stop  offset="0.8761" style="stop-color:#8C5225"/>
		<stop  offset="0.9321" style="stop-color:#9E6227"/>
		<stop  offset="0.9864" style="stop-color:#B87829"/>
		<stop  offset="1" style="stop-color:#C07F2A"/>
	</radialGradient>
	<path style="fill:url(#SVGID_00000009550773721289458810000005217372282415080610_);" d="M1028.8,22.1c-1.1,6.7-11.6,4.9-10.4-1.8
		C1019.5,13.6,1030.1,15.4,1028.8,22.1z"/>
</g>
<path class="st14" d="M58.5,113.8H26v81.8h73.4v9.3H9.3v85.5h28.8v-63.2h61.3v15.8c-12.2,0.6-44,0.8-55.2,2.1l3.5,21.2
	c20.6-1.4,86.6-2.5,107.5-3.8l0.8,2.7h-2.6l4.4,18.3v4.9h31.8c14.8,0,26.8-7.4,26.8-23.6v-60h-90.1v-9.3h73.4v-81.8h-32.5v-11.1
	h58.5V79.4h-58.5V64.5h-29.7v14.9H87.3V64.5H58.5v14.9H0v23.2h58.5V113.8z M188.6,227.1v30.7c0,4.9-2.1,7.5-7.5,7.5
	c-3.5-7.4-11.3-26.4-17.5-38.1H188.6z M99.4,174.2H53.9V164h45.5V174.2z M154.5,227.1l-12.1,3.5l3.5,10.5l-19.6,0.7v-14.8H154.5z
	 M171.9,174.2h-45.5V164h45.5V174.2z M171.9,134.2v10.2h-45.5v-10.2H171.9z M87.3,102.6h50.2v11.1H87.3V102.6z M99.4,134.2v10.2
	H53.9v-10.2H99.4z M221.5,147.9c50.8-23.6,88.4-52.6,106.8-84.4l36.3,2.3c-3.2,3.4-4.6,6.1-7.2,9.3c20.7,27.4,55.1,51.5,98.3,67.8
	c-6.5,9.3-12.5,18.6-17.5,27.3c-42.5-19.7-76.3-44.6-97.6-72.6c-22.5,28-57.6,54.4-101.3,76.4C235.6,167.6,226.8,153,221.5,147.9z
	 M360.7,255h84.5v26H230.6v-26h31.6v-85.5h30.7V255h38.1V136.1h29.7v45.5h63.2v27h-63.2V255z M798.3,167.7H697.2v120.1h101.1V167.7z
	 M770.5,260.1H725v-64.5h45.5V260.1z M807.5,287.8h101.1V167.7H807.5V287.8z M835.3,195.5h45.5v64.5h-45.5V195.5z M719.7,152.1H887
	V64.6H719.7V152.1z M747.5,92.4h111.7v31.9H747.5V92.4z M681.5,287.8V181.4h-130l7.1-11.7h123.6V64.6l-196.9,0v27.8H534v10.9h-48.7
	v27.8H534V142h-48.7v27.8h43.4l-58.2,95.9h30l35.5-58.6v80.8H681.5z M563.7,209.2h90v50.8h-90V209.2z M561.7,92.4h92.6v10.9h-92.6
	V92.4z M561.7,131.1h92.6V142h-92.6V131.1z M1074.1,260.4v29.9H932V267c43.4-34.5,94.2-88.5,94.2-134c0-24.4-6.4-41.6-35.1-41.6
	c-19.8,0-36.9,5.1-53.7,18.6V78.9c33-21.1,133.3-33.1,133.3,51.7c0,48.1-44.7,92.3-87.1,129.8H1074.1z M294.4,338.8
	c0.1,0.5-0.1,7.4-0.9,3.6c0.4-2.3-6.7-2.1-8.7-2.1c0.1,4.6-0.2,18.4,0.2,22.3c-0.1,2,1.7,2.1,3.2,2.1c3.1,1-10.7,0.7-10.9,0.3
	c4.7-0.6,2.6-5,3.1-10c0,0,0-14.7,0-14.7c-1.8,0.3-8-0.4-8.8,1.2c-2.2,5.1-1-3.3-0.1-3.7c3.2,1.2,15.7,0.4,19.3,0.6
	C292.2,338.7,294.5,337.2,294.4,338.8z M327.5,365.3c-1.5-0.3-13.1,0.5-10.2-0.6c4.1-0.1,1.9-5.5,2.5-9.7c-0.1-0.2,0.3-3.5-0.2-3.4
	c0,0-13.7,0-13.7,0c-0.5-0.2-0.1,3.2-0.2,3.4c0.5,5.7-1.8,9.6,4,10c-1.6,0.9-5.5,0-6.3,0.3c-0.8-0.2-4.3,0.7-5.2-0.3
	c1.3-0.8,2.8,0.3,2.9-2.4c0.3-2.5,0.2-10.4,0.2-13.9c-0.5-6.7,1.7-9.6-3-9.7c-3.1-1,10.1-0.7,10.5-0.3c-1,0.9-3.1-0.2-3,2.5
	c-0.1,0.4,0,3.9-0.1,8.3c-0.1,0.7,13.7,0,13.9,0.2c0.4,0,0.2-0.8,0.2-1c-0.5-6.8,1.7-9.5-3-9.7c-2.6-1.1,5.6-0.4,5.3-0.5
	c0.9,0.2,4.3-0.6,5.3,0.2c-1,0.9-3.1-0.2-3,2.5c-0.1,3.2-0.2,17.5,0.1,21.5c-0.1,2,1.7,2.1,3.2,2.1
	C328.6,364.7,328.3,365.4,327.5,365.3z M347.5,365.4c-1.7-0.3-17.9,0.4-14.6-0.8c4.4,1,1.9-12.6,2.5-16c-0.4-6.2,1.2-8.5-1.6-9.6
	c-5-0.6,0.3-0.9,1.7-0.7c3.7,0,10.1,0.4,13.3-0.3c0.3-0.7-0.1,7.4-0.9,4.9c0.5-3.5-5.4-2.5-7.7-2.7c-0.4-0.4-0.4,10.2,0,9.8
	c2-0.2,6.6,0.6,8-1.1c0.6,0.5,0,0.8,0,2.9c0.1,1.8-0.5,5.2-0.9,1.5c-0.5-2.2-5.2-1.3-7.1-1.5c-0.5,0-0.1,2.9-0.2,3.2
	c0.5,3.8-2.1,9.2,4.3,8.5c3.6,0.1,4.1-0.4,5.4-3.6c0.8,0.7-0.1,3.7-0.2,4.6C349.2,365.4,348.8,365.4,347.5,365.4z M392.7,365.3
	c1.6-0.3,0-0.8-0.8-0.8c-4.5-1.2-7.5-7-11.8-11.8c5.3-3.9,6.3-9.6,2.3-12.9c-3.4-2.2-7.7-1.4-11.6-1.4c-0.6,0.2-4.5-0.6-5.7,0.2
	c5.2,0.9,3.2,2.4,3.6,10c-0.6,3.5,1.8,17-2.5,16c-0.9,0-0.7,0.7,0.1,0.6c0.7-0.3,12.4,0.6,9.9-0.6c-5.2,0.3-2.7-5.6-3.3-10.3
	c-0.2-0.7,3.2,0,3.4-0.2C381.6,359.1,383.1,367.2,392.7,365.3z M373,351.5c0,0,0-10.9,0-10.9C382.3,335.4,383.8,357.9,373,351.5z
	 M391.4,351.8c-0.8,18.1,29.5,19,29.2-0.6C420.7,331.7,390,335.1,391.4,351.8z M407.3,364c-13.5,1-14.7-25.7-2.2-24.5
	c5.9,0,10.5,5,10.5,13C415.6,362.8,409.8,364,407.3,364z M438.9,365.3c-2.1-0.1-15.2,0.3-8.9-0.8c2.2-1.4,0.8-6.4,1.2-8.5
	c-0.2-4.1-6.8-16.1-11.6-17.4c0.7-0.8,3.6,0,5.2-0.2c0.6,0.2,3.4-0.6,4.4,0.2c-0.9,0.7-1.9,0.5-0.9,2.3c0.5,1.1,5.5,9.7,6.1,10.7
	c0.4-0.9,4.9-8.7,5.4-9.8c0.8-2,0.8-2.3-0.9-3.1c0.8-0.8,2.9,0,4-0.2c1,0.2,3.8-0.5,4.5,0.2c-4.5,0.5-11.8,13.4-11.5,17.5
	c0.4,1.9-1.2,7.8,1.6,8.5C437.9,364.5,441,364.8,438.9,365.3z M463.5,364.6c-2.7,1,10.2,0.8,9,0.3c-2.4-1-3.1,0.4-5.1-4.3
	c-13.9-34-7-26.6-19.7,0.8c-1.1,3.3-2.3,2.8-4.6,3.6c0.9,0.9,4.8,0,4.9,0.3c1.2-0.2,3.6,0.7,4.4-0.3c-0.4-0.8-2.6,0.3-2.5-1.4
	c0.2-1.4,1.9-6.4,2.8-7.6c0.2,0.1,8.5-0.3,8.3,0.3C460.9,356.7,464.8,364.6,463.5,364.6z M460,354.2c-10,0.2-6.5,1.1-3.4-9
	c0.1-0.4,0.3-0.4,0.4,0C456.8,345.4,460.7,354.2,460,354.2z M477.7,355c0,0,0-6.3,0-6.3c-0.5-6.6,1.7-9.4-2.8-9.7
	c-2.7-1.1,5.2-0.5,5.1-0.5c-0.1,0,7.8-0.5,5,0.5c-4.4,0.1-2.3,3.2-2.8,9.7c0,0,0,6.3,0,6.3c0,4.6,0,7,0.8,7.7
	c1.6,1.2,9.6,1.8,9.4-2.4c1.2-2.2,0.5,3.2,0.1,4.2c-0.8,2.1-7,0.5-8.3,0.9c-3.1-0.5-6.8,0.6-9.6-0.4
	C479.3,364.3,477.2,359.9,477.7,355z M530.8,347.1c-0.8,1.2-8.1,18-9.1,18.2c-4-5.9-5.6-10.9-9.1-17.8h-0.1l-1.9,14.2
	c-0.7,3.4,1.1,2.5,3,3.3c0,0.3-0.3,0.4-0.9,0.4c-1.6-0.1-11.8,0.2-6.3-0.8c2.3-0.2,4.2-24.4,5-26.1c0.4-5.6,11,20.9,11.3,20.3
	l9.7-20.4c2.9-5.3,3.3,27.2,6.4,26c8.1,1.2-5,1.4-6.4,0.4c1.7-0.4-1.8-16.4-1.6-17.7H530.8z M547.3,365.2c1.2-0.2,3.6,0.7,4.4-0.3
	c-0.4-0.8-2.6,0.3-2.5-1.4c0.2-1.4,1.9-6.4,2.8-7.6c0.2,0.1,8.5-0.3,8.3,0.3c-0.1,0.5,3.8,8.4,2.5,8.4c-2.7,1,10.2,0.8,9,0.3
	c-2.4-1-3.1,0.4-5.1-4.3c-13.9-34-7-26.6-19.7,0.8c-1.1,3.3-2.3,2.8-4.6,3.6C543.3,365.9,547.2,365,547.3,365.2z M555.8,345.2
	c0.1-0.4,0.3-0.4,0.4,0c-0.2,0.2,3.8,9.1,3,9h-6.6c-0.1,0-0.2-0.1-0.1-0.3C552.5,354,555.8,345.2,555.8,345.2z M582.5,365.3
	c-4.8-0.1-3.7-0.1-8.3,0c-0.5,0-0.8,0-0.8-0.4c0.3-0.6,1.6-0.1,2.2-0.5c5.8-31.8-8.9-36.6,22.2-6.1h0.2l-0.4-16.1
	c0.1-4.3-1.8-2.8-3.7-3.8c1.1-0.8,4.7,0,5.3-0.2c0,0.2,3.6-0.6,4.3,0.2c-1.7,1-3.1-0.3-3,3.5c0,0-0.4,22.6-0.4,22.6
	c0.1,1.7-0.9,1.1-1.7,0.3c-3.6-3.4-16.4-16.4-19.1-19.5h-0.1l0.4,15c0,4.7,1.3,3.7,3.7,4.5C583.3,365.3,583,365.3,582.5,365.3z
	 M621.9,358.1c0.5,6.7-9.1,9.4-14.3,6.8c-1.6-0.4-0.2-11.5,0.6-4.4c1.2,5.4,10.2,4.2,9.9-0.5c0.4-5.2-11.8-9.9-10.4-15.5
	c-0.6-5.9,8.5-7.9,13-6.1c1.2,0.7,0.1,1.4,0.4,4.7c-0.7,3.9-0.2-4.2-5.6-3.7c-5.7,0.5-5.6,5.6-0.5,8.8
	C619.3,351.2,622.2,354.6,621.9,358.1z M636.8,365.3c-4.7-0.4-6.9,0.6-10.8-0.4c1.1-0.8,2.9,0.2,2.9-2.2c0.3-2.5,0.1-10.5,0.2-14.1
	c-0.4-7.4,1.5-8.9-3.1-10.1c1.1-0.7,4.4,0,5.5-0.2c0.6-0.1,8.5-0.2,3.5,0.6c-2.7,0.4-0.9,11.8-1.4,15.9c0.6,4.9-1.9,10,3.4,9.7
	C637.8,364.7,637.6,365.4,636.8,365.3z M639.8,351.8c-0.8,18.1,29.5,19,29.2-0.6C669.2,331.7,638.4,335.1,639.8,351.8z M655.7,364
	c-13.5,1-14.7-25.7-2.2-24.5c5.9,0,10.5,5,10.5,13C664,362.8,658.2,364,655.7,364z M701.6,338.6c-1.7,1-3.1-0.3-3,3.5
	c0,0-0.4,22.6-0.4,22.6c0.1,1.7-0.9,1.1-1.7,0.3c-3.6-3.4-16.4-16.4-19.1-19.5h-0.1l0.4,15c0,4.7,1.3,3.7,3.7,4.5
	c0,0.3-0.3,0.4-0.8,0.4c-4.8-0.1-3.7-0.1-8.3,0c-0.5,0-0.8,0-0.8-0.4c0.3-0.6,1.6-0.1,2.2-0.5c5.8-31.8-8.9-36.6,22.2-6.1h0.2
	l-0.4-16.1c0.1-4.3-1.8-2.8-3.7-3.8c1.1-0.8,4.7,0,5.3-0.2C697.3,338.6,700.9,337.8,701.6,338.6z"/>
</svg>
