<?xml version="1.0" encoding="utf-8"?>
<!-- Generator: Adobe Illustrator 26.5.0, SVG Export Plug-In . SVG Version: 6.00 Build 0)  -->
<svg version="1.1" id="圖層_1" xmlns="http://www.w3.org/2000/svg" xmlns:xlink="http://www.w3.org/1999/xlink" x="0px" y="0px"
	 viewBox="0 0 1053 630" style="enable-background:new 0 0 1053 630;" xml:space="preserve">
<style type="text/css">
	.st0{display:none;fill:#D71718;}
	.st1{opacity:0.3;}
</style>
<rect x="17.5" y="185.4" class="st0" width="1024.7" height="152.6"/>
<path class="st1" d="M89.6,55.9l12.2-14.7c14.2,6.1,34.5,16.5,44.5,24.3l-13,16.8C124.2,74.3,104.4,62.9,89.6,55.9z M92.4,9.2h21.3
	c-1.2,38.8-5.3,61.5-49.2,73.1c-1.9-5.3-7.3-13.5-11.4-17.6C90.5,56.2,91.5,40.7,92.4,9.2z M127.7,16.9l21.9,6.7
	c-6.2,9.6-12.7,19.1-17.9,25.5L115,42.9C119.6,35.8,124.9,24.9,127.7,16.9z M128.7,82.2l22.5,6.8c-5.8,10.4-12,21.1-16.9,27.9
	l-17.8-6.2C121,102.8,126.1,91.1,128.7,82.2z M92,72.5h21.3c-1.3,40.9-5.2,64.9-51.3,77.2c-2.1-5.6-7.6-14.2-11.9-18.7
	C90.1,122,90.9,105.9,92,72.5z M111.6,91.7c5.5,20.9,17.3,34.5,42.5,39.3c-4.6,4.3-10.2,12.9-12.7,18.5
	c-29.4-7.7-41.2-25.6-48.5-55.3L111.6,91.7z M17.7,27l13.2-14.7c8.6,4.3,21.3,11.3,27.6,16.2L44.5,45C38.9,39.8,26.5,32.1,17.7,27z
	 M10,67l13.5-14.5c8.7,4.2,21.8,10.8,28.3,15.7L37.4,84.4C31.6,79.4,19,71.9,10,67z M13.1,133.6c7-11,16.9-28.6,24.9-45.8l17,14.1
	c-6.7,15.4-14.4,31.1-22.4,45.8L13.1,133.6z M56,25.1l17.5-8.7c4.6,7.9,11.1,19,14.1,25.6L68.9,52.2C66.3,45.3,60.4,33.7,56,25.1z
	 M53.6,89.3l17.6-7.9c5,8.7,12.5,20.9,15.9,28.5l-18.8,9C65.3,111.4,58.6,98.6,53.6,89.3z M219,9.2h23v114c0,25.8-15.3,26.5-37.6,27
	c-0.9-6.7-4.6-17.6-8-24.2c17.5,0.2,22.7,2.3,22.7-3L219,9.2L219,9.2z M163,66.5V44.7h36l3.9-0.7l14.4,5.2
	c-6.4,41.2-21.6,72.6-42.4,88.7c-3.6-4.9-12.3-13.3-17.5-16.6c16.2-11.2,27.8-30.6,34-54.8H163z M240.7,41.5
	c9.8,33.2,29.5,61.8,61.4,75.5c-5.2,4.6-12.6,13.8-16.2,20.2c-33.1-17.5-50.8-50.6-62.1-91.6L240.7,41.5z M272.8,34.1l20,14.1
	c-12.5,12-27,25.1-38.2,33.2l-15.3-12C250.3,60.5,264.4,46,272.8,34.1z M366.1,43.6h22.5V149h-22.5V43.6z M309.5,28.5H447v21.1
	H309.5V28.5z M414.2,85.2h-71.5v50.6H321V64.1h115.6v49.2c0.9,22.6-16.7,22.5-35.4,22.7c-0.9-6.2-4.2-15.4-7.1-21.2
	c5.9,0.4,14.7,0.4,16.8,0.4c2.4,0,3.3-0.6,3.3-2.4L414.2,85.2L414.2,85.2z M360.9,13.8l21.5-6.5c3.7,7.1,8.7,16.9,11.1,23l-22.8,7.6
	C368.9,31.8,364.3,21.4,360.9,13.8z M525.6,51.3v9.5h18.8v-9.5H525.6z M505.6,37.7h60.2v36.9h-60.2L505.6,37.7L505.6,37.7z
	 M508.1,93.1v13h6.8v-13H508.1z M490.9,79.1h42.3v41.2h-42.3L490.9,79.1L490.9,79.1z M555.4,93.1v13h7.3v-13H555.4z M537.9,79.1
	h43.3v41.2h-43.3V79.1z M460.2,13.5h127.5v18.8H460.2V13.5z M466,13.5h21.1V108c0,13,3.7,18.1,18.5,17.9c21.1-0.3,65.6,1.6,86.8-2.2
	c0.6,5.2,1.8,15,2.8,20c-19.8,3.7-67.3,1.5-87.8,1.9c-28.3,0.5-41.4-8.6-41.4-39.1L466,13.5L466,13.5z M611,18.1h128.2v21.1H611
	V18.1z M678.5,67.9h52.2V89h-52.2V67.9z M606.3,124h136.8v21H606.3V124z M667.9,26.7h23v107.5h-23V26.7z M623.5,59.8H646v75.5h-22.5
	V59.8z M848.6,121.2l15.6-12.2c9.6,7.4,23.7,18.5,30.5,26.1l-16.5,13.8C872.2,141.3,858.6,129.5,848.6,121.2z M863.8,50.9l20.3,6.8
	c-14.5,24.9-38.5,47-68,59.4c-2.7-4.7-8.2-12.5-11.9-16.5C831.2,90.6,853.7,70.8,863.8,50.9z M871.3,80.4l22.4,7.9
	c-17.5,28.5-46.7,50.7-84.5,62c-2.7-5.2-8.6-13.6-12.5-18.2C831.9,123.1,859.5,103.2,871.3,80.4z M806.5,25.2h85.7v19.6h-85.7V25.2z
	 M860.5,79.3c-38.4,2.6-45.5,3.8-50,5.5c-0.7-4.9-3.3-14.8-4.9-19.4c15.1-1.1,17.6-11.1,29.2-30h22.4l-17.5,28l26.3-1.3 M835.2,13.5
	l20.3-6.1c3.1,6.2,6.5,14.4,7.6,20l-21.6,6.8C840.6,28.8,838,20.1,835.2,13.5z M753.6,36.4H805v19.9h-51.4V36.4z M770.7,9.2h20.6
	V150h-20.6V9.2z M771.6,51.6l11.1,4.6c-3.9,24.8-12,53.5-22.2,69.1c-1.9-6.2-6.5-16.2-9.9-22.1C760.1,91.2,768,69.1,771.6,51.6z
	 M790.4,59.5c3.4,4.2,15.4,23,17.9,27.4L796,101.1c-3.3-9.5-10.7-26.1-15-34.2L790.4,59.5z M940.4,52.2h22.5v66.6
	c0,7.3,0.9,8.2,7.4,8.2c3.1,0,13.8,0,17,0c6.7,0,7.9-4.3,8.9-26.2c4.9,3.7,14.4,7.6,20.2,9c-2.2,28.2-7.9,37.2-27.1,37.2
	c-4.4,0-17.8,0-21.9,0c-21.2,0-27-6.8-27-28.2L940.4,52.2L940.4,52.2z M911.8,59.6l21.2,4c-1.9,20.3-5,46.6-9.5,63.9l-22.1-8.9
	C906.2,102.6,910.2,80.8,911.8,59.6z M1004,62.6l20.2-8.3c8.3,17.6,15.7,39.9,18.8,55.3l-21.9,9.2
	C1018.8,103.7,1011.6,80.1,1004,62.6z M944.4,24.6l14.7-14.8c13.3,8,32.8,20.6,42,29.8l-16,17C976.9,47.5,958.2,33.7,944.4,24.6z
	 M121.9,513.4V543l-102.2-0.2v-20.1c107.1-87.4,48.2-125.1,17.4-87.9L18,415.9c45.4-55.6,157.5-4.3,54.9,97.5H121.9z M362.8,513.4
	V543l-102.2-0.2v-20.1c107.1-87.4,48.2-125.1,17.4-87.9l-19-18.9c45.4-55.6,157.5-4.3,54.9,97.5H362.8z M174.1,487.6
	c2.9,41.2,37.9,42,38.4,8.1C213,465.8,182.1,471,174.1,487.6z M173.3,464.1c20-25.2,72.1-17.5,71.2,31.7
	c-1.1,65.2-103.4,77-103.4-25.1c0-74.9,61.7-97.2,101.4-59.9L224,431.5C200.1,410.7,174.7,420.5,173.3,464.1z M414.9,487.6
	c2.9,41.2,37.9,42,38.4,8.1C453.8,465.8,422.9,471,414.9,487.6z M414.1,464.1c20-25.2,72.1-17.5,71.2,31.7
	c-1.1,65.2-103.4,77-103.4-25.1c0-74.9,61.7-97.2,101.4-59.9l-18.5,20.7C440.9,410.7,415.6,420.5,414.1,464.1z M647.2,451.6
	c-2.9-41.2-37.9-42-38.4-8.1C608.3,473.4,639.2,468.1,647.2,451.6z M648.1,475.1c-20,25.2-72.1,17.5-71.2-31.7
	c1.1-65.2,103.4-77,103.4,25.1c0,74.9-61.7,97.2-101.4,59.9l18.5-20.7C621.2,528.5,646.6,518.7,648.1,475.1z M888.2,451.6
	c-2.9-41.2-37.9-42-38.4-8.1C849.3,473.4,880.2,468.1,888.2,451.6z M889.1,475.1c-20,25.2-72.1,17.5-71.2-31.7
	c1.1-65.2,103.4-77,103.4,25.1c0,74.9-61.7,97.2-101.4,59.9l18.5-20.7C862.2,528.5,887.6,518.7,889.1,475.1z M503.3,498.1v-24.7
	h55.9v24.7H503.3z M770.7,467.4c52,17.3,26.4,82.7-26,78.7c-23.3,0-39.7-8.1-50.4-20.6l16.2-22.1c46.7,43.7,85.5-25.4,15.5-22.8
	v-24.9c58.5,1.9,30.8-61.1-10.1-22.5l-17.8-21.5C763.3,357.7,832.8,434,770.7,467.4z M1011.5,467.4c52,17.3,26.4,82.7-26,78.7
	c-23.3,0-39.7-8.1-50.4-20.6l16.2-22.1c46.7,43.7,85.5-25.4,15.5-22.8v-24.9c58.5,1.9,30.8-61.1-10.1-22.5l-17.8-21.5
	C1004.1,357.7,1073.6,434,1011.5,467.4z M822.4,592.5h28.1v4.3h-28.1V592.5z M820.3,617.2h32.6v4.3h-32.6V617.2z M832.5,594h4.9
	c-1.2,8.7-3,19.4-4.4,25.9h-4.9C829.7,613.2,831.5,602.5,832.5,594z M840.9,620.2l1.2-12.9h-17.7V603h22.7l-1.4,17.2 M870.5,610.1
	h4.7v13.2h-4.7V610.1z M856.2,612.6h33.2v4h-33.2V612.6z M857.2,592.1H889v3.9h-31.8V592.1z M884.3,596.7l3.6,2.1
	c-1.6,1.7-3.6,3.4-5.1,4.5l-3.2-2C881.1,600.1,883.2,598.1,884.3,596.7z M874.6,604.1l3.2-1.2c1.5,2,3.2,4.7,3.9,6.5l-3.4,1.3
	C877.7,609,876.1,606.2,874.6,604.1z M856.1,607.2c2.3-0.8,5.7-2.3,9.1-3.7l0.8,3.2c-2.6,1.4-5.5,2.8-7.8,4L856.1,607.2z
	 M857.1,599.2l2.9-2.3c1.9,1,4.3,2.7,5.6,3.9l-3.1,2.6C861.4,602.1,859,600.3,857.1,599.2z M878.9,605.8l3-2.3
	c2.4,1.3,5.6,3.3,7.3,4.7l-3.2,2.6C884.5,609.3,881.4,607.2,878.9,605.8z M878.9,608.9c-9.9,1-11.4,1.2-12.4,1.6l-1.2-3.5
	c1.7-0.1,4.6-3.2,6-4.3c-2.4,0.2-3.6,0.3-4.1,0.5l-1.2-3.4c0.5-0.1,1.1-0.6,1.7-1.2c0.6-0.6,2.4-3,3.5-5.4l3.6,1.4
	c-0.9,1.6-2.1,3.2-3.4,4.6l3.3-0.1l2.4-2.9l3.3,2c-2.4,2.9-5.1,5.5-8.1,8l7-0.5 M869.5,590l4.5-1c0.9,1.2,1.9,2.8,2.4,3.9l-4.6,1.3
	C871.4,593,870.3,591.2,869.5,590z M899,598.3h20.3v3.1H899V598.3z M919,596.7l-2,2.1l-3.4-2.5l1.9-1.9L919,596.7z M915.1,602.4
	l3.4,0.7c-1.8,6.4-5.3,11.4-10.1,14.4c-0.4-0.7-1.6-2-2.4-2.6C910.6,612.2,913.7,607.9,915.1,602.4z M898.6,612.2
	c2.7-0.3,6.5-0.8,10.3-1.3l0.1,2.9c-3.5,0.5-7.1,1.1-10,1.5L898.6,612.2z M902.7,605.2v2.3h2.4v-2.3H902.7z M900,602.9h8.1v6.9H900
	V602.9z M919.8,612c0,7.1-10.3,10.8-11.1-16.8h3.6c0.8,20.9,4.9,20.6,4.8,14.7L919.8,612z M893.6,590.7h31.1v32.7h-4.3v-28.7h-22.7
	v28.7h-4.1V590.7z M896.2,618h26.6v3.9h-26.6V618z M933.5,611.3c4.7,1.1,3.4-5.4,0.7-9.3l1.9-7.5h-2.7v28.7h-3.7v-32.6h8.3l2.7,1.4
	c-0.8,3.1-2,6.8-2.9,9.7c3.6,5.1,4,14.4-3.4,13.2L933.5,611.3z M945.4,603.3h10.7v3.5h-10.7V603.3z M942.1,609.2h17.7v3.5h-17.7
	V609.2z M942.4,596.8l1.8-2c1.3,0.9,3.1,2.4,4,3.3l-1.9,2.2C945.5,599.4,943.8,597.9,942.4,596.8z M954.6,615.4l3.2-1.9
	c1.6,1.8,3.9,4.4,5,5.9l-3.4,2.1C958.4,620.1,956.2,617.4,954.6,615.4z M939.6,605.6c5.4-3.5,7-7.6,8.2-11h-4.1v-2.8h5.8l2.2,0.7
	c-1.6,7.4-5.3,12.7-10,15.7L939.6,605.6z M955.1,598.6c1-1.4,1.8-2.9,2.5-4.6h-4.2v-2.9h6.4l2.4,1.1c-1.1,3.2-2.9,6.7-4.8,8.8
	 M938.2,597.6c2.5-1.9,4.4-5,5.5-8.4l3.2,0.7c-1.3,3.9-3.6,7.6-6.1,9.9L938.2,597.6z M938.8,619.7c1.6-1.5,3.3-3.7,4.5-5.7l3.9,1.3
	c-1.3,2.3-3.4,5-4.9,6.6L938.8,619.7z M960.4,608.3c-4.8-2.9-7.9-8.4-9.7-14.9l3.3-0.8c1.5,5.5,4.5,10.4,8.9,12.7L960.4,608.3z
	 M948.9,610.7h4.1v12.5h-4.1V610.7z M939.2,600.3c1.5-0.1,3.1-0.3,5.1-0.5l0.1,2.3c-1.7,0.3-3.1,0.6-4.7,0.9L939.2,600.3z
	 M973.1,597.2h24.2v2.4h-24.2V597.2z M968.2,623c-0.8-0.7-2.6-1.7-3.7-2.1c4.3-6.1,3.3-22.5,3.3-29.1h30.7v3.7H972
	C972,609.3,971.8,616.1,968.2,623z M983.1,607.4h4v9h-4V607.4z M977.8,613.2v1.6h14.4v-1.6H977.8z M977.8,609.3v1.5h14.4v-1.5H977.8
	z M973.9,606.8h22.5v10.5h-22.5V606.8z M998.3,620.4l-2,3l-9.5-3.9l1.7-2.8L998.3,620.4z M973.4,623.5l-2.3-2.9
	c2.9-1,7.2-2.6,9.5-3.9l3.2,2.8L973.4,623.5z M986.6,593.1l-4.7,1.1l-1.2-4.4l4.5-0.9L986.6,593.1z M977.3,595.8h4.1v5.1h6.9v-5.1
	h4.4v6.9h-15.4V595.8z M972.7,603.5h25.7v2.4h-25.7V603.5z M1002.1,602h32.2v4.1h-32.2L1002.1,602L1002.1,602z M1008.2,593.9h23.8v4
	h-23.8V593.9z M1008.6,617.6h19.7v4h-19.7L1008.6,617.6L1008.6,617.6z M1016.8,589.2h4.7v15.3h-4.7V589.2z M1006.3,608.7h24.5v14.6
	h-4.7v-10.6h-15.3v10.7h-4.5L1006.3,608.7L1006.3,608.7z M1001.8,599.7c2.7-2.5,5-6.5,6.2-10.5l4.4,1.1c-1.5,4.4-4.1,8.9-6.6,11.7
	L1001.8,599.7z M44.8,287v-4.5c39.5-31.2,15.7-49,4-34.1l-4.4-4.3c22.1-21.4,47.5,6.5,11.9,36.8c5.2-0.7,15.1-0.4,20.4-0.5v6.6
	 M849.6,287v-4.5c39.5-31.2,15.7-49,4-34.1l-4.4-4.3c22.1-21.4,47.5,6.5,11.9,36.8c5.2-0.7,15.1-0.4,20.4-0.5v6.6 M92,261.3
	c-11.4-6.7-7-25.3,7.4-24.4c15-0.6,18.2,17.8,7.4,24.8c13.3,6.5,10.1,26.7-7.6,26.2c-9.2,0-16.1-5.5-16.1-13.1
	C83.2,268.2,87.5,263.7,92,261.3z M107.9,274.7c0-6-5.4-8.3-12.1-11.1C78.2,277.3,107.9,292.1,107.9,274.7z M106.9,250.4
	c-3.7-19.9-28.5,1.1-4.4,9.2C105.4,256.8,107.5,253.6,106.9,250.4z M121.4,262.1c0-34.1,31.9-34,31.9,0
	C153.3,296.6,121.4,296.6,121.4,262.1z M146,262.1c0-26.2-17.2-26.2-17.2,0C128.8,288.8,145.9,288.8,146,262.1z M159.6,262.1
	c0-34.1,31.9-34,31.9,0C191.5,296.6,159.6,296.6,159.6,262.1z M184.1,262.1c0-26.2-17.2-26.2-17.2,0
	C167,288.8,184.1,288.8,184.1,262.1z M210.8,271.5l6.6-2.3l1,5.6l-19.2,7.8l-2.3-6.3l8.1-2.7v-41.9h5.7 M198.2,252.4v-5.9h18.7v5.9
	 M217.5,269.4v-5.9h41.4v5.9 M241.3,292.2h-6.2V240h-15.7v-6h37.8v6h-15.9 M224.9,260.6c-0.4-4.3-1.9-10.9-3.6-16.1l5-1.3
	c1.9,5.1,3.4,11.7,3.8,16 M245.6,259.3c1.5-4.4,3.4-11.4,4.2-16.4l5.9,1.3c-1.7,5.7-3.6,12.3-5.3,16.3 M264,258.3
	c7.3-6,14.3-15.8,18.4-25.7l6.8,2.1c-4.8,10.9-12.3,21.9-19.7,28.7 M316.5,292.1c-0.9-1.9-2.1-4.1-3.6-6.5
	c-33.6,2.5-37.6,2.7-40.5,3.9l-2.5-6.7c9.1-6,14.5-15.9,23-31.4l7.2,2.9c-5.5,9.8-12.2,19.5-18.9,27.2l28.1-1.7
	c-2.5-3.9-5.1-7.8-7.4-11.1l6-2.7c5.4,7.2,11.7,16.6,14.8,22.6 M309.3,232.5c3.1,10.1,9.5,19.8,17.5,24.8l-4.8,6.2
	c-7.6-5.7-13.7-15.1-17.4-24.6h-11.7v-6.4 M340,289.7v2.6h-5.8v-58.7h55.9v58.7H384v-2.6 M384,284.1v-44.8h-44v44.8 M377.6,256.6
	v9.7h-15.2c-2,1.6-4.5,3-7.2,4.3v6.9l9.2-2.1c-0.1,1.1-0.1,2.9,0.1,3.8c-11.9,3.2-13.7,3.7-14.8,4.4c-0.3-1.1-0.9-2.8-1.5-3.6
	c2.7-0.3,2.5-5.1,2.4-7.4c-2.1,0.8-4.3,1.5-6.4,2.1c-0.5-0.9-2.1-2.7-3-3.6c4.8-1.1,10.1-2.8,14.1-4.8h-8.6v-9.7 M364.7,250.7h16.4
	v3.7h-38.2v-3.7H359v-10.4h5.6 M346.5,247.2v-3.6H378v3.6 M372.1,263.4v-3.8H352v3.8 M381.4,269.9c-2.1,1.5-4.5,2.9-6.7,4.1
	c2.7,1.9,5.2,3.7,7,5.2l-4.1,2.5c-3.7-3.3-11.1-8.6-17.1-12.1l3.8-2.2c2.1,1.3,4.6,2.7,7,4.3c2.3-1.3,4.7-2.9,6.2-4.2 M414.7,285.3
	c0,7.7-5.3,6.6-12.5,6.8l-1.9-5.9c6.9,0.1,8.3,1.2,8.3-1v-24.7h-10.5V255c20.8,0,24.8,0.1,25.2-0.2l3.9,0.9
	c-1.7,5.3-3.6,11.3-5.2,15.1l-4.7-1.1c0.9-2.3,2.1-5.7,3-9.1h-5.7 M399.7,239.2v-5.4c21.1,0,20.6,0.1,22-0.3l3.8,2.7
	c-2.7,4.4-6.4,9.2-10,12.8c1.9,1.3,3.5,2.6,4.7,3.8L417,257c-4.7-3.6-10.2-7.6-15.8-10.5l3.3-4.1c2.1,1,4.3,2.3,6.4,3.6
	c1.9-1.9,4-4.4,5.6-6.8 M439.9,283.4c-3.7,3.5-9.9,7.1-15.2,9.1c-0.9-1.1-2.9-3.1-4.2-4.2c5.2-1.9,11.1-5.4,14-8.2L439.9,283.4z
	 M428.1,279.4v-34.8h9.9l1-5.6h-13.4v-5.3h33.8v5.3h-13.5l-1.7,5.6h13.1v34.8 M451.3,254.7v-5.6h-17.4v5.6 M451.3,264.7v-5.6h-17.4
	v5.6 M451.3,274.7V269h-17.4v5.6 M449.3,280.4c3.9,2.3,9,6,11.6,8.4l-4.9,3.6c-2.3-2.4-7.4-6.2-11.4-8.8L449.3,280.4z M515.1,251.2
	v5.9h-15.8v9.7h19.2v5.8h-19.2v11.7c7.9,1.2,18.8,0.5,27.5,0.6l-2.3,6.3c-15.5-0.2-37.1,2.8-44.9-12.9c-2.2,5.7-5.4,10.5-9.5,14.1
	l-5-4.2c7.3-5.5,10.7-14.9,12.1-26.7l6.3,0.7c-0.4,2.9-0.9,5.8-1.5,8.4c2.4,6.3,6.2,9.8,10.9,11.9V257h-15.5v-5.9 M474.3,244v9.4
	h-6.1v-15.3h25.3l-2.7-6.1l6.2-1.8l3.8,7.9h23.5v15.3h-6.4V244 M546.7,269.3l6.6-2.8l1.5,5.5c-7,3.4-14.5,6.8-20.4,9.4l-2.5-6.2
	c2.4-0.9,5.5-2.1,8.9-3.5v-40.1h5.8 M533.3,252.4v-5.9h20.2v5.9 M553.6,263.4l-2.3-5.6l35.2-14.9l4.6,1.5
	c-1.1,9.5-1.6,22.3-3.5,30.2l-5.1-1.4c1-5.8,1.7-15.1,2.1-23.2 M564.2,278.9c0,7.2-0.3,6.5,19.7,6.5c3.7,0,4.4-1.7,4.9-9l5.5,2.3
	c-0.9,9.2-2.7,12.3-10,12.3h-15.4c-8.2,0-10.6-2.1-10.6-10.1v-43.6h5.9 M577.5,277.2h-5.8v-46.4h5.8 M610.8,240.2
	c-2.1,3.4-4.5,6.3-6.8,8.6c-0.9-1-3-3.1-4.2-4.1c4-3.6,7.7-9,9.8-14.4l5.6,1.6c-0.4,1.1-0.9,2.3-1.5,3.4h16v4.9 M617,239.2
	c2.1,1.7,5.5,4.9,6.7,6.3l-4,3.6c-1.3-1.8-4.2-4.7-6.4-6.8L617,239.2z M638.3,240.2c-1.5,2.4-3.3,4.6-5.1,6.2c-1-1-3.3-2.8-4.7-3.7
	c3.6-3,6.7-7.6,8.4-12.4l5.7,1.3c-0.5,1.3-0.9,2.4-1.5,3.6h19.4v4.9 M646.2,239.2c2.1,1.6,5.7,4.7,7,6.2L649,249
	c-1.4-1.7-4.4-4.5-6.8-6.4L646.2,239.2z M630,274c-6.3,8.6-17.3,15.3-24.9,18.2c-0.9-1.4-2.6-3.8-4-4.9c0.7-0.2,18.8-6.2,23.9-16.3
	L630,274z M632.7,292.2h-6.2v-37.7h-20.9v-5.2h48.9V265h-41.3c-0.2,1.8-0.5,3.6-0.7,5.2h44.7c-1.2,16.3-1.6,20.9-16.5,19.2
	c-0.1-1.7-0.8-4.1-1.7-5.7c8.6,0.5,10.8,2.4,11.6-8.2h-45c0.9-4.2,1.9-10.6,2.4-15.7h40.5v-5.2h-15.7 M666.8,264.3v-6.8h61v6.8
	 M734.1,270.7l-1.4-6l20.5-5.9l0.8,5.7 M747.1,285.4c0,7.3-4.2,6.7-11.1,6.9l-1.7-5.8c4.7,0,7.1,1.1,7.1-1.1v-54.5h5.7 M733.7,249.5
	v-5.8h20.2v5.8 M753,288.1c5.5-3.7,8.6-8.2,10.3-13.3c-3.3,1.3-6.6,2.5-9.5,3.6l-2.4-5.4c3.6-0.9,8.3-2.4,13.3-4
	c0.3-2.5,0.5-5,0.6-7.6h-9.9v-5.6h9.9v-8.2h-10.5V242h10.5v-11.2h5.6c-1.5,19.5,6,48.7-13.3,61.6 M776.8,230.7h5.9v11.2h11.1v5.6
	h-11.1v8.2H793v5.6h-10.4v8.8h12.3v5.7h-12.3v16.3h-5.9 M824.7,300.8h-5.2v-75.3h5.2 M888,270.9v-5.7h17.7v5.7 M938.6,287h-7.2
	l0.4-41.7l-13.9,22.4H945v6h-34.8v-5.2l19.6-30.9h8.9 M963.3,258.6c0,1.7-0.1,3.6-0.2,5.6h19.3c-0.7-1.4-1.4-2.9-2.2-4.2l6-1.4
	c1.2,1.6,2.3,3.8,3.1,5.6h21v5H982c-0.2,1.6-0.5,3-0.8,4.5h22.5c-1.1,16.6-2,20-17,18.6c-0.1-1.6-0.8-3.8-1.7-5.2
	c8.8,0.4,11.2,2.5,12.1-8.4h-17.5c-2.6,6.2-7.6,10.9-17.5,13.9c-0.5-1.4-2.1-3.8-3.4-4.8c12.6-3.4,15.7-9.6,17-18.4h-13.1
	c-0.9,8.4-3.4,17.3-8.6,23.7c-0.9-1.3-3.4-3.7-4.6-4.4c11-14.8,6.8-35.9,7.6-52.5c15-0.9,32.6-2.6,42.7-5l4.8,4.7
	c-11.2,2.5-26.9,4.1-41.3,4.9v2.9h42.6v15.2 M999.8,253.7v-5.4h-36.5v5.4"/>
<path class="st1" d="M89.6,55.9l12.2-14.7c14.2,6.1,34.5,16.5,44.5,24.3l-13,16.8C124.2,74.3,104.4,62.9,89.6,55.9z M92.4,9.2h21.3
	c-1.2,38.8-5.3,61.5-49.2,73.1c-1.9-5.3-7.3-13.5-11.4-17.6C90.5,56.2,91.5,40.7,92.4,9.2z M127.7,16.9l21.9,6.7
	c-6.2,9.6-12.7,19.1-17.9,25.5L115,42.9C119.6,35.8,124.9,24.9,127.7,16.9z M128.7,82.2l22.5,6.8c-5.8,10.4-12,21.1-16.9,27.9
	l-17.8-6.2C121,102.8,126.1,91.1,128.7,82.2z M92,72.5h21.3c-1.3,40.9-5.2,64.9-51.3,77.2c-2.1-5.6-7.6-14.2-11.9-18.7
	C90.1,122,90.9,105.9,92,72.5z M111.6,91.7c5.5,20.9,17.3,34.5,42.5,39.3c-4.6,4.3-10.2,12.9-12.7,18.5
	c-29.4-7.7-41.2-25.6-48.5-55.3L111.6,91.7z M17.7,27l13.2-14.7c8.6,4.3,21.3,11.3,27.6,16.2L44.5,45C38.9,39.8,26.5,32.1,17.7,27z
	 M10,67l13.5-14.5c8.7,4.2,21.8,10.8,28.3,15.7L37.4,84.4C31.6,79.4,19,71.9,10,67z M13.1,133.6c7-11,16.9-28.6,24.9-45.8l17,14.1
	c-6.7,15.4-14.4,31.1-22.4,45.8L13.1,133.6z M56,25.1l17.5-8.7c4.6,7.9,11.1,19,14.1,25.6L68.9,52.2C66.3,45.3,60.4,33.7,56,25.1z
	 M53.6,89.3l17.6-7.9c5,8.7,12.5,20.9,15.9,28.5l-18.8,9C65.3,111.4,58.6,98.6,53.6,89.3z M219,9.2h23v114c0,25.8-15.3,26.5-37.6,27
	c-0.9-6.7-4.6-17.6-8-24.2c17.5,0.2,22.7,2.3,22.7-3L219,9.2L219,9.2z M163,66.5V44.7h36l3.9-0.7l14.4,5.2
	c-6.4,41.2-21.6,72.6-42.4,88.7c-3.6-4.9-12.3-13.3-17.5-16.6c16.2-11.2,27.8-30.6,34-54.8H163z M240.7,41.5
	c9.8,33.2,29.5,61.8,61.4,75.5c-5.2,4.6-12.6,13.8-16.2,20.2c-33.1-17.5-50.8-50.6-62.1-91.6L240.7,41.5z M272.8,34.1l20,14.1
	c-12.5,12-27,25.1-38.2,33.2l-15.3-12C250.3,60.5,264.4,46,272.8,34.1z M366.1,43.6h22.5V149h-22.5V43.6z M309.5,28.5H447v21.1
	H309.5V28.5z M414.2,85.2h-71.5v50.6H321V64.1h115.6v49.2c0.9,22.6-16.7,22.5-35.4,22.7c-0.9-6.2-4.2-15.4-7.1-21.2
	c5.9,0.4,14.7,0.4,16.8,0.4c2.4,0,3.3-0.6,3.3-2.4L414.2,85.2L414.2,85.2z M360.9,13.8l21.5-6.5c3.7,7.1,8.7,16.9,11.1,23l-22.8,7.6
	C368.9,31.8,364.3,21.4,360.9,13.8z M525.6,51.3v9.5h18.8v-9.5H525.6z M505.6,37.7h60.2v36.9h-60.2L505.6,37.7L505.6,37.7z
	 M508.1,93.1v13h6.8v-13H508.1z M490.9,79.1h42.3v41.2h-42.3L490.9,79.1L490.9,79.1z M555.4,93.1v13h7.3v-13H555.4z M537.9,79.1
	h43.3v41.2h-43.3V79.1z M460.2,13.5h127.5v18.8H460.2V13.5z M466,13.5h21.1V108c0,13,3.7,18.1,18.5,17.9c21.1-0.3,65.6,1.6,86.8-2.2
	c0.6,5.2,1.8,15,2.8,20c-19.8,3.7-67.3,1.5-87.8,1.9c-28.3,0.5-41.4-8.6-41.4-39.1L466,13.5L466,13.5z M611,18.1h128.2v21.1H611
	V18.1z M678.5,67.9h52.2V89h-52.2V67.9z M606.3,124h136.8v21H606.3V124z M667.9,26.7h23v107.5h-23V26.7z M623.5,59.8H646v75.5h-22.5
	V59.8z M848.6,121.2l15.6-12.2c9.6,7.4,23.7,18.5,30.5,26.1l-16.5,13.8C872.2,141.3,858.6,129.5,848.6,121.2z M863.8,50.9l20.3,6.8
	c-14.5,24.9-38.5,47-68,59.4c-2.7-4.7-8.2-12.5-11.9-16.5C831.2,90.6,853.7,70.8,863.8,50.9z M871.3,80.4l22.4,7.9
	c-17.5,28.5-46.7,50.7-84.5,62c-2.7-5.2-8.6-13.6-12.5-18.2C831.9,123.1,859.5,103.2,871.3,80.4z M806.5,25.2h85.7v19.6h-85.7V25.2z
	 M860.5,79.3c-38.4,2.6-45.5,3.8-50,5.5c-0.7-4.9-3.3-14.8-4.9-19.4c15.1-1.1,17.6-11.1,29.2-30h22.4l-17.5,28l26.3-1.3 M835.2,13.5
	l20.3-6.1c3.1,6.2,6.5,14.4,7.6,20l-21.6,6.8C840.6,28.8,838,20.1,835.2,13.5z M753.6,36.4H805v19.9h-51.4V36.4z M770.7,9.2h20.6
	V150h-20.6V9.2z M771.6,51.6l11.1,4.6c-3.9,24.8-12,53.5-22.2,69.1c-1.9-6.2-6.5-16.2-9.9-22.1C760.1,91.2,768,69.1,771.6,51.6z
	 M790.4,59.5c3.4,4.2,15.4,23,17.9,27.4L796,101.1c-3.3-9.5-10.7-26.1-15-34.2L790.4,59.5z M940.4,52.2h22.5v66.6
	c0,7.3,0.9,8.2,7.4,8.2c3.1,0,13.8,0,17,0c6.7,0,7.9-4.3,8.9-26.2c4.9,3.7,14.4,7.6,20.2,9c-2.2,28.2-7.9,37.2-27.1,37.2
	c-4.4,0-17.8,0-21.9,0c-21.2,0-27-6.8-27-28.2L940.4,52.2L940.4,52.2z M911.8,59.6l21.2,4c-1.9,20.3-5,46.6-9.5,63.9l-22.1-8.9
	C906.2,102.6,910.2,80.8,911.8,59.6z M1004,62.6l20.2-8.3c8.3,17.6,15.7,39.9,18.8,55.3l-21.9,9.2
	C1018.8,103.7,1011.6,80.1,1004,62.6z M944.4,24.6l14.7-14.8c13.3,8,32.8,20.6,42,29.8l-16,17C976.9,47.5,958.2,33.7,944.4,24.6z
	 M121.9,513.4V543l-102.2-0.2v-20.1c107.1-87.4,48.2-125.1,17.4-87.9L18,415.9c45.4-55.6,157.5-4.3,54.9,97.5H121.9z M362.8,513.4
	V543l-102.2-0.2v-20.1c107.1-87.4,48.2-125.1,17.4-87.9l-19-18.9c45.4-55.6,157.5-4.3,54.9,97.5H362.8z M174.1,487.6
	c2.9,41.2,37.9,42,38.4,8.1C213,465.8,182.1,471,174.1,487.6z M173.3,464.1c20-25.2,72.1-17.5,71.2,31.7
	c-1.1,65.2-103.4,77-103.4-25.1c0-74.9,61.7-97.2,101.4-59.9L224,431.5C200.1,410.7,174.7,420.5,173.3,464.1z M414.9,487.6
	c2.9,41.2,37.9,42,38.4,8.1C453.8,465.8,422.9,471,414.9,487.6z M414.1,464.1c20-25.2,72.1-17.5,71.2,31.7
	c-1.1,65.2-103.4,77-103.4-25.1c0-74.9,61.7-97.2,101.4-59.9l-18.5,20.7C440.9,410.7,415.6,420.5,414.1,464.1z M647.2,451.6
	c-2.9-41.2-37.9-42-38.4-8.1C608.3,473.4,639.2,468.1,647.2,451.6z M648.1,475.1c-20,25.2-72.1,17.5-71.2-31.7
	c1.1-65.2,103.4-77,103.4,25.1c0,74.9-61.7,97.2-101.4,59.9l18.5-20.7C621.2,528.5,646.6,518.7,648.1,475.1z M888.2,451.6
	c-2.9-41.2-37.9-42-38.4-8.1C849.3,473.4,880.2,468.1,888.2,451.6z M889.1,475.1c-20,25.2-72.1,17.5-71.2-31.7
	c1.1-65.2,103.4-77,103.4,25.1c0,74.9-61.7,97.2-101.4,59.9l18.5-20.7C862.2,528.5,887.6,518.7,889.1,475.1z M503.3,498.1v-24.7
	h55.9v24.7H503.3z M770.7,467.4c52,17.3,26.4,82.7-26,78.7c-23.3,0-39.7-8.1-50.4-20.6l16.2-22.1c46.7,43.7,85.5-25.4,15.5-22.8
	v-24.9c58.5,1.9,30.8-61.1-10.1-22.5l-17.8-21.5C763.3,357.7,832.8,434,770.7,467.4z M1011.5,467.4c52,17.3,26.4,82.7-26,78.7
	c-23.3,0-39.7-8.1-50.4-20.6l16.2-22.1c46.7,43.7,85.5-25.4,15.5-22.8v-24.9c58.5,1.9,30.8-61.1-10.1-22.5l-17.8-21.5
	C1004.1,357.7,1073.6,434,1011.5,467.4z M822.4,592.5h28.1v4.3h-28.1V592.5z M820.3,617.2h32.6v4.3h-32.6V617.2z M832.5,594h4.9
	c-1.2,8.7-3,19.4-4.4,25.9h-4.9C829.7,613.2,831.5,602.5,832.5,594z M840.9,620.2l1.2-12.9h-17.7V603h22.7l-1.4,17.2 M870.5,610.1
	h4.7v13.2h-4.7V610.1z M856.2,612.6h33.2v4h-33.2V612.6z M857.2,592.1H889v3.9h-31.8V592.1z M884.3,596.7l3.6,2.1
	c-1.6,1.7-3.6,3.4-5.1,4.5l-3.2-2C881.1,600.1,883.2,598.1,884.3,596.7z M874.6,604.1l3.2-1.2c1.5,2,3.2,4.7,3.9,6.5l-3.4,1.3
	C877.7,609,876.1,606.2,874.6,604.1z M856.1,607.2c2.3-0.8,5.7-2.3,9.1-3.7l0.8,3.2c-2.6,1.4-5.5,2.8-7.8,4L856.1,607.2z
	 M857.1,599.2l2.9-2.3c1.9,1,4.3,2.7,5.6,3.9l-3.1,2.6C861.4,602.1,859,600.3,857.1,599.2z M878.9,605.8l3-2.3
	c2.4,1.3,5.6,3.3,7.3,4.7l-3.2,2.6C884.5,609.3,881.4,607.2,878.9,605.8z M878.9,608.9c-9.9,1-11.4,1.2-12.4,1.6l-1.2-3.5
	c1.7-0.1,4.6-3.2,6-4.3c-2.4,0.2-3.6,0.3-4.1,0.5l-1.2-3.4c0.5-0.1,1.1-0.6,1.7-1.2c0.6-0.6,2.4-3,3.5-5.4l3.6,1.4
	c-0.9,1.6-2.1,3.2-3.4,4.6l3.3-0.1l2.4-2.9l3.3,2c-2.4,2.9-5.1,5.5-8.1,8l7-0.5 M869.5,590l4.5-1c0.9,1.2,1.9,2.8,2.4,3.9l-4.6,1.3
	C871.4,593,870.3,591.2,869.5,590z M899,598.3h20.3v3.1H899V598.3z M919,596.7l-2,2.1l-3.4-2.5l1.9-1.9L919,596.7z M915.1,602.4
	l3.4,0.7c-1.8,6.4-5.3,11.4-10.1,14.4c-0.4-0.7-1.6-2-2.4-2.6C910.6,612.2,913.7,607.9,915.1,602.4z M898.6,612.2
	c2.7-0.3,6.5-0.8,10.3-1.3l0.1,2.9c-3.5,0.5-7.1,1.1-10,1.5L898.6,612.2z M902.7,605.2v2.3h2.4v-2.3H902.7z M900,602.9h8.1v6.9H900
	V602.9z M919.8,612c0,7.1-10.3,10.8-11.1-16.8h3.6c0.8,20.9,4.9,20.6,4.8,14.7L919.8,612z M893.6,590.7h31.1v32.7h-4.3v-28.7h-22.7
	v28.7h-4.1V590.7z M896.2,618h26.6v3.9h-26.6V618z M933.5,611.3c4.7,1.1,3.4-5.4,0.7-9.3l1.9-7.5h-2.7v28.7h-3.7v-32.6h8.3l2.7,1.4
	c-0.8,3.1-2,6.8-2.9,9.7c3.6,5.1,4,14.4-3.4,13.2L933.5,611.3z M945.4,603.3h10.7v3.5h-10.7V603.3z M942.1,609.2h17.7v3.5h-17.7
	V609.2z M942.4,596.8l1.8-2c1.3,0.9,3.1,2.4,4,3.3l-1.9,2.2C945.5,599.4,943.8,597.9,942.4,596.8z M954.6,615.4l3.2-1.9
	c1.6,1.8,3.9,4.4,5,5.9l-3.4,2.1C958.4,620.1,956.2,617.4,954.6,615.4z M939.6,605.6c5.4-3.5,7-7.6,8.2-11h-4.1v-2.8h5.8l2.2,0.7
	c-1.6,7.4-5.3,12.7-10,15.7L939.6,605.6z M955.1,598.6c1-1.4,1.8-2.9,2.5-4.6h-4.2v-2.9h6.4l2.4,1.1c-1.1,3.2-2.9,6.7-4.8,8.8
	 M938.2,597.6c2.5-1.9,4.4-5,5.5-8.4l3.2,0.7c-1.3,3.9-3.6,7.6-6.1,9.9L938.2,597.6z M938.8,619.7c1.6-1.5,3.3-3.7,4.5-5.7l3.9,1.3
	c-1.3,2.3-3.4,5-4.9,6.6L938.8,619.7z M960.4,608.3c-4.8-2.9-7.9-8.4-9.7-14.9l3.3-0.8c1.5,5.5,4.5,10.4,8.9,12.7L960.4,608.3z
	 M948.9,610.7h4.1v12.5h-4.1V610.7z M939.2,600.3c1.5-0.1,3.1-0.3,5.1-0.5l0.1,2.3c-1.7,0.3-3.1,0.6-4.7,0.9L939.2,600.3z
	 M973.1,597.2h24.2v2.4h-24.2V597.2z M968.2,623c-0.8-0.7-2.6-1.7-3.7-2.1c4.3-6.1,3.3-22.5,3.3-29.1h30.7v3.7H972
	C972,609.3,971.8,616.1,968.2,623z M983.1,607.4h4v9h-4V607.4z M977.8,613.2v1.6h14.4v-1.6H977.8z M977.8,609.3v1.5h14.4v-1.5H977.8
	z M973.9,606.8h22.5v10.5h-22.5V606.8z M998.3,620.4l-2,3l-9.5-3.9l1.7-2.8L998.3,620.4z M973.4,623.5l-2.3-2.9
	c2.9-1,7.2-2.6,9.5-3.9l3.2,2.8L973.4,623.5z M986.6,593.1l-4.7,1.1l-1.2-4.4l4.5-0.9L986.6,593.1z M977.3,595.8h4.1v5.1h6.9v-5.1
	h4.4v6.9h-15.4V595.8z M972.7,603.5h25.7v2.4h-25.7V603.5z M1002.1,602h32.2v4.1h-32.2L1002.1,602L1002.1,602z M1008.2,593.9h23.8v4
	h-23.8V593.9z M1008.6,617.6h19.7v4h-19.7L1008.6,617.6L1008.6,617.6z M1016.8,589.2h4.7v15.3h-4.7V589.2z M1006.3,608.7h24.5v14.6
	h-4.7v-10.6h-15.3v10.7h-4.5L1006.3,608.7L1006.3,608.7z M1001.8,599.7c2.7-2.5,5-6.5,6.2-10.5l4.4,1.1c-1.5,4.4-4.1,8.9-6.6,11.7
	L1001.8,599.7z M44.8,287v-4.5c39.5-31.2,15.7-49,4-34.1l-4.4-4.3c22.1-21.4,47.5,6.5,11.9,36.8c5.2-0.7,15.1-0.4,20.4-0.5v6.6
	 M849.6,287v-4.5c39.5-31.2,15.7-49,4-34.1l-4.4-4.3c22.1-21.4,47.5,6.5,11.9,36.8c5.2-0.7,15.1-0.4,20.4-0.5v6.6 M92,261.3
	c-11.4-6.7-7-25.3,7.4-24.4c15-0.6,18.2,17.8,7.4,24.8c13.3,6.5,10.1,26.7-7.6,26.2c-9.2,0-16.1-5.5-16.1-13.1
	C83.2,268.2,87.5,263.7,92,261.3z M107.9,274.7c0-6-5.4-8.3-12.1-11.1C78.2,277.3,107.9,292.1,107.9,274.7z M106.9,250.4
	c-3.7-19.9-28.5,1.1-4.4,9.2C105.4,256.8,107.5,253.6,106.9,250.4z M121.4,262.1c0-34.1,31.9-34,31.9,0
	C153.3,296.6,121.4,296.6,121.4,262.1z M146,262.1c0-26.2-17.2-26.2-17.2,0C128.8,288.8,145.9,288.8,146,262.1z M159.6,262.1
	c0-34.1,31.9-34,31.9,0C191.5,296.6,159.6,296.6,159.6,262.1z M184.1,262.1c0-26.2-17.2-26.2-17.2,0
	C167,288.8,184.1,288.8,184.1,262.1z M210.8,271.5l6.6-2.3l1,5.6l-19.2,7.8l-2.3-6.3l8.1-2.7v-41.9h5.7 M198.2,252.4v-5.9h18.7v5.9
	 M217.5,269.4v-5.9h41.4v5.9 M241.3,292.2h-6.2V240h-15.7v-6h37.8v6h-15.9 M224.9,260.6c-0.4-4.3-1.9-10.9-3.6-16.1l5-1.3
	c1.9,5.1,3.4,11.7,3.8,16 M245.6,259.3c1.5-4.4,3.4-11.4,4.2-16.4l5.9,1.3c-1.7,5.7-3.6,12.3-5.3,16.3 M264,258.3
	c7.3-6,14.3-15.8,18.4-25.7l6.8,2.1c-4.8,10.9-12.3,21.9-19.7,28.7 M316.5,292.1c-0.9-1.9-2.1-4.1-3.6-6.5
	c-33.6,2.5-37.6,2.7-40.5,3.9l-2.5-6.7c9.1-6,14.5-15.9,23-31.4l7.2,2.9c-5.5,9.8-12.2,19.5-18.9,27.2l28.1-1.7
	c-2.5-3.9-5.1-7.8-7.4-11.1l6-2.7c5.4,7.2,11.7,16.6,14.8,22.6 M309.3,232.5c3.1,10.1,9.5,19.8,17.5,24.8l-4.8,6.2
	c-7.6-5.7-13.7-15.1-17.4-24.6h-11.7v-6.4 M340,289.7v2.6h-5.8v-58.7h55.9v58.7H384v-2.6 M384,284.1v-44.8h-44v44.8 M377.6,256.6
	v9.7h-15.2c-2,1.6-4.5,3-7.2,4.3v6.9l9.2-2.1c-0.1,1.1-0.1,2.9,0.1,3.8c-11.9,3.2-13.7,3.7-14.8,4.4c-0.3-1.1-0.9-2.8-1.5-3.6
	c2.7-0.3,2.5-5.1,2.4-7.4c-2.1,0.8-4.3,1.5-6.4,2.1c-0.5-0.9-2.1-2.7-3-3.6c4.8-1.1,10.1-2.8,14.1-4.8h-8.6v-9.7 M364.7,250.7h16.4
	v3.7h-38.2v-3.7H359v-10.4h5.6 M346.5,247.2v-3.6H378v3.6 M372.1,263.4v-3.8H352v3.8 M381.4,269.9c-2.1,1.5-4.5,2.9-6.7,4.1
	c2.7,1.9,5.2,3.7,7,5.2l-4.1,2.5c-3.7-3.3-11.1-8.6-17.1-12.1l3.8-2.2c2.1,1.3,4.6,2.7,7,4.3c2.3-1.3,4.7-2.9,6.2-4.2 M414.7,285.3
	c0,7.7-5.3,6.6-12.5,6.8l-1.9-5.9c6.9,0.1,8.3,1.2,8.3-1v-24.7h-10.5V255c20.8,0,24.8,0.1,25.2-0.2l3.9,0.9
	c-1.7,5.3-3.6,11.3-5.2,15.1l-4.7-1.1c0.9-2.3,2.1-5.7,3-9.1h-5.7 M399.7,239.2v-5.4c21.1,0,20.6,0.1,22-0.3l3.8,2.7
	c-2.7,4.4-6.4,9.2-10,12.8c1.9,1.3,3.5,2.6,4.7,3.8L417,257c-4.7-3.6-10.2-7.6-15.8-10.5l3.3-4.1c2.1,1,4.3,2.3,6.4,3.6
	c1.9-1.9,4-4.4,5.6-6.8 M439.9,283.4c-3.7,3.5-9.9,7.1-15.2,9.1c-0.9-1.1-2.9-3.1-4.2-4.2c5.2-1.9,11.1-5.4,14-8.2L439.9,283.4z
	 M428.1,279.4v-34.8h9.9l1-5.6h-13.4v-5.3h33.8v5.3h-13.5l-1.7,5.6h13.1v34.8 M451.3,254.7v-5.6h-17.4v5.6 M451.3,264.7v-5.6h-17.4
	v5.6 M451.3,274.7V269h-17.4v5.6 M449.3,280.4c3.9,2.3,9,6,11.6,8.4l-4.9,3.6c-2.3-2.4-7.4-6.2-11.4-8.8L449.3,280.4z M515.1,251.2
	v5.9h-15.8v9.7h19.2v5.8h-19.2v11.7c7.9,1.2,18.8,0.5,27.5,0.6l-2.3,6.3c-15.5-0.2-37.1,2.8-44.9-12.9c-2.2,5.7-5.4,10.5-9.5,14.1
	l-5-4.2c7.3-5.5,10.7-14.9,12.1-26.7l6.3,0.7c-0.4,2.9-0.9,5.8-1.5,8.4c2.4,6.3,6.2,9.8,10.9,11.9V257h-15.5v-5.9 M474.3,244v9.4
	h-6.1v-15.3h25.3l-2.7-6.1l6.2-1.8l3.8,7.9h23.5v15.3h-6.4V244 M546.7,269.3l6.6-2.8l1.5,5.5c-7,3.4-14.5,6.8-20.4,9.4l-2.5-6.2
	c2.4-0.9,5.5-2.1,8.9-3.5v-40.1h5.8 M533.3,252.4v-5.9h20.2v5.9 M553.6,263.4l-2.3-5.6l35.2-14.9l4.6,1.5
	c-1.1,9.5-1.6,22.3-3.5,30.2l-5.1-1.4c1-5.8,1.7-15.1,2.1-23.2 M564.2,278.9c0,7.2-0.3,6.5,19.7,6.5c3.7,0,4.4-1.7,4.9-9l5.5,2.3
	c-0.9,9.2-2.7,12.3-10,12.3h-15.4c-8.2,0-10.6-2.1-10.6-10.1v-43.6h5.9 M577.5,277.2h-5.8v-46.4h5.8 M610.8,240.2
	c-2.1,3.4-4.5,6.3-6.8,8.6c-0.9-1-3-3.1-4.2-4.1c4-3.6,7.7-9,9.8-14.4l5.6,1.6c-0.4,1.1-0.9,2.3-1.5,3.4h16v4.9 M617,239.2
	c2.1,1.7,5.5,4.9,6.7,6.3l-4,3.6c-1.3-1.8-4.2-4.7-6.4-6.8L617,239.2z M638.3,240.2c-1.5,2.4-3.3,4.6-5.1,6.2c-1-1-3.3-2.8-4.7-3.7
	c3.6-3,6.7-7.6,8.4-12.4l5.7,1.3c-0.5,1.3-0.9,2.4-1.5,3.6h19.4v4.9 M646.2,239.2c2.1,1.6,5.7,4.7,7,6.2L649,249
	c-1.4-1.7-4.4-4.5-6.8-6.4L646.2,239.2z M630,274c-6.3,8.6-17.3,15.3-24.9,18.2c-0.9-1.4-2.6-3.8-4-4.9c0.7-0.2,18.8-6.2,23.9-16.3
	L630,274z M632.7,292.2h-6.2v-37.7h-20.9v-5.2h48.9V265h-41.3c-0.2,1.8-0.5,3.6-0.7,5.2h44.7c-1.2,16.3-1.6,20.9-16.5,19.2
	c-0.1-1.7-0.8-4.1-1.7-5.7c8.6,0.5,10.8,2.4,11.6-8.2h-45c0.9-4.2,1.9-10.6,2.4-15.7h40.5v-5.2h-15.7 M666.8,264.3v-6.8h61v6.8
	 M734.1,270.7l-1.4-6l20.5-5.9l0.8,5.7 M747.1,285.4c0,7.3-4.2,6.7-11.1,6.9l-1.7-5.8c4.7,0,7.1,1.1,7.1-1.1v-54.5h5.7 M733.7,249.5
	v-5.8h20.2v5.8 M753,288.1c5.5-3.7,8.6-8.2,10.3-13.3c-3.3,1.3-6.6,2.5-9.5,3.6l-2.4-5.4c3.6-0.9,8.3-2.4,13.3-4
	c0.3-2.5,0.5-5,0.6-7.6h-9.9v-5.6h9.9v-8.2h-10.5V242h10.5v-11.2h5.6c-1.5,19.5,6,48.7-13.3,61.6 M776.8,230.7h5.9v11.2h11.1v5.6
	h-11.1v8.2H793v5.6h-10.4v8.8h12.3v5.7h-12.3v16.3h-5.9 M824.7,300.8h-5.2v-75.3h5.2 M888,270.9v-5.7h17.7v5.7 M938.6,287h-7.2
	l0.4-41.7l-13.9,22.4H945v6h-34.8v-5.2l19.6-30.9h8.9 M963.3,258.6c0,1.7-0.1,3.6-0.2,5.6h19.3c-0.7-1.4-1.4-2.9-2.2-4.2l6-1.4
	c1.2,1.6,2.3,3.8,3.1,5.6h21v5H982c-0.2,1.6-0.5,3-0.8,4.5h22.5c-1.1,16.6-2,20-17,18.6c-0.1-1.6-0.8-3.8-1.7-5.2
	c8.8,0.4,11.2,2.5,12.1-8.4h-17.5c-2.6,6.2-7.6,10.9-17.5,13.9c-0.5-1.4-2.1-3.8-3.4-4.8c12.6-3.4,15.7-9.6,17-18.4h-13.1
	c-0.9,8.4-3.4,17.3-8.6,23.7c-0.9-1.3-3.4-3.7-4.6-4.4c11-14.8,6.8-35.9,7.6-52.5c15-0.9,32.6-2.6,42.7-5l4.8,4.7
	c-11.2,2.5-26.9,4.1-41.3,4.9v2.9h42.6v15.2 M999.8,253.7v-5.4h-36.5v5.4"/>
</svg>
