<?xml version="1.0" encoding="utf-8"?>
<!-- Generator: Adobe Illustrator 26.5.0, SVG Export Plug-In . SVG Version: 6.00 Build 0)  -->
<svg version="1.1" id="圖層_1" xmlns="http://www.w3.org/2000/svg" xmlns:xlink="http://www.w3.org/1999/xlink" x="0px" y="0px"
	 viewBox="0 0 458.6 72" style="enable-background:new 0 0 458.6 72;" xml:space="preserve">
<style type="text/css">
	.st0{fill:#231815;}
</style>
<path class="st0" d="M29,23.6v6.6h18.2v19.9c0.2,8.2-5.9,7.5-13,7.7c-0.3-2.1-1.3-5-2.3-6.9c12,0.7,7.4,1,8.3-13.8H29v26.5h-7V37
	H11.5v20.7H4.8V30.2H22v-6.6H0v-6.8h22.7c-0.8-2.1-1.9-4.5-2.9-6.5l6.7-2.2c1.4,2.7,3.3,6.2,4.2,8.7h20.9v6.8H29z M68.5,30.4
	c-0.8,7.6-2.2,17.8-4.1,24.5L57.6,52c2-6.2,3.6-15.1,4.4-22.9L68.5,30.4z M79.1,25.6V53c0,2.8,0.5,3.2,3.2,3.2
	c8.5-0.7,11.8,3.8,11.8-11.1c1.6,1.2,4.5,2.5,6.3,2.9c-0.4,17.5-7.6,14.5-18.9,14.7c-7.4,0-9.4-2.4-9.4-9.8V25.6H79.1z M78.6,9.8
	c5.1,3.4,12.3,8.5,15.7,12.2l-5,5.5c-3.1-3.6-10-9.2-15.3-12.9L78.6,9.8z M103.3,27.2c3.2,7,6.1,15.9,7.3,21.9l-6.8,2.9
	c-0.8-6-3.8-15.3-6.7-22.2L103.3,27.2z M166.8,57.7v5.1h-50.2v-5.1h13.7c-0.5-1.5-1.3-3.4-2.1-4.8l0.7-0.2h-5.5V41.2H161v11.6h-5.4
	l0.6,0.2c-0.9,1.8-1.8,3.4-2.7,4.8H166.8z M166.2,39.2h-49v-4.7h49V39.2z M163.8,32.6h-44.3V10.4h5.7v17.4h4.7v-1.9h-3.4v-3.2h3.4
	v-1.9h-3.1v-3.2h3.1v-1.9h-3.3v-3.2h3.3V9.6h3.9v2.9h3.5v3.2h-3.5v1.9h3.3v3.2h-3.3v1.9h3.6v3.2h-3.6v1.9h4.9v-19h5.9v19h4.8v-1.9
	h-3.6v-3.2h3.6v-1.9h-3.3v-3.2h3.3v-1.9h-3.5v-3.2h3.5V9.6h4v2.9h3.3v3.2h-3.3v1.9h3.1v3.2h-3.1v1.9h3.5v3.2h-3.5v1.9h4.8V10.4h5.9
	V32.6z M129.5,48.7h24.8v-3.4h-24.8V48.7z M134.9,52.7c0.8,1.6,1.6,3.5,2,4.8l-0.4,0.1H147c0.7-1.4,1.7-3.3,2.4-5H134.9z
	 M192.8,54.4c-3.8,3.4-9.8,6.7-14.8,8.7c-1.1-1.4-3.5-3.8-4.9-4.9c5-1.5,10.5-3.8,13.5-6.4L192.8,54.4z M224.4,36.3h-49.9v-5.5h21.4
	c-0.3-0.6-0.6-1.1-1-1.6l2.6-0.8h-17.3V10.6h38.4v17.7h-17c0.5,0.8,1,1.6,1.4,2.4h21.3V36.3z M203.1,51.3c0.5,11.1,0.2,12.9-12,12.5
	c-0.3-1.7-1.1-3.8-1.9-5.4c9.2,0.5,6.9,0.4,7.1-7.1h-14.7V38.4h36.2v12.8H203.1z M186.8,17.4H212v-2.4h-25.2V17.4z M186.8,24H212
	v-2.5h-25.2V24z M188.1,46.5h23v-3.3h-23V46.5z M209.9,52c4.8,1.6,11.3,4.6,14.8,6.8l-4.7,4.3c-3.2-2.2-9.6-5.4-14.5-7.4L209.9,52z
	 M276,31.9c3.7,11.5,10.6,20.7,21.2,25.2c-1.7,1.5-3.9,4.6-5,6.6c-10.2-5-16.8-13.6-21.2-25c-3.1,9.8-9.2,19-21.2,25
	c-1.1-1.9-3.1-4.5-5-6c13-6,18.3-15.8,20.5-25.9h-19.5v-7.2h20.6c0.6-5.5,0.5-10.9,0.6-15.7h7.4c-0.1,4.8-0.1,10.3-0.7,15.7h22.2
	v7.2H276z M344.6,38.7c4.4,2.7,8.3,5.5,10.9,8l-4.5,4.1c-0.5-0.5-1-1-1.5-1.5v14.2h-6.2V62h-6.7v1.8h-5.8V44.9H344
	c-8.4-6.2-10.6-6.7-21-6.2c-2,2.2-4.2,4.2-7,6.2h10.9v18.6h-6.1V62h-6.5v1.8h-5.8V49.5c-1,0.5-2,0.9-3.1,1.4
	c-0.7-1.6-2.3-4.1-3.5-5.3c4.9-1.9,9-4.2,12.3-6.9h-11v-5.8H320c1.1-1.5,2.1-2.9,2.9-4.5h-15.8V11.2h19.1v16.1l3.8,0.8
	c-0.7,1.6-1.6,3.2-2.5,4.8h12.6c-1.6-1-3.5-1.9-5.1-2.7l1.8-1.8h-5.3V11.2h19.3v17.1h-9.3c1.8,0.9,3.6,2,4.8,2.9l-1.5,1.5h9.7v5.8
	H344.6z M320,16.7h-7v6.1h7V16.7z M320.8,50.4h-6.5v6.1h6.5V50.4z M343.3,56.4v-6.1h-6.7v6.1H343.3z M337.3,22.8h7.4v-6.1h-7.4V22.8
	z M360.2,50.2h10.9c-0.6,7.7,10.5,9.5,14.9,5c5.7-6.6,0.5-17.2-8.6-15.5V29c0.5,0,0.9-0.1,1.3,0.4c7.6,0.2,10.6-8.3,6.3-13.3
	c-4.1-3.9-12.3-1.5-12.3,4.7h-10.6c-0.9-16.4,21.2-20.6,31.5-11.9c7.8,6,6,22.7-4.6,25.2c12.4,2.2,14.2,21.3,5.3,28.4
	C383.4,71.9,358.8,67.8,360.2,50.2z M435.4,44c-0.2,1.1-0.3,2.1-0.6,3.1h18.3c-0.6,14.1-1.9,17.9-14.9,16.6
	c-0.1-1.8-0.8-4.2-1.8-5.8c6.2,0.3,9.1,2.3,9.6-5.5h-12.9c-2.3,5-6.4,8.8-14.5,11.4c-0.6-1.6-2.3-4.1-3.6-5.4
	c-1.1,2.2-2.3,4.2-3.9,6.1c-1-1.4-3.6-4.2-4.8-5.1c9.6-12.7,5.9-31.6,6.6-46.1c13-0.8,27.6-2.2,36.3-4.4l5.1,5.2
	c-9.8,2.3-22.9,3.7-34.8,4.4v1.8h35.6v14.1h-15.7c0.6,1.2,1.3,2.7,1.8,4.1h17.2V44H435.4z M419,44c-0.6,4.9-1.8,10-3.8,14.4
	c10.1-2.8,12.6-7.7,13.5-14.4H419z M434,38.5c-0.3-1.1-0.8-2.1-1.2-3l5.5-1.1h-18.6c-0.1,1.3-0.1,2.7-0.2,4.1H434z M419.7,25.7v3.5
	h29v-3.5H419.7z"/>
</svg>
