<?xml version="1.0" encoding="utf-8"?>
<!-- Generator: Adobe Illustrator 26.5.0, SVG Export Plug-In . SVG Version: 6.00 Build 0)  -->
<svg version="1.1" id="圖層_1" xmlns="http://www.w3.org/2000/svg" xmlns:xlink="http://www.w3.org/1999/xlink" x="0px" y="0px"
	 viewBox="0 0 380 131.2" style="enable-background:new 0 0 380 131.2;" xml:space="preserve">
<style type="text/css">
	.st0{fill:#231815;}
</style>
<path class="st0" d="M29.8,29c18.6,7.1,10.6,34.4-9.7,32.9C8.7,61.4,0,56.6,0,44.9C0.1,37.5,2.9,31,10.4,29
	C-5.5,21.7,2.8-2.1,20.1,0C37.3-2,45.8,21.4,29.8,29z M20.1,52c11.5,0.2,11.2-18.4,0-17.7C8.7,33.7,8.3,52.5,20.1,52z M20.1,9.5
	c-9.5-0.8-9.3,14.4,0,14.1C29.4,23.7,29.2,9,20.1,9.5z M84.7,50.9v9.5H45.6c5.9-9.6,25.7-32,27.5-42.8c-0.2-12-16.3-9.2-14.7,2.1
	H46.9C43.7-5.5,84.6-7.3,84.7,16.6c-1,12.7-11.4,23.5-19.1,34.3H84.7z M113.9,37.5C93.5,47,82.8,18.3,95.5,5.3
	c12.8-11.5,35-4.2,34.1,15.2c0.1,13.5-10.9,28.5-18.4,40H97.5L113.9,37.5z M118.9,19.8c0.4-12.6-18.6-12.5-17.7,0
	C100.5,32.1,119,32.1,118.9,19.8z M174.2,50.9v9.5H135c5.9-9.6,25.7-32,27.5-42.8c-0.2-12-16.3-9.2-14.7,2.1h-11.4
	c-3.2-25.3,37.7-27.1,37.8-3.2c-1,12.7-11.4,23.5-19.1,34.3H174.2z M179.5,46V35.4h21.8V46H179.5z M245.7,50.9v9.5h-39.2
	c5.9-9.6,25.7-32,27.5-42.8c-0.2-12-16.3-9.2-14.7,2.1h-11.4c-3.2-25.3,37.7-27.1,37.8-3.2c-1,12.7-11.4,23.5-19.1,34.3H245.7z
	 M290.2,50.9v9.5h-39.2c5.9-9.6,25.7-32,27.5-42.8c-0.2-12-16.3-9.2-14.7,2.1h-11.4c-3.2-25.3,37.7-27.1,37.8-3.2
	c-1,12.7-11.4,23.5-19.1,34.3H290.2z M319.4,37.5C299,47,288.4,18.3,301,5.3c12.8-11.5,35-4.2,34.1,15.2c0.1,13.5-10.9,28.5-18.4,40
	H303L319.4,37.5z M324.4,19.8c0.4-12.6-18.6-12.5-17.7,0C306,32.1,324.5,32.1,324.4,19.8z M364.3,37.5c-20.4,9.5-31-19.1-18.4-32.2
	c12.8-11.5,35-4.2,34.1,15.2c0.1,13.5-10.9,28.5-18.4,40h-13.7L364.3,37.5z M369.3,19.8c0.4-12.6-18.6-12.5-17.7,0
	C350.9,32.1,369.4,32.1,369.3,19.8z M8.6,108.6c-1.7-1.6-5.4-3.7-8.3-5l2.3-3.3c2.8,1.1,6.6,3.1,8.4,4.7L8.6,108.6z M13,114.4
	c-2.3,5.3-5.1,11.2-7.6,15.8l-3.8-2.7c2.3-3.8,5.6-10,8-15.7L13,114.4z M10.9,96.1c-1.7-1.7-5.2-3.9-8.1-5.2l2.3-3.2
	c2.8,1.2,6.4,3.2,8.2,4.9L10.9,96.1z M41.2,118.8c-1,12-2.2,12.7-11.8,12c0-1.1-0.5-2.6-1.1-3.6c6.5,0.5,7.8,1.6,8.5-6.5H28
	c-1.8,5.1-5.5,8.5-14.2,10.4c-0.3-1-1.3-2.7-2.1-3.5c7-1.3,10.2-3.5,11.8-6.9H12.9v-3.6h11.6c0.1-0.9,0.3-1.8,0.4-2.7h4.3
	c-0.1,1-0.2,1.9-0.4,2.7h12.5L41.2,118.8z M21.9,93.1c1.9,0.5,4.1,1.3,6.2,2.1c1.4-0.8,2.8-1.7,4-2.7H14.7v-3.5h21.4l0.9-0.2
	l2.5,2.1c-2.2,2-4.9,4.2-7.9,5.9c0.5,0.2,0.9,0.4,1.3,0.6l-0.7,1h8.2v14c0,4.1-3.1,3.1-6.6,3.3c-0.2-1-0.8-2-1.2-2.9
	c2.2-0.1,4.1,0.8,3.8-1.4h-6.7v2.2h-4v-2.2h-6.4v4.3h-4V98.4h11.8c-2.3-1-4.9-2-7.2-2.8L21.9,93.1z M19.3,101.6v2h6.4v-2H19.3z
	 M25.7,108.6v-2.1h-6.4v2.1H25.7z M36.3,101.6h-6.7v2h6.7V101.6z M36.3,108.6v-2.1h-6.7v2.1H36.3z M100,112.9
	c-2.4,8.2-8,13.7-14.6,16.7c-0.5-1.1-1.6-2.8-2.5-3.7c4.8-1.8,9.2-5.4,11.6-10h-9.9v-4h11.9l0.7-0.1L100,112.9z M122.8,111.8
	c-3,2.4-6.8,5-9.9,6.9c3.4,3.2,7.8,5.6,12.7,6.8c-0.9,0.9-2.2,2.7-2.8,3.9c-7.1-2.2-12.7-6.6-16.6-12.5c-0.6,9.2,3.3,15-9.7,14
	c-0.2-1.2-0.8-2.9-1.4-4.1c3-0.2,6.5,1,6.8-0.8c0,0,0-17.1,0-17.1H88.6V91.3H100c0.7-1.4,1.4-3.1,1.8-4.3l5.1,0.9
	c-0.7,1.2-1.4,2.4-2.1,3.5H120V109h-13.7c0.4,2.7,2.5,5,4.1,7.1c3-2,6.6-4.9,8.7-7L122.8,111.8z M92.9,98.5h22.7v-3.7H92.9V98.5z
	 M92.9,105.5h22.7v-3.8H92.9V105.5z M182.9,90.1c-3.3,7.8-8.5,15.5-13.5,20.4c-0.7-0.9-2.7-2.8-3.8-3.7c5-4.3,9.8-11.2,12.6-18.2
	L182.9,90.1z M195.8,112.3c3.7,5.1,8,11.8,10.2,16.1l-4.3,2.4c-0.6-1.4-1.4-2.9-2.4-4.6c-23,1.8-25.8,2-27.8,2.7
	c-0.2-1-1.1-3.4-1.7-4.8c6.3-4.2,9.9-11.3,15.8-22.3l5,2.2c-3.8,6.9-8.4,13.8-13,19.3l19.3-1.3c-1.7-2.7-3.5-5.4-5.1-7.8
	L195.8,112.3z M196.7,88.5c2.1,7.1,6.5,14.1,12,17.6c-1,1-2.5,3-3.3,4.4c-5.2-4-9.4-10.7-11.9-17.5h-8v-4.5H196.7z M288.9,89.3V131
	h-4.2v-1.9h-30.1v1.9h-4V89.3H288.9z M284.7,125.1V93.3h-30.1v31.9H284.7z M271.3,119c-0.1,0.8-0.1,2,0,2.7
	c-8.2,2.3-9.4,2.6-10.2,3.1c-0.2-0.8-0.6-2-1.1-2.5c1.8-0.1,1.8-3.7,1.7-5.3c-1.5,0.6-2.9,1.1-4.4,1.5c-0.4-0.7-1.5-2-2.1-2.6
	c3.3-0.8,6.9-2,9.7-3.4h-5.9v-6.9h21.1v6.9h-10.4c-1.4,1.1-3.1,2.1-4.9,3v4.9L271.3,119z M282.7,104h-26.2v-2.6h11.1v-2.5h-8.6v-2.6
	h8.6V94h3.9v2.3h9.1v2.6h-9.1v2.5h11.3V104z M262.7,110.5h13.8v-2.7h-13.8V110.5z M282.9,115.1c-1.5,1.1-3.1,2.1-4.6,2.9
	c1.8,1.3,3.5,2.6,4.8,3.7l-2.8,1.8c-2.5-2.3-7.6-6.1-11.7-8.6l2.6-1.6c1.5,0.9,3.2,2,4.8,3c1.6-1,3.2-2.1,4.3-3L282.9,115.1z
	 M348.9,113.4c-0.2,1.3-0.4,2.5-0.7,3.7h19.6c-0.8,12.7-2.3,14.5-13.6,13.4c-0.1-1.1-0.6-2.7-1.3-3.8c6.7,0.2,9.4,2.6,10-5.9H347
	c-2.1,4.6-5.9,8.1-13.7,10.2c-0.4-1.1-1.5-2.9-2.4-3.8c10.2-2.4,12.5-7.3,13.5-13.8H332v-3.8h18.8c-0.5-1.2-1.1-2.6-1.6-3.7l4.5-1
	c0.9,1.4,1.7,3.3,2.2,4.7h17v3.8H348.9z M337.3,108.2h-4v-8h10.5c-0.7-1.3-1.7-2.8-2.8-3.9l2.3-1h-10.1v-3.8h17.5
	c-0.5-1.1-1.1-2.3-1.7-3.4l4.3-1.3c0.9,1.4,1.8,3.2,2.3,4.7h15.9v3.8h-10.9l3.5,1.2c-0.9,1.3-1.8,2.6-2.6,3.8h10.1v8h-4.2V104h-30.1
	V108.2z M345.3,95.2c1.2,1.3,2.4,3,2.9,4.2l-1.3,0.7H357c0.9-1.5,1.9-3.5,2.5-5H345.3z"/>
</svg>
