<?xml version="1.0" encoding="utf-8"?>
<!-- Generator: Adobe Illustrator 26.5.0, SVG Export Plug-In . SVG Version: 6.00 Build 0)  -->
<svg version="1.1" id="圖層_1" xmlns="http://www.w3.org/2000/svg" xmlns:xlink="http://www.w3.org/1999/xlink" x="0px" y="0px"
	 viewBox="0 0 545 180" style="enable-background:new 0 0 545 180;" xml:space="preserve">
<style type="text/css">
	.st0{fill:#FFFFFF;}
</style>
<path class="st0" d="M204.2,169c-0.2,0.8-0.6,1.5-1.1,2.1c-3.4,3.7-7.3,5.1-11.8,4.2c-2.1-0.4-4.3-0.9-6.5-1.5
	c-3.6-0.9-6-3.4-7.6-5.4c-7.2-8.2-11.5-18.4-15.2-28.6c-0.5,1.1-1.7,2.6-2.5,3.5c-5,6.6-11.2,14-16.6,19.6
	c-3.3,3.5-6.8,6.7-10.2,10.1c-1.2,1.4-2.6,2.9-4.5,3c-0.5,0-1.1-0.4-1.3-0.6c-1.1-0.9-0.4-2.5,0.3-3.4c1.6-2,3.1-3.9,4.7-5.9
	c8.2-10,14.9-19.3,21.9-31.1c1.2-2.1,2.4-4.2,3.7-6.3c1.1-1.7,0.9-3.5,0.4-5.5c-1-3.6-1.3-7.3-2.2-10.8c-0.7-2.5-0.6-5.3-1.4-7.8
	c-0.5-2.1-1-4.3-0.9-6.6c0.1-1.6-0.6-3.4-0.8-5.1c-0.3-1.9-0.4-3.9-0.6-5.8c-0.5-6.4-1.1-12.9-1.4-19.2c-0.3-8.9-0.5-17.7-1.5-26.5
	c0,0-0.1-0.2-0.7-0.5c0,0-0.2,0-0.3,0c-0.4,0.1-47.8,0-48.3,0c-0.9,0.1-2-0.2-2.6-0.1c0.1,0.3,0,6.8,0.1,7.3c0,6.2,0,12.5,0,18.7
	c0,0.5,0.1,0.8,0.2,0.9c0.1,0.1,0.4,0.2,1,0.2c10.8,0,21.9,0,32.7,0c2.7,0,3.3,0.6,3.3,3.1l0,19.4c0,17.5,0,35.7-0.1,53.5
	c0,5.1-3.3,8.6-9.4,10.1c-0.8,0.2-1.9-0.6-2.3-1.1c-0.4-0.6-0.4-1.4-0.4-2c-0.1-23.9,0.1-47.8-0.1-71.6c-7.9-0.1-16.3,0-24.2-0.1
	c-0.9,0-1,0.1-1,1c0.2,4.8,0,9.8-0.4,14.6c-0.4,4.4-0.3,8.9-1.2,13.2c-0.4,2.3-0.8,4.7-0.8,7.1c0,0.9-0.2,1.8-0.5,2.6
	c-0.2,0.5-0.3,1-0.4,1.5c-0.9,5.5-1.6,11-3.4,16.3c-2.1,7.5-4.7,15.5-8.1,23c-2.8,5.5-5.4,10.6-8.4,15.6c-1,1.2-1.4,3.4-3,4
	c-0.5,0.2-1,0.1-1.5-0.1c-2-1.4,0.1-4,0.7-5.7c1-2,1.8-4,2.4-6.1c0.2-0.6,0.4-1.3,0.6-1.9c1.8-4.6,3.2-9.5,4.5-14.3
	c1.6-5.2,2.3-10.6,3.3-15.9c1.7-9.3,2.7-21.1,3.5-30.6c0.1-3.6,0-7.3,0.3-11c1.8-20.3,0.4-40.1,0.8-60.3c0-1.9,1-2.2,2.5-2.2
	c8.1,0,16.1,0,24.2,0c11.8,0,23.5,0,35.3,0c1.1-0.1,1.2,0.1,1.3-1.1c0-7-0.2-14-0.6-21c-0.1-1.5-0.2-3-0.3-4.5
	c0-1.1,0.4-1.6,0.8-1.9c0.4-0.3,1-0.5,2-0.3c4.6,1.2,9.3,5,9.2,10.1c-0.1,5.8,0.3,12.6,0.9,18c0,0.1,0.3,0.4,0.5,0.5
	c0.2,0.1,0.7,0,1,0c0,0,34.9,0,34.9,0c0.5,0,1.1,0,1.6,0.1c1,0.3,2,0.8,1.5,2.5c-0.7,2-1.9,5-5,6.6c-1.4,0.7-3.5,1.7-5.5,1.8
	c-8.9,0.2-17.6,0.1-26.4,0.1c-0.8,0-1.6,0-1.7,0.1c-0.1,0.1-0.1,0.9,0,1.6c0.2,3.8,0.4,8.2,0.6,12.5c0.1,4,0.1,7.9,0.3,11.9
	c0.5,5.7,1.2,11.4,1.4,17.2c0.7,5.7,1.5,11.3,2.3,17c0.5,2.7,1.1,5.3,1.2,8l0,0c4.3-9.3,7.8-19.1,10.6-29l0.2-0.6
	c1.5-4.7,2.5-8.6,3.3-13.8c0.3-2.5,3.4-5.5,5.9-5.9c2.6-0.5,6.5,2.6,6.3,5.3c-0.1,2.3-0.5,4.6-1,7.1c-3.6,17.3-10.3,33.7-18.9,49.3
	c-0.7,1.2-1.3,2.4-2,3.7c-0.4,0.8-0.5,1.4-0.2,2.2c0.5,1.5,1,3.1,1.4,4.5c3.2,10.7,7,19.4,14.6,27.6c0.7,0.8,1.9,1.3,3.1,1.8
	c0.3,0.1,0.6,0.2,0.9,0.4c0.5,0.2,2.2-0.5,2.9-1.5c1.7-2.4,3.5-4.8,5.2-7.1c0.1-0.2,0.2-0.4,0.4-0.6c0,0,0.1-0.2,0.2-0.3
	c0.2-0.3,0.4-0.8,0.9-0.9c1.4-0.2,2.2,1.7,2,2.8c-0.5,3.2-1.9,6.3-2.3,9.5c0,0.4,0.9,1.2,1.3,1.6C203,166.6,204.7,167,204.2,169z
	 M355,110.6c-12.3-5.1-26.5-13.7-34.9-21.7c-4.5-4.3-9.2-8.2-13.4-12.7c-0.1-0.1-0.2-0.3-0.4-0.4h6.4c9.7-0.2,19.4,0.4,29.1-0.2
	c3.6-0.9,6.2-3.2,7.7-6.6c0.6-1.3,0.6-2.4,0.1-3.1c-0.5-0.7-1.5-1.1-3-1.1c-22.5,0-45.9,0-68.5,0c-0.3,0-0.5,0-0.5,0
	c0-0.1,0-0.1,0.1-0.4c0.1-0.2,0.2-0.5,0.3-0.8c1.2-3.4,2.6-6.8,3.9-10.3c0.1-0.3,0.5-0.7,0.7-0.7c12.3-0.1,25.2,0,37.5,0
	c5.2,0,9.8-3.1,11.5-7.8c0.8-2.4-0.2-3.5-2.7-3.5c0,0-42,0-42,0c-0.4,0-1.4,0-1.5-0.1c0-0.6,0.9-1.7,0.9-2.4
	c0.6-3.2,1.3-6.5,1.8-9.6c0.2-1.2,0.2-1.2,2.2-1.1c2.7,0,8.1,0,10.9,0c8.4,0.1,16.8-0.2,25.2,0.1c5.4,1.2,12-2.7,13.5-8.3
	c0.2-0.7,0.1-1.3-0.2-1.8c-0.3-0.4-0.9-0.7-1.5-0.7c-5.2-0.1-10.4-0.2-15.7-0.2c-10.5,0.2-21.2,0.4-31.7,0.2
	c-0.2-0.1-0.6-0.4-0.6-0.6c0.1-2,0.3-4.1,0.7-6.2c0.9-3.1,0.3-6.7-3.2-8c-2.9-1-7.5-0.1-8.2,3.3c-0.5,3-0.8,6.2-1.2,10.1
	c-0.1,1.5-0.1,1.5-1.6,1.4c-2.7-0.1-5.5-0.2-8.2-0.2c-11.2,0.5-23.2,0.2-35.4,0c-3.4-0.1-2.3,3.9-1,5.6c0,0,0.3,0.5,0.3,0.5
	c1.8,2.9,4.6,4.7,7.6,4.8c9.6,0.3,19.1,0.3,28.6,0.3c2.5-0.1,5.2-0.5,7.6-0.2c0,0,0.1,0.2,0,0.5c0,0.1-0.1,0.2-0.1,0.3
	c-0.1,0.2-0.1,0.4-0.2,0.6c-0.9,3.7-1.8,7.4-2.5,11.2c-0.1,0.6-0.2,0.6-0.9,0.6c-10.7,0.1-21.4-0.2-32.1,0.1c-2.1,0.6-1.4,2-0.8,3.5
	c1.3,4.5,6.1,7.7,10.4,7.6c4.7,0,8.5,0,12,0c2.6,0.1,5.3-0.4,7.9-0.1c0,0.1,0.1,0.2,0,0.4c-1.1,3.4-2.5,6.7-4,9.9
	c-0.8,1.8-1.1,2-3.2,2c-13.1,0-26.5,0-39.5,0c-1.9,0-2.3,0.9-2.4,2.2c-0.1,1.6,0.7,2.9,1.5,4.1c2.2,3.1,4.8,4.6,7.9,4.6
	c9.7,0.1,19.2-0.2,28.8-0.1c-1.3,2.3-2.5,4.7-4,6.8c-6.2,8.9-12.4,16.7-20.5,24.8c-5,4.9-10.3,9.4-16,13.5c-1.7,1.6-6.5,3.2-4.6,6.1
	c0.7,1.1,2,0.8,2.9,0.2l0.2-0.1c4.3-2.6,8.7-4.9,12.8-7.7c5.8-4.1,11.4-8.3,17.1-12.5c0.1,0,0.1,0.1,0.2,0.1
	c5.1,4.8,10.8,10.8,14.4,15.9c1.7,2.2,5.2,3.5,7.5,2.7c3.7-1.2,5-5.3,2.6-8.4c-2-2.5-4.7-4.5-6.6-5.9c-4.6-3.2-9.3-5.9-14-8.8
	c7.7-7.8,14.9-17,20.3-26.1c0.1-0.1,0.4-0.3,0.7-0.3c9.1,0,17.2,0,24.8,0c0.2,0,0.7,0.3,0.9,0.5c4.5,7.2,10.7,16.1,16.6,21.2
	c0.6,0.6,1.4,1.2,2,1.9c0.7,0.5-0.3,0.9-0.7,1.4c-3.5,4-6.8,8-10.4,11.9c-2.6,2.8-5.5,5.3-8.2,7.9c-0.4,0.4-0.8,0.8-0.8,1.3
	c0,0-0.1,1.7,0.8,1.9c0.9,0.2,2.1,0.4,3,0.1c6.5-2.9,12.1-6,16.9-9.4c3.1-2.2,5.8-4.5,8-6.3c0.9-0.7,0.9-0.7,1.9,0
	c6.8,5.1,14.4,9.3,21.8,13.4c1.2,0.7,3.1,0.4,3.8-0.8c1.5-2.3,2.9-4.4,4.1-6.5c0.4-0.7,0.5-1.4,0.3-2
	C356.5,111.7,355.9,111.1,355,110.6z M375.6,85.6c2.3,2.8,4.9,4.2,8,4.2l34.3,0c22.4,0,44.8,0,67.2,0c2.7,0,4.7-0.5,6.3-1.8
	c2.2-1.6,4.3-3.5,4.6-6.6c0.3-2.2-0.9-3-3-3c-17.3-0.2-35,0.3-52.2-0.1c-0.1-0.1-0.2-0.2-0.1-0.8c0.1-4.2,0.1-8.4,0-12.5
	c0-0.5,0.1-0.7,0.1-0.8c0.1-0.1,0.4-0.2,0.9-0.1c9.2,0,18.4,0,27.6,0c0.5,0,1,0,1.6-0.2c3.6-1.3,6.1-3.8,7.3-7.3
	c0.4-1.2,0.1-1.9-0.2-2.4c-0.3-0.4-1-0.9-2.4-0.9l-33.6,0c-0.6,0-1.2,0-1.3-0.1c-0.2-4.5,0.1-9.2-0.1-13.8c0-0.6,0.1-0.8,0.2-0.9
	c0.1-0.1,0.5-0.2,1-0.2c11.7,0,23.6,0.1,35.5-0.1c2,0,4-1,5.8-1.8c2.5-1.2,3.7-3.4,4.6-5.4c0.4-0.9,0.8-2,0.2-2.8
	c-0.6-0.8-1.7-0.9-2.5-0.8c-3,0-6,0.1-9,0.1c-3.4,0-6.8,0.3-10.2-0.1c-5.8,0-11.8,0-17.6,0l0.2-0.2c4.5-4.7,8.9-9.6,12.5-15
	c2.8-3.7,4.9-6.8,0.1-9.9c-0.3-0.2-0.5-0.3-0.8-0.5c-2.3-1.9-5.8-0.7-7.3,1.6c-1.2,1.9-1.9,4-2.8,6.1c-1.9,5.6-4.4,10.8-7.5,15.9
	c-1.2,2.2-1.2,2.2-3.7,1.9c-6.3,0.5-12.6-0.1-19,0.1c3.2-1.1,4.4-2.4,4.7-5.1l0-0.1c-0.4-1.1-0.6-2.3-1.4-3.3
	c-3.4-4.6-7.7-8.8-13.6-13.1c-1.6-1.2-3.4-2.2-5.1-3.1c0,0-0.9-0.5-0.9-0.5c-0.7-0.3-1.9-0.4-2.4,0.2c-0.4,1-0.3,2.1,0.4,2.8
	l0.1,0.1c4.2,5,7.3,10,9.6,15.1c1.1,2.6,2.9,6.3,6,7.1c-10.8,0.3-23.4-0.3-33.8-0.1c-4.2-0.2-2.3,3.8-0.8,6c2.3,3.2,5.5,5,9,5
	c11.7,0.1,23.3,0,34.9,0c0.6,0.1,1-0.1,1.4-0.2c0.2,0.1,0.3,1,0.3,1.4c0.1,4,0.2,8.2,0.2,12.2c0,1.4,0,1.4-1.7,1.4l-33.3,0
	c-2-0.1-3.3,1-2.6,3c0.8,2.7,2.6,4.9,5.5,6.6c0.9,0.5,2,1.1,3.6,1.1c5.2,0,10.4,0,15.5,0c3.1,0,9,0,12,0c0.8,0,0.9,0.2,0.9,0.5
	c0.2,3.2-0.5,6.9-0.1,10.1c0.1,1,0.3,2.8,0,3.6c-0.3,0.2-1.6,0.1-2.2,0.1c0,0-50.6,0-50.6,0c-0.9,0-1.5,0.2-2,0.6
	c-0.6,0.6-0.6,1.4-0.5,2C373.8,82.7,374.4,84.1,375.6,85.6z M484.2,119.6c4.7-0.3,8.3-2.9,10.3-7.5c0.7-1.5,0.4-2.4,0-2.9
	c-0.4-0.5-1.1-1.1-2.8-1.1h-50.8c-0.9,0-1.1-0.1-1.2,0c0-0.2,0.3-0.9,0.4-1.2c0.6-1.4,0.7-2.8,0.9-4.3c0.1-0.8,0.2-1.5,0.3-2.3
	c0.4-1.9,0.7-3.8-0.5-5.9c-1.4-3-7.5-3.8-9.1-0.9c-0.8,1.3-1.4,2.9-1.9,4.8c-0.6,2.3-0.5,4.8-1.3,7.1c-0.2,0.6-0.4,1.2-0.4,1.8
	c-0.1,0.7-0.2,0.9-1,0.8c-11.1-0.1-22.3,0-33.4,0c0,0-6.9,0-6.9,0c-3.2,0-6.3,0-9.5,0c-0.7,0-1.4,0.2-1.8,0.7
	c-0.7,0.7-0.5,1.8-0.2,2.6c0.9,4.5,5.4,8.1,10.4,8.1c12.1,0.1,24.2,0,36.2,0c0.7,0.1,1.5-0.1,2.1-0.2c-0.8,4.7-3.9,9.4-5.9,13.3
	c-5.9,10.5-17,21.2-27.2,28.4c-7.4,5.2-15.1,9.7-23.2,13.5c-2.3,1-1.6,4.2,0.6,4.3c0.6,0,1.1-0.2,1.4-0.3c9-2.9,17.6-7,25.8-11.5
	c5.1-2.7,10-6.2,14.7-10.2c3.1-2.8,6.3-5.9,10.3-10.2c5.5-5.9,10.1-13.3,13.6-21.1c0.7-1.4,1.4-2.8,1.9-4.3c0.5-1.4,0.5-1.4,2.1-1.4
	C450.1,119.6,472.3,119.6,484.2,119.6z M289.4,91.4c-1.6-2.7-4.5-3.8-6.9-4.6c-0.9-0.3-1.6-0.2-2.1,0.1c-0.5,0.3-0.8,0.8-0.9,1.6
	c-0.2,1.3-0.3,2.7-0.3,4.3c0,16.3,0,33.5,0,49.8c0,10.6,0,22.5,0,33c0,1.2,0.3,2.1,1,2.6c0.8,0.6,1.9,0.5,3,0.3
	c4.1-1,8.2-5.8,8.2-9.8c0,0,0-44.8,0-44.8c0-9,0-18.2-0.1-27.4C291.2,94.8,290.4,93,289.4,91.4z M503.5,167.2c0-2.6-3-2.4-4.8-3.2
	c-9.6-3.5-19.3-7.9-27.2-14.3c-3.4-2.7-7-5.4-10.3-8.3c-4.3-3.7-9.6-9.8-13.5-14.5c-1.3-1.2-2.3-3.4-4.1-3.7c-1.7-0.2-2.4,1.6-1.8,3
	c2.8,6.6,6.8,12.9,10.9,18.6c3.8,5.5,8.5,10.5,14.5,15.3c2,1.7,4.2,3.3,6.4,4.6c3.3,2.1,6.7,4.3,10.2,6.1c3.9,2,8,3.7,12,5.3
	c1.5,0.7,2.8,0.4,3.7-1.3c1.4-2.5,2.7-5,3.9-7.5L503.5,167.2z M339.2,155.8c-6.2-6.6-17.1-13.1-24.9-17.1c-3.3-1.7-6.9-3.2-10.3-4.6
	c-2-0.6-5.1-3.1-6.6-0.8c-1.6,2.5,2.3,3.7,3.7,5c3.3,2.5,6.8,5,10,7.7c5.2,4.3,11.6,9.7,16.8,14.8c2.1,1.9,4.3,5,7.4,4.9
	c2.8-0.2,6.1-1.7,6.3-5.9C341.8,158.3,340.3,157,339.2,155.8z M269.9,131.9c-0.1,0.1-0.2,0.2-0.3,0.2c-10.3,7.1-17.8,12.8-30.4,18.8
	c-2.4,1.1-4.8,2.4-7.2,3.6c-2.5,1.3-2.5,3.4-2.2,5.4c0.4,2.8,2.5,4.7,5.4,4.8l0.1,0c0.2-0.1,0.5-0.1,0.8-0.2c0.9-0.1,2.2-0.8,3-1.2
	c6.5-3.5,12.5-7.9,18.2-12.6c5.3-4.8,10.8-10.1,15.3-15.7C274.4,132.8,272,129.9,269.9,131.9z M165,4.5c0,0.5,0.1,1.1,0.4,1.5
	c4.9,5.7,8.6,13.6,12,20.7c1.2,2.8,4.3,2,6.5,1.8c2.7-0.5,4.4-2.4,4.6-5.1l-0.1-0.1c-0.1-0.3-0.2-0.6-0.3-0.9
	c-0.3-0.7-0.5-1.5-1-2.1c-5-8-11.7-12.9-19.6-17c-0.5-0.3-1.1-0.2-1.7-0.1c-0.2,0-0.4,0.1-0.6,0.1l-0.7,0.1
	C164.9,3.6,165,4.1,165,4.5z M65.8,72.5c-0.8-0.4-1.6-1-2.3-1.5l4.4-3.5l-2.2-1.8c-0.6,0.7-1.2,1.5-1.8,2.2c-0.6,0.7-1.2,1.4-1.8,2
	c-0.6-0.4-1.1-0.8-1.4-1.2c-0.4-0.4-0.8-0.8-1.2-1.2c0.6-0.6,1.3-1.1,2-1.6c0.7-0.6,1.4-1.1,2.2-1.7l-2-1.8c-0.5,0.7-1,1.3-1.5,1.9
	c-0.5,0.7-1,1.3-1.5,1.9c-0.4-0.6-0.8-1.1-1.2-1.6c-0.3-0.4-0.5-1-0.8-1.8h-13v1.3h9c-0.4,0.3-0.7,0.7-0.9,1.1
	c-0.6,0.7-1.2,1.5-1.8,2.2c-0.3,0.4-0.6,0.7-0.9,1.1c-0.7-0.6-1.3-1.2-1.9-1.8c-0.5-0.6-1.2-1.1-1.9-1.5l-1.1,1.3
	c0.5,0.5,1,1.1,1.6,1.6c0.5,0.6,1,1.2,1.3,1.9c-1,0.6-1.9,1.3-2.9,1.9c-1,0.7-1.9,1.3-2.9,1.9l0.4,1.1c5.2-2.7,9.3-5.3,13.2-9.7
	c3.5,4.6,7.3,7.4,12.6,9.9l0.9-1.3C67.6,73.4,66.7,72.9,65.8,72.5z M68.4,86.6H41.7v1.6h26.7V86.6z M64.2,74.3H45.9v6.8h18.3V74.3z
	 M48.3,79.8v-4.2h13.5v4.2H48.3z M60,71.2H48.9v1.6H60V71.2z M65.2,54.6V42.4H46.1v12.2h3.2V53H62v1.5H65.2z M53.2,29.8
	c-3.1,4.2-7.6,7.6-11.1,9.1v1.5c4.1-1.5,10.5-5.1,13.5-9.2c3,4.1,9.4,7.7,13.5,9.2v-1.5c-4-1.8-9.1-6-11.9-11.2c-1.6,0-4.8,0-6.5,0
	v2.1H53.2 M49,39.6h13.3v-1.8H49V39.6z M62,51.2H49.3v-7H62V51.2z M51.5,63.5c0,0-1.8,4.9-9.6,10.1l0.7,0.6c0,0,9.3-6.6,11.4-10.1
	L51.5,63.5z M45.1,82.1h3.3v-7.7h-3.3V82.1z M61,82.1h3.3v-7.7H61V82.1z M57.5,86.2h2.2l2.6-2.9L59.4,82L57.5,86.2z M50,82l-2.8,1.3
	l2.6,2.9h2.2L50,82z"/>
</svg>
