<svg width="556" height="53" fill="none" xmlns="http://www.w3.org/2000/svg"><path d="M42.23 26.0401C42.11 26.2801 41.93 26.4601 41.69 26.5801C41.45 26.7001 41.27 26.7601 41.15 26.7601H3.61001C3.13001 26.7601 2.65001 26.8801 2.17001 27.1201C1.69001 27.2401 1.21001 27.3601 0.73001 27.4801C0.49001 27.3601 0.31001 27.0601 0.19001 26.5801L0.0100098 25.6801L0.73001 25.3201L3.62001 25.6801H19.85V21.3501H10.83V22.6101C10.83 22.8501 10.71 23.2701 10.47 23.8701L8.66001 24.2301L7.58001 23.8701L7.22001 23.1501V8.3501C7.70001 8.5901 8.24001 8.89009 8.84001 9.25009C9.32001 9.49009 9.86001 9.79009 10.46 10.1501H31.77C31.77 9.91009 32.01 9.5501 32.49 9.0701C32.97 8.5901 33.33 8.3501 33.57 8.3501C33.93 8.3501 34.53 8.71008 35.38 9.43008C36.22 10.1501 36.7 10.8701 36.82 11.6001C36.7 11.9601 36.52 12.2001 36.28 12.3201C36.04 12.5601 35.86 12.6801 35.74 12.6801C35.5 12.9201 35.38 13.1601 35.38 13.4001V22.7901C35.26 23.2701 35.02 23.5701 34.66 23.6901C34.18 23.8101 33.7 23.8701 33.22 23.8701C32.26 23.8701 31.78 23.6301 31.78 23.1501C31.66 22.7901 31.66 22.1901 31.78 21.3401H23.48V25.6701H33.95C34.19 25.1901 34.67 24.5301 35.39 23.6801C36.11 22.8401 36.71 22.4201 37.2 22.4201C40.57 24.3501 42.25 25.5501 42.25 26.0301L42.23 26.0401ZM16.96 43.0101C16.84 43.4901 16.54 43.7301 16.06 43.7301H14.8L14.08 44.0901C12.76 45.2901 10.71 46.6201 7.94001 48.0601C5.17001 49.5001 3.01001 50.3501 1.44001 50.5901L0.72001 50.2301L1.44001 49.5101C2.40001 48.9101 3.36001 48.3101 4.33001 47.7001C5.29001 47.1001 6.25001 46.5001 7.22001 45.8901C8.06001 45.1701 8.90001 44.3301 9.75001 43.3601C10.59 42.5201 11.43 41.5501 12.28 40.4701C12.28 40.2301 12.4 40.1101 12.64 40.1101C13.12 40.2301 13.9 40.5901 14.99 41.1901C16.07 41.7901 16.73 42.3901 16.97 42.9901L16.96 43.0101ZM35.73 31.8201C35.61 32.1801 35.43 32.4201 35.19 32.5401C34.95 32.7801 34.65 32.9001 34.29 32.9001V39.4001C34.17 39.7601 33.87 40.0001 33.39 40.1201C32.91 40.3601 32.49 40.4801 32.13 40.4801C31.17 40.4801 30.63 40.3001 30.51 39.9401C30.27 39.5801 30.21 39.0401 30.33 38.3101H23.47V47.7001C23.35 48.9001 22.69 49.8101 21.48 50.4101C20.4 51.0101 19.37 51.4301 18.41 51.6701C18.29 50.5901 17.93 49.8001 17.33 49.3201C16.61 48.7201 15.89 48.3001 15.16 48.0601L14.44 47.7001C14.44 47.1001 14.86 46.8601 15.7 46.9801C16.42 47.1001 16.96 47.2201 17.32 47.3401L19.12 46.9801L19.48 45.9001V38.3201H11.9C11.9 38.4401 11.84 38.6801 11.72 39.0401C11.72 39.2801 11.66 39.5201 11.54 39.7601L9.73001 40.1201H8.65001C8.41001 39.8801 8.29001 39.6401 8.29001 39.4001V28.5701C8.77001 28.8101 9.31001 29.1101 9.91001 29.4701C10.39 29.7101 10.93 30.0101 11.53 30.3701H30.32C30.44 30.1301 30.8 29.7701 31.4 29.2901C31.88 28.8101 32.24 28.5701 32.48 28.5701C32.72 28.5701 33.26 28.9301 34.1 29.6501C35.06 30.3701 35.6 31.0901 35.72 31.8201H35.73ZM31.76 15.2101V11.6001H10.83V15.2101H31.77H31.76ZM31.76 19.9001V16.2901H10.83V19.9001H31.77H31.76ZM30.32 36.8701V31.8201H11.91V36.8701H30.32ZM38.98 49.1401C38.86 49.6201 38.62 50.0401 38.26 50.4001C37.9 50.6401 37.54 50.8201 37.18 50.9401C36.22 50.7001 35.25 49.9801 34.29 48.7801C33.33 47.4601 32.61 46.3701 32.12 45.5301C31.4 44.8101 30.68 44.1501 29.95 43.5401C29.23 42.9401 28.51 42.4001 27.78 41.9201C27.54 41.9201 27.42 41.8001 27.42 41.5601L27.78 41.2001C29.46 41.3201 31.69 42.2201 34.46 43.9101C37.11 45.5901 38.61 47.3401 38.97 49.1401H38.98Z" fill="#231815"/><path d="M69.74 32.18C69.62 32.3 69.44 32.42 69.2 32.54C68.96 32.66 68.78 32.78 68.66 32.9H62.52V36.51C62.52 36.15 62.82 35.67 63.42 35.07C63.9 34.35 64.32 33.9899 64.68 33.9899C64.92 33.9899 65.58 34.41 66.66 35.25C67.74 36.09 68.4 36.75 68.64 37.23C68.64 37.47 68.52 37.6499 68.28 37.7699C68.16 37.8899 67.92 37.95 67.56 37.95H62.51V41.56C62.51 41.2 62.81 40.66 63.41 39.94C63.89 39.1 64.31 38.68 64.67 38.68C64.91 38.68 65.57 39.16 66.65 40.12C67.73 41.08 68.39 41.8 68.63 42.29C68.63 42.41 68.51 42.53 68.27 42.65C68.15 42.77 67.91 42.89 67.55 43.01H62.5V46.62C62.62 46.26 62.98 45.72 63.58 45C64.06 44.16 64.54 43.7399 65.02 43.7399C65.26 43.7399 65.98 44.22 67.19 45.18C68.39 46.14 69.11 46.86 69.36 47.34C69.24 47.46 69.06 47.58 68.82 47.7C68.58 47.82 68.4 47.94 68.28 48.06H54.2C54.2 48.54 54.14 49.08 54.02 49.68C54.02 50.16 53.96 50.7 53.84 51.31L52.03 51.67C51.55 51.67 51.13 51.55 50.77 51.31C50.41 51.19 50.23 50.95 50.23 50.59V35.79C49.87 35.91 49.33 36.21 48.61 36.69C47.77 37.17 47.23 37.47 46.99 37.59C46.75 37.47 46.57 37.41 46.45 37.41L46.27 37.23C46.51 36.99 46.63 36.75 46.63 36.51C47.95 35.43 48.98 34.22 49.7 32.9C50.42 31.46 51.08 29.8899 51.69 28.2099C51.57 27.8499 51.57 27.43 51.69 26.95C51.81 26.35 52.05 26.0499 52.41 26.0499C52.89 26.0499 53.85 26.2899 55.3 26.7699C56.74 27.3699 57.59 27.9699 57.83 28.5799C57.71 29.1799 57.29 29.48 56.57 29.48C55.97 29.48 55.55 29.6599 55.31 30.0199C55.07 30.2599 54.89 30.4999 54.77 30.7399C54.53 30.9799 54.35 31.2199 54.23 31.4599H58.92C58.8 30.8599 58.8 30.02 58.92 28.93C58.92 27.85 59.04 27.25 59.28 27.12C60.12 27 61.14 27.12 62.35 27.48C63.55 27.72 64.21 28.2 64.33 28.93C64.21 29.41 63.85 29.65 63.25 29.65C62.77 29.77 62.41 30.01 62.17 30.37L60.73 31.45H63.26C63.38 31.09 63.74 30.55 64.34 29.82C64.82 28.98 65.18 28.56 65.42 28.56C65.66 28.56 66.38 29.04 67.59 30C68.79 30.96 69.51 31.68 69.76 32.16L69.74 32.18ZM70.82 13.0499C70.7 13.1699 70.58 13.29 70.46 13.41C70.34 13.53 70.22 13.6499 70.1 13.7699H65.05C65.05 14.8499 64.93 15.64 64.69 16.12C64.45 16.72 63.73 17.0199 62.52 17.0199C61.44 16.8999 60.9 16.54 60.9 15.94C60.9 15.22 60.96 14.4999 61.08 13.7699H56.03C56.03 14.8499 55.97 15.64 55.85 16.12C55.61 16.72 54.95 17.0199 53.87 17.0199C52.79 16.8999 52.25 16.54 52.25 15.94C52.25 15.22 52.31 14.4999 52.43 13.7699H50.62C50.14 13.7699 49.66 13.83 49.18 13.95C48.58 13.95 48.1 14.01 47.74 14.13C47.5 14.01 47.32 13.71 47.2 13.23C47.08 12.75 47.02 12.4499 47.02 12.3299V11.97H47.38L52.43 12.3299C52.31 11.4899 52.25 10.53 52.25 9.43996C52.25 8.23996 52.43 7.62996 52.79 7.62996C53.39 7.50996 54.35 7.62995 55.68 7.98995C56.88 8.22995 57.6 8.70995 57.85 9.42995C57.73 9.90995 57.55 10.27 57.31 10.51C57.07 10.75 56.77 10.87 56.41 10.87L56.05 11.23V12.31H61.1C60.98 11.47 60.98 10.57 61.1 9.59996C61.1 8.51996 61.22 7.96996 61.46 7.96996C62.3 7.84996 63.38 7.90995 64.71 8.14995C65.91 8.26995 66.63 8.80995 66.88 9.76995C66.76 10.0099 66.52 10.2499 66.16 10.4899C65.8 10.7299 65.44 10.9699 65.08 11.2099V12.29H66.16C66.16 11.93 66.46 11.45 67.06 10.85C67.54 10.13 67.96 9.76995 68.32 9.76995C70 11.4499 70.85 12.5399 70.85 13.0199L70.82 13.0499ZM71.18 19.91C71.18 20.27 71.06 20.51 70.82 20.63C70.7 20.87 70.46 20.9899 70.1 20.9899L69.74 21.35V26.04C69.62 26.52 69.38 26.88 69.02 27.12C68.54 27.36 68.06 27.48 67.58 27.48C66.62 27.36 66.14 27.12 66.14 26.76C66.02 26.28 66.02 25.68 66.14 24.95H63.25C63.25 25.67 63.07 26.2099 62.71 26.5799C62.47 26.9399 61.93 27.12 61.09 27.12C60.85 27.12 60.55 27.06 60.19 26.94C59.83 26.82 59.65 26.52 59.65 26.04V20.26C59.41 20.38 59.23 20.5 59.11 20.62C58.87 20.74 58.69 20.86 58.57 20.98V25.67C58.45 26.03 58.15 26.27 57.67 26.39C57.19 26.63 56.77 26.75 56.41 26.75C55.69 26.75 55.27 26.63 55.15 26.39C54.91 26.03 54.85 25.55 54.97 24.95H51.72C51.72 25.79 51.6 26.39 51.36 26.76C51.24 27.24 50.76 27.48 49.92 27.48C49.44 27.48 49.02 27.4199 48.66 27.2999C48.3 27.1799 48.12 26.88 48.12 26.4V17.01C48.12 16.77 48.24 16.65 48.48 16.65C48.72 16.65 49.2 16.89 49.92 17.37C50.64 17.85 51.24 18.21 51.73 18.45H54.98C54.98 18.21 55.22 17.85 55.7 17.37C56.18 16.89 56.54 16.65 56.78 16.65C58.46 18.09 59.43 18.94 59.67 19.18C59.55 18.82 59.49 18.3399 59.49 17.7399C59.37 17.0199 59.43 16.66 59.67 16.66C59.91 16.66 60.45 16.9 61.29 17.38C62.01 17.86 62.55 18.2199 62.91 18.4599H66.16C66.28 18.2199 66.58 17.86 67.06 17.38C67.42 16.9 67.72 16.66 67.96 16.66C68.2 16.66 68.74 17.0199 69.58 17.7399C70.54 18.4599 71.08 19.18 71.2 19.9L71.18 19.91ZM54.94 23.5199V19.91H51.69V23.5199H54.94ZM58.55 36.88V32.91H54.22V36.88H58.55ZM58.55 41.57V37.9599H54.22V41.57H58.55ZM58.55 46.62V43.01H54.22V46.62H58.55ZM66.13 23.5199V19.91H63.24V23.5199H66.13ZM90.68 12.69C90.56 13.29 90.2 13.6499 89.6 13.7699C88.88 13.7699 88.52 14.13 88.52 14.85V36.51L88.16 37.23L86.35 37.59H85.27C84.91 37.11 84.73 36.63 84.73 36.15C84.73 35.55 84.79 35.0699 84.91 34.7099H84.19V47.7H84.91C86.35 47.46 87.08 46.86 87.08 45.89C87.2 44.81 87.56 44.21 88.16 44.09C88.64 44.09 88.88 44.27 88.88 44.63V45.89C88.88 46.97 89.12 47.57 89.6 47.7C89.96 47.82 90.2 48.3 90.32 49.14C90.08 50.1 89.36 50.77 88.15 51.13C86.83 51.49 85.74 51.67 84.9 51.67C83.22 51.67 82.01 51.31 81.29 50.59C80.45 49.99 80.09 48.91 80.21 47.34V34.7099H79.49C79.49 38.0799 79.01 41.21 78.05 44.1C76.97 46.87 74.68 49.03 71.19 50.6C70.47 50.72 69.63 50.96 68.66 51.32C67.58 51.68 66.74 51.92 66.13 52.04C65.89 51.92 65.71 51.8 65.59 51.68C65.47 51.56 65.41 51.44 65.41 51.32C65.41 51.08 65.47 50.9599 65.59 50.9599C65.71 50.8399 65.89 50.72 66.13 50.6C67.57 50 68.96 49.3399 70.28 48.6099C71.6 47.8899 72.75 46.87 73.71 45.54C74.55 43.86 75.09 42.05 75.33 40.12C75.69 38.31 75.87 36.5099 75.87 34.7099H75.15C75.15 35.5499 75.09 36.21 74.97 36.7C74.85 37.18 74.31 37.48 73.35 37.6C72.87 37.6 72.45 37.4799 72.09 37.2399C71.73 36.9999 71.55 36.64 71.55 36.16V9.44997L71.91 9.08995C72.39 9.20995 72.93 9.50995 73.53 9.98995C74.01 10.3499 74.55 10.77 75.15 11.25H84.9C85.02 10.89 85.38 10.41 85.98 9.80996C86.46 9.08996 86.94 8.72997 87.42 8.72997C87.66 8.72997 88.2 9.20997 89.04 10.17C90 11.13 90.54 11.98 90.66 12.7L90.68 12.69ZM84.9 18.47V12.3299H76.24L75.16 12.69V18.47H84.91H84.9ZM84.9 26.0499V19.91H75.15V26.0499H84.9ZM84.9 33.63V27.4899H75.15V33.63H84.9Z" fill="#231815"/><path d="M122.38 43.3802L119.36 51.6702H93.9399V50.4902C101.42 43.6702 106.68 38.1002 109.73 33.7802C112.78 29.4602 114.3 25.5102 114.3 21.9302C114.3 19.2002 113.46 16.9502 111.79 15.1902C110.12 13.4302 108.11 12.5502 105.79 12.5502C103.67 12.5502 101.77 13.1702 100.09 14.4102C98.4099 15.6502 97.1599 17.4702 96.3599 19.8602H95.1799C95.7099 15.9402 97.0699 12.9302 99.2599 10.8402C101.45 8.74018 104.19 7.7002 107.47 7.7002C110.97 7.7002 113.88 8.82019 116.22 11.0702C118.56 13.3102 119.73 15.9602 119.73 19.0102C119.73 21.1902 119.22 23.3702 118.21 25.5602C116.64 28.9902 114.1 32.6202 110.59 36.4602C105.32 42.2202 102.02 45.7002 100.71 46.8802H111.96C114.25 46.8802 115.85 46.7902 116.77 46.6302C117.69 46.4602 118.52 46.1202 119.26 45.6002C120 45.0802 120.65 44.3402 121.2 43.3902H122.38V43.3802Z" fill="#231815"/><path d="M129.35 34.6699H145.77V39.4699H129.35V34.6699Z" fill="#231815"/><path d="M153.31 16.7902C154.54 13.8902 156.09 11.6502 157.96 10.0702C159.83 8.49019 162.17 7.7002 164.96 7.7002C168.41 7.7002 171.06 8.82019 172.9 11.0702C174.3 12.7402 175 14.5302 175 16.4402C175 19.5702 173.03 22.8102 169.09 26.1602C171.74 27.2002 173.74 28.6802 175.09 30.6102C176.45 32.5402 177.12 34.8002 177.12 37.4102C177.12 41.1402 175.93 44.3702 173.56 47.1002C170.47 50.6602 165.99 52.4402 160.12 52.4402C157.22 52.4402 155.24 52.0802 154.19 51.3602C153.14 50.6402 152.62 49.8702 152.62 49.0402C152.62 48.4302 152.87 47.8902 153.37 47.4202C153.87 46.9502 154.47 46.7202 155.16 46.7202C155.69 46.7202 156.23 46.8102 156.78 46.9702C157.14 47.0802 157.96 47.4602 159.23 48.1302C160.5 48.8002 161.38 49.1902 161.87 49.3202C162.65 49.5502 163.49 49.6702 164.38 49.6702C166.54 49.6702 168.42 48.8302 170.02 47.1602C171.62 45.4902 172.42 43.5102 172.42 41.2202C172.42 39.5502 172.05 37.9202 171.31 36.3302C170.76 35.1402 170.16 34.2402 169.5 33.6302C168.59 32.7802 167.34 32.0102 165.75 31.3302C164.16 30.6402 162.54 30.3002 160.89 30.3002H159.87V29.3502C161.54 29.1402 163.22 28.5402 164.91 27.5402C166.59 26.5402 167.82 25.3502 168.58 23.9502C169.34 22.5502 169.72 21.0202 169.72 19.3402C169.72 17.1602 169.04 15.4002 167.67 14.0502C166.3 12.7102 164.6 12.0302 162.57 12.0302C159.29 12.0302 156.54 13.7902 154.34 17.3002L153.29 16.7902H153.31Z" fill="#231815"/><path d="M226.03 18.0999C225.91 18.3399 225.73 18.5199 225.49 18.6399C225.25 18.7599 224.95 18.9399 224.59 19.1799C224.35 19.5399 224.29 20.6199 224.41 22.4299C224.41 24.2399 224.47 25.4399 224.59 26.0399C224.47 26.5199 224.17 26.8799 223.69 27.1199C223.21 27.3599 222.79 27.4799 222.43 27.4799C221.35 27.3599 220.75 27.1199 220.62 26.7599C220.5 26.2799 220.5 25.6799 220.62 24.9499H195.71C195.59 28.3199 195.29 31.6899 194.81 35.0599C194.33 38.4299 193.31 41.7999 191.74 45.1699C191.26 46.1299 190.6 47.2099 189.75 48.4199C188.91 49.6199 188.13 50.4599 187.4 50.9499L187.04 51.3099C186.8 51.0699 186.56 50.9499 186.32 50.9499V50.5899L186.68 50.2299C189.21 45.4199 190.77 40.5399 191.37 35.6099C191.85 30.5599 192.09 25.4399 192.09 20.2699V13.7699C191.97 13.0499 191.91 12.2099 191.91 11.2399C191.91 10.2699 192.09 9.79987 192.45 9.79987C192.93 9.91987 193.53 10.2199 194.26 10.6999C194.86 11.0599 195.46 11.4799 196.06 11.9599C198.23 11.8399 200.33 11.6599 202.38 11.4199C204.55 11.1799 206.65 10.8799 208.7 10.5199C210.38 10.2799 212.19 9.97987 214.11 9.61987C216.16 9.13987 217.96 8.59987 219.52 7.98987L220.24 7.62988H220.6C220.96 7.98988 221.56 8.52989 222.41 9.25989C223.25 9.97989 223.73 10.6399 223.85 11.2499C223.85 11.6099 223.73 11.8499 223.49 11.9699C223.37 12.2099 223.13 12.3299 222.77 12.3299C222.29 12.2099 221.93 12.0899 221.69 11.9699C221.33 11.7299 221.09 11.6099 220.97 11.6099L220.61 11.9699C217.48 12.3299 214.47 12.6299 211.59 12.8699C208.58 13.1099 205.57 13.2899 202.57 13.4099L195.71 13.0499L196.07 16.2999L196.79 16.6599H220.61C220.73 16.2999 221.09 15.8799 221.69 15.3999C222.17 14.7999 222.53 14.4999 222.77 14.4999C223.01 14.4999 223.55 14.9199 224.39 15.7599C225.35 16.5999 225.89 17.3799 226.01 18.1099L226.03 18.0999ZM228.56 31.4599C228.44 31.5799 228.26 31.6999 228.02 31.8199C227.78 31.9399 227.6 32.0599 227.48 32.1799H209.79C209.55 32.8999 209.43 33.6199 209.43 34.3499C209.31 35.0699 209.19 35.7899 209.07 36.5199H219.18C219.3 36.1599 219.72 35.6799 220.44 35.0799C221.04 34.3599 221.58 33.9999 222.06 33.9999C222.18 33.9999 222.78 34.4799 223.86 35.4399C224.82 36.3999 225.42 37.2499 225.67 37.9699C225.55 38.6899 225.19 39.1099 224.59 39.2299C224.11 39.2299 223.75 39.4099 223.51 39.7699C223.27 43.0199 222.73 45.6699 221.89 47.7099C221.05 49.7599 218.82 51.0799 215.21 51.6799C215.21 50.5999 214.97 49.7499 214.49 49.1499C214.13 48.6699 213.53 48.1899 212.69 47.7099C212.45 47.7099 212.27 47.6499 212.15 47.5299C212.03 47.5299 211.97 47.4699 211.97 47.3499C211.97 47.1099 212.03 46.9299 212.15 46.8099C212.27 46.6899 212.45 46.6299 212.69 46.6299C213.17 46.6299 213.71 46.6899 214.31 46.8099C214.79 46.8099 215.33 46.8699 215.93 46.9899C217.61 46.7499 218.64 45.5499 219 43.3799C219.36 41.2199 219.54 39.4099 219.54 37.9699H208.71C207.87 40.4999 206.78 42.7199 205.46 44.6499C204.26 46.5699 202.45 48.1999 200.05 49.5199C199.33 49.8799 198.43 50.2999 197.34 50.7799C196.26 51.2599 195.35 51.5599 194.63 51.6799L193.91 51.3199C193.91 51.0799 193.97 50.8999 194.09 50.7799C194.09 50.6599 194.15 50.5999 194.27 50.5999C195.11 50.2399 195.89 49.8199 196.62 49.3399C197.34 48.9799 198 48.5599 198.61 48.0799C201.26 45.9099 203.06 43.5099 204.02 40.8599C205.1 38.2099 205.7 35.3299 205.83 32.1999H200.42C199.94 32.1999 199.46 32.2599 198.98 32.3799C198.5 32.3799 198.02 32.4399 197.54 32.5599C197.3 32.4399 197.12 32.1399 197 31.6599C196.88 31.1799 196.82 30.8799 196.82 30.7599L197.54 30.3999C197.9 30.5199 198.32 30.6399 198.8 30.7599C199.28 30.8799 199.82 30.9999 200.42 31.1199H208C207.88 30.3999 207.88 29.3099 208 27.8699C208 26.5499 208.12 25.8299 208.36 25.7099C209.2 25.8299 210.35 26.0099 211.79 26.2499C213.11 26.3699 213.89 26.9099 214.14 27.8699C214.02 28.4699 213.66 28.8299 213.06 28.9499C212.34 29.0699 211.98 29.3099 211.98 29.6699V31.1099H220.28L223.17 27.4999H223.89C224.13 27.8599 224.91 28.5199 226.24 29.4899C227.56 30.3299 228.35 30.9899 228.59 31.4699L228.56 31.4599ZM220.62 23.5199V17.7399H196.8L196.08 18.0999L195.72 23.5099H220.63L220.62 23.5199Z" fill="#231815"/><path d="M266.47 22.74C269.87 25.31 272.23 27.71 273.55 29.92C274.87 32.14 275.53 34.68 275.53 37.54C275.53 41.56 274.06 44.96 271.12 47.74C268.18 50.52 264.19 51.91 259.15 51.91C254.37 51.91 250.67 50.7 248.06 48.27C245.44 45.84 244.14 42.88 244.14 39.38C244.14 36.71 244.89 34.37 246.41 32.36C247.92 30.35 250.43 28.51 253.95 26.85C250.12 23.84 247.67 21.38 246.58 19.46C245.5 17.55 244.96 15.33 244.96 12.81C244.96 9.47997 246.33 6.53998 249.08 4.00998C251.83 1.46998 255.59 0.209961 260.37 0.209961C265.15 0.209961 268.53 1.32998 271.02 3.56998C273.5 5.80998 274.75 8.49998 274.75 11.64C274.75 13.99 274.08 16.07 272.73 17.87C271.39 19.67 269.3 21.29 266.47 22.74ZM256.63 28.62C255.89 29.31 255.37 29.93 255.06 30.49C254.58 31.35 254.16 32.6 253.78 34.24C253.4 35.88 253.21 37.6 253.21 39.38C253.21 41.68 253.5 43.61 254.07 45.17C254.64 46.73 255.45 47.85 256.51 48.53C257.57 49.22 258.66 49.56 259.77 49.56C261.51 49.56 262.97 48.91 264.16 47.59C265.35 46.28 265.94 44.48 265.94 42.21C265.94 37.46 262.84 32.93 256.63 28.61V28.62ZM263.76 20.87C264.64 19.65 265.29 18.27 265.72 16.76C266.15 15.24 266.36 13.57 266.36 11.76C266.36 8.57998 265.69 6.13998 264.36 4.44998C263.36 3.14998 261.98 2.49997 260.22 2.49997C258.63 2.49997 257.27 3.08997 256.15 4.27997C255.03 5.46997 254.47 6.93996 254.47 8.70996C254.47 10.48 255.09 12.35 256.34 14.28C257.59 16.2 260.05 18.4 263.74 20.88L263.76 20.87Z" fill="#E95513"/><path d="M308.35 50.8898H279.89V50.0798C288.62 39.3698 293.91 32.1698 295.78 28.4698C297.65 24.7698 298.58 21.1598 298.58 17.6298C298.58 15.0598 297.81 12.9198 296.26 11.2198C294.71 9.51979 292.82 8.6698 290.59 8.6698C286.93 8.6698 284.09 10.5598 282.07 14.3298L280.75 13.8498C282.03 9.14979 283.98 5.66979 286.6 3.40979C289.22 1.15979 292.24 0.0297852 295.66 0.0297852C298.11 0.0297852 300.34 0.619795 302.37 1.78979C304.39 2.96979 305.97 4.57978 307.11 6.61978C308.25 8.66978 308.82 10.5798 308.82 12.3698C308.82 15.6298 307.94 18.9398 306.18 22.2898C303.78 26.8198 298.53 33.1398 290.45 41.2498H300.9C303.47 41.2498 305.14 41.1398 305.91 40.9198C306.68 40.6998 307.32 40.3298 307.82 39.7998C308.32 39.2698 308.97 38.1598 309.78 36.4698H311.06L308.35 50.8798V50.8898Z" fill="#E95513"/><path d="M316.87 51.92V50.89C320.82 49.96 324.16 48.59 326.91 46.77C329.66 44.96 331.83 42.72 333.44 40.05C335.04 37.38 336.17 34.31 336.81 30.83C335.34 31.61 334.08 32.16 333.05 32.47C332.02 32.78 330.93 32.93 329.79 32.93C326.13 32.93 323.08 31.57 320.64 28.85C318.2 26.13 316.98 22.41 316.98 17.68C316.98 14.4 317.64 11.39 318.96 8.66003C320.28 5.93003 322.16 3.81002 324.61 2.30002C327.06 0.790018 329.6 0.0400391 332.24 0.0400391C335.07 0.0400391 337.74 0.870039 340.27 2.54004C342.79 4.21004 344.8 6.62003 346.3 9.78003C347.8 12.94 348.55 16.54 348.55 20.58C348.55 25.82 347.33 30.85 344.89 35.65C342.45 40.45 338.82 44.3 333.99 47.21C329.16 50.11 323.46 51.69 316.87 51.93V51.92ZM337.34 27.74C337.58 25 337.7 22.58 337.7 20.5C337.7 16.04 337.2 11.89 336.2 8.04004C335.63 5.91004 334.78 4.34003 333.67 3.34003C333.08 2.80003 332.3 2.53003 331.35 2.53003C330.16 2.53003 329.23 3.06002 328.57 4.11002C327.64 5.56002 327.18 8.31004 327.18 12.38C327.18 19.17 327.96 23.84 329.53 26.42C330.55 28.09 331.93 28.92 333.67 28.92C334.6 28.92 335.82 28.53 337.34 27.74Z" fill="#E95513"/><path d="M381.4 50.8898H352.94V50.0798C361.67 39.3698 366.96 32.1698 368.83 28.4698C370.7 24.7698 371.63 21.1598 371.63 17.6298C371.63 15.0598 370.86 12.9198 369.31 11.2198C367.76 9.51979 365.87 8.6698 363.64 8.6698C359.98 8.6698 357.14 10.5598 355.12 14.3298L353.8 13.8498C355.08 9.14979 357.03 5.66979 359.65 3.40979C362.27 1.15979 365.29 0.0297852 368.71 0.0297852C371.16 0.0297852 373.39 0.619795 375.42 1.78979C377.44 2.96979 379.02 4.57978 380.16 6.61978C381.3 8.66978 381.87 10.5798 381.87 12.3698C381.87 15.6298 380.99 18.9398 379.23 22.2898C376.83 26.8198 371.58 33.1398 363.5 41.2498H373.95C376.52 41.2498 378.19 41.1398 378.96 40.9198C379.73 40.6998 380.37 40.3298 380.87 39.7998C381.37 39.2698 382.02 38.1598 382.83 36.4698H384.11L381.4 50.8798V50.8898Z" fill="#E95513"/><path d="M410.25 37.4H389.46V29.79H410.25V37.4Z" fill="#E95513"/><path d="M442.25 50.8898H413.79V50.0798C422.52 39.3698 427.81 32.1698 429.68 28.4698C431.55 24.7698 432.48 21.1598 432.48 17.6298C432.48 15.0598 431.71 12.9198 430.16 11.2198C428.61 9.51979 426.72 8.6698 424.49 8.6698C420.83 8.6698 417.99 10.5598 415.97 14.3298L414.65 13.8498C415.93 9.14979 417.88 5.66979 420.5 3.40979C423.12 1.15979 426.14 0.0297852 429.56 0.0297852C432.01 0.0297852 434.24 0.619795 436.27 1.78979C438.29 2.96979 439.87 4.57978 441.01 6.61978C442.15 8.66978 442.72 10.5798 442.72 12.3698C442.72 15.6298 441.84 18.9398 440.08 22.2898C437.68 26.8198 432.44 33.1398 424.35 41.2498H434.8C437.37 41.2498 439.04 41.1398 439.81 40.9198C440.58 40.6998 441.22 40.3298 441.72 39.7998C442.22 39.2698 442.87 38.1598 443.68 36.4698H444.96L442.25 50.8798V50.8898Z" fill="#E95513"/><path d="M478.77 50.8898H450.31V50.0798C459.04 39.3698 464.33 32.1698 466.2 28.4698C468.07 24.7698 469 21.1598 469 17.6298C469 15.0598 468.23 12.9198 466.68 11.2198C465.13 9.51979 463.24 8.6698 461.01 8.6698C457.35 8.6698 454.51 10.5598 452.49 14.3298L451.17 13.8498C452.45 9.14979 454.4 5.66979 457.02 3.40979C459.64 1.15979 462.66 0.0297852 466.08 0.0297852C468.53 0.0297852 470.76 0.619795 472.79 1.78979C474.81 2.96979 476.39 4.57978 477.53 6.61978C478.67 8.66978 479.24 10.5798 479.24 12.3698C479.24 15.6298 478.36 18.9398 476.6 22.2898C474.2 26.8198 468.95 33.1398 460.87 41.2498H471.32C473.89 41.2498 475.56 41.1398 476.33 40.9198C477.1 40.6998 477.74 40.3298 478.24 39.7998C478.74 39.2698 479.39 38.1598 480.2 36.4698H481.48L478.77 50.8798V50.8898Z" fill="#E95513"/><path d="M487.29 51.92V50.89C491.24 49.96 494.58 48.59 497.33 46.77C500.08 44.96 502.25 42.72 503.86 40.05C505.46 37.38 506.59 34.31 507.23 30.83C505.76 31.61 504.5 32.16 503.47 32.47C502.44 32.78 501.35 32.93 500.21 32.93C496.55 32.93 493.5 31.57 491.06 28.85C488.62 26.13 487.4 22.41 487.4 17.68C487.4 14.4 488.06 11.39 489.38 8.66003C490.7 5.93003 492.58 3.81002 495.03 2.30002C497.48 0.790018 500.02 0.0400391 502.66 0.0400391C505.49 0.0400391 508.16 0.870039 510.69 2.54004C513.21 4.21004 515.22 6.62003 516.72 9.78003C518.22 12.94 518.97 16.54 518.97 20.58C518.97 25.82 517.75 30.85 515.31 35.65C512.87 40.45 509.24 44.3 504.41 47.21C499.58 50.11 493.88 51.69 487.29 51.93V51.92ZM507.76 27.74C508 25 508.12 22.58 508.12 20.5C508.12 16.04 507.62 11.89 506.62 8.04004C506.05 5.91004 505.2 4.34003 504.09 3.34003C503.5 2.80003 502.72 2.53003 501.77 2.53003C500.58 2.53003 499.65 3.06002 498.99 4.11002C498.06 5.56002 497.6 8.31004 497.6 12.38C497.6 19.17 498.38 23.84 499.95 26.42C500.97 28.09 502.35 28.92 504.09 28.92C505.02 28.92 506.24 28.53 507.76 27.74Z" fill="#E95513"/><path d="M523.82 51.92V50.89C527.77 49.96 531.11 48.59 533.86 46.77C536.61 44.96 538.78 42.72 540.39 40.05C541.99 37.38 543.12 34.31 543.76 30.83C542.29 31.61 541.03 32.16 540 32.47C538.97 32.78 537.88 32.93 536.74 32.93C533.08 32.93 530.03 31.57 527.59 28.85C525.15 26.13 523.93 22.41 523.93 17.68C523.93 14.4 524.59 11.39 525.91 8.66003C527.23 5.93003 529.11 3.81002 531.56 2.30002C534.01 0.790018 536.55 0.0400391 539.19 0.0400391C542.02 0.0400391 544.69 0.870039 547.22 2.54004C549.74 4.21004 551.75 6.62003 553.25 9.78003C554.75 12.94 555.5 16.54 555.5 20.58C555.5 25.82 554.28 30.85 551.84 35.65C549.4 40.45 545.77 44.3 540.94 47.21C536.11 50.11 530.41 51.69 523.82 51.93V51.92ZM544.29 27.74C544.53 25 544.65 22.58 544.65 20.5C544.65 16.04 544.15 11.89 543.15 8.04004C542.58 5.91004 541.73 4.34003 540.62 3.34003C540.03 2.80003 539.25 2.53003 538.3 2.53003C537.11 2.53003 536.18 3.06002 535.52 4.11002C534.59 5.56002 534.13 8.31004 534.13 12.38C534.13 19.17 534.91 23.84 536.48 26.42C537.5 28.09 538.88 28.92 540.62 28.92C541.55 28.92 542.77 28.53 544.29 27.74Z" fill="#E95513"/></svg>