<svg viewBox="0 0 385 143" fill="#fff" xmlns="http://www.w3.org/2000/svg">
<path d="M0,55.3h16.6L38,115.7l21.7-60.4h16.6l-30.6,85H30.1L0,55.3z M88.2,55.3h16.1v85H88.2V55.3z M167.1,66.9
	l-12,10.6c-6.4-12-24.9-11.2-18.6,0.8c1,2,21.4,18.7,23.1,20.7c11,9.7,12.4,26.8,1.8,36.7c-14.2,12.9-38.8,7-46.2-11.6l13.6-8.2
	c5.2,12.5,21.1,16.1,24,3.2c-0.9-6.9-4.6-8.3-11.6-14.6c-9.3-7.5-15.3-13.4-18-17.5c-10.9-14.7,1.8-34.5,19.3-33.8
	C153.1,53.4,159.3,58,167.1,66.9L167.1,66.9z M182.8,55.3h16.1v85h-16.1V55.3z M257.2,53.2c58,1.5,58.6,88,0.1,89.3
	C198.5,141.2,198.5,54.8,257.2,53.2L257.2,53.2z M257.1,69c-37.1,0.1-36.8,57.9,0.3,57.8C294.1,126.4,293.8,69.3,257.1,69z
	 M316.6,55.3h15.5l36.4,56v-56h16.2v85h-15.6l-36.3-55.8v55.8h-16.2V55.3z M135.5,6.9l-4.9,4.8c-7.4-9-23.7-4.8-23.5,7.3
	c-0.7,11.9,18.1,18.1,23.1,6.4h-10.6v-6.5h18.3c2.2,19.7-26.4,26.6-35.3,9.9C90.9,7.9,120.2-10.6,135.5,6.9L135.5,6.9z M144.5,0.9
	h6.9v29.8h10.1v6.6h-17L144.5,0.9L144.5,0.9z M184,0c24.7,0.3,25,38.1,0,38.3C159.1,38.4,159.1,0,184,0z M184,6.8
	c-15.7-0.4-15.6,25.3,0.1,24.8C199.7,31.8,199.5,6.4,184,6.8L184,6.8z M209.4,37.4V0.9c3.4,0,10.7-0.2,13,0.6
	c7.3,1.5,9.9,11.5,3.4,15.7c8.4,3.1,8.3,15.2,0.7,18.8C223.3,38.1,213.5,37.2,209.4,37.4z M216.4,7.5v7.7
	C225,16.4,225.1,6.2,216.4,7.5L216.4,7.5z M216.4,21.4v9.3C228.9,32.4,228.2,20.1,216.4,21.4z M250,0.9h7l14,36.4h-7.2l-2.9-7.5
	h-14.9l-3,7.5h-7.2L250,0.9z M253.5,10.6l-4.9,12.5h9.8L253.5,10.6z M276.4,0.9h6.9v29.8h10.1v6.6h-17L276.4,0.9L276.4,0.9z"/>
</svg>
