<svg width="1413" height="172" viewBox="0 0 1413 172" fill="none" xmlns="http://www.w3.org/2000/svg">
<path d="M274.185 85.1671C254.725 53.9062 250.53 94.8797 229.969 73.2284C225.671 67.976 223.871 61.1867 221.817 54.7222C217.622 41.4843 211.929 28.7137 204.879 16.7433C194.832 -3.56118 175.833 -4.93172 160.124 10.873C135.328 35.5743 125.479 89.857 81.4695 84.6918C71.161 82.7826 62.1132 75.7794 51.646 75.106C23.2498 74.3771 13.3536 107.642 0 127.131H295C288.958 112.72 282.003 98.6982 274.185 85.175V85.1671Z" fill="url(#paint0_linear_2026_382)"/>
<path d="M516.69 158.727C507.67 153.117 497.973 146.592 487.414 147.875C482.857 148.429 478.522 150.443 473.93 150.492C464.654 150.599 457.367 142.975 451.349 135.946C441.517 124.478 431.684 113.003 421.859 101.535C417.41 96.3432 412.861 91.0666 407.036 87.4637C401.21 83.8609 393.795 82.1375 387.399 84.5985C378.059 88.1942 372.455 99.8184 362.451 100.379C351.599 100.989 345.381 88.6127 336.59 82.258C326.087 74.6622 311.007 76.1232 299.777 82.6056C288.547 89.0879 280.405 99.6979 273.039 110.329C265.674 120.96 258.601 132.081 248.64 140.365C242.765 145.244 230.572 156.478 219 164.131H527C523.399 162.663 519.913 160.727 516.69 158.727Z" fill="url(#paint1_linear_2026_382)"/>
<path d="M1383.55 96.3975C1379.26 95.842 1375.09 98.4112 1370.77 98.1971C1364.04 97.8673 1359.54 91.2589 1356.29 85.3044C1353.03 79.3499 1348.95 72.6142 1342.27 71.6941C1336.86 70.9476 1331.36 74.4254 1326.09 73.0135C1318 70.6467 1316.6 60.8788 1313.26 54.2356C1306.58 40.5675 1288 35.6661 1275.55 44.2999C1255.6 57.3315 1255.93 101.721 1224.82 95.4485C1219.53 93.7067 1215.36 89.3319 1210.01 87.7753C1193.15 84.2454 1173.58 110.818 1162 124H1413C1406.35 117.374 1390.09 97.2365 1383.55 96.3917L1383.55 96.3975Z" fill="url(#paint2_linear_2026_382)"/>
<path d="M993 172C1005.28 153.429 1027.07 126.079 1043.82 127.024C1063.27 128.122 1079.82 156.256 1099.24 153.859C1114.03 152.033 1127.78 132.465 1142.11 138.67C1149.9 142.04 1156.31 152.749 1164.37 153.284C1172.61 153.831 1179.57 143.564 1187.56 140.23C1200.41 134.87 1222.13 159.602 1233 172H993Z" fill="url(#paint3_linear_2026_382)"/>
<defs>
<linearGradient id="paint0_linear_2026_382" x1="147.5" y1="2.24577" x2="147.5" y2="187.355" gradientUnits="userSpaceOnUse">
<stop offset="0.02" stop-color="#CC742E"/>
<stop offset="0.11" stop-color="#CB742E" stop-opacity="0.98"/>
<stop offset="0.2" stop-color="#CB742E" stop-opacity="0.92"/>
<stop offset="0.29" stop-color="#CB742E" stop-opacity="0.82"/>
<stop offset="0.38" stop-color="#CB742F" stop-opacity="0.68"/>
<stop offset="0.47" stop-color="#CA7530" stop-opacity="0.51"/>
<stop offset="0.56" stop-color="#C97631" stop-opacity="0.29"/>
<stop offset="0.65" stop-color="#C97632" stop-opacity="0.03"/>
<stop offset="0.66" stop-color="#C97733" stop-opacity="0"/>
</linearGradient>
<linearGradient id="paint1_linear_2026_382" x1="372.996" y1="71.0665" x2="372.996" y2="212.755" gradientUnits="userSpaceOnUse">
<stop offset="0.11" stop-color="#096E63"/>
<stop offset="0.21" stop-color="#096E63" stop-opacity="0.96"/>
<stop offset="0.31" stop-color="#096E63" stop-opacity="0.85"/>
<stop offset="0.42" stop-color="#096E63" stop-opacity="0.65"/>
<stop offset="0.54" stop-color="#096E63" stop-opacity="0.38"/>
<stop offset="0.65" stop-color="#096E63" stop-opacity="0.04"/>
<stop offset="0.66" stop-color="#096E63" stop-opacity="0"/>
</linearGradient>
<linearGradient id="paint2_linear_2026_382" x1="1285.86" y1="19.7585" x2="1288.78" y2="202.079" gradientUnits="userSpaceOnUse">
<stop offset="0.2" stop-color="#096E63"/>
<stop offset="0.22" stop-color="#096E63" stop-opacity="0.94"/>
<stop offset="0.38" stop-color="#096E63" stop-opacity="0.43"/>
<stop offset="0.5" stop-color="#096E63" stop-opacity="0.12"/>
<stop offset="0.56" stop-color="#096E63" stop-opacity="0"/>
</linearGradient>
<linearGradient id="paint3_linear_2026_382" x1="1113" y1="124.482" x2="1113" y2="187.475" gradientUnits="userSpaceOnUse">
<stop offset="0.15" stop-color="#CC742E"/>
<stop offset="0.23" stop-color="#CB742E" stop-opacity="0.98"/>
<stop offset="0.31" stop-color="#CB742E" stop-opacity="0.92"/>
<stop offset="0.39" stop-color="#CB742E" stop-opacity="0.82"/>
<stop offset="0.47" stop-color="#CB742F" stop-opacity="0.68"/>
<stop offset="0.56" stop-color="#CA7530" stop-opacity="0.5"/>
<stop offset="0.64" stop-color="#C97631" stop-opacity="0.27"/>
<stop offset="0.72" stop-color="#C97733" stop-opacity="0"/>
</linearGradient>
</defs>
</svg>
