<svg viewBox="0 0 500 150" fill="#FFF" xmlns="http://www.w3.org/2000/svg"><path d="M82.8,17.1L71.5,27.9c-18.1-21.8-55-12.7-54.9,16.7c-0.7,29.7,36.9,38.8,54.9,17l11,11.5
	C55,104.3-1,88.2,0.5,44.5C-0.5,1,56.7-14.9,82.8,17.1z M96.9,2.1h16.4v32.1h28.4V2.1h16.4v85h-16.4V49.9h-28.4v37.3H96.9V2.1z
	 M203.4,2.1h16.4l32.7,85h-16.8l-6.7-17.5h-34.7l-6.9,17.5h-16.8L203.4,2.1z M211.7,24.7l-11.4,29.2h22.7L211.7,24.7L211.7,24.7z
	 M265.1,2.1h15.5L317,58.1V2.1h16.2v85h-15.6l-36.3-55.8v55.8h-16.2V2.1z M431.1,16l-11.4,11.3c-17.6-20.9-55-11.4-54.7,17.1
	c-1.7,27.8,42.2,42.1,53.9,14.8h-24.6V44h42.8c3.7,47-60,62-82.2,23.1C327.9,17,393.9-24.4,431.1,16L431.1,16z M452.1,2.1h46.4V18
	h-30.3v15.4h30.3v15.5h-30.3v22.4h30.3v15.9h-46.4V2.1z M235.7,111.7h6.9v36.4h-6.9V111.7z M269.5,116.7l-5.1,4.5
	c-2.2-4.8-10.5-5.2-8,0.3c2.5,3.1,11.5,9,12.9,12.9c3.2,7.1-2.4,15-10.3,14.6c-5.6,0-9.1-2.8-11.7-7.9l5.8-3.5
	c2.2,5.3,9,6.9,10.3,1.4c-0.6-4.7-11.5-10.6-12.6-13.8C243.1,112.5,262.4,105.3,269.5,116.7z M324.4,118.1l-4.9,4.6
	c-7.6-9.4-23.7-5.3-23.5,7.1c-0.4,12.6,16,16.7,23.5,7.3l4.7,4.9c-11.6,13.4-36,6.4-35.1-12.2C288.3,111.5,313.6,104.3,324.4,118.1z
	 M330.5,111.7h7v13.8h12.2v-13.8h7v36.4h-7v-16h-12.2v16h-7V111.7z M376.1,111.7h7l14,36.4h-7.2l-2.9-7.5h-14.9l-3,7.5h-7.2
	L376.1,111.7z M379.7,121.4l-4.9,12.5h9.8L379.7,121.4z M402.5,111.7h6.6l15.6,24v-24h6.9v36.4H425l-15.6-23.9v23.9h-6.9V111.7z
	 M473.5,118.1l-4.9,4.6c-7.6-9.4-23.7-5.3-23.5,7.1c-0.4,12.6,16,16.7,23.5,7.3l4.7,4.9c-11.6,13.4-36,6.4-35.1-12.2
	C437.4,111.5,462.8,104.3,473.5,118.1z M479.6,111.7h19.9v6.8h-13v6.6h13v6.7h-13v9.6h13v6.8h-19.9V111.7z"/></svg>