<svg width="545" height="180" fill="none" xmlns="http://www.w3.org/2000/svg"><path d="M358.32 74.9396C359.62 76.3596 360.58 77.6196 361.67 78.7196C365.17 82.2296 368.67 85.7196 372.15 89.2096C378.59 95.6396 385.99 100.82 393.71 105.46C397.37 107.69 401.35 109.44 405.19 111.35C406.5 112.01 407.05 113.2 406.37 114.42C405.15 116.63 403.84 118.83 402.55 121C401.99 121.92 400.67 122.21 399.77 121.64C395.65 119.09 391.5 116.64 387.45 113.98C384.64 112.13 381.98 110.02 379.31 107.98C377.93 106.94 377.95 107.03 376.68 108.21C374.29 110.37 371.87 112.52 369.3 114.48C364.38 118.25 359.05 121.32 353.48 123.97C352.84 124.31 351.87 124.06 351.09 123.89C350.88 123.84 350.73 123.04 350.74 122.61C350.76 122.24 351.09 121.88 351.33 121.62C353.94 118.91 356.67 116.33 359.13 113.51C362.51 109.59 365.68 105.42 368.91 101.38C369.43 100.76 370.5 100.23 369.61 99.1796C369 98.4996 368.33 97.8396 367.66 97.1696C364.02 93.6096 360.91 89.5796 358.08 85.3396C355.97 82.2296 354.18 78.9196 352.17 75.7196C351.9 75.3496 351.31 74.9396 350.85 74.9396C343.05 74.8896 335.29 74.8996 327.52 74.9396C327.13 74.9396 326.57 75.1996 326.39 75.5296C322.85 81.6296 319.21 87.6596 314.82 93.1796C312.35 96.3096 309.68 99.2596 306.93 102.52C308.12 103.3 309.35 104.1 310.58 104.92C313.95 107.21 317.45 109.37 320.65 111.84C322.91 113.53 325.1 115.48 326.73 117.7C328.63 120.29 327.99 123.95 324.56 125.3C322.6 126.05 319.6 124.85 318.2 122.82C315.17 118.45 312 114.22 308.23 110.46C306.98 109.2 305.81 107.85 304.6 106.6C304.37 106.35 303.99 106.26 303.92 106.23C298.39 110.62 293.01 114.96 287.54 119.13C285.08 121.02 282.37 122.57 279.75 124.25C278.31 125.12 276.91 126.01 275.46 126.93C274.77 127.38 273.98 128.09 273.3 127.05C272.71 126.17 272.94 125.19 273.79 124.51C274.98 123.53 276.28 122.65 277.49 121.67C279.46 120.03 281.56 118.46 283.45 116.72C286.54 113.85 289.68 111 292.54 107.86C296.09 104.01 299.51 100.04 302.67 95.8596C305.95 91.5696 308.95 87.0796 311.92 82.5696C313.43 80.1996 314.58 77.6696 315.97 75.0896C315.65 74.9696 315.37 74.6896 315.07 74.6896C306.09 74.7696 297.11 74.9196 288.12 74.8896C285.01 74.8696 282.77 72.9196 281.13 70.4296C280.39 69.2496 279.7 68.0996 279.8 66.5796C279.87 65.3596 280.11 64.8296 281.49 64.8496C293.89 64.9296 306.28 64.8796 318.68 64.8796C320.89 64.8796 321.41 64.5096 322.15 62.4896C322.74 60.9496 323.47 59.4896 324.03 57.9596C324.71 56.0696 325.32 54.2096 325.94 52.3296C326.2 51.4996 325.76 51.0796 324.98 51.0796C322.65 51.1196 320.35 51.2896 318.01 51.3196C314.24 51.3696 310.48 51.3396 306.73 51.3196C303.5 51.2996 301.1 49.6896 299.07 47.2596C297.92 45.8896 297.66 44.1896 296.99 42.6096C296.7 41.8096 297.13 41.3296 297.86 41.0896C298.29 40.9696 298.76 40.9996 299.18 40.9996H327.69C328.47 40.9996 329.08 41.1196 329.29 39.9496C329.99 36.1196 330.87 32.3196 331.68 28.5296C331.75 28.2596 331.85 27.9496 331.94 27.6696C332.21 26.6996 331.83 26.2796 330.8 26.3296C329.84 26.3696 328.88 26.2996 327.93 26.3396C326.73 26.3896 325.49 26.6096 324.3 26.6096C315.31 26.5396 306.33 26.5896 297.34 26.2396C294.49 26.1596 292.19 24.2696 290.7 21.6896C290 20.4196 289.11 19.2596 289.27 17.5996C289.41 16.4696 289.9 16.2996 290.81 16.2996C292.54 16.3196 294.27 16.2796 296.02 16.3196C297.34 16.3596 298.69 16.5496 300.06 16.5596C305.64 16.5796 311.22 16.5896 316.85 16.5596C319.27 16.5496 321.69 16.3196 324.16 16.3196C326.72 16.3396 329.28 16.5096 331.85 16.5596C333.65 16.5896 333.74 16.3496 333.9 14.5896C334.17 11.1696 334.53 7.7196 335.02 4.3296C335.3 2.3296 337.89 0.799601 340.01 1.1196C340.66 1.1996 341.36 1.1496 341.95 1.4096C342.69 1.7296 343.44 2.2096 343.92 2.8096C345.34 4.6996 345.11 6.7796 344.64 8.9696C344.22 11.0096 344.08 13.1796 343.98 15.3096C343.98 15.7096 344.62 16.4696 345.02 16.4996C346.51 16.6596 347.99 16.5696 349.51 16.5696C354.53 16.5696 359.57 16.5896 364.61 16.5696C368.06 16.5396 371.49 16.3296 374.92 16.3296C379.85 16.3596 384.75 16.4796 389.67 16.5896C390.68 16.5996 391.11 17.3896 390.8 18.3996C390.05 21.0396 388.51 23.2596 386.3 24.7196C384.09 26.1996 381.53 27.0996 378.73 26.4496C378.31 26.3596 377.85 26.3496 377.39 26.3496H350.39C348.46 26.3496 346.55 26.3596 344.62 26.3496C341.63 26.3096 342.22 26.8096 341.77 29.0596C341.21 31.9696 340.73 34.9196 340.19 37.7996C340.1 38.3596 339.8 38.8896 339.57 39.4196C339.05 40.5896 339.27 40.9896 340.54 41.0196C340.78 41.0296 341.07 41.0196 341.32 41.0196H380.82C382.84 41.0196 383.47 41.8996 382.82 43.7996C381.33 48.1996 377.3 51.3296 372.56 51.3296C361.55 51.3296 350.58 51.3296 339.56 51.3296C338.74 51.3296 337.9 51.2096 337.14 51.3696C336.7 51.4496 336.23 52.0196 336.08 52.4796C334.83 55.7796 333.68 59.1196 332.52 62.4396C332.39 62.8496 332.33 63.3096 332.14 63.6996C331.71 64.6896 332.23 64.8996 333.05 64.8896H333.99C355.16 64.8896 376.35 64.9396 397.53 64.8596C400.05 64.8396 400.64 66.1596 399.77 68.3296C398.46 71.5496 396.26 73.7896 392.88 74.6896C392.36 74.8596 391.82 74.9396 391.31 74.9396C380.91 74.9496 370.5 74.9496 360.09 74.9496H358.33L358.32 74.9396ZM344.92 96.4596C344.92 94.8096 344.04 93.0596 343.25 91.5496C341.92 89.1596 339.56 87.9996 337.06 87.1796C335.84 86.7696 335.16 87.1096 334.99 88.3796C334.77 89.7996 334.69 91.2196 334.66 92.6296C334.66 108.29 334.66 123.95 334.66 139.62V147.18C334.66 157.12 334.66 167.08 334.66 177C334.66 179.14 335.64 179.88 337.7 179.36C341.33 178.46 345 173.8 345 169.96V133.08C345 120.89 345.06 108.67 344.92 96.4596ZM390.16 157.16C386.83 153.43 383.01 150.24 378.92 147.42C375.02 144.74 371 142.17 366.88 139.9C362.69 137.62 358.29 135.74 353.97 133.7C353.18 133.33 352.27 133.29 351.75 134.21C351.22 135.18 351.53 135.95 352.44 136.58C353.36 137.2 354.23 137.92 355.08 138.61C358.25 141.23 361.47 143.73 364.56 146.44C368.51 149.98 372.38 153.58 376.2 157.26C378.74 159.71 381.1 162.38 383.6 164.92C385.01 166.3 386.75 166.87 388.62 166.09C390.67 165.23 392.23 163.9 392.28 161.01C392.43 159.59 391.22 158.36 390.17 157.16H390.16ZM294.76 164.86C297.16 163.4 299.6 162.05 301.83 160.39C305.68 157.48 309.55 154.6 313.1 151.35C316.67 148.04 319.92 144.32 323.23 140.74C324.73 139.11 326.01 137.26 327.39 135.5C328.08 134.62 328.06 133.2 327.39 132.67C326.52 131.99 325.95 132.82 325.41 133.21C322.03 135.73 318.69 138.27 315.33 140.81C309.48 145.23 303.19 148.96 296.74 152.36C294.48 153.55 292.23 154.78 290.01 156.05C287.99 157.17 287.93 158.98 288.22 161.02C288.59 163.57 290.27 165.3 292.8 165.44C293.45 165.22 294.19 165.17 294.77 164.85L294.76 164.86Z" fill="#313333"/><path d="M223.89 139.12C223.27 140.29 222.9 141.22 222.35 141.96C219.7 145.7 217.06 149.44 214.25 153.05C211.39 156.71 208.47 160.31 205.38 163.8C202.31 167.27 198.97 170.6 195.76 174C195.15 174.68 194.67 175.47 193.97 176.02C193.34 176.49 192.58 176.83 191.85 176.89C191.49 176.93 190.71 176.22 190.71 175.89C190.74 175.17 191.02 174.36 191.47 173.75C195.02 168.84 198.75 164 202.3 159.05C207.49 151.69 212.23 143.97 216.57 136.01C217.74 133.88 218.85 131.73 220.05 129.59C221.16 127.66 220.99 125.7 220.47 123.59C219.68 120.46 219.31 117.22 218.74 114.05C218.47 112.68 218 111.28 217.92 109.89C217.74 105.87 216.09 102.07 216.24 98.0198C216.31 96.2798 215.72 94.5098 215.49 92.7398C215.25 90.7998 215.11 88.8298 214.96 86.8898C214.66 83.3698 214.39 79.8598 214.14 76.3098C213.93 73.3498 213.73 70.3298 213.58 67.3398C213.38 62.0698 213.29 56.8398 213.02 51.5598C212.87 47.8098 212.51 44.0798 212.2 40.3298C212.18 39.9698 211.62 39.6198 211.23 39.3998C211 39.2698 210.62 39.3798 210.29 39.3798H165.24C164.81 39.3798 164.43 39.4198 164.03 39.3598C162.877 39.1664 162.3 39.6231 162.3 40.7298C162.3 49.2298 162.32 57.7198 162.27 66.2498C162.27 67.5898 162.7 67.8798 163.97 67.8798C174.24 67.8498 184.49 67.8698 194.78 67.8698C197.01 67.8698 197.31 68.1498 197.31 70.4298C197.31 95.1698 197.36 119.91 197.28 144.63C197.23 150.25 193.63 153.11 188.83 154.36C188.4 154.47 187.61 153.92 187.29 153.45C186.99 152.98 187.01 152.25 187.01 151.64C187.01 127.76 187.01 103.89 187.01 79.9998C187.01 78.7864 186.38 78.1798 185.12 78.1798C177.93 78.1798 170.75 78.1998 163.55 78.1398C162.32 78.1398 161.98 78.5998 161.99 79.7198C162.04 82.4598 162.09 85.2198 161.99 87.9698C161.81 92.6598 161.4 97.3798 161.24 102.06C161.1 106.48 159.64 110.77 159.8 115.23C159.84 116.61 159.15 117.97 158.93 119.39C158.41 122.66 157.96 125.96 157.39 129.22C157.06 131.08 156.55 132.91 156.08 134.73C155.37 137.45 154.68 140.2 153.86 142.89C152.86 146.26 151.73 149.58 150.57 152.89C149.85 155.02 149.1 157.14 148.14 159.16C146.07 163.64 143.9 168.02 141.68 172.41C140.77 174.27 139.59 176.01 138.68 177.88C138.23 178.81 137.5 179.09 136.73 178.7C136.4 178.54 136.14 177.48 136.31 176.98C137.12 174.87 138.13 172.82 138.9 170.75C139.55 169.02 140 167.23 140.57 165.5C141.17 163.63 141.91 161.74 142.46 159.85C143.16 157.44 143.76 155.02 144.36 152.57C145.02 149.9 145.77 147.21 146.3 144.49C146.84 141.68 147.17 138.8 147.63 135.96C147.75 135.1 148.04 134.24 148.15 133.37C148.44 131.12 148.7 128.87 148.99 126.62C149.28 124.29 149.61 121.97 149.89 119.6C149.98 118.78 150 117.9 150.06 117.08C150.44 112.56 150.78 108.07 151.14 103.59C151.14 103.43 151.14 103.2 151.14 103.04C151.25 99.5298 151.16 95.9598 151.44 92.4598C153.11 71.9698 151.83 51.4698 152.19 31.0198C152.21 29.5298 152.77 29.3098 154.01 29.3198C172.67 29.3298 191.31 29.3198 209.94 29.3498C211.28 29.3698 211.77 29.0398 211.72 27.6398C211.61 24.9298 211.76 22.1998 211.69 19.4998C211.55 15.1098 211.32 10.7098 211.14 6.30977C211.08 4.78977 210.9 3.25977 210.86 1.72977C210.83 0.419774 211.52 -0.170226 212.75 0.179774C216.86 1.28977 221.05 4.88977 220.95 9.86977C220.88 13.4998 221.06 17.0798 221.19 20.6898C221.3 23.2498 221.52 25.7698 221.77 28.3198C221.8 28.6598 222.23 29.0798 222.59 29.2898C222.91 29.4398 223.37 29.3398 223.78 29.3398H256.65C257.11 29.3398 257.55 29.2898 257.97 29.4198C258.85 29.6498 259.35 30.0398 258.99 31.2098C258.18 33.8698 256.93 36.2198 254.53 37.5998C253.01 38.4398 251.25 39.2798 249.59 39.2998C241.36 39.4598 233.14 39.3798 224.89 39.3798C222.38 39.3798 222.4 39.3698 222.56 41.8798C222.74 46.0898 222.93 50.3098 223.11 54.5398C223.21 58.5798 223.16 62.6298 223.38 66.6798C223.62 70.4898 224.1 74.2598 224.42 78.0098C224.58 80.0898 224.53 82.1598 224.76 84.2098C224.99 86.8598 225.4 89.4898 225.73 92.1498C226.12 95.2798 226.48 98.4398 226.92 101.53C227.12 103.21 227.52 104.84 227.75 106.52C227.88 107.49 227.87 108.49 228 109.47C228.05 109.9 228.17 110.31 228.27 110.76C228.42 110.77 228.59 110.8 228.74 110.8C229.18 109.77 229.64 108.76 230 107.73C231.66 103.41 233.48 99.1198 234.92 94.7098C236.5 89.9498 237.73 85.0698 239.1 80.2198C239.82 77.6598 240.55 75.0298 241.15 72.4098C241.68 70.1398 242.03 67.8298 242.35 65.4998C242.63 63.3498 245.29 60.3198 247.39 60.0098C249.68 59.6398 252.75 62.3198 252.64 64.8198C252.5 67.2198 252.12 69.5898 251.69 71.9598C251.2 74.6698 250.58 77.3898 249.96 80.0998C249.59 81.6698 249.16 83.2198 248.7 84.7198C247.19 89.6098 245.71 94.5298 243.96 99.2898C242.37 103.7 240.58 108.07 238.65 112.35C236.6 116.86 234.31 121.27 232.11 125.72C231.65 126.63 231.56 127.45 231.93 128.44C232.77 131.1 233.38 133.81 234.21 136.48C236 142.43 238.37 148.16 241.45 153.56C243.05 156.35 245.06 158.94 247.18 161.39C248.11 162.49 249.7 163.11 251.1 163.78C251.91 164.2 253.81 163.17 254.57 162.05C256.2 159.6 257.82 157.17 259.44 154.75C259.53 154.6 259.58 154.41 259.69 154.31C260.15 153.97 260.18 152.69 261.07 153.4C261.54 153.78 261.82 154.76 261.75 155.44C261.57 156.87 261.1 158.27 260.76 159.67C260.34 161.49 259.78 163.26 259.62 165.08C259.57 165.76 260.43 166.62 261.05 167.22C261.89 168.1 263.35 168.55 262.96 170.11C262.79 170.8 262.47 171.5 262.04 172.02C259.3 175.26 255.91 177.05 251.55 176.1C249.5 175.64 247.47 175.16 245.47 174.61C242.47 173.78 240.37 171.67 238.6 169.31C236.34 166.29 234.12 163.21 232.37 159.91C230.37 156.18 228.77 152.18 227.16 148.2C225.99 145.36 225.06 142.42 223.88 139.1L223.89 139.12ZM247.1 19.0698C244.14 14.1098 240.47 9.72977 235.74 6.34977C233.56 4.77977 231.22 3.35977 228.89 2.00977C228.48 1.73977 227.71 2.04977 227.11 2.08977C227.23 2.73977 227.13 3.54977 227.51 3.97977C230.54 7.94977 233.01 12.1998 235.08 16.7398C236.38 19.5398 237.62 22.3498 238.87 25.1598C239.32 26.1098 239.96 26.8598 241.07 26.8698C242.18 26.8698 243.34 26.8598 244.43 26.6298C246.72 26.1298 248.03 24.4398 248.28 22.1498C247.88 21.0998 247.63 20.0098 247.08 19.0698H247.1Z" fill="#313333"/><path d="M492.77 26.9598C498.55 26.9598 504.34 26.9598 510.15 26.9598C510.79 26.9598 511.44 27.1598 512.12 27.1598C517.46 27.0798 522.83 26.9498 528.19 26.8998C530.36 26.8698 530.68 27.8298 529.9 29.8198C528.99 31.9698 527.87 33.9298 525.84 35.0398C524.26 35.9198 522.4 36.8098 520.66 36.8398C509.54 37.0098 498.44 36.9598 487.27 36.9098C486.02 36.9098 485.55 37.1798 485.58 38.5098C485.65 42.7898 485.6 47.0298 485.6 51.2998C485.6 52.5598 486.22 53.1898 487.46 53.1898H519.05C520.75 53.1898 521.48 54.1598 520.95 55.7698C519.84 59.1298 517.65 61.4898 514.37 62.8198C513.98 62.9698 513.49 62.9698 513.05 62.9698C504.43 62.9698 495.78 62.9998 487.13 62.9498C485.96 62.9498 485.55 63.2398 485.57 64.4698C485.62 68.7298 485.62 72.9598 485.57 77.2298C485.55 78.4098 485.94 78.7498 487.11 78.7498C503.2 78.7098 519.33 78.7198 535.43 78.7198C537.36 78.7198 537.86 79.1698 537.68 81.1098C537.48 83.9198 535.67 85.7698 533.61 87.3898C531.97 88.6698 530.04 89.0798 527.95 89.0598C496.09 88.9998 464.23 89.0498 432.38 88.9998C429.32 88.9998 427.12 87.3898 425.29 84.9898C424.35 83.7398 423.73 82.3598 423.58 80.7398C423.46 79.3798 423.9 78.7198 425.34 78.7198C436.08 78.7198 446.81 78.7198 457.51 78.7198H472.73C472.99 78.7198 473.28 78.7198 473.53 78.7198C475.68 78.7698 475.77 78.6998 475.77 76.4498C475.77 75.0098 475.55 73.5698 475.57 72.1498C475.57 70.3398 475.74 68.5598 475.79 66.7698C475.84 65.8598 475.88 64.9498 475.78 64.0298C475.74 63.1598 475.13 62.9798 474.37 62.9798C472.3 62.9998 470.22 62.9798 468.14 62.9798C461.56 62.9798 455.01 62.9598 448.47 63.0198C447.25 63.0298 446.31 62.6098 445.37 61.9798C442.98 60.4198 441.19 58.4098 440.44 55.5898C440 53.8398 440.53 53.1898 442.3 53.1898H473.64C475.56 53.1898 475.77 53.0898 475.78 51.2098C475.8 47.1398 475.69 43.0898 475.64 39.0398C475.64 38.5798 475.66 38.1098 475.56 37.6498C475.4 36.9998 475.07 36.4898 474.24 36.8798C473.91 37.0398 473.49 36.9598 473.17 36.9598C462.28 36.9598 451.44 37.0098 440.58 36.8798C437.1 36.8498 434.46 34.9198 432.58 32.0698C431.87 31.0498 431.34 29.8598 431.08 28.6698C430.76 27.3898 431.3 26.9098 432.86 26.9098C437.82 26.8798 442.75 26.8598 447.69 26.9098C450.84 26.9198 454.01 27.1698 457.12 27.1698C461.52 27.1498 465.93 26.9298 470.36 26.9198C473.41 26.9198 476.45 27.1298 479.47 27.1698C480.96 27.1698 482.41 26.9898 483.89 26.8998C484.22 26.8798 484.52 26.8798 484.85 26.9198C486.683 27.0931 488.03 26.3298 488.89 24.6298C490.31 21.8298 491.82 19.0998 493.09 16.2398C494.2 13.6898 494.96 10.9998 495.96 8.42978C496.71 6.36978 497.39 4.20978 498.53 2.32978C499.63 0.539781 502.32 -1.02022 504.53 0.849782C505.14 1.34978 505.88 1.69978 506.42 2.28978C508.1 4.11978 508.13 5.92978 506.66 8.17978C504.64 11.2298 502.72 14.3198 500.53 17.2198C498.28 20.2098 495.75 22.9698 493.31 25.8198C493.1 26.0998 492.88 26.3498 492.66 26.6298C492.69 26.7398 492.74 26.8598 492.79 26.9698L492.77 26.9598ZM527.09 119.43C527.61 119.43 528.15 119.32 528.65 119.21C532.53 118.3 534.79 115.64 536.2 112.13C537.03 110.09 536.22 108.85 534.07 108.85H486.2C484.34 108.85 484.25 108.61 484.99 106.83C485.35 105.95 485.44 104.96 485.6 104.01C485.71 103.19 485.77 102.42 485.85 101.6C486.18 99.3098 486.98 97.0598 485.67 94.7298C484.86 93.2398 483.66 92.5898 482.2 92.3598C480.65 92.0798 478.97 92.2698 478.15 93.7798C477.33 95.2598 476.79 96.9098 476.38 98.5598C475.98 100.42 475.89 102.41 475.54 104.31C475.37 105.4 474.92 106.45 474.8 107.52C474.66 108.53 474.37 108.89 473.3 108.89C466.16 108.85 459.05 108.86 451.92 108.87C448.56 108.87 445.21 108.89 441.81 108.89C436.69 108.89 431.53 108.87 426.36 108.89C425.28 108.89 424.67 109.61 424.82 110.57C424.9 110.92 425.02 111.25 425.08 111.61C425.82 115.87 429.92 119.38 434.32 119.42C445.66 119.53 457.01 119.46 468.38 119.46C468.87 119.46 469.4 119.48 469.83 119.33C470.8 118.96 471.09 119.5 470.91 120.21C470.58 121.75 470.22 123.33 469.58 124.77C468.27 127.75 466.89 130.69 465.35 133.59C461.98 139.94 457.61 145.66 452.66 150.84C448.63 155.12 444.3 159.06 439.6 162.66C434.25 166.73 428.62 170.47 422.74 173.77C421.1 174.71 419.35 175.54 417.68 176.46C416.71 177.01 416.33 177.85 416.87 178.94C417.37 179.97 418.16 179.8 419.01 179.44C422.61 178 426.33 176.76 429.82 175.05C434.4 172.81 438.82 170.28 443.23 167.75C448.21 164.88 452.76 161.34 456.93 157.39C460.33 154.15 463.5 150.62 466.53 147.01C471.58 141.06 475.51 134.4 478.55 127.25C479.4 125.36 480.35 123.49 480.96 121.56C481.58 119.57 481.51 119.46 483.51 119.46H505.24C512.52 119.46 519.81 119.46 527.1 119.46L527.09 119.43ZM543.18 166.52C542.3 166.26 541.41 165.97 540.56 165.59C536.89 164 533.14 162.56 529.55 160.72C524.32 158.03 519.38 154.79 514.86 150.97C511.58 148.2 508.28 145.47 505.15 142.53C502.78 140.32 500.6 137.91 498.53 135.4C495.68 132 492.96 128.45 490.19 124.99C489.61 124.25 488.75 123.84 488.04 124.41C487.67 124.73 487.58 125.83 487.8 126.37C489.09 129.37 490.35 132.39 491.93 135.25C493.78 138.66 495.9 141.94 498 145.24C501.76 151.06 506.36 156.14 511.58 160.68C512.97 161.9 514.38 163.2 515.9 164.23C519.6 166.74 523.28 169.36 527.15 171.57C530.77 173.62 534.62 175.26 538.39 176.96C539.73 177.57 540.45 177.2 541.11 175.91C541.83 174.52 542.52 173.13 543.19 171.72C543.71 170.61 544.21 169.51 544.73 168.41C544.66 167.29 544.18 166.74 543.2 166.52H543.18ZM469.75 18.0298C466.28 12.9198 461.89 8.64978 457.06 4.79978C455.33 3.40978 453.35 2.29978 451.43 1.13978C451.03 0.919781 450.11 0.929781 450.02 1.10978C449.81 1.56978 449.86 2.20978 449.92 2.73978C449.96 3.03978 450.23 3.28978 450.41 3.54978C454.13 8.29978 457.28 13.4398 459.56 19.0298C460.21 20.5798 460.88 22.1498 461.81 23.4898C463.04 25.3498 465.2 26.4598 466.72 25.8898C469.59 24.8598 470.65 23.7198 470.92 21.1798C470.55 20.1198 470.36 18.9298 469.74 18.0198L469.75 18.0298Z" fill="#313333"/><path d="M7.29003 115.38H14.41V116.57H8.54003V120.48H14.35V121.68H8.54003V126.57H14.35V127.8H7.28003V115.37L7.29003 115.38Z" fill="#313333"/><path d="M15.6201 115.38H16.9701L21.1101 124.97L25.2801 115.38H26.6401L21.2301 127.81H20.9401L15.6301 115.38H15.6201Z" fill="#313333"/><path d="M28.73 115.38H35.83V116.57H29.95V120.48H35.8V121.68H29.95V126.57H35.8V127.8H28.73V115.37V115.38Z" fill="#313333"/><path d="M38.0601 115.38H40.5201C41.8901 115.38 42.8401 115.41 43.3201 115.52C44.0801 115.72 44.6801 116.06 45.1301 116.65C45.6001 117.2 45.8001 117.88 45.8001 118.7C45.8001 119.36 45.6701 119.95 45.3201 120.48C45.0001 120.97 44.5601 121.38 43.9601 121.64C43.3701 121.91 42.5801 122.03 41.5001 122.03L45.9801 127.82H44.4401L39.9701 122.03H39.2701V127.82H38.0601V115.39V115.38ZM39.2701 116.57V120.81L41.4301 120.84C42.2501 120.84 42.8501 120.73 43.2601 120.56C43.6801 120.43 43.9701 120.18 44.2001 119.82C44.4101 119.49 44.5401 119.1 44.5401 118.68C44.5401 118.26 44.4101 117.88 44.2001 117.52C43.9501 117.2 43.6701 116.93 43.2901 116.81C42.9101 116.67 42.3101 116.57 41.4601 116.57H39.2601H39.2701Z" fill="#313333"/><path d="M47.49 115.38H48.92L52.11 120.48L55.23 115.38H56.68L52.74 121.85V127.81H51.49V121.85L47.5 115.38H47.49Z" fill="#313333"/><path d="M58.71 127.81V115.38H61.29C63.15 115.38 64.49 115.51 65.33 115.83C66.54 116.23 67.48 116.94 68.18 118.01C68.85 119.05 69.18 120.3 69.18 121.75C69.18 122.98 68.91 124.09 68.39 125.01C67.84 125.97 67.16 126.69 66.29 127.14C65.41 127.58 64.22 127.82 62.68 127.82H58.72L58.71 127.81ZM59.89 126.61H61.35C63.05 126.61 64.25 126.51 64.9 126.3C65.84 126.01 66.6 125.45 67.14 124.67C67.66 123.87 67.89 122.9 67.89 121.77C67.89 120.54 67.64 119.52 67.03 118.7C66.45 117.84 65.65 117.28 64.64 116.93C63.82 116.71 62.54 116.57 60.77 116.57H59.88V126.61H59.89Z" fill="#313333"/><path d="M76.67 115.38L82.45 127.81H81.13L79.19 123.69H73.82L71.87 127.81H70.47L76.36 115.38H76.66H76.67ZM76.49 118L74.38 122.49H78.64L76.49 118Z" fill="#313333"/><path d="M83.3901 115.38H84.8201L88.0001 120.48L91.1501 115.38H92.5501L88.6501 121.85V127.81H87.4001V121.85L83.3901 115.38Z" fill="#313333"/><path d="M111.85 115.38H113.05V127.81H111.85V115.38Z" fill="#313333"/><path d="M114.62 125.47L115.68 124.86C116.43 126.22 117.3 126.9 118.27 126.9C118.7 126.9 119.07 126.8 119.43 126.61C119.8 126.4 120.08 126.15 120.28 125.81C120.47 125.47 120.56 125.16 120.56 124.77C120.56 124.38 120.42 123.96 120.13 123.54C119.74 122.99 119.03 122.35 118.01 121.55C116.98 120.78 116.33 120.23 116.07 119.88C115.62 119.29 115.4 118.66 115.4 117.95C115.4 117.41 115.52 116.92 115.81 116.45C116.05 116.03 116.42 115.7 116.88 115.43C117.36 115.18 117.87 115.03 118.42 115.03C119 115.03 119.55 115.2 120.07 115.47C120.57 115.77 121.11 116.33 121.71 117.1L120.68 117.88C120.23 117.24 119.81 116.83 119.48 116.66C119.15 116.44 118.79 116.34 118.41 116.34C117.9 116.34 117.49 116.46 117.18 116.79C116.86 117.1 116.7 117.47 116.7 117.92C116.7 118.2 116.76 118.47 116.87 118.7C116.98 118.94 117.19 119.23 117.48 119.51C117.65 119.69 118.19 120.11 119.07 120.77C120.16 121.55 120.91 122.26 121.31 122.87C121.72 123.52 121.91 124.14 121.91 124.74C121.91 125.67 121.57 126.45 120.87 127.09C120.2 127.77 119.36 128.08 118.38 128.08C117.61 128.08 116.94 127.9 116.33 127.47C115.72 127.09 115.13 126.41 114.62 125.45V125.47Z" fill="#313333"/><path d="M21.5401 140.46L19.5001 142.46C18.2101 141.09 16.7001 140.44 15.0101 140.44C13.5001 140.44 12.2401 140.93 11.2301 141.9C10.2301 142.91 9.72006 144.12 9.72006 145.54C9.72006 146.96 10.2401 148.27 11.2901 149.26C12.3301 150.29 13.6501 150.79 15.1701 150.79C16.1701 150.79 17.0201 150.56 17.6801 150.16C18.3701 149.76 18.9201 149.09 19.3501 148.2H14.9501V145.47H22.5901L22.6201 146.12C22.6201 147.44 22.2501 148.73 21.5701 149.88C20.8801 151.07 20.0001 151.99 18.8901 152.6C17.8001 153.25 16.5301 153.54 15.0501 153.54C13.4701 153.54 12.0601 153.24 10.8201 152.53C9.60006 151.86 8.63006 150.88 7.89006 149.59C7.19006 148.33 6.81006 146.96 6.81006 145.51C6.81006 143.51 7.51006 141.77 8.82006 140.27C10.3801 138.5 12.4201 137.59 14.9501 137.59C16.2901 137.59 17.5401 137.86 18.6701 138.34C19.6401 138.76 20.6001 139.45 21.5201 140.46H21.5401Z" fill="#313333"/><path d="M34.0001 137.58C36.1601 137.58 37.9901 138.37 39.5601 139.95C41.1101 141.5 41.8601 143.38 41.8601 145.6C41.8601 147.82 41.1201 149.72 39.6101 151.24C38.0801 152.79 36.2201 153.52 34.0601 153.52C31.7501 153.52 29.8601 152.76 28.3701 151.19C26.8401 149.57 26.1101 147.73 26.1101 145.54C26.1101 144.11 26.4401 142.76 27.1701 141.53C27.8601 140.32 28.8301 139.38 30.0501 138.67C31.2901 137.94 32.6201 137.57 34.0201 137.57L34.0001 137.58ZM33.9901 140.44C32.5901 140.44 31.4001 140.93 30.4201 141.87C29.4701 142.85 28.9901 144.12 28.9901 145.6C28.9901 147.3 29.6201 148.61 30.8101 149.57C31.7401 150.35 32.8101 150.76 34.0501 150.76C35.4001 150.76 36.5701 150.25 37.5501 149.26C38.4801 148.25 38.9801 147.04 38.9801 145.58C38.9801 144.12 38.4801 142.92 37.5401 141.91C36.5801 140.92 35.3701 140.43 33.9901 140.43V140.44Z" fill="#313333"/><path d="M53.3401 137.58C55.4801 137.58 57.3401 138.37 58.8701 139.95C60.4301 141.5 61.2101 143.38 61.2101 145.6C61.2101 147.82 60.4401 149.72 58.9101 151.24C57.3801 152.79 55.5301 153.52 53.3601 153.52C51.1901 153.52 49.1901 152.76 47.6801 151.19C46.1701 149.57 45.4001 147.73 45.4001 145.54C45.4001 144.11 45.7801 142.76 46.4601 141.53C47.1801 140.32 48.1501 139.38 49.3701 138.67C50.6201 137.94 51.9101 137.57 53.3401 137.57V137.58ZM53.3101 140.44C51.9001 140.44 50.7201 140.93 49.7601 141.87C48.8001 142.85 48.3201 144.12 48.3201 145.6C48.3201 147.3 48.9101 148.61 50.1501 149.57C51.0801 150.35 52.1601 150.76 53.3501 150.76C54.7201 150.76 55.8901 150.25 56.8501 149.26C57.8201 148.25 58.3001 147.04 58.3001 145.58C58.3001 144.12 57.8101 142.92 56.8501 141.91C55.8701 140.92 54.7101 140.43 53.3101 140.43V140.44Z" fill="#313333"/><path d="M65.48 137.97H68.91C71.15 137.97 72.77 138.27 73.85 138.81C74.91 139.36 75.8 140.23 76.47 141.48C77.18 142.7 77.53 144.13 77.53 145.78C77.53 146.95 77.34 148.03 76.94 149C76.55 149.98 76.02 150.82 75.35 151.45C74.68 152.1 73.93 152.53 73.13 152.81C72.33 153.02 70.94 153.15 68.96 153.15H65.48V137.97ZM68.38 140.76V150.34H69.73C71.02 150.34 71.98 150.2 72.59 149.89C73.18 149.56 73.67 149.07 74.04 148.37C74.42 147.64 74.62 146.77 74.62 145.72C74.62 144.12 74.17 142.85 73.28 141.97C72.46 141.17 71.16 140.76 69.37 140.76H68.39H68.38Z" fill="#313333"/><path d="M86.5002 137.97H89.4402L95.2902 153.15H92.2902L91.0702 150.03H84.8902L83.6802 153.15H80.6702L86.5002 137.97ZM87.9802 141.99L85.9402 147.23H90.0002L87.9802 141.99Z" fill="#313333"/><path d="M98 137.97H101.09L103.94 143.44L106.77 137.97H109.83L105.37 146.6V153.14H102.48V146.6L98.01 137.97H98Z" fill="#313333"/><path d="M121.76 140.03L119.6 141.92C118.84 140.88 118.08 140.36 117.31 140.36C116.91 140.36 116.6 140.45 116.36 140.67C116.12 140.87 116 141.06 116 141.34C116 141.58 116.08 141.86 116.27 142.07C116.51 142.35 117.21 143.01 118.38 144C119.48 144.93 120.14 145.52 120.39 145.75C120.97 146.35 121.38 146.91 121.62 147.43C121.87 148 122.01 148.6 122.01 149.22C122.01 150.47 121.56 151.49 120.71 152.32C119.84 153.1 118.72 153.51 117.34 153.51C116.25 153.51 115.31 153.28 114.5 152.75C113.71 152.23 113.01 151.35 112.44 150.25L114.88 148.77C115.58 150.11 116.44 150.8 117.4 150.8C117.89 150.8 118.31 150.63 118.64 150.34C118.97 150.05 119.13 149.75 119.13 149.33C119.13 149 119.01 148.7 118.76 148.32C118.51 147.98 117.95 147.43 117.06 146.72C115.42 145.39 114.37 144.33 113.86 143.62C113.39 142.88 113.13 142.16 113.13 141.41C113.13 140.38 113.53 139.47 114.37 138.71C115.13 137.95 116.12 137.57 117.33 137.57C118.07 137.57 118.81 137.76 119.48 138.09C120.18 138.45 120.92 139.08 121.74 140.02L121.76 140.03Z" fill="#313333"/><path fill-rule="evenodd" clip-rule="evenodd" d="M42.53 95.9996V92.7796H15.42V95.9996H8.61005V69.9996H49.35V95.9996H42.53ZM23.7001 43.1796H18.5401V38.5996H32.3801C38.3901 49.7796 49.3101 58.8096 57.93 62.6096V65.8296C49.14 62.7296 35.51 54.9896 28.99 46.2596C22.47 54.9896 8.84005 62.7296 0.0500488 65.8296V62.6096C7.46005 59.3396 16.99 52.2196 23.71 43.1796M14.81 60.1596H43.18V64.0396H14.8V60.1596H14.81ZM42.5401 73.8796H15.42V88.8796H42.53V73.8796H42.5401Z" fill="#313333"/><path d="M127.99 63.1098L126.1 65.9398C120.44 63.2698 115.49 60.2798 111.25 56.9798C106.85 53.6798 102.84 49.5898 99.23 44.7198C94.99 49.4398 90.58 53.3698 86.03 56.5098C81.47 59.6498 76.44 62.6398 70.94 65.4698L70 63.1098C72.04 61.8498 74.09 60.5198 76.13 59.0998C78.17 57.8398 80.22 56.5098 82.26 55.0898C81.47 53.6698 80.53 52.3398 79.43 51.0798C78.33 49.8198 77.23 48.6398 76.13 47.5398L78.49 44.7098C80.06 45.6498 81.4 46.7498 82.5 48.0098C83.76 49.2698 85.09 50.5198 86.51 51.7798C87.14 50.9998 87.77 50.2098 88.4 49.4298C89.03 48.6398 89.65 47.8598 90.29 47.0698C90.92 46.2898 91.55 45.4998 92.17 44.7098C92.64 43.7698 93.27 42.9798 94.06 42.3498H74.73V39.5198H102.55C103.02 41.0898 103.57 42.3498 104.2 43.2898C104.99 44.2298 105.85 45.3298 106.79 46.5898C107.89 45.3298 108.99 43.9998 110.09 42.5798C111.19 41.3198 112.29 39.9898 113.39 38.5698L117.63 42.3398C115.9 43.4398 114.33 44.6198 112.91 45.8798C111.34 46.9798 109.92 48.1598 108.67 49.4198C109.45 50.3598 110.32 51.2298 111.26 52.0098C112.04 52.9498 113.07 53.8198 114.32 54.5998C115.58 53.3398 116.83 51.9298 118.09 50.3598C119.35 48.7898 120.6 47.2198 121.86 45.6398L126.57 49.4198L117.14 56.9598C118.71 58.2198 120.36 59.3198 122.09 60.2598C123.82 61.1998 125.78 62.1398 127.98 63.0898L127.99 63.1098ZM127.52 93.7598H70.47V90.3998H127.52V93.7598ZM118.56 78.7598H79.43V64.1398H118.56V78.7598ZM113.46 75.9598V66.9498H84.52V75.9598H113.46ZM109.65 60.7698H85.89V57.4598H109.65V60.7698Z" fill="#313333"/><path fill-rule="evenodd" clip-rule="evenodd" d="M91.5301 41.1296C91.5301 41.1296 87.6601 51.6596 71.1101 62.6196L72.6201 63.9096C72.6201 63.9096 92.6101 49.7296 96.9101 42.4096L91.5401 41.1196L91.5301 41.1296Z" fill="#313333"/><path d="M84.7599 64.2397H77.6799V80.7897H84.7599V64.2397Z" fill="#313333"/><path d="M118.72 64.2397H111.64V80.7897H118.72V64.2397Z" fill="#313333"/><path fill-rule="evenodd" clip-rule="evenodd" d="M108.37 80.54L114.28 83.33L108.8 89.56H104.18L108.37 80.54Z" fill="#313333"/><path fill-rule="evenodd" clip-rule="evenodd" d="M88.16 80.54L82.25 83.33L87.73 89.56H92.36L88.16 80.54Z" fill="#313333"/></svg>