<svg width="1053" height="630" fill="#FFF" xmlns="http://www.w3.org/2000/svg"><rect fill="#D71718" x="17.5" y="185.4" class="st0" width="1024.7" height="152.6"/><path d="M133,82c-9.1-8-28.2-19-43-26l12-15c14.2,6.1,34,17.2,44,25 M113.7,9c-1.2,38.8-5.3,61.7-49.2,73.3
	C62.6,77,57.1,69.1,53,65c37.4-8.5,38.1-24.5,39-56 M150,24l-18,25l-17-6c4.6-7.1,10.2-18,13-26 M151,89c-5.8,10.4-12.1,21.2-17,28
	l-18-6c4.5-7.9,10.4-20.1,13-29 M113.3,72c-1.3,40.9-5.2,65.4-51.3,77.7c-2.1-5.6-7.7-14.2-12-18.7c40-9,40.9-25.6,42-59
	 M111.6,91.7c5.5,20.9,17.2,34.5,42.4,39.3c-4.6,4.3-10.5,13.4-13,19c-29.4-7.7-40.7-26.3-48-56L111.6,91.7z M31,12
	c8.6,4.3,20.7,11.6,27,16.5L45,45c-5.6-5.2-18.2-12.9-27-18 M23.5,52.5c8.7,4.2,22,10.6,28.5,15.5L38,84c-5.8-5-19-12.1-28-17
	 M13,134c7-11,17-28.8,25-46l17,14c-6.7,15.4-14,31.3-22,46 M73.5,16C78.1,23.9,85,35.4,88,42L69,52c-2.6-6.9-8.6-18.4-13-27 M71,81
	c5,8.7,12.6,21.4,16,29l-19,9c-3-7.5-10-20.7-15-30 M218.6,9.2L218.6,9.2L242,9v114c0,25.8-15.7,26.5-38,27c-0.9-6.7-4.6-17.4-8-24
	c17.5,0.2,22.6,2.3,22.6-3 M163,45c36.6,0,35.5,0.3,40-1l14,5c-6.4,41.2-21.2,72.9-42,89c-3.6-4.9-11.8-13.7-17-17
	c16.2-11.2,26.8-29.8,33-54h-28 M241,42c9.8,33.2,29.1,61.3,61,75c-5.2,4.6-12.4,13.6-16,20c-33.1-17.5-50.7-50-62-91 M272.8,34.1
	l20,14.1c-12.5,12-27,25.1-38.2,33.2l-15.3-12C250.3,60.5,264.4,46,272.8,34.1z M389,149h-23V44h23 M310,50V29h137v21 M437,64v49
	c0,22.7-17.3,22.8-36,23c-0.9-6.2-4.1-15.2-7-21c19.4,0.5,20,1,20-2V85h-71v51h-22V64 M393,30l-22,8l-10-24l21-7 M544,61V51h-18v10
	 M506,75l0-37h60v37 M515,93h-7v13h7 M533,120h-42V79h42 M555,106h8V93h-8 M538,79h43v41h-43 M460,32V14h128v18 M466,25h21v83
	c0,13,3.8,18.1,18.6,17.9c21.1-0.3,65.2,1.9,86.4-1.9l3,20c-19.8,3.7-67.1,1.2-87.6,1.6c-28.3,0.5-41.4-8.1-41.4-38.6 M611,39V18
	h128v21 M679,89V68h52v21 M743,124v21H606v-21 M668,27h23v107h-23 M646,135h-22V60h22 M864.2,109c9.6,7.4,24,18.4,30.8,26l-17,14
	c-6-7.6-19-19.7-29-28 M884,58c-14.5,24.9-38.5,46.6-68,59l-12-16c27-10,49.9-30.1,60-50 M894,88c-17.5,28.5-47.2,50.7-85,62l-12-18
	c35.2-9,62.2-29.2,74-52 M807,45V25h85v20 M861,79c-38.4,2.6-45.5,4.3-50,6l-5-20c15.1-1.1,17.4-11.1,29-30h22l-17,28l26-1 M835,14
	l20-7c3.1,6.2,6.9,14.4,8,20l-21,7 M754,56V36h51v20 M791,150h-20V9h20 M796,101l-12-31c-8.1,22.5-16.2,43.8-24,55
	c-1.9-6.2-5.6-16.1-9-22c10.3-11.8,21.5-48.3,24-66c4,4.4,31.5,45.9,33,50 M940,52L940,52h23v67c0,7.3,0,8,14,8
	c19.7,0,17.2,0.5,19-26c4.9,3.7,13.8,7.6,19.6,9c-2.6,37-8.5,37-41.6,37c-23.5,0-34-2.6-34-28 M933,64c-1.9,20.3-4.5,46.7-9,64
	l-23-9c4.8-16,9.4-37.8,11-59 M1024,54c8.3,17.6,15.9,40.6,19,56l-22,9c-2.3-15.1-9.4-38.5-17-56 M959,10c13.3,8,32.8,20.8,42,30
	l-16,17c-8.2-9.1-27.2-22.9-41-32 M20,543v-20c107.1-87.4,47.8-125.2,17-88l-19-19c45.4-55.6,157.6-4.8,55,97h49v30 M261,543v-20
	c107.1-87.4,47.8-125.4,17-88.2L259,416c45.4-55.6,157.6-4.8,55,97l49,0.4V543 M174,487.4c2.9,41.2,37.9,42,38.4,8.1
	C212.9,465.6,182,470.8,174,487.4z M224,432c-23.9-20.8-49.6-11.6-51,32c20-25.2,72.9-17.2,72,32c-1.1,65.2-104,77.1-104-25
	c0-74.9,62.3-97.3,102-60 M415,487.4c2.9,41.2,37.9,42,38.4,8.1C453.9,465.6,423,470.8,415,487.4z M465,432
	c-23.9-20.8-49.5-11.6-51,32c20-25.2,71.9-17.2,71,32c-1.1,65.2-103,77.1-103-25c0-74.9,61.3-97.3,101-60 M647.4,451.3
	c-2.9-41.2-37.9-42-38.4-8.1C608.5,473.1,639.4,467.8,647.4,451.3z M597,508c23.8,20.8,49.5,10.6,51-33c-20,25.2-71.9,17.2-71-32
	c1.1-65.2,103-76.1,103,26c0,74.9-61.3,96.3-101,59 M888.2,451.6c-2.9-41.2-37.9-42-38.4-8.1C849.3,473.4,880.2,468.1,888.2,451.6z
	 M838,508c23.8,20.8,49.5,10.6,51-33c-20,25.2-71.9,17.2-71-32c1.1-65.2,103-76.1,103,26c0,74.9-61.3,96.3-101,59 M503,498v-25h56
	v25 M726,456c58.5,1.9,30.9-61.6-10-23l-18-21c65.2-54,135.1,21.6,73,55c66.4,29.5,1.3,119.9-77,59l17-23c46.7,43.7,85-24.6,15-22
	 M967,456c58.5,1.9,30.9-61.6-10-23l-18-21c65.2-54,135.1,21.6,73,55c66.4,29.5,1.3,119.9-77,59l17-23c46.7,43.7,85-24.6,15-22
	 M822.4,597v-4.5h28.1v4.5 M820,621.5V617h33v4.5 M837.4,594c-1.2,8.7-3,19.5-4.4,26h-5c1.6-6.7,3.5-17.5,4.5-26 M841,620l1-13
	h-17.6v-4H847l-1,15 M875,623h-5v-13h5 M856,617v-4h33v4 M857,596v-3.9l32-0.1v4 M888,599c-1.6,1.7-3.5,2.9-5,4l-3-2
	c1.5-1.2,2.9-2.6,4-4 M878,611c-0.6-1.7-1.5-4.9-3-7l3-1c1.5,2,3.3,4.7,4,6.5 M856,607c2.3-0.8,5.6-2.1,9-3.5l1,3.2
	c-2.6,1.4-5.7,3.1-8,4.3 M862.5,603.5c-1.1-1.3-3.6-3.4-5.5-4.5l3-2c1.9,1,4.2,2.8,5.5,4 M886,611c-1.5-1.5-4.5-3.6-7-5l3-2.5
	c2.4,1.3,5.3,3.1,7,4.5 M879,609c-9.9,1-11.5,1.1-12.5,1.5L865,607c1.9,0.2,5.1-3.4,6.5-4.5c-2.8,0-4,0.3-4.5,0.5l-1-3
	c0.5-0.1,3-1.7,5-7l4,1c-0.9,1.6-2.3,3.6-3.6,5h3.6l2-3l3.4,2c-2.4,2.9-5.1,5.7-8.1,8.2l6.7-0.2 M874,589c0.9,1.2,2,2.9,2.5,4
	l-4.5,1c-0.4-1.2-1.7-2.8-2.5-4 M899,601.4V599h21v2.4 M916,595l3,2l-2,2l-3-2 M907,615c4.6-2.7,7.6-7.5,9-13l3,1
	c-1.8,6.4-5,11.1-9,14 M899,613c2.5-0.3,8-1.2,10-2v3c-2.7,0.8-6.1,1.6-9,2L899,613z M905,608v-3h-2.5v3 M900,610v-7h8v7 M912,596
	c0.8,20.9,5.1,19.9,5,14l3,2c0,7.1-10.2,11.6-11-16 M925,591v32h-4v-28.3l-23,0.3v28h-4v-32 M896,622v-4h27v4 M933.5,611
	c4.7,1.1,3.2-5.1,0.5-9l2-7.5h-2.6V623H930v-32h8l3,1c-0.8,3.1-2.1,7.1-3,10c3.6,5.1,3.8,14.2-3.6,13L933.5,611z M946,604h11v3h-11
	V604z M942,597l2-2c1.3,0.9,3.1,2.1,4,3l-2,2C945.2,599.1,943.4,598.1,942,597z M954.6,615.4l3.4-1.9c1.6,1.8,3.9,4.4,5,5.9
	l-3.6,2.1C958.4,620.1,956.2,617.4,954.6,615.4z M939.6,605.6c5.4-3.5,7.2-7.2,8.4-10.6h-4v-3h5.5l2.2,0.5
	c-1.6,7.4-5.3,12.5-10,15.5L939.6,605.6z M955,598.6c1-1.4,1.9-2.9,2.6-4.6H953v-3h6.8l2.2,1c-1.1,3.2-3.1,6.9-5,9 M938,598
	c2.5-1.9,4.9-5.6,6-9l3,1c-1.3,3.9-3.5,7.7-6,10L938,598z M939,620c1.6-2,3-4,4-6l4,1c-1.3,2.1-2.5,3.9-4,6L939,620z M961,608
	c-4.8-2.9-8.2-8.5-10-15h3c1.5,5.5,4.6,9.7,9,12L961,608z M942,612v-3h18v3h-7v11h-4v-11H942z M939.5,600.5c1.5-0.1,2.5-0.3,4.5-0.5
	l0.5,2c-1.7,0.3-2.9,0.7-4.5,1L939.5,600.5z M973,599.6v-2.4h24.3v2.4 M972,595.5c0,13.8-0.2,20.6-3.8,27.5
	c-0.8-0.7-2.6-1.7-3.7-2.1c4.3-6.1,3.5-22.5,3.5-29.1h30.5v3.7 M987,616h-4v-8h4 M992.2,614.8V613h-14.4v1.8 M992.2,610.8V609h-14.4
	v1.8 M974,617.3v-10.5h22.4v10.5 M996.3,623.4l-9.5-3.9l1.7-2.8l9.8,3.7 M971.1,620.6c2.9-1,7.2-2.6,9.5-3.9l3.2,2.8l-10.4,4
	 M985,589l1.6,4l-4,1l-1.6-4 M977,602.7V596h4.4v5h6.6v-5h4.7v6.7 M973,605.9v-2.4h25.5v2.4 M1002.1,606.1l0-4.1l0,0h32.2v4.1
	 M1008,597.9v-4h24v4 M1028,617.6v4h-19v-4 M1021.5,604h-4.7v-14.8h4.7 M1031,608.7v14.6h-5v-10.6h-15v10.7h-5v-14.7 M1001.8,599.7
	c2.7-2.5,5-6.5,6.2-10.5l4.4,1.1c-1.5,4.4-4.1,8.9-6.6,11.7 M44.8,287v-4.5c39.5-31.2,15.7-49,4-34.1l-4.4-4.4
	c22.1-21.4,47.8,6.1,12.2,36.4h20.1v6.6 M849.6,287v-4.5c39.5-31.2,15.7-49,4-34.1l-4.4-4.3c22.1-21.4,47.5,6.5,11.9,36.8
	c5.2-0.7,15.1-0.4,20.4-0.5v6.6 M92,261.3c-11.4-6.7-7-24.4,7.4-24.4c15.6,0,18.2,17.8,7.4,24.8c13.3,6.5,10.5,26.2-7.6,26.2
	c-9.2,0-16.1-5.5-16.1-13.1C83.2,268.2,87.5,263.7,92,261.3z M107.9,274.7c0-6-5.4-8.3-12.1-11.1
	C78.2,277.3,107.9,292.1,107.9,274.7z M104.1,244.1c-7.2-7.7-22.2,8.6-1.6,15.5C108.2,254.1,107.9,248.1,104.1,244.1z M121.4,262.1
	c0-34.1,31.9-34,31.9,0C153.3,296.6,121.4,296.6,121.4,262.1z M146,262.1c0-26.2-17.2-26.2-17.2,0
	C128.8,288.8,145.9,288.8,146,262.1z M159.6,262.1c0-34.1,31.9-34,31.9,0C191.5,296.6,159.6,296.6,159.6,262.1z M184.1,262.1
	c0-26.2-17.2-26.2-17.2,0C167,288.8,184.1,288.8,184.1,262.1z M210.8,271.5l6.6-2.3l1,5.6l-19.2,7.8l-2.3-6.3l8.1-2.7v-41.9h5.7
	 M198.2,252.4v-5.9h18.7v5.9 M217.5,269.4v-5.9h41.4v5.9 M241.3,292.2h-6.2V240h-15.7v-6h37.8v6h-15.9 M224.9,260.6
	c-0.4-4.3-1.9-10.9-3.6-16.1l5-1.3c1.9,5.1,3.4,11.7,3.8,16 M245.6,259.3c1.5-4.4,3.4-11.4,4.2-16.4l5.9,1.3
	c-1.7,5.7-3.6,12.3-5.3,16.3 M264,258.3c7.3-6,14.3-15.8,18.4-25.7l6.8,2.1c-4.8,10.9-12.3,21.9-19.7,28.7 M316.5,292.1
	c-0.9-1.9-2.1-4.1-3.6-6.5c-33.6,2.5-37.6,2.7-40.5,3.9l-2.5-6.7c9.1-6,14.5-15.9,23-31.4l7.2,2.9c-5.5,9.8-12.2,19.5-18.9,27.2
	l28.1-1.7c-2.5-3.9-5.1-7.8-7.4-11.1l6-2.7c5.4,7.2,11.7,16.6,14.8,22.6 M309.3,232.5c3.1,10.1,9.5,19.8,17.5,24.8l-4.8,6.2
	c-7.6-5.7-13.7-15.1-17.4-24.6h-11.7v-6.4 M340,289.7v2.6h-5.8v-58.7h55.9v58.7H384v-2.6 M384,284.1v-44.8h-44v44.8 M377.6,256.6
	v9.7h-15.2c-2,1.6-4.5,3-7.2,4.3v6.9l9.2-2.1c-0.1,1.1-0.1,2.9,0.1,3.8c-11.9,3.2-13.7,3.7-14.8,4.4c-0.3-1.1-0.9-2.8-1.5-3.6
	c2.7-0.3,2.5-5.1,2.4-7.4c-2.1,0.8-4.3,1.5-6.4,2.1c-0.5-0.9-2.1-2.7-3-3.6c4.8-1.1,10.1-2.8,14.1-4.8h-8.6v-9.7 M364.7,250.7h16.4
	v3.7h-38.2v-3.7H359v-10.4h5.6 M346.5,247.2v-3.6H378v3.6 M372.1,263.4v-3.8H352v3.8 M381.4,269.9c-2.1,1.5-4.5,2.9-6.7,4.1
	c2.7,1.9,5.2,3.7,7,5.2l-4.1,2.5c-3.7-3.3-11.1-8.6-17.1-12.1l3.8-2.2c2.1,1.3,4.6,2.7,7,4.3c2.3-1.3,4.7-2.9,6.2-4.2 M414.7,285.3
	c0,7.7-5.3,6.6-12.5,6.8l-1.9-5.9c6.9,0.1,8.3,1.2,8.3-1v-24.7h-10.5V255c20.8,0,24.8,0.1,25.2-0.2l3.9,0.9
	c-1.7,5.3-3.6,11.3-5.2,15.1l-4.7-1.1c0.9-2.3,2.1-5.7,3-9.1h-5.7 M399.7,239.2v-5.4c21.1,0,20.6,0.1,22-0.3l3.8,2.7
	c-2.7,4.4-6.4,9.2-10,12.8c1.9,1.3,3.5,2.6,4.7,3.8L417,257c-4.7-3.6-10.2-7.6-15.8-10.5l3.3-4.1c2.1,1,4.3,2.3,6.4,3.6
	c1.9-1.9,4-4.4,5.6-6.8 M439.9,283.4c-3.7,3.5-9.9,7.1-15.2,9.1c-0.9-1.1-2.9-3.1-4.2-4.2c5.2-1.9,11.1-5.4,14-8.2L439.9,283.4z
	 M428.1,279.4v-34.8h9.9l1-5.6h-13.4v-5.3h33.8v5.3h-13.5l-1.7,5.6h13.1v34.8 M451.3,254.7v-5.6h-17.4v5.6 M451.3,264.7v-5.6h-17.4
	v5.6 M451.3,274.7V269h-17.4v5.6 M449.3,280.4c3.9,2.3,9,6,11.6,8.4l-4.9,3.6c-2.3-2.4-7.4-6.2-11.4-8.8L449.3,280.4z M515.1,251.2
	v5.9h-15.8v9.7h19.2v5.8h-19.2v11.7c7.9,1.2,18.8,0.5,27.5,0.6l-2.3,6.3c-15.5-0.2-37.1,2.8-44.9-12.9c-2.2,5.7-5.4,10.5-9.5,14.1
	l-5-4.2c7.3-5.5,10.7-14.9,12.1-26.7l6.3,0.7c-0.4,2.9-0.9,5.8-1.5,8.4c2.4,6.3,6.2,9.8,10.9,11.9V257h-15.5v-5.9 M474.3,244v9.4
	h-6.1v-15.3h25.3l-2.7-6.1l6.2-1.8l3.8,7.9h23.5v15.3h-6.4V244 M546.7,269.3l6.6-2.8l1.5,5.5c-7,3.4-14.5,6.8-20.4,9.4l-2.5-6.2
	c2.4-0.9,5.5-2.1,8.9-3.5v-40.1h5.8 M533.3,252.4v-5.9h20.2v5.9 M553.6,263.4l-2.3-5.6l35.2-14.9l4.6,1.5
	c-1.1,9.5-1.6,22.3-3.5,30.2l-5.1-1.4c1-5.8,1.7-15.1,2.1-23.2 M564.2,278.9c0,7.2-0.3,6.5,19.7,6.5c3.7,0,4.4-1.7,4.9-9l5.5,2.3
	c-0.9,9.2-2.7,12.3-10,12.3h-15.4c-8.2,0-10.6-2.1-10.6-10.1v-43.6h5.9 M577.5,277.2h-5.8v-46.4h5.8 M610.8,240.2
	c-2.1,3.4-4.5,6.3-6.8,8.6c-0.9-1-3-3.1-4.2-4.1c4-3.6,7.7-9,9.8-14.4l5.6,1.6c-0.4,1.1-0.9,2.3-1.5,3.4h16v4.9 M617,239.2
	c2.1,1.7,5.5,4.9,6.7,6.3l-4,3.6c-1.3-1.8-4.2-4.7-6.4-6.8L617,239.2z M638.3,240.2c-1.5,2.4-3.3,4.6-5.1,6.2c-1-1-3.3-2.8-4.7-3.7
	c3.6-3,6.7-7.6,8.4-12.4l5.7,1.3c-0.5,1.3-0.9,2.4-1.5,3.6h19.4v4.9 M646.2,239.2c2.1,1.6,5.7,4.7,7,6.2L649,249
	c-1.4-1.7-4.4-4.5-6.8-6.4L646.2,239.2z M630,274c-6.3,8.6-17.3,15.3-24.9,18.2c-0.9-1.4-2.6-3.8-4-4.9c0.7-0.2,18.8-6.2,23.9-16.3
	L630,274z M632.7,292.2h-6.2v-37.7h-20.9v-5.2h48.9V265h-41.3c-0.2,1.8-0.5,3.6-0.7,5.2h44.7c-1.2,16.3-1.6,20.9-16.5,19.2
	c-0.1-1.7-0.8-4.1-1.7-5.7c8.6,0.5,10.8,2.4,11.6-8.2h-45c0.9-4.2,1.9-10.6,2.4-15.7h40.5v-5.2h-15.7 M666.8,264.3v-6.8h61v6.8
	 M734.1,270.7l-1.4-6l20.5-5.9l0.8,5.7 M747.1,285.4c0,7.3-4.2,6.7-11.1,6.9l-1.7-5.8c4.7,0,7.1,1.1,7.1-1.1v-54.5h5.7 M733.7,249.5
	v-5.8h20.2v5.8 M753,288.1c5.5-3.7,8.6-8.2,10.3-13.3c-3.3,1.3-6.6,2.5-9.5,3.6l-2.4-5.4c3.6-0.9,8.3-2.4,13.3-4
	c0.3-2.5,0.5-5,0.6-7.6h-9.9v-5.6h9.9v-8.2h-10.5V242h10.5v-11.2h5.6c-1.5,19.5,6,48.7-13.3,61.6 M776.8,230.7h5.9v11.2h11.1v5.6
	h-11.1v8.2H793v5.6h-10.4v8.8h12.3v5.7h-12.3v16.3h-5.9 M824.7,300.8h-5.2v-75.3h5.2 M888,270.9v-5.7h17.7v5.7 M938.6,287h-7.2
	l0.4-41.7l-13.9,22.4H945v6h-34.8v-5.2l19.6-30.9h8.9 M963.3,258.6c0,1.7-0.1,3.6-0.2,5.6h19.3c-0.7-1.4-1.4-2.9-2.2-4.2l6-1.4
	c1.2,1.6,2.3,3.8,3.1,5.6h21v5H982c-0.2,1.6-0.5,3-0.8,4.5h22.5c-1.1,16.6-2,20-17,18.6c-0.1-1.6-0.8-3.8-1.7-5.2
	c8.8,0.4,11.2,2.5,12.1-8.4h-17.5c-2.6,6.2-7.6,10.9-17.5,13.9c-0.5-1.4-2.1-3.8-3.4-4.8c12.6-3.4,15.7-9.6,17-18.4h-13.1
	c-0.9,8.4-3.4,17.3-8.6,23.7c-0.9-1.3-3.4-3.7-4.6-4.4c11-14.8,6.8-35.9,7.6-52.5c15-0.9,32.6-2.6,42.7-5l4.8,4.7
	c-11.2,2.5-26.9,4.1-41.3,4.9v2.9h42.6v15.2 M999.8,253.7v-5.4h-36.5v5.4"/></svg>