<svg width="29" height="333" fill="#069" xmlns="http://www.w3.org/2000/svg"><path d="M9.6,157.2v-2.7h18.8v2.7 M10.4,143.9v-2.7h17.1v2.7 M20.3,167.5h-2.9V142h2.9 M24.2,145.2l2.7,0.6
	c-0.8,2.5-1.7,5.5-2.4,7.4l-2.2-0.6C23,150.6,23.8,147.4,24.2,145.2z M11.3,145.9l2.3-0.6c0.8,2.3,1.5,5.2,1.7,7.2l-2.4,0.6
	C12.8,151.2,12.1,148.2,11.3,145.9z M0.8,149.5v-2.7h8.5v2.7 M6.6,160H4v-19.9h2.6 M1.3,163.1l-1-2.9l9.2-3.1l0.5,2.5 M24.1,200.4
	c-1.4-2.8-4.2-7.3-6.6-10.6l2.8-1.3c2.4,3.3,5.3,7.5,6.7,10.3 M0.3,185.1c3.3-2.8,6.4-7.2,8.3-11.6l3.1,1c-2.2,4.9-5.6,9.9-8.9,13
	 M24.9,197.4c-16.7,1.2-19.4,1.3-20.8,1.9L3,196.2c2.1-0.6,6.5-7.2,10.4-14.2l3.3,1.4c-4.4,7.7-8.5,12.3-8.5,12.3l14.7-0.9
	 M26.5,187.4c-3.4-2.6-6.3-6.8-7.9-11.1h-5.2v-2.9h7.4c1.4,4.5,4.3,8.9,7.9,11.2 M5.7,216.4v-1.7H23v1.7 M7.3,213.1v-1.6h14.2v1.6
	 M15.6,216H13v-6h2.6 M4.9,224c2.9-0.7,6.2-1.8,8-3.1l1.9,0.7c-2,1.8-5.6,3.2-8.5,4.1 M23.1,223.4c-1.3,1-2.9,1.8-4.2,2.4l-1.4-1
	c1.2-0.7,3-1.8,3.9-2.6 M18.9,220.5v-1.7H9.8v1.7 M7.4,221.8v-4.4h14v4.4 M27.1,206.9v26.6h-2.8v-24.1H4.4v24.1H1.7v-26.6
	 M2.9,232.4v-2.6h22v2.6 M21.3,228.8c-1.6-1.5-5-3.9-7.7-5.5l1.7-1c2.6,1.5,6,3.8,7.8,5.3 M15.5,225.9v1.7c-5.4,1.4-6.2,1.7-6.7,2
	L8.1,228c1.3-0.7,1.1-1,1.1-5h2.1v3.9 M7.8,251v12.3c0,3.5-2.5,3-5.6,3.1l-0.9-2.7c3.1,0.1,3.8,0.3,3.8-0.4V251 M5.6,246.1
	c1-1,2.2-2.2,3.1-3.5l-7.7,0v-2.5h8.8c0.3,0,0.9,0,1.1-0.1l1.8,1.2c-1.5,2.3-3.6,5-5.5,6.6 M10.5,252.1H0.4v-2.5H11
	c0.2,0,0.6,0,0.8-0.1l1.8,0.5c-0.7,2.4-1.6,5.1-2.4,6.8l-2.1-0.5C9.5,255.2,10.1,253.6,10.5,252.1L10.5,252.1z M1.7,245.9l1.5-1.9
	c2.5,1.2,5.6,3.2,7.1,4.6l-1.6,2.1C7.3,249.2,4.3,247.1,1.7,245.9z M12.8,240h15.3v2.4H12.8V240z M24.4,254v-2.5h-7.9v2.5
	 M24.4,258.5V256h-7.9v2.5 M24.4,249.5V247h-7.9v2.5 M13.9,260.7v-15.8h13.2v15.8 M20.6,246.6l-2.5-0.5l0.9-4.9l3.2,0.4L20.6,246.6z
	 M10.5,264.7c2.4-0.8,5.1-2.4,6.4-3.7l2.4,1.5c-1.7,1.6-4.5,3.2-6.9,4.1 M26.6,266.6c-1.2-1.1-3.4-2.8-5.2-4l2.1-1.4
	c1.8,1.1,4.1,2.7,5.3,3.8 M5.9,283.6v-2.7H23v2.7 M14.4,290.6V288h10.1v2.6 M15.9,297h-3v-15h3 M8.7,285.9
	c-0.8,6.1-2.6,10.7-6.1,13.7l-2.3-1.9c3.4-2.5,4.9-6.7,5.5-12.1 M27.3,299.1c-8.5-0.1-18.6,1.6-21.7-8.8l2.3-0.9
	c2.9,8.9,12.9,6.5,20.4,6.8 M4.5,277.7v4.3H1.7v-7h25.4v7h-2.9v-4.3 M13.5,276.2c-0.2-1-0.9-2.7-1.6-4l2.8-0.8
	c0.7,1.2,1.5,2.8,1.8,3.9 M0.8,314.5v-2.7H10v2.7 M7,324.7H4.3v-19.6H7 M1.3,327.7l-1.1-2.9l9.7-3.9l0.6,2.5 M20.9,325.7h-2.7v-21
	h2.7 M14.8,327.3c0,1.7,0.3,2,2.3,2h6.6c1.7,0,2-0.8,2.2-4l2.5,1c0,6-0.3,5.6-11.6,5.6c-3.7,0-4.8-0.9-4.8-4.6
	c0.1,0,0.1-19.8,0.1-19.8h2.7 M25,310.2l2.1,0.7c-0.4,4.4-0.9,9-1.6,13.7l-2.3-0.7c0.4-2.6,0.9-8.6,0.9-10.5l-14.1,6l-1-2.5 M6.2,31
	v-2.3c19.8-15.8,8.4-25,2-17.3L6,9.3c8.6-10,25.9,0.5,6,18.4h10.4V31 M10.7,51c-5.8-3.5-3.5-12.4,3.8-12.4c7.6,0,9.1,9.2,3.8,12.6
	c6.7,3.1,5.1,13.3-3.9,13.3S3.7,54.1,10.7,51z M16.1,50.1c3.2-2.6,3.2-8.7-1.6-8.7C10.1,41.4,8.4,47.5,16.1,50.1z M14.5,61.6
	c5.7,0,6.3-6.9-1.8-9.5C8.5,54.6,8.6,61.6,14.5,61.6z M14.4,97.5c-10.8,0-11-25.9,0-25.9C25.3,71.5,25.1,97.5,14.4,97.5z M14.4,94.3
	c5.9,0,6-19.8,0-19.8C8.4,74.6,8.5,94.3,14.4,94.3z M14.4,130.5c-10.8,0-11-25.9,0-25.9C25.3,104.5,25.1,130.5,14.4,130.5z
	 M14.4,127.3c5.9,0,6-19.8,0-19.8C8.4,107.6,8.5,127.3,14.4,127.3z"/></svg>