<?xml version="1.0" encoding="utf-8"?>
<!-- Generator: Adobe Illustrator 26.5.0, SVG Export Plug-In . SVG Version: 6.00 Build 0)  -->
<svg version="1.1" id="圖層_1" xmlns="http://www.w3.org/2000/svg" xmlns:xlink="http://www.w3.org/1999/xlink" x="0px" y="0px"
	 viewBox="0 0 416 251" style="enable-background:new 0 0 416 251;" xml:space="preserve">
<style type="text/css">
	.st0{fill:#CCCCCC;}
</style>
<path class="st0" d="M14.6,0.9h7l14,36.4h-7.2l-2.9-7.5H10.7l-3,7.5H0.5L14.6,0.9z M18.1,10.6l-4.9,12.5H23L18.1,10.6z M74.5,7.3
	l-4.8,4.6C62,2.6,45.9,6.6,46.1,19.1c-0.4,12.6,16,16.7,23.5,7.3l4.7,4.9c-11.6,13.5-36,6.4-35.1-12.2C38.4,0.7,63.7-6.5,74.5,7.3
	L74.5,7.3z M114,7.3l-4.8,4.6c-7.6-9.4-23.7-5.3-23.5,7.1c-0.4,12.6,16,16.7,23.5,7.3l4.7,4.9c-11.6,13.5-36,6.4-35.1-12.2
	C77.9,0.7,103.2-6.5,114,7.3L114,7.3z M137.3,0c24.7,0.3,25,38,0.1,38.3C112.4,38.4,112.4,0,137.3,0L137.3,0z M137.2,6.8
	c-15.7-0.4-15.6,25.3,0.1,24.8C153,31.8,152.8,6.5,137.2,6.8z M166.2,0.9h6.8l8.5,25.4L190,0.9h6.8l6.1,36.4h-6.7l-3.9-23l-7.7,23
	h-6.1l-7.7-23l-4,23h-6.8L166.2,0.9z M208.3,0.9c4.1,0,13.2-0.3,16,1.1c11.7,6.4,4.3,22.4-9,19.9v15.4h-6.9V0.9z M215.3,15.2
	c3.4,0,8,0.6,8-3.7c0-4.2-4.4-3.8-8-3.8L215.3,15.2L215.3,15.2z M247.9,0.9h7l14,36.4h-7.2l-2.9-7.5H244l-3,7.5h-7.2L247.9,0.9z
	 M251.5,10.6l-4.9,12.5h9.8L251.5,10.6z M274.3,0.9h6.7l15.6,24v-24h6.9v36.4h-6.7l-15.6-23.9v23.9h-6.9V0.9z M311.3,0.9h6.9v36.4
	h-6.9V0.9z M326.1,0.9H346v6.8h-13v6.6h13v6.7h-13v9.6h13v6.8h-19.9V0.9z M352.4,0.9c15.1-0.9,28.7,0.8,28.9,18.7
	c-0.4,18.1-13.9,18.4-28.9,17.7L352.4,0.9L352.4,0.9z M359.3,7.6v23c5.6,0,11.1,0.5,13.6-4.8C377.5,15.7,371.2,5.9,359.3,7.6
	L359.3,7.6z M0,144.4v-85c8,0,24.9-0.4,30.4,1.5c17.1,3.4,23,26.8,7.9,36.7c19.5,7.2,19.4,35.4,1.7,43.9C32.2,146,9.5,143.9,0,144.4
	z M16.2,74.8v17.9c7.2,0.5,15.4-1,15.2-9.3C31.6,75.3,23,74.3,16.2,74.8z M16.2,107.2v21.8c5.9,0.2,15.4-0.3,17.6-2.5
	c5.2-3.5,4.4-12.6-0.6-16.1C30.4,107.7,22.2,106.9,16.2,107.2z M62.6,59.4H80l15.9,30.6l15.8-30.6h17.2l-24.9,48.2v36.8H87.6v-36.8
	L62.6,59.4z M0.1,163.4h15.5L52,219.3v-55.9h16.2v85H52.6l-36.3-55.8v55.8H0.1V163.4z M113.5,163.4h16.4l32.7,85h-16.8l-6.6-17.5
	h-34.7l-6.9,17.5H80.7L113.5,163.4z M121.8,185.9l-11.4,29.2h22.7L121.8,185.9z M166.7,163.4h47v15.9h-15.5v69.1h-16.4v-69.1h-15.1
	L166.7,163.4L166.7,163.4z M224.2,163.4h16.2v55c-0.4,9.9,2.5,16.3,12.3,16.5c10.9-0.5,13.2-7.2,12.8-18.5c0,0,0-53,0-53h16.2
	c-0.6,11.7,1.4,58.9-1.4,68.5c-3.5,11.5-14.9,19.2-27.3,18.7c-11,0.2-21.5-5.5-25.9-14.9C221.8,224.9,225.1,176.9,224.2,163.4
	L224.2,163.4z M301.7,163.4c9.5,0.1,30.9-0.7,37.2,2.5c18.6,7.8,17.6,39.4-2.9,44.7l20.1,37.8h-17.7l-19.1-36h-1.5v36h-16.2V163.4
	L301.7,163.4z M317.9,196.6c8.2-0.1,18.9,1.2,18.6-8.8c-0.2-9.7-10.5-8.7-18.6-8.7C317.9,179.2,317.9,196.6,317.9,196.6z
	 M369.3,163.4h46.4v15.8h-30.3v15.4h30.3v15.5h-30.3v22.4h30.3v15.9h-46.4V163.4z"/>
</svg>
