<?xml version="1.0" encoding="utf-8"?>
<!-- Generator: Adobe Illustrator 26.5.0, SVG Export Plug-In . SVG Version: 6.00 Build 0)  -->
<svg version="1.1" id="圖層_1" xmlns="http://www.w3.org/2000/svg" xmlns:xlink="http://www.w3.org/1999/xlink" x="0px" y="0px"
	 viewBox="0 0 154 578" style="enable-background:new 0 0 154 578;" xml:space="preserve">
<style type="text/css">
	.st0{fill:#CCCCCC;}
</style>
<path class="st0" d="M152.3,14.4v7l-36.4,14v-7.2l7.5-2.9V10.5l-7.5-3V0.4L152.3,14.4z M142.6,18l-12.5-4.9v9.7L142.6,18z
	 M145.9,74.3l-4.6-4.9c3.5-3.3,5.2-7,5.2-11.1c0-3.5-1.2-6.4-3.6-8.8s-5.3-3.6-8.8-3.6c-2.4,0-4.6,0.5-6.5,1.6
	c-1.9,1.1-3.4,2.6-4.4,4.5c-1.1,1.9-1.6,4.1-1.6,6.4c0,2,0.4,3.8,1.1,5.5s2.1,3.5,4.1,5.5l-4.9,4.7c-2.6-2.7-4.4-5.2-5.5-7.6
	c-1-2.4-1.5-5.1-1.5-8.2c0-5.7,1.8-10.3,5.4-13.9c3.6-3.6,8.2-5.4,13.8-5.4c3.6,0,6.9,0.8,9.7,2.5c2.8,1.6,5.1,4,6.8,7.1
	c1.7,3.1,2.6,6.4,2.6,9.9c0,3-0.6,5.9-1.9,8.7C150,69.9,148.2,72.3,145.9,74.3L145.9,74.3z M145.9,113.9l-4.6-4.8
	c3.5-3.3,5.2-7,5.2-11.1c0-3.5-1.2-6.4-3.6-8.8c-2.4-2.4-5.3-3.6-8.8-3.6c-2.4,0-4.6,0.5-6.5,1.6c-1.9,1.1-3.4,2.6-4.4,4.5
	c-1.1,1.9-1.6,4.1-1.6,6.4c0,2,0.4,3.9,1.1,5.5s2.1,3.5,4.1,5.5l-4.9,4.7c-2.6-2.7-4.4-5.2-5.5-7.6c-1-2.4-1.5-5.1-1.5-8.2
	c0-5.7,1.8-10.3,5.4-13.9c3.6-3.6,8.2-5.4,13.8-5.4c3.6,0,6.9,0.8,9.7,2.5c2.8,1.6,5.1,4,6.8,7.1c1.7,3.1,2.6,6.4,2.6,9.9
	c0,3-0.6,5.9-1.9,8.7C150,109.5,148.2,111.9,145.9,113.9L145.9,113.9z M153.2,137.2c0,5.2-1.9,9.6-5.6,13.3
	c-3.7,3.7-8.3,5.6-13.7,5.6s-9.8-1.8-13.5-5.5s-5.5-8.1-5.5-13.3s1.9-10,5.7-13.6c3.8-3.6,8.3-5.4,13.5-5.4c3.5,0,6.7,0.8,9.6,2.5
	c2.9,1.7,5.2,4,6.9,7S153.2,133.8,153.2,137.2L153.2,137.2z M146.4,137.1c0-3.4-1.2-6.2-3.5-8.5c-2.4-2.3-5.3-3.4-8.9-3.4
	c-4,0-7.2,1.4-9.6,4.3c-1.8,2.2-2.8,4.8-2.8,7.7c0,3.3,1.2,6.1,3.6,8.4c2.4,2.3,5.3,3.5,8.8,3.5s6.4-1.2,8.8-3.5
	C145.2,143.3,146.4,140.4,146.4,137.1z M152.3,166.1v6.8l-25.4,8.5l25.4,8.5v6.8l-36.4,6.1V196l23-3.9l-23-7.7v-6.1l23-7.7l-23-4
	v-6.8L152.3,166.1z M152.3,208.2v7.4c0,4-0.4,6.9-1.1,8.6c-0.7,1.8-1.9,3.2-3.6,4.2c-1.6,1-3.6,1.5-5.9,1.5c-2.5,0-4.7-0.7-6.3-2
	c-1.7-1.3-2.9-3.1-3.5-5.4c-0.4-1.3-0.6-3.8-0.6-7.3h-15.4v-6.9H152.3z M138,215.1v2.2c0,1.7,0.1,2.9,0.4,3.6
	c0.2,0.7,0.7,1.2,1.2,1.6c0.6,0.4,1.3,0.6,2.1,0.6c1.4,0,2.4-0.5,3.1-1.6c0.5-0.8,0.7-2.3,0.7-4.4v-2L138,215.1L138,215.1z
	 M152.3,247.8v7l-36.4,14v-7.2l7.5-2.9v-14.9l-7.5-3v-7.2L152.3,247.8z M142.6,251.3l-12.5-4.9v9.8L142.6,251.3z M152.3,274.2v6.6
	l-24,15.6h24v6.9h-36.4v-6.7l23.9-15.6h-23.9v-6.9H152.3z M152.3,311.2v6.9h-36.4v-6.9H152.3z M152.3,325.9v19.9h-6.8v-13h-6.6v13
	h-6.7v-13h-9.6v13h-6.8v-19.9H152.3z M152.3,352.3v8.2c0,5.3-0.7,9.2-2,11.8c-1.3,2.6-3.4,4.7-6.4,6.4c-2.9,1.7-6.4,2.5-10.4,2.5
	c-2.8,0-5.4-0.5-7.7-1.4c-2.3-0.9-4.3-2.2-5.9-3.9c-1.6-1.6-2.6-3.4-3.2-5.3c-0.6-1.9-0.9-5.2-0.9-10v-8.3L152.3,352.3L152.3,352.3z
	 M145.6,359.2h-23v3.2c0,3.2,0.4,5.5,1.1,6.9c0.7,1.4,2,2.6,3.7,3.5c1.7,0.9,3.8,1.4,6.3,1.4c3.9,0,6.9-1.1,9-3.2
	c1.9-2,2.9-5.1,2.9-9.4L145.6,359.2L145.6,359.2z M0.9,0.4l85,0v13.4c0,7.8-0.5,13.4-1.5,17c-1.4,5.1-3.9,9.1-7.5,12.2
	c-3.7,3-8,4.5-13,4.5c-3.2,0-6.2-0.7-8.8-2c-2.6-1.4-5.1-3.6-7.4-6.7c-2.4,5.2-5.5,8.9-9.1,11.3s-7.9,3.6-12.9,3.6
	s-9.1-1.2-13.1-3.7c-3.9-2.5-6.9-5.6-8.8-9.5c-1.9-3.9-2.9-9.3-2.9-16.1L0.9,0.4z M70.5,16.6H52.6v3.5c0,3.9,0.8,6.9,2.5,8.8
	s3.9,2.9,6.8,2.9c2.7,0,4.8-0.9,6.3-2.7c1.6-1.8,2.3-4.6,2.3-8.3V16.6z M38.1,16.6H16.3v4.1c0,6.7,0.8,11.2,2.5,13.6
	c1.7,2.3,4.2,3.5,7.4,3.5c3.7,0,6.6-1.4,8.7-4.1c2.1-2.7,3.2-7.3,3.2-13.7V16.6z M85.9,63v17.4L55.4,96.2L85.9,112v17.2l-48.2-24.9
	H0.9V88h36.8L85.9,63z M85.9,162.1v15.5L30,214h56v16.2h-85l0-15.6l55.8-36.3H0.9v-16.2H85.9z M85.9,275.5v16.4l-85,32.7l0-16.8
	l17.5-6.6v-34.7l-17.5-6.9v-16.8L85.9,275.5z M63.4,283.8l-29.2-11.4v22.8L63.4,283.8z M85.9,328.7v47H70v-15.5H0.9l0-16.4H70v-15.1
	L85.9,328.7L85.9,328.7z M88.1,386.2v16.2h-55c-4.7,0-8.1,0.4-10.1,1.2c-2,0.8-3.5,2.2-4.7,4.1c-1.2,1.9-1.8,4.2-1.8,6.9
	c0,2.8,0.7,5.3,2,7.4s3,3.5,5,4.3s5.9,1.2,11.6,1.2h53v16.2H37.4c-8.6,0-14.5-0.5-17.8-1.5c-3.3-1-6.5-2.8-9.6-5.5
	c-3.1-2.7-5.4-5.9-6.9-9.4c-1.5-3.6-2.2-7.7-2.2-12.4c0-6.2,1.4-11.5,4.3-16.1c2.8-4.6,6.4-7.8,10.6-9.8c4.3-2,11.4-2.9,21.6-2.9
	L88.1,386.2L88.1,386.2z M85.9,463.7v17.1c0,9.4-0.8,16.1-2.5,20.1c-1.7,4-4.5,7.2-8.3,9.6c-3.9,2.4-8.5,3.6-13.8,3.6
	c-5.6,0-10.3-1.3-14-4c-3.8-2.7-6.6-6.7-8.5-12.1L0.9,518.2l0-17.7l36-19.1v-1.5h-36l0-16.2H85.9L85.9,463.7z M52.7,479.9v5.1
	c0,5.1,0.7,8.7,2,10.6s3.6,2.9,6.7,2.9c1.9,0,3.5-0.5,4.8-1.4c1.4-1,2.4-2.2,3-3.9c0.6-1.6,0.9-4.6,0.9-8.9v-4.4H52.7L52.7,479.9z
	 M85.9,531.3v46.4H70.1v-30.3H54.7v30.3H39.2v-30.3H16.8v30.3H0.9l0-46.4H85.9z"/>
</svg>
