<svg width="315" height="48" viewBox="0 0 315 48" fill="none" xmlns="http://www.w3.org/2000/svg">
<path d="M164.234 6.68183H162.325C162.325 5.41602 161.822 4.20206 160.927 3.307C160.032 2.41193 158.818 1.90909 157.553 1.90909C156.287 1.90909 155.073 2.41193 154.178 3.307C153.283 4.20206 152.78 5.41602 152.78 6.68183H150.871C150.871 4.9097 151.575 3.21015 152.828 1.95706C154.081 0.703976 155.78 0 157.553 0C159.325 0 161.024 0.703976 162.277 1.95706C163.53 3.21015 164.234 4.9097 164.234 6.68183Z" fill="white"/>
<path d="M169.007 13.3635C168.514 13.3653 168.03 13.497 167.604 13.7453C167.347 13.3372 166.99 13.0006 166.568 12.767C166.146 12.5334 165.671 12.4102 165.189 12.409C164.696 12.4108 164.212 12.5425 163.786 12.7908C163.438 12.2444 162.916 11.8317 162.304 11.6202C161.692 11.4087 161.027 11.4109 160.416 11.6263V6.6817C160.416 5.92222 160.114 5.19384 159.577 4.6568C159.04 4.11976 158.312 3.81806 157.553 3.81806C156.793 3.81806 156.065 4.11976 155.528 4.6568C154.991 5.19384 154.689 5.92222 154.689 6.6817V17.2772L152.56 15.8263C152.072 15.4629 151.479 15.2685 150.871 15.2726C150.303 15.2712 149.747 15.4388 149.275 15.7539C148.802 16.0691 148.434 16.5176 148.217 17.0426C148 17.5675 147.944 18.145 148.056 18.7018C148.169 19.2586 148.444 19.7695 148.847 20.1695L156.483 27.1376C157.565 28.1053 158.965 28.6391 160.416 28.6363H165.189C166.961 28.6363 168.661 27.9323 169.914 26.6792C171.167 25.4261 171.871 23.7266 171.871 21.9545V16.2272C171.871 15.4677 171.569 14.7393 171.032 14.2023C170.495 13.6652 169.767 13.3635 169.007 13.3635ZM169.962 21.9545C169.962 23.2203 169.459 24.4342 168.564 25.3293C167.669 26.2244 166.455 26.7272 165.189 26.7272H160.416C159.451 26.7389 158.515 26.3996 157.782 25.7726L150.193 18.8045C150.017 18.6267 149.917 18.3867 149.916 18.1363C149.916 17.959 149.966 17.7852 150.059 17.6344C150.152 17.4836 150.285 17.3618 150.444 17.2825C150.602 17.2032 150.78 17.1697 150.956 17.1856C151.133 17.2015 151.302 17.2663 151.443 17.3726L156.598 20.9045V6.6817C156.598 6.42854 156.699 6.18575 156.878 6.00673C157.057 5.82772 157.299 5.72715 157.553 5.72715C157.806 5.72715 158.048 5.82772 158.228 6.00673C158.407 6.18575 158.507 6.42854 158.507 6.6817V17.1817H160.416V14.3181C160.416 14.0649 160.517 13.8221 160.696 13.6431C160.875 13.4641 161.118 13.3635 161.371 13.3635C161.624 13.3635 161.867 13.4641 162.046 13.6431C162.225 13.8221 162.325 14.0649 162.325 14.3181V17.1817H164.234V15.2726C164.234 15.0195 164.335 14.7767 164.514 14.5977C164.693 14.4186 164.936 14.3181 165.189 14.3181C165.442 14.3181 165.685 14.4186 165.864 14.5977C166.043 14.7767 166.143 15.0195 166.143 15.2726V17.1817H168.053V16.2272C168.053 15.974 168.153 15.7312 168.332 15.5522C168.511 15.3732 168.754 15.2726 169.007 15.2726C169.26 15.2726 169.503 15.3732 169.682 15.5522C169.861 15.7312 169.962 15.974 169.962 16.2272V21.9545Z" fill="white"/>
<path d="M110.756 36.984H121.22V38.076H110.756V36.984ZM114.116 40.176H120.944V41.268H114.116V40.176ZM112.856 44.604H121.436V45.708H112.856V44.604ZM116.672 40.692H117.824V45.216H116.672V40.692ZM114.332 34.872L115.52 35.028C114.872 38.808 113.756 42.864 111.032 45.336C110.864 45.084 110.516 44.664 110.288 44.436C112.784 42.228 113.828 38.316 114.332 34.872ZM123.032 37.032H133.592V38.136H123.032V37.032ZM126.128 44.256H131.972V45.36H126.128V44.256ZM125.456 40.296H132.74V45.972H131.552V41.4H126.584V46.032H125.456V40.296ZM127.088 34.872L128.276 35.1C127.496 38.388 126.128 41.724 123.38 43.68C123.212 43.416 122.852 43.008 122.624 42.78C125.192 41.028 126.476 37.86 127.088 34.872ZM143.78 40.152H144.86V44.952C144.86 45.468 144.74 45.72 144.38 45.876C144.008 46.02 143.456 46.032 142.616 46.032C142.568 45.768 142.436 45.384 142.304 45.12C142.844 45.144 143.408 45.144 143.564 45.144C143.732 45.144 143.78 45.096 143.78 44.94V40.152ZM138.068 38.532H146.036V40.668H144.944V39.432H139.112V40.668H138.068V38.532ZM139.28 35.304H144.788V38.988H143.72V36.192H140.3V38.988H139.28V35.304ZM135.692 35.796L136.4 35.04C137.084 35.448 138.056 36.072 138.536 36.48L137.804 37.332C137.348 36.912 136.388 36.24 135.692 35.796ZM135.056 39.156L135.716 38.364C136.376 38.712 137.312 39.252 137.78 39.612L137.096 40.488C136.652 40.116 135.728 39.552 135.056 39.156ZM135.476 45.096C135.992 44.196 136.724 42.708 137.276 41.376L138.176 42.048C137.696 43.272 137.06 44.676 136.496 45.768L135.476 45.096ZM139.724 40.152H144.164V41.04H139.724V40.152ZM139.196 40.152H140.264V41.88C140.264 43.14 140.096 44.916 139.184 46.104C138.992 45.924 138.524 45.612 138.272 45.492C139.1 44.412 139.196 42.936 139.196 41.868V40.152ZM140.144 43.548C141.152 43.368 142.64 43.056 144.092 42.744L144.2 43.56C142.904 43.872 141.536 44.196 140.48 44.424L140.144 43.548ZM140.504 42.204L140.864 41.508C141.74 41.592 142.88 41.856 143.492 42.12L143.132 42.888C142.532 42.624 141.392 42.324 140.504 42.204ZM141.5 36.888H144.284V37.608H142.424V39.036H141.5V36.888ZM147.668 42.684H153.2V43.512H147.668V42.684ZM147.368 36.924H153.368V37.776H147.368V36.924ZM149.876 35.94H150.908V44.676H149.876V35.94ZM147.332 44.628C148.808 44.508 151.076 44.316 153.224 44.1L153.236 44.976C151.196 45.216 149.024 45.444 147.476 45.6L147.332 44.628ZM148.628 40.584V41.316H152.204V40.584H148.628ZM148.628 39.156V39.876H152.204V39.156H148.628ZM147.704 38.412H153.152V42.06H147.704V38.412ZM152.66 34.968L153.188 35.832C151.724 36.144 149.516 36.336 147.716 36.384C147.668 36.144 147.56 35.784 147.452 35.556C149.24 35.472 151.376 35.256 152.66 34.968ZM153.308 37.644H157.568V38.688H153.308V37.644ZM157.112 37.644H158.204C158.204 37.644 158.204 38.04 158.204 38.172C158.072 43.188 157.964 44.904 157.568 45.42C157.34 45.78 157.076 45.888 156.704 45.948C156.344 45.996 155.78 45.996 155.216 45.972C155.192 45.66 155.072 45.192 154.892 44.88C155.444 44.928 155.948 44.94 156.176 44.94C156.368 44.94 156.488 44.904 156.596 44.748C156.884 44.376 157.004 42.66 157.112 37.896V37.644ZM154.628 35.052H155.72C155.708 39.972 155.696 43.932 152.876 46.092C152.708 45.828 152.324 45.444 152.06 45.252C154.712 43.308 154.616 39.696 154.628 35.052ZM162.284 40.2H169.352V46.044H168.212V41.076H163.364V46.044H162.284V40.2ZM159.872 38.592H170.516V39.504H159.872V38.592ZM160.736 36.984H169.832V37.86H160.736V36.984ZM163.016 41.76H168.68V42.516H163.016V41.76ZM163.016 43.224H168.68V43.968H163.016V43.224ZM162.896 44.7H168.692V45.588H162.896V44.7ZM169.064 34.944L169.748 35.76C167.42 36.192 163.784 36.36 160.808 36.348C160.784 36.096 160.688 35.724 160.58 35.484C163.52 35.472 167.096 35.316 169.064 34.944ZM164.06 35.844L165.236 36.084C164.432 39.024 162.968 41.82 160.256 43.416C160.1 43.164 159.764 42.744 159.536 42.528C162.08 41.1 163.448 38.472 164.06 35.844ZM173.6 41.916H181.364V42.912H173.6V41.916ZM174.152 39.264H180.836V40.272H174.152V39.264ZM172.412 44.688H182.648V45.708H172.412V44.688ZM176.864 39.696H178.052V45.252H176.864V39.696ZM174.212 35.22H177.992V36.276H174.212V35.22ZM176.84 35.22H178.1C179.18 36.828 181.196 38.4 183.164 39.18C182.936 39.42 182.564 39.888 182.396 40.2C180.38 39.252 178.376 37.536 177.164 35.856H176.84V35.22ZM177.032 35.22L177.86 35.796C176.672 37.44 174.44 39.276 172.568 40.248C172.412 39.972 172.124 39.576 171.86 39.336C173.72 38.508 175.94 36.756 177.032 35.22ZM186.86 37.356V38.016H192.668V37.356H186.86ZM186.86 36.012V36.66H192.668V36.012H186.86ZM185.768 35.28H193.808V38.76H185.768V35.28ZM184.46 39.396H195.08V40.308H184.46V39.396ZM187.136 41.664V42.6H192.464V41.664H187.136ZM186.044 40.86H193.604V43.404H186.044V40.86ZM189.236 42.972H190.376V44.988C190.376 45.516 190.256 45.744 189.848 45.876C189.44 46.008 188.852 46.008 188.012 46.008C187.952 45.732 187.808 45.372 187.676 45.12C188.252 45.144 188.852 45.144 189.02 45.132C189.188 45.12 189.236 45.084 189.236 44.952V42.972ZM191.18 44.304L191.912 43.68C192.956 44.04 194.348 44.664 195.092 45.144L194.312 45.864C193.628 45.396 192.248 44.724 191.18 44.304ZM187.172 43.632L188.204 44.052C187.4 44.736 186.116 45.42 185.084 45.84C184.892 45.612 184.496 45.216 184.244 45.036C185.3 44.7 186.476 44.184 187.172 43.632ZM188.912 38.952L189.908 38.628C190.172 38.952 190.436 39.384 190.556 39.696L189.5 40.068C189.416 39.768 189.164 39.288 188.912 38.952ZM200.6 37.38V38.028H203.516V37.38H200.6ZM199.688 36.756H204.488V38.652H199.688V36.756ZM200.168 40.884V43.404H203.948V40.884H200.168ZM199.28 40.224H204.884V44.064H199.28V40.224ZM201.464 41.856V42.432H202.628V41.856H201.464ZM200.816 41.328H203.324V42.96H200.816V41.328ZM198.584 39.12H205.628V39.78H198.584V39.12ZM201.56 38.244H202.532V39.42H201.56V38.244ZM197.024 35.328H207.2V46.008H206.096V36.276H198.092V46.008H197.024V35.328ZM197.696 44.604H206.66V45.552H197.696V44.604Z" fill="white"/>
<line x1="4.37114e-08" y1="2.5" x2="315" y2="2.50003" stroke="white"/>
</svg>
