<svg width="375" height="56" viewBox="0 0 375 56" fill="none" xmlns="http://www.w3.org/2000/svg">
<rect width="375" height="56" fill="#CCA86D"/>
<path d="M161.355 21.0695C164.116 19.7293 165.931 17.6383 166.808 14.8213H168.232C167.485 18.1843 165.198 20.6042 161.361 22.0809V21.0695H161.355ZM161.355 27.2185C164.184 25.8721 165.962 23.7935 166.708 20.9703H168.232C167.753 22.6456 167.088 23.992 166.198 25.0034V38.0149H164.688V26.4181C163.811 27.0882 162.704 27.7025 161.355 28.2299V27.2185ZM184.9 29.9486V30.9538H181.462V35.1855C181.53 36.8608 180.685 37.6736 178.938 37.6054H176.407V36.6002H178.633C179.572 36.6685 180.013 36.1659 179.939 35.0862V30.9538H168.325V29.9486H179.939V27.4295H169.338V26.4181H184.397V27.4295H181.462V29.9486H184.9ZM170.65 24.1906V15.8265H182.979V21.7707C183.041 23.4522 182.171 24.2588 180.349 24.1906H170.644H170.65ZM172.372 32.0583C173.044 33.0014 173.622 34.2424 174.088 35.7874H172.571C172.372 34.7139 171.869 33.4668 171.06 32.0583H172.372ZM172.167 16.8317V19.4563H181.462V16.8317H172.167ZM181.462 21.7707V20.4615H172.167V23.1792H180.051C181.064 23.1792 181.537 22.7138 181.462 21.7645V21.7707Z" fill="white"/>
<path d="M190.005 19.0546V18.0494H194.954V15.127H196.464V18.0494H201.413V19.0546H196.464V23.3918H200.91V24.4032H196.464V25.6193C196.464 26.8292 196.433 27.9337 196.365 28.9451H201.718V29.9565H196.265C195.855 33.3133 193.635 36.0682 189.594 38.2213V37.1168C192.554 35.1623 194.245 32.7797 194.643 29.9565H189.489V28.9451H194.842C194.91 28.0019 194.947 26.9285 194.947 25.7186V24.4094H190.601V23.398H194.947V19.0608H189.998L190.005 19.0546ZM210.111 24.5024C211.597 25.9854 212.337 27.6607 212.337 29.547C212.468 33.0403 210.584 34.79 206.679 34.79V33.5801C209.639 33.7104 211.056 32.3019 210.92 29.3422C210.92 27.6607 210.174 26.0847 208.694 24.6017C210.174 22.3121 210.851 19.824 210.714 17.1373H204.851V38.1158H203.235V16.0329H212.231V17.1435C212.294 19.7061 211.591 22.157 210.105 24.5086L210.111 24.5024Z" fill="white"/>
<path d="M246.284 22.1871V21.1757C248.503 19.6307 249.852 17.7134 250.331 15.43H251.842C251.643 16.3049 251.376 17.1115 251.034 17.8499H256.698V14.7227H258.314V17.8499H267.205V19.0598H258.314V24.0051H268.622V25.215H245.177V24.0051H256.704V19.0598H250.337C249.666 20.0712 248.311 21.1136 246.29 22.1871H246.284ZM248.609 37.2151V28.4415H265.483V34.2864C265.62 36.303 264.507 37.2772 262.15 37.2151H248.609ZM263.866 34.2864V29.5522H250.12V36.1045H261.945C263.294 36.1727 263.928 35.5708 263.866 34.2864Z" fill="white"/>
<path d="M240.477 18.7561H222.185V26.2143C222.185 29.5091 221.843 31.9662 221.166 33.5794C220.631 35.1244 219.388 36.6322 217.429 38.1151V36.9052C219.711 34.9569 220.762 31.8607 220.563 27.629V17.6454H229.758V14.9277H231.474V17.6454H240.471V18.7623L240.477 18.7561Z" fill="white"/>
<path d="M228.111 34.6777H229.708C228.577 36.6632 226.152 37.2899 222.428 37.8173V36.9238C225.22 36.3281 227.116 35.9993 228.111 34.6777ZM222.913 26.6734V25.6807H239.992V26.6734H232.202V27.8337H239.184V32.0902C239.252 33.8834 238.35 34.2805 236.492 34.2185H223.584V27.8337H230.703V26.6734H222.913ZM225.083 28.8327V30.446H230.703V28.8327H225.083ZM225.083 31.3395V33.2257H230.703V31.3395H225.083ZM237.685 28.8327H232.202V30.446H237.685V28.8327ZM237.685 32.0964V31.3457H232.202V33.2319H235.59C236.591 33.2319 237.685 33.1637 237.685 32.1027V32.0964ZM234.788 34.6839C235.789 36.0055 237.685 36.3343 240.477 36.93V37.8235C236.746 37.2961 234.322 36.6694 233.196 34.6839H234.788Z" fill="white"/>
<path d="M237.685 20.891V19.3398H236.255V20.891H226.805V19.3398H225.375V20.891H223.634V21.8652H225.375V24.5395H234.825C236.97 24.5395 237.679 23.6584 237.679 22.3926V21.8714H239.712V20.8973H237.679L237.685 20.891ZM236.255 22.4733C236.255 23.3419 235.938 23.4723 234.558 23.4723H226.805V21.8714H236.255V22.4733Z" fill="white"/>
<path d="M108.825 18.4328C106.668 20.5052 105.592 23.105 105.592 26.2261C105.592 29.6263 106.612 32.344 108.651 34.3668C110.69 36.3896 113.451 37.4009 116.939 37.4009H129.61V15.5352H116.298C113.327 15.5352 110.84 16.4969 108.825 18.4328ZM126.29 34.1372H116.659C114.427 34.1372 112.624 33.4174 111.25 31.9841C109.876 30.5508 109.186 28.6583 109.186 26.3129C109.186 24.1102 109.826 22.3046 111.107 20.9023C112.388 19.5 114.023 18.7927 116.019 18.7927H126.283V34.1372H126.29Z" fill="white"/>
<path d="M153.416 34.3668C155.455 32.344 156.475 29.6263 156.475 26.2261C156.475 23.105 155.393 20.5052 153.236 18.4328C151.221 16.4969 148.734 15.5352 145.762 15.5352H132.451V37.4009H145.128C148.616 37.4009 151.377 36.3896 153.416 34.3668ZM146.042 18.7989C148.038 18.7989 149.673 19.5 150.954 20.9085C151.924 21.9696 152.527 23.2602 152.763 24.7803H135.777V18.7989H146.042ZM135.777 27.9324H152.757C152.508 29.5456 151.862 30.8983 150.817 31.9903C149.443 33.4236 147.64 34.1434 145.408 34.1434H135.777V27.9324Z" fill="white"/>
</svg>
