<svg width="1919" height="56" viewBox="0 0 1919 56" fill="none" xmlns="http://www.w3.org/2000/svg">
<rect width="1920" height="55.6931" transform="translate(-1 0.277344)" fill="#CCA86D"/>
<path d="M932.355 21.3469C935.116 20.0066 936.931 17.9156 937.808 15.0986H939.232C938.486 18.4616 936.198 20.8815 932.362 22.3583V21.3469H932.355ZM932.355 27.4959C935.184 26.1494 936.962 24.0708 937.708 21.2476H939.232C938.753 22.9229 938.088 24.2694 937.199 25.2807V38.2922H935.688V26.6954C934.811 27.3656 933.705 27.9798 932.355 28.5072V27.4959ZM955.9 30.226V31.2312H952.462V35.4628C952.53 37.1382 951.685 37.951 949.938 37.8827H947.407V36.8775H949.633C950.572 36.9458 951.013 36.4432 950.939 35.3636V31.2312H939.325V30.226H950.939V27.7068H940.338V26.6954H955.397V27.7068H952.462V30.226H955.9ZM941.65 24.4679V16.1038H953.979V22.048C954.041 23.7295 953.171 24.5362 951.349 24.4679H941.644H941.65ZM943.372 32.3356C944.044 33.2788 944.622 34.5197 945.088 36.0647H943.571C943.372 34.9913 942.869 33.7441 942.061 32.3356H943.372ZM943.167 17.109V19.7336H952.462V17.109H943.167ZM952.462 22.048V20.7388H943.167V23.4565H951.051C952.064 23.4565 952.537 22.9912 952.462 22.0418V22.048Z" fill="white"/>
<path d="M961.005 19.3319V18.3268H965.954V15.4043H967.464V18.3268H972.413V19.3319H967.464V23.6691H971.91V24.6805H967.464V25.8966C967.464 27.1066 967.433 28.211 967.365 29.2224H972.718V30.2338H967.266C966.855 33.5906 964.636 36.3456 960.594 38.4986V37.3942C963.554 35.4397 965.245 33.057 965.643 30.2338H960.489V29.2224H965.842C965.91 28.2793 965.947 27.2059 965.947 25.9959V24.6867H961.602V23.6753H965.947V19.3381H960.998L961.005 19.3319ZM981.111 24.7798C982.597 26.2627 983.337 27.938 983.337 29.8243C983.468 33.3176 981.584 35.0674 977.68 35.0674V33.8574C980.639 33.9877 982.056 32.5792 981.92 29.6195C981.92 27.938 981.174 26.362 979.694 24.8791C981.174 22.5895 981.851 20.1013 981.715 17.4147H975.852V38.3932H974.235V16.3102H983.232V17.4209C983.294 19.9835 982.591 22.4344 981.105 24.786L981.111 24.7798Z" fill="white"/>
<path d="M1017.28 22.4644V21.453C1019.5 19.908 1020.85 17.9907 1021.33 15.7074H1022.84C1022.64 16.5822 1022.38 17.3889 1022.03 18.1272H1027.7V15H1029.31V18.1272H1038.2V19.3372H1029.31V24.2824H1039.62V25.4924H1016.18V24.2824H1027.7V19.3372H1021.34C1020.67 20.3486 1019.31 21.391 1017.29 22.4644H1017.28ZM1019.61 37.4925V28.7189H1036.48V34.5638C1036.62 36.5804 1035.51 37.5545 1033.15 37.4925H1019.61ZM1034.87 34.5638V29.8295H1021.12V36.3818H1032.95C1034.29 36.4501 1034.93 35.8482 1034.87 34.5638Z" fill="white"/>
<path d="M1011.48 19.0334H993.185V26.4916C993.185 29.7864 992.843 32.2435 992.166 33.8568C991.631 35.4018 990.388 36.9095 988.429 38.3925V37.1825C990.711 35.2342 991.762 32.138 991.563 27.9063V17.9228H1000.76V15.2051H1002.47V17.9228H1011.47V19.0397L1011.48 19.0334Z" fill="white"/>
<path d="M999.111 34.955H1000.71C999.577 36.9405 997.152 37.5672 993.428 38.0946V37.2011C996.22 36.6055 998.116 36.2766 999.111 34.955ZM993.913 26.9508V25.958H1010.99V26.9508H1003.2V28.1111H1010.18V32.3676C1010.25 34.1608 1009.35 34.5579 1007.49 34.4958H994.584V28.1111H1001.7V26.9508H993.913ZM996.083 29.1101V30.7233H1001.7V29.1101H996.083ZM996.083 31.6168V33.5031H1001.7V31.6168H996.083ZM1008.69 29.1101H1003.2V30.7233H1008.69V29.1101ZM1008.69 32.3738V31.623H1003.2V33.5093H1006.59C1007.59 33.5093 1008.69 33.441 1008.69 32.38V32.3738ZM1005.79 34.9612C1006.79 36.2828 1008.69 36.6117 1011.48 37.2073V38.1008C1007.75 37.5734 1005.32 36.9467 1004.2 34.9612H1005.79Z" fill="white"/>
<path d="M1008.69 21.1684V19.6172H1007.26V21.1684H997.805V19.6172H996.375V21.1684H994.634V22.1425H996.375V24.8168H1005.83C1007.97 24.8168 1008.68 23.9357 1008.68 22.67V22.1488H1010.71V21.1746H1008.68L1008.69 21.1684ZM1007.26 22.7506C1007.26 23.6193 1006.94 23.7496 1005.56 23.7496H997.805V22.1488H1007.26V22.7506Z" fill="white"/>
<path d="M879.825 18.7102C877.668 20.7826 876.592 23.3824 876.592 26.5034C876.592 29.9036 877.612 32.6214 879.651 34.6441C881.69 36.6669 884.451 37.6783 887.939 37.6783H900.61V15.8125H887.298C884.327 15.8125 881.84 16.7742 879.825 18.7102ZM897.29 34.4145H887.659C885.427 34.4145 883.624 33.6948 882.25 32.2615C880.876 30.8282 880.186 28.9357 880.186 26.5903C880.186 24.3876 880.826 22.582 882.107 21.1797C883.388 19.7774 885.023 19.07 887.019 19.07H897.283V34.4145H897.29Z" fill="white"/>
<path d="M924.416 34.6441C926.455 32.6214 927.475 29.9036 927.475 26.5034C927.475 23.3824 926.393 20.7826 924.236 18.7102C922.221 16.7742 919.734 15.8125 916.762 15.8125H903.451V37.6783H916.128C919.616 37.6783 922.377 36.6669 924.416 34.6441ZM917.042 19.0762C919.038 19.0762 920.673 19.7774 921.954 21.1859C922.924 22.2469 923.527 23.5375 923.763 25.0577H906.777V19.0762H917.042ZM906.777 28.2097H923.757C923.508 29.823 922.862 31.1756 921.817 32.2677C920.443 33.701 918.64 34.4208 916.408 34.4208H906.777V28.2097Z" fill="white"/>
</svg>
