<svg width="178" height="25" viewBox="0 0 178 25" fill="#FFF" xmlns="http://www.w3.org/2000/svg">
<path d="M60.9,6.8c3-1.4,5-3.7,6-6.7h1.5c-0.8,3.6-3.3,6.2-7.5,7.7L60.9,6.8L60.9,6.8z M60.9,13.3c3.1-1.4,5-3.6,5.8-6.6h1.7c-0.5,1.8-1.2,3.2-2.2,4.3v13.8h-1.7V12.4c-1,0.7-2.2,1.4-3.6,1.9L60.9,13.3L60.9,13.3z M68.5,17.3v-1.1h18.1v0v1.1L68.5,17.3z M82.8,21.8c0.1,1.8-0.8,2.6-2.8,2.6h-2.8v-1.1h2.4c1,0.1,1.5-0.5,1.4-1.6v-8.1H69.6v-1.1H86v1.1h-3.2V21.8zM71,10.1V1.2h13.5v6.3c0.1,1.8-0.9,2.7-2.9,2.6H71L71,10.1z M72.9,18.5c0.7,1,1.4,2.3,1.9,4h-1.7c-0.2-1.1-0.8-2.5-1.7-4H72.9L72.9,18.5z M72.7,2.3V5h10.2V2.3H72.7z M82.9,7.5V6.1H72.7V9h8.6C82.4,9,82.9,8.5,82.9,7.5z M91.6,16.2v-1.1l13.3,0v1.1L91.6,16.2zM92.8,10.3V9.2l11.3,0v1.1L92.8,10.3z M99.2,13.1c0,5-0.9,8.1-7.5,11.9v-1.2c1.6-1.4,5.8-3.1,5.8-10.7l0-12.7h1.6V13.1z M92.2,4.6V3.5l12.5,0v1.1L92.2,4.6z M114.1,10.4c4.1,3.9,3.2,11.4-3.7,10.9v-1.3c5.8,0.6,5.8-6.5,2.2-9.6c1.6-2.4,2.3-5.1,2.2-7.9h-6.4v22.3h-1.8V1.4h9.8C116.6,4.6,116,7.5,114.1,10.4z M158,4.6c-0.7,1.1-2.2,2.2-4.4,3.3v0V6.9c2.4-1.6,3.9-3.7,4.4-6.1h1.6c-0.2,0.9-0.5,1.8-0.9,2.6h17.7v1.3H158z M166.7,9.9H178v1.3h-25.6V9.9H165V0h1.8V9.9z M156.2,23.9v-9.3h18.4v6.2c0.1,2.2-1.1,3.2-3.6,3.1H156.2z M172.8,20.8v-5h-15v7h12.9C172.2,22.8,172.9,22.2,172.8,20.8L172.8,20.8z M147.3,4.3h-20v7.9c0,6.2-0.7,9.6-5.2,12.7v-1.3c2.5-2.1,3.4-5.1,3.4-9.9V3.1h10V0.2h1.9v2.9h9.8L147.3,4.3L147.3,4.3z M133.8,21.2h1.7c-1.2,2.1-3.9,2.8-7.9,3.3v-1C130.6,23,132.7,22.6,133.8,21.2z M145.9,14v4.5c0.1,1.9-0.9,2.3-2.9,2.3h-14.1V14 M144.2,16.7V15h-13.8v1.7H144.2z M138.2,19.7h3.7c1.1,0,2.3-0.1,2.3-1.2v-0.8h-13.8v2h6.1l0-7h-8.5v-1.1h18.6v1.1h-8.5V19.7z M141.1,21.2c1.1,1.4,3.2,1.8,6.2,2.4v1c-4.1-0.6-6.7-1.2-7.9-3.3H141.1L141.1,21.2z M146.4,7.6v-1h-17.6v1H146.4z M144.2,4.9h-1.6v3.3c0,0.9-0.4,1.1-1.9,1.1h-8.5V4.9h-1.6v5.5h10.3c2.3,0,3.1-0.9,3.1-2.3L144.2,4.9z M12.4,24.1h13.8V0.9l-14.5,0C-3.4,0.9-4.6,24.1,12.4,24.1z M22.6,20.7H12.1c-11,0-10.9-16.3-0.7-16.3h11.2V20.7z M55.6,12.2c0-6.4-5.3-11.5-11.7-11.4H29.3v23.3h13.8C51.5,24.1,55.6,19.1,55.6,12.2z M44.2,4.3C48,4.3,51,7,51.5,10.7H33V4.3H44.2z M33,14.1h18.5c-0.6,4-3.8,6.7-8,6.6H33V14.1z"/>
</svg>
