<svg width="25" height="37" viewBox="0 0 25 37" fill="none" xmlns="http://www.w3.org/2000/svg">
<path fill-rule="evenodd" clip-rule="evenodd" d="M12.4993 0.00135968C19.4041 0.00135968 25 5.68499 25 12.6981C25 15.2606 24.2532 17.6463 22.9683 19.6405L12.5582 37L2.19364 19.8852C1.95407 19.5318 1.73323 19.1675 1.53113 18.7909L1.51373 18.7596H1.51641C0.551422 16.9584 0 14.8922 0 12.6967C0 5.68363 5.59586 0 12.5007 0L12.4993 0.00135968ZM12.4993 6.95738C15.6205 6.95738 18.1514 9.528 18.1514 12.6981C18.1514 15.8682 15.6205 18.4388 12.4993 18.4388C9.37818 18.4388 6.84726 15.8682 6.84726 12.6981C6.84726 9.528 9.37818 6.95738 12.4993 6.95738Z" fill="black"/>
</svg>
