<svg viewBox="0 0 1381 1381" xmlns="http://www.w3.org/2000/svg">
<path d="M1272.3,899.1c-141.2,176.3-582.2,481.7-631.8,443.4c-42.2-32.8,60-165-49.7-187.5C264,1129.8,2.9,887.2,5,613.2c35.3-730.8,1340.8-730.6,1376,0C1377.7,717.9,1339.5,818.6,1272.3,899.1z M820.5,482.9v156.5L689.3,465.1c-17.9-30.8-67-18.1-66.5,17.8c0,0,0,266.2,0,266.2c0,45,71.2,45,71.2,0V591.6l130.3,179c17.4,24,72.2,15,72.2-23.4V482.9C896.4,435.4,820.5,435.4,820.5,482.9z M426.8,710.7h-99.4V482.9c-0.4-46.7-70.9-46.6-71.2,0c0,0,0,266.2,0,266.2c-0.4,19.1,16.5,36,35.6,35.6h135C474.7,784.5,474.9,710.8,426.8,710.7z M494.3,482.9v266.2c0,48.7,72.2,48.7,72.2,0c0,0,0-266.2,0-266.2C566.5,434.9,494.3,434.9,494.3,482.9z M1112,448.2l-141.5,0c-19.1-0.4-36,16.5-35.6,35.6c0,0,0,266.2,0,266.2c0,18,16.5,36,35.6,35.6c0,0,138.7,0,138.7,0c46.8-0.8,46.8-70.5,0-71.2h-96.5v-56.2h99.4c46.5-1.7,47.1-71.3,0-72.2h-99.4v-57.2c0,0,99.4,0,99.4,0C1160.7,528.8,1160.7,448.2,1112,448.2z"/>
</svg>
