<svg width="18" height="18" viewBox="0 0 18 18" fill="none" xmlns="http://www.w3.org/2000/svg">
<path d="M9.93973 3.83079L14.1689 8.05997L4.98368 17.2452L1.21344 17.6619C1.09526 17.6749 0.975656 17.6613 0.863478 17.6218C0.751299 17.5824 0.649418 17.5183 0.565376 17.4342C0.481333 17.3501 0.41728 17.2482 0.377956 17.136C0.338633 17.0237 0.325046 16.9041 0.338201 16.786L0.757813 13.0121L9.93973 3.83079ZM16.7857 3.20103L14.7996 1.21497C14.6524 1.06756 14.4775 0.950629 14.285 0.870847C14.0925 0.791065 13.8861 0.75 13.6778 0.75C13.4694 0.75 13.263 0.791065 13.0705 0.870847C12.878 0.950629 12.7032 1.06756 12.5559 1.21497L10.6874 3.08341L14.9166 7.31259L16.785 5.44415C16.9324 5.29692 17.0493 5.12211 17.1291 4.92969C17.2088 4.73728 17.2499 4.53103 17.25 4.32273C17.2501 4.11443 17.2091 3.90816 17.1294 3.7157C17.0498 3.52323 16.933 3.34835 16.7857 3.20103V3.20103Z" fill="black"/>
</svg>
