<svg width="28" height="28" viewBox="0 0 28 28" fill="none" xmlns="http://www.w3.org/2000/svg">
<path d="M22.01 0C22.41 0 22.82 4.88758e-06 23.35 0.130005C23.89 0.260005 24.42 0.400029 24.69 0.530029C25.36 0.800029 26.03 1.60001 26.84 2.95001C27.51 4.16001 27.78 5.37002 27.78 6.58002C27.78 6.98002 27.78 7.25002 27.65 7.65002C27.65 8.05002 27.52 8.32003 27.38 8.72003C27.25 9.12003 27.11 9.39003 27.11 9.66003C26.98 9.93003 26.84 10.2 26.71 10.73C26.58 11.27 26.44 11.54 26.31 11.67C25.91 13.01 25.37 14.09 24.7 15.16C23.63 16.77 22.28 18.52 20.4 20.4C18.52 22.28 16.91 23.62 15.16 24.7C14.09 25.37 13.01 25.9101 11.67 26.3101C11.54 26.3101 11.27 26.44 10.73 26.71C10.19 26.84 9.79 26.98 9.66 27.11C9.39 27.24 9.11999 27.24 8.71999 27.38C8.31999 27.51 7.90999 27.51 7.64999 27.65C7.24999 27.65 6.97999 27.78 6.57999 27.78C5.36999 27.78 4.16 27.51 2.95 26.84C1.61 26.17 0.799999 25.36 0.529999 24.69C0.399999 24.42 0.259997 23.88 0.129997 23.35C-2.74181e-06 22.81 0 22.28 0 22.01V21.61C0.13 21.34 0.539996 21.07 1.48 20.54C1.75 20.41 2.15 20.14 2.55 20C2.95 19.73 3.48999 19.46 3.75999 19.33C4.02999 19.2 4.42999 18.93 4.82999 18.66C4.82999 18.66 5.1 18.53 5.37 18.26C5.64 18.13 5.90999 17.99 6.03999 17.86C6.16999 17.73 6.43999 17.73 6.57999 17.73C6.84999 17.73 7.12 17.86 7.52 18.27C7.92 18.67 8.33 19.08 8.59 19.48C8.86 19.88 9.26 20.29 9.66 20.69C10.06 21.09 10.33 21.23 10.6 21.23C10.73 21.23 10.87 21.23 11 21.1C11.13 21.1 11.27 20.97 11.4 20.97C11.53 20.97 11.67 20.84 11.94 20.7C12.21 20.57 12.34 20.4301 12.34 20.4301C14.09 19.4901 15.7 18.28 16.91 16.94C18.25 15.6 19.33 14.1201 20.4 12.3701C20.4 12.3701 20.53 12.24 20.67 11.97C20.8 11.7 20.94 11.5701 20.94 11.4301C20.94 11.2901 21.07 11.16 21.07 11.03C21.07 10.9 21.2 10.76 21.2 10.63C21.2 10.36 21.07 10.09 20.66 9.69C20.26 9.29 19.85 9.02006 19.45 8.62006C19.05 8.35006 18.64 7.95005 18.24 7.55005C17.84 7.15005 17.7 6.88005 17.7 6.61005C17.7 6.48005 17.7 6.21001 17.83 6.07001C17.96 5.94001 18.1 5.67002 18.23 5.40002C18.36 5.13002 18.5 5.00005 18.63 4.86005C18.76 4.59005 19.03 4.19004 19.3 3.79004C19.57 3.39004 19.7 2.98002 19.97 2.58002C20.24 2.18002 20.37 1.77001 20.51 1.51001C20.91 0.57001 21.32 0.0300293 21.58 0.0300293H21.98L22.01 0Z" fill="black"/>
</svg>
