<svg width="859" height="87" viewBox="0 0 859 87" fill="none" xmlns="http://www.w3.org/2000/svg">
<path d="M609.74 22.54V26.5H629.24V22.54H609.74ZM608.42 41.56V45.64H631.34V41.56H608.42ZM618.32 43.54V69.46C618.32 70.18 618.08 70.42 617.24 70.42C616.4 70.48 613.58 70.48 610.52 70.42C611.12 71.62 611.78 73.48 611.96 74.68C616.1 74.68 618.74 74.62 620.42 73.9C622.16 73.24 622.64 71.92 622.64 69.52V43.54H618.32ZM627.86 22.54V23.44C626 26.86 622.22 31.72 618.92 34.54C619.7 35.2 620.9 36.4 621.56 37.18C625.34 34 629.66 28.84 632.54 24.22L629.66 22.3L628.82 22.54H627.86ZM630.08 41.56V42.22C628.88 46.36 627.14 51.4 625.7 54.46L629.18 55.36C630.74 52.06 632.66 46.84 634.22 42.16L631.4 41.38L630.74 41.56H630.08ZM611.42 33.04C616.46 35.74 622.4 39.94 625.28 43.06L627.86 39.76C624.92 36.7 618.86 32.68 613.82 30.04L611.42 33.04ZM632.96 22.42V26.32H663.44V22.42H632.96ZM639.44 44.74H657.02V50.62H639.44V44.74ZM639.44 53.92H657.02V59.86H639.44V53.92ZM639.44 35.56H657.02V41.38H639.44V35.56ZM635.24 32.08V63.4H661.4V32.08H635.24ZM645.86 24.34C645.5 27.1 644.66 31.24 643.94 33.94L647.9 34.72C648.86 32.2 649.94 28.42 650.96 24.94L645.86 24.34ZM641.24 64.48C638.66 67.12 633.26 70.24 628.46 71.98C629.36 72.76 630.8 74.14 631.46 75.04C636.26 73.24 641.9 70 645.2 66.82L641.24 64.48ZM650.54 67.06C654.26 69.34 658.88 72.76 661.1 74.98L664.7 72.4C662.24 70.12 657.62 66.88 653.96 64.78L650.54 67.06ZM702.08 30.76V35.02H723.32V30.76H702.08ZM721.46 30.76V31.78C720.8 57.46 719.96 67.18 718.04 69.28C717.5 70.06 716.78 70.18 715.64 70.18C714.2 70.18 710.78 70.18 707 69.88C707.84 71.14 708.38 73.06 708.5 74.38C711.8 74.56 715.34 74.62 717.38 74.44C719.48 74.2 720.86 73.66 722.18 71.92C724.46 69.1 725.18 59.98 726.02 33.16C726.02 32.56 726.02 30.76 726.02 30.76H721.46ZM704.72 19.66C702.8 27.82 699.5 35.98 695.3 41.2C696.38 41.8 698.3 43.06 699.14 43.78C703.28 38.08 706.88 29.38 709.16 20.56L704.72 19.66ZM702.08 45.4C706.22 49.36 710.66 54.94 712.52 58.66L715.94 56.02C713.96 52.36 709.34 46.96 705.26 43.06L702.08 45.4ZM690.32 42.82C691.94 46.9 693.68 52.18 694.28 55.36L698.12 54.16C697.52 51.04 695.72 45.88 693.98 41.92L690.32 42.82ZM683.96 58.72C684.74 62.92 685.58 68.44 685.76 72.04L689.6 71.08C689.36 67.42 688.52 62.08 687.56 57.82L683.96 58.72ZM676.7 58.24C675.86 63.04 674.48 68.5 672.8 72.1C673.88 72.46 675.8 73.06 676.7 73.54C678.14 69.82 679.76 64.12 680.72 59.08L676.7 58.24ZM674.3 42.1C674.3 41.14 677.18 39.82 677.18 39.82V39.7C681.74 34.96 686.42 28.12 690.2 21.34L686 19.48C682.94 26.08 678.08 32.92 676.58 34.66C675.14 36.46 674 37.66 672.86 37.9C673.4 39.04 674.06 41.2 674.3 42.1ZM674.3 42.1C675.32 41.62 677.06 41.26 687.92 40C687.98 39.16 688.04 37.54 688.28 36.4L676.4 37.42L674.24 38.8L674.3 42.1ZM674.6 55.6C674.6 54.7 677.66 53.38 677.66 53.38V53.26C683.96 47.56 690.5 39.64 695.9 31.6L692 29.14C687.26 37.24 680.3 45.4 678.08 47.56C675.98 49.66 674.48 51.1 673.16 51.34C673.64 52.54 674.36 54.7 674.6 55.6ZM674.6 55.6C675.92 54.94 678.02 54.46 694.82 51.82C694.76 50.92 694.88 49.24 695 48.1L676.7 50.68L674.42 52.18L674.6 55.6ZM691.34 57.64C692.72 61.36 694.4 66.22 695.06 69.28L698.66 68.02C697.94 64.9 696.26 60.16 694.7 56.5L691.34 57.64ZM778.22 43.06V46.9H791.66V43.06H778.22ZM761.48 45.46V48.94H776.84V45.46H761.48ZM767.54 23.02V31.06H770.84V23.02H767.54ZM767.54 38.92V47.2H770.84V38.92H767.54ZM757.16 68.2V72.1H792.14V68.2H757.16ZM759.68 21.4V48.94H763.1V24.88H776.12V21.4H759.68ZM761.6 29.62V32.68H772.52V37.72H761.72V40.78H775.64V29.62H761.6ZM780.8 19.96C779.9 26.56 778.22 33.34 775.7 37.78C776.72 38.26 778.46 39.22 779.18 39.82C781.82 35.14 783.68 27.88 784.82 20.68L780.8 19.96ZM737 68.92L738.02 73C743.72 71.86 751.4 70.24 758.66 68.74L758.3 64.84C750.38 66.4 742.34 67.96 737 68.92ZM740.42 34.54V38.38H756.38V34.54H740.42ZM737.66 44.68V48.58H757.46V44.68H737.66ZM738.74 52.6C739.64 56.2 740.48 60.94 740.78 64L743.96 63.22C743.66 60.16 742.76 55.48 741.86 51.88L738.74 52.6ZM754.28 51.28C753.8 54.4 752.78 59.2 751.88 62.14L754.88 62.92C755.78 60.1 756.74 55.78 757.7 52.12L754.28 51.28ZM746.3 36.22V68.68L750.14 68.14V36.22H746.3ZM780.8 28.6L779.66 32.56H792.26V28.6H780.8ZM761 53.56V70.54H764.72V57.28H769.64V70.54H772.76V57.28H777.62V70.54H780.74V57.28H785.78V70.54H789.68V53.56H761ZM748.46 19.36C745.76 25.12 741.02 30.64 736.52 34.24C737.06 35.26 737.9 37.72 738.08 38.68C743.36 34.18 748.76 27.4 751.94 20.62L748.46 19.36ZM747.08 25.54C750.62 28.24 754.82 31.78 757.34 34.24L759.86 30.76C757.34 28.36 753.2 25.06 749.54 22.42L747.08 25.54ZM826.4 19.6V28.78H830.9V19.6H826.4ZM804.08 26.44V37H808.34V29.8H849.68V37H854.06V26.44H804.08ZM817.52 35.86H840.68V40H817.52V35.86ZM813.26 32.98V42.82H845.12V32.98H813.26ZM809.9 21.28C811.64 23.14 813.68 25.72 814.58 27.46L818.72 25.84C817.7 24.16 815.72 21.76 813.86 20.02L809.9 21.28ZM844.1 19.78C843.02 21.64 840.86 24.4 839.24 26.2L842.84 27.4C844.58 25.84 846.8 23.5 848.66 21.1L844.1 19.78ZM814.28 54.46H844.28V57.76H814.28V54.46ZM814.28 60.46H844.28V63.88H814.28V60.46ZM814.28 48.52H844.28V51.76H814.28V48.52ZM809.96 45.7V66.64H848.72V45.7H809.96ZM819.8 67.18C815.84 69.22 808.64 70.78 802.46 71.68C803.42 72.46 805.04 74.2 805.76 75.1C811.82 73.78 819.5 71.56 824.06 68.8L819.8 67.18ZM833.54 69.58C840.2 71.26 846.8 73.36 850.7 74.92L855.2 72.34C850.88 70.66 843.5 68.56 836.96 67L833.54 69.58Z" fill="white"/>
<g clip-path="url(#clip0_355_568)">
<path d="M44.54 43.9702L43.58 46.1902C43.38 47.8202 42.64 48.7102 41.36 48.8602L40.84 49.9002L38.32 51.4502L37.73 52.1902L36.47 53.3702C36.03 53.4202 35.46 53.5202 34.77 53.6702C33.49 54.8602 31.96 55.7402 30.18 56.3402L28.85 57.0102C27.96 57.1102 26.6 57.4802 24.78 58.1202L23.37 59.0102L21.96 58.7902C21.07 59.1302 20.28 59.3102 19.59 59.3102C19.05 59.3102 18.48 59.2102 17.89 59.0102C17.89 59.2102 17.62 59.3102 17.08 59.3102C16.64 59.3102 15.94 59.1602 15.01 58.8702H14.42L14.72 58.5702L13.39 58.9402L12.8 58.7902L12.06 59.0102L9.84 58.1502L8.88 57.5702L7.03 56.9902L6.66 56.2002C5.13 56.0102 4.26 55.3602 4.07 54.2602V53.9702H4.22C3.73 53.4802 3.23 52.5902 2.74 51.3002C2.34 51.2502 1.91 50.7702 1.45 49.8602C0.979999 48.9502 0.749999 48.0202 0.749999 47.0802V45.1602C0.599999 44.7202 0.529999 44.0702 0.529999 43.2302L0.749999 41.9702V40.2702L1.36 39.9702L1.44 39.5302L2.43 36.2002L3.42 34.0502L4.03 32.5002C4.13 31.8102 4.57 30.9902 5.33 30.0602L5.64 29.6902L5.27 28.2102L6.9 27.4002C7.34 26.9602 7.69 26.6402 7.94 26.4402L8.24 24.7402L9.35 24.2202L9.72 22.8902C10.71 22.7902 11.37 22.5702 11.72 22.2202C12.26 21.4302 12.95 20.8602 13.79 20.5202L14.46 19.9302L16.38 19.4102L17.49 18.7402L18.9 19.4102C20.03 19.1602 20.78 19.0402 21.12 19.0402H21.93L22.37 19.1902L23.26 19.2602C24.49 19.8502 25.68 20.2702 26.81 20.5202L27.77 21.3302L32.14 23.7702L32.66 24.8102L33.4 25.4802L33.92 27.0402L34.36 28.1502L34.58 29.5602V32.6002C34.58 34.1302 33.12 35.2402 30.2 35.9302L28.69 34.9702L27.86 33.8602L27.41 32.3102L27.36 31.2002L27.17 30.0102L27.19 28.1602L27.41 27.3402L27.04 26.7502C26.84 26.6002 26.52 26.3802 26.08 26.0802L25.86 25.9302C24.43 25.5302 23.69 25.1402 23.64 24.7402H22.23L21.64 24.3702L21.27 25.1802L19.86 24.2902L19.49 24.5102L18.6 24.3602L17.71 24.9502C17.22 24.8002 16.75 24.7302 16.3 24.7302L15.34 26.0602L13.27 27.9102L11.49 30.3502L11.12 30.5002L10.6 32.1302L9.71 32.7202V33.3902L8.25 35.5402L7.56 38.5002V38.8002L7.04 39.9802L7.56 41.1602L6.67 41.8302V42.1302L6.37 42.3502L6.44 44.4202L6.14 45.9702L6.73 46.9302L6.88 47.3702L7.55 47.9602V49.0002L8.36 50.1102L8.06 50.6302L9.1 51.6702L9.17 52.0402L11.84 53.0002L11.77 53.4402L13.7 53.6602L14.44 54.3302L16.15 53.7402L16.97 54.6302L17.42 54.5702C18.01 54.1702 18.58 53.9602 19.13 53.9602H20.91L21.43 54.3302L22.1 54.0402C22.59 54.0402 22.97 54.0202 23.21 53.9702C23.9 53.3302 24.77 53.0202 25.8 53.0202C26.2 52.6302 26.89 52.4302 27.88 52.4302C28.13 52.1402 28.84 51.7902 30.03 51.4002C30.62 51.4002 31.09 51.2802 31.44 51.0302L32.03 50.0702L33.14 49.7802L34.18 49.2602L35.04 48.3502L36.37 47.7602L40.29 43.9802L42.66 42.7202L44.58 43.9802L44.54 43.9702Z" stroke="white" stroke-width="0.98" stroke-miterlimit="10"/>
<path d="M80.08 57.5201C80.08 59.4901 79.01 60.4801 76.86 60.4801C75.81 60.4801 75.04 60.0601 74.54 59.2201C74.04 58.5301 73.62 57.2201 73.27 55.3001V54.2601C73.47 54.0101 73.57 53.7701 73.57 53.5201C73.57 53.4201 73.54 53.3001 73.5 53.1501L72.46 51.6001L73.27 50.1901L72.9 48.6401L73.27 47.7501V45.9001L73.05 44.5701L73.27 43.9001V38.2701L72.9 35.8301L73.27 34.9401L72.75 33.0901L72.15 33.6101L70.5 34.2801L68.26 37.0901L67.36 37.0201L66.02 39.1701L65.8 40.0601L64.99 40.4301L64.13 41.6901L63.74 42.5001L63.26 45.1401L61.8 46.7601L61.47 47.7901L60.66 48.3801L60.33 50.1501L58.71 51.4801L58.47 54.2101H57.8L57.58 54.6501L56.25 56.9501L54.99 58.2801L53.88 59.7601L52.7 59.3901H51.74L50.85 58.2101L50.04 55.5401V51.6201L49.82 50.3601L50.04 48.8801V45.4001L50.54 45.2501L50.85 40.1401L51 39.1801V37.6301L51.34 37.4101L51.61 35.0401L51.88 34.2301L51.58 33.1901L51.8 32.8201L51.65 32.6001L51.87 30.5301L51.28 30.0101L51.8 28.9701L51.73 26.8201L50.98 24.6701L51.5 24.0001L50.98 22.0001V20.8201L50.76 20.3001L50.39 17.9301L50.02 16.8201L48.91 14.6701L49.72 13.6301L50.46 12.3701H51.12C52.2 12.3701 53.01 12.7701 53.55 13.5601L54.58 14.3801L55.02 15.7101L56.15 16.6701L55.85 17.7101L56.44 19.2601V22.0001L56.51 25.2601L57.03 27.3301L56.66 28.2201L56.81 29.4801L56.44 30.5201L56.66 32.3001L56.44 33.7801V39.6301L56 40.1501L55.78 42.5901L55.48 43.7001L55.85 45.7001L55.48 46.2901V47.7701C56.02 47.6201 56.29 47.3201 56.29 46.8801L56.88 46.2901L57.4 45.3301L57.55 43.9201L58.36 42.7401L58.8 41.2601L59.83 40.0801L60.11 38.6801L60.8 38.6101V37.9501L60.89 37.0701L61.91 36.5601V35.9701L62.65 35.8201L62.8 34.6401L62.75 34.0501L64.08 33.4501L64.42 33.1301L64.26 32.3901L64.93 32.1701L65.45 30.9101H66.34L67.16 30.3901C67.16 30.0501 67.18 29.8001 67.23 29.6501L68.05 29.2801C68.94 28.5401 69.79 28.0901 70.58 27.9501V27.8001C71.86 27.1601 72.75 26.8401 73.25 26.8401C73.99 26.8401 74.66 27.1901 75.25 27.8801C75.79 28.0801 76.14 28.4501 76.29 28.9901L76.96 29.4401L77.18 30.4801L78.14 32.1801V40.6901L78.51 41.3601V46.8401L78.14 47.8001V49.2801L78.51 50.9101L78.14 52.3201C78.35 53.0601 78.48 53.6801 78.53 54.1701L79.4 54.9801V55.5701L79.7 55.7901C79.95 56.6301 80.07 57.2201 80.07 57.5701L80.08 57.5201Z" stroke="white" stroke-width="0.98" stroke-miterlimit="10"/>
<path d="M115.69 40.9402L115.25 42.2702C115.25 43.5502 115.18 44.5702 115.03 45.3102L114.59 46.0502V46.8602L114.22 47.3802L114 48.4202L113.19 49.2302L112.67 51.0802L112.08 51.3002L111.78 52.1102L110.89 52.6302L110.3 53.8902L109.41 54.3302L109.34 55.2202L107.93 55.7402C107.29 56.6302 106.5 57.1902 105.56 57.4402L105.26 57.5102C104.57 58.5502 103.65 59.0602 102.52 59.0602C102.03 59.3602 101.46 59.5002 100.82 59.5002L100.08 60.0202L99.34 60.2402L98.38 60.9802H97.42L96.38 61.2002L95.12 60.6802L91.94 60.4602L90.83 58.7602L89.2 57.0602L89.57 55.8802L88.46 53.3602L88.83 52.4002L88.61 50.6202L88.83 49.5102V48.0302C88.83 47.0902 89.08 46.4002 89.6 45.9602C89.65 45.4702 89.98 44.6502 90.6 43.5202H90.98L90.76 43.0002L90.98 41.9602V40.8502C91.37 40.4102 91.6 40.1102 91.65 39.9602L91.43 38.9202V38.6202C91.77 37.9302 91.95 37.2102 91.95 36.4702L93.5 34.3202C93.75 34.1202 93.92 33.9802 94.02 33.8802L93.95 33.5802H94.25L95.36 32.3202L95.43 30.6202L97.28 29.9502C97.97 29.5102 98.41 28.7702 98.61 27.7302H99.57C100.11 27.4302 100.61 27.2802 101.05 27.2802C101.49 27.2802 101.91 27.3802 102.31 27.5802L103.12 27.6502L105.04 26.9102L106.08 27.8702L106.89 28.3902H107.48L108.59 28.9802H109.18C109.82 29.5702 110.56 30.3902 111.4 31.4202L111.55 31.7902L112.07 32.0902L113.63 34.0902L115.04 37.5702V38.3102L115.71 40.9002L115.69 40.9402ZM110.8 42.6902L110.73 42.3202C110.38 41.9802 110.19 41.6102 110.14 41.2102L110.36 40.8402L109.69 39.4402L109.84 38.0402L109.54 37.6702C108.9 37.1802 108.55 36.7802 108.5 36.4902C108.06 36.2902 107.83 35.8002 107.83 35.0102L107.39 34.9402L106.5 33.4602L105.83 32.9402L104.28 32.3502L103.69 32.2002C103.39 32.2002 103.2 32.1002 103.1 31.9002L101.62 33.5202L100.66 35.5802L99.11 36.3902L98.89 37.2002L98.15 37.5702L97.85 39.4802L96.96 39.9202C96.76 40.6102 96.66 41.2502 96.66 41.8302L95.48 42.9302L95.85 43.1502C95.85 43.7402 95.6 44.2502 95.1 44.6902C94.94 45.1302 94.71 45.6202 94.44 46.1602V47.9202L93.63 49.9102L93.78 50.2802V52.3402L93.48 53.3702L93.55 54.4002L94.22 55.3602L95.26 55.7302L95.63 55.8802H98.14L98.44 55.1402H98.74C99.04 55.1402 99.21 55.2102 99.26 55.3602L99.93 55.1402L100.52 55.3602L101.48 54.6902L101.63 54.4702L102.3 54.3202C102.64 53.7802 103.46 53.2302 104.74 52.6802L104.89 52.3102L106.37 51.2702L107.18 50.0802L108.36 49.4902L108.44 49.1202L108.83 48.3102V47.3502L109.72 46.6102L110.02 46.0902L110.39 45.6502C110.19 45.0602 110.09 44.6402 110.09 44.3902C110.09 43.9502 110.24 43.4802 110.53 42.9902L110.83 42.7002L110.8 42.6902Z" stroke="white" stroke-width="0.98" stroke-miterlimit="10"/>
<path d="M148.79 40.9402L148.35 42.2702C148.35 43.5502 148.28 44.5702 148.13 45.3102L147.69 46.0502V46.8602L147.32 47.3802L147.1 48.4202L146.29 49.2302L145.77 51.0802L145.18 51.3002L144.88 52.1102L143.99 52.6302L143.4 53.8902L142.51 54.3302L142.44 55.2202L141.03 55.7402C140.39 56.6302 139.6 57.1902 138.66 57.4402L138.36 57.5102C137.67 58.5502 136.75 59.0602 135.62 59.0602C135.13 59.3602 134.56 59.5002 133.92 59.5002L133.18 60.0202L132.44 60.2402L131.48 60.9802H130.52L129.48 61.2002L128.22 60.6802L125.04 60.4602L123.93 58.7602L122.3 57.0602L122.67 55.8802L121.56 53.3602L121.93 52.4002L121.71 50.6202L121.93 49.5102V48.0302C121.93 47.0902 122.18 46.4002 122.7 45.9602C122.75 45.4702 123.08 44.6502 123.7 43.5202H124.08L123.86 43.0002L124.08 41.9602V40.8502C124.47 40.4102 124.7 40.1102 124.75 39.9602L124.53 38.9202V38.6202C124.87 37.9302 125.05 37.2102 125.05 36.4702L126.6 34.3202C126.85 34.1202 127.02 33.9802 127.12 33.8802L127.05 33.5802H127.35L128.46 32.3202L128.53 30.6202L130.38 29.9502C131.07 29.5102 131.51 28.7702 131.71 27.7302H132.67C133.21 27.4302 133.71 27.2802 134.15 27.2802C134.59 27.2802 135.01 27.3802 135.41 27.5802L136.22 27.6502L138.14 26.9102L139.18 27.8702L139.99 28.3902H140.58L141.69 28.9802H142.28C142.92 29.5702 143.66 30.3902 144.5 31.4202L144.65 31.7902L145.17 32.0902L146.73 34.0902L148.14 37.5702V38.3102L148.81 40.9002L148.79 40.9402ZM143.9 42.6902L143.83 42.3202C143.48 41.9802 143.29 41.6102 143.24 41.2102L143.46 40.8402L142.79 39.4402L142.94 38.0402L142.64 37.6702C142 37.1802 141.65 36.7802 141.6 36.4902C141.16 36.2902 140.93 35.8002 140.93 35.0102L140.49 34.9402L139.6 33.4602L138.93 32.9402L137.38 32.3502L136.79 32.2002C136.49 32.2002 136.3 32.1002 136.2 31.9002L134.72 33.5202L133.76 35.5802L132.21 36.3902L131.99 37.2002L131.25 37.5702L130.95 39.4802L130.06 39.9202C129.86 40.6102 129.76 41.2502 129.76 41.8302L128.58 42.9302L128.95 43.1502C128.95 43.7402 128.7 44.2502 128.2 44.6902C128.03 45.1302 127.81 45.6202 127.54 46.1602V47.9202L126.73 49.9102L126.88 50.2802V52.3402L126.58 53.3702L126.65 54.4002L127.32 55.3602L128.36 55.7302L128.73 55.8802H131.24L131.54 55.1402H131.84C132.14 55.1402 132.31 55.2102 132.36 55.3602L133.03 55.1402L133.62 55.3602L134.58 54.6902L134.73 54.4702L135.4 54.3202C135.74 53.7802 136.56 53.2302 137.84 52.6802L137.99 52.3102L139.47 51.2702L140.28 50.0802L141.46 49.4902L141.54 49.1202L141.93 48.3102V47.3502L142.82 46.6102L143.12 46.0902L143.49 45.6502C143.29 45.0602 143.19 44.6402 143.19 44.3902C143.19 43.9502 143.34 43.4802 143.63 42.9902L143.93 42.7002L143.9 42.6902Z" stroke="white" stroke-width="0.98" stroke-miterlimit="10"/>
<path d="M183.51 52.1898L182.62 53.2298L181.81 55.1498L181.22 55.5898L180.7 56.6298L179.22 56.7798L178.26 57.7398H176.78L175.89 58.4798L175.08 58.2598L174.12 58.4798V59.0698L171.38 58.8498H170.2L169.31 59.3698L168.57 58.9298C169.06 58.8798 169.46 58.8598 169.75 58.8598C169.35 58.8998 168.17 58.9698 166.2 59.0798L165.98 58.9698L165.39 58.8598L164.43 59.3798C164.13 59.2498 163.59 59.1098 162.8 58.9598C161.71 58.8998 161 58.8698 160.65 58.8698H160.06C159.71 58.7198 159.34 58.6498 158.95 58.6498C158.56 58.6498 158.16 58.7198 157.77 58.8698L156.73 58.2098L156.14 58.0598C155.99 58.0598 155.72 57.9898 155.33 57.8398C153.5 57.6398 152.59 56.1298 152.59 53.2898V52.6298L154 51.5998L155.78 50.9398L157.11 51.6098H158.15V51.8298C158.64 52.0298 159.04 52.4198 159.33 53.0098L159.92 53.0798V54.0398L160.88 54.2598L161.1 54.4098L170.58 53.8198L172.87 53.4498H173.09L173.24 53.0798L174.28 52.9298L174.43 52.7098C175.47 52.5598 176.43 52.2698 177.32 51.8198L177.39 51.4498C177.39 51.4498 177.24 51.2298 177.09 50.9298L176.72 50.9998L175.76 50.2598H175.09L174.72 49.7398L174.94 49.4398L174.13 49.5898L173.54 48.9998H172.8C172.16 48.9998 171.52 48.8798 170.88 48.6298H170.21L169.69 48.4098L168.65 48.7798L168.06 48.1098H167.84L166.8 47.2998L164.51 46.4098L163.77 45.8198L160.96 45.2998L160.66 44.7798L158.59 43.4498L157.48 41.0098L156.59 39.7498L156.29 35.8998L156.59 35.4598C156.69 34.3298 157.08 33.3398 157.77 32.4998C158.51 32.1098 158.88 31.5398 158.88 30.7998L159.99 30.5798C160.19 30.1898 160.58 29.8198 161.17 29.4698L162.28 28.5798L166.94 26.7998L167.75 26.5798L169.23 26.4298L171.67 25.7598L176.33 26.0598L176.48 26.4298C176.92 26.5798 177.42 26.9698 177.96 27.6098V27.9798L179.14 28.7198L178.62 30.4998L178.47 31.1698C178.17 32.3998 177.48 33.0198 176.4 33.0198C175.51 33.0198 174.85 32.5998 174.4 31.7598V31.5398H173.53L172.49 31.8298L171.52 31.0898L171 31.4798C170.35 31.4798 169.76 31.6898 169.21 32.0998C168.46 32.0998 167.75 32.4098 167.05 33.0198L166.08 32.9998L165.41 33.4398L164.38 33.6598L164.23 33.8098L163.79 34.0298L163.13 34.6998L162.91 34.7698L162.25 35.8098L161.44 36.2598C161.24 36.8998 161.12 37.4498 161.07 37.8898C161.12 38.5798 161.21 39.0398 161.33 39.2598C161.45 39.4798 161.79 39.7198 162.33 39.9698V40.3398L163.29 40.8598C164.08 41.1598 164.67 41.4798 165.07 41.8198H166.55L167.49 42.6598L169.2 42.8798L169.87 43.3198L172.76 44.1198L173.13 44.9198L173.43 44.3998C174.07 44.3998 174.94 44.6998 176.03 45.2898L177.36 45.5098L177.51 46.0298H178.7L180.78 47.2098C181.03 47.8498 181.57 48.4398 182.41 48.9898L183.23 49.5098L183.01 50.3998C183.35 50.8898 183.53 51.4098 183.53 51.9598V52.1798L183.51 52.1898Z" stroke="white" stroke-width="0.98" stroke-miterlimit="10"/>
<path d="M214.16 52.1901C214.16 52.7801 213.72 53.5201 212.83 54.4101C212.58 55.2001 212.21 55.8401 211.72 56.3401L211.28 56.4101L210.47 57.8201L209.14 58.0401L207.73 58.9301L206.99 60.2601H206.18C205.64 60.4701 205.19 60.6001 204.85 60.6401L204.41 61.2201H203.74C203.1 61.2201 202.48 61.6401 201.89 62.4801L200.85 61.5901H199.96C199.32 61.5901 198.78 61.4701 198.33 61.2201H197.07L196.48 60.8501C194.6 60.5601 193.42 59.8501 192.93 58.7201V58.5001L192.04 58.0601L191.6 56.8101L190.71 56.2201V55.1201L189.82 51.8901V49.2501L190.26 48.0801V46.5401L190.63 45.3701L190.56 44.8501L191.08 43.9701L190.93 44.1201C190.93 43.6801 191.05 43.2101 191.3 42.7101V42.3401L191.08 40.5601C191.08 39.7201 191.45 38.9801 192.19 38.3401C192.24 38.2401 192.26 38.0901 192.26 37.9001C192.26 37.7101 192.17 37.3001 192 36.6801C191.83 36.0601 191.74 35.6301 191.74 35.3801C191.74 34.7901 191.89 34.1701 192.18 33.5301C192.57 34.1201 193.14 34.4201 193.88 34.4201H194.1C194.2 34.2201 194.42 34.0001 194.77 33.7501C195.16 32.5201 195.71 31.4801 196.4 30.6401L196.7 30.3401C196.7 30.1401 196.85 29.5801 197.14 28.6401H197.73L197.88 28.2701L198.47 28.1201C198.72 27.7301 198.88 27.4901 198.95 27.4201C199.02 27.3501 199.55 27.0401 200.54 26.4901C200.74 26.1501 201.03 25.8201 201.43 25.5301C201.63 25.4301 201.87 25.3301 202.17 25.2301L202.47 24.7901C203.8 24.3501 204.64 24.1201 204.99 24.1201C205.38 24.1201 205.75 24.2201 206.1 24.4201L206.47 24.3501L206.99 24.6501C207.58 25.0901 208.17 25.4601 208.77 25.7601L210.03 26.7201V27.0201C211.16 27.9101 211.73 29.1701 211.73 30.8001L211.51 31.5401L211.73 33.9801L211.06 34.4201L210.32 36.3501L208.91 37.9001L208.84 39.0801C207.26 40.2201 205.8 41.1301 204.47 41.8201C204.03 42.5101 203.33 42.8601 202.4 42.8601H202.18L200.77 43.7501H199.59L197.81 44.4901L196.48 43.8201H196.33C196.23 44.2201 196.13 44.8101 196.03 45.6101L195.44 46.0601L195.37 46.9501L194.93 48.2201C195.03 49.4101 195.08 50.1801 195.08 50.5301L194.83 50.7501C194.83 51.4001 194.81 51.8701 194.77 52.1601C194.77 52.2101 194.75 52.2801 194.71 52.3801V52.6001C194.71 53.0001 194.91 53.3201 195.3 53.5701C195.45 54.1701 195.69 54.5401 196.04 54.6901L196.56 55.1401L198.19 55.5901V55.8101L198.78 55.9601H201.3L202.78 55.7401L203.52 55.2301L203.96 55.0801L204.7 53.9801L205.07 53.9101L206.92 53.3201C207.12 52.9801 207.44 52.6901 207.88 52.4401L208.1 52.0701C209.09 51.8701 209.65 51.3601 209.8 50.5301C210.49 49.8501 211.38 49.5101 212.47 49.5101H212.77C213.71 50.6001 214.18 51.4801 214.18 52.1801L214.16 52.1901ZM206.83 30.8701C206.83 30.7201 206.76 30.4301 206.61 29.9801L206.24 29.9101L206.09 29.9801H205.79C205.69 30.0301 205.59 30.0501 205.49 30.0501C205.44 30.0501 205.37 30.0301 205.27 29.9801H205.05L204.31 30.5001L203.64 30.5701L203.27 30.7201L202.01 32.3501L201.2 32.9401L200.02 35.0101L199.35 35.4501C199.2 36.2901 198.86 37.0001 198.31 37.6001L198.01 38.1201C198.55 37.7701 199.17 37.6001 199.86 37.6001L200.38 37.3801L200.6 36.7101L201.64 36.7801L202.23 35.8901H202.67L203.48 36.1901L203.85 35.0801H204.37V34.2701L205.33 34.0501L205.55 33.8301L205.7 33.1601L206.66 31.7501C206.76 31.5001 206.81 31.2101 206.81 30.8601L206.83 30.8701Z" stroke="white" stroke-width="0.98" stroke-miterlimit="10"/>
<path d="M287.53 20.9502C287.53 21.2502 287.26 21.6202 286.72 22.0602C286.18 22.5002 285.88 23.0002 285.83 23.5402C285.58 23.9802 285.24 24.3802 284.79 24.7202C284.64 25.3102 284.15 25.6802 283.31 25.8302L281.98 26.8702L281.02 28.6502H280.28C279.93 29.1402 279.49 29.6102 278.95 30.0602C278.8 30.1102 278.38 30.3102 277.69 30.6502L276.14 32.3502L274.07 33.8302L273.4 34.0502L272.73 35.2302L271.1 36.1902L270.29 37.0002L269.55 38.8502L266.81 41.8902L265.92 43.2202L265.55 43.9602L265.99 44.7002L265.4 46.0302L265.77 47.2902L265.18 48.9902L265.33 50.0302L265.85 52.1002C265.11 52.9902 264.74 53.8002 264.74 54.5402C264.74 54.8902 264.8 55.4002 264.93 56.0902C265.05 56.7802 265.11 57.2802 265.11 57.5702L264.52 60.8302L264.67 62.6802L264.37 63.3502L264.89 66.0202L264.3 66.9102L264.82 68.2402L264.38 68.9102L264.68 69.5002C264.83 69.8002 264.9 70.1202 264.9 70.4602V70.8302L264.38 72.6802L264.82 74.6802L264.15 76.0902L264.82 76.9802V77.5002C264.82 79.4702 264.54 80.8702 263.98 81.6802C263.42 82.4902 262.4 82.9002 260.93 82.9002L260.27 79.3602L259.61 77.2202L259.54 75.8202L258.59 75.2302L259.22 73.7302L258.91 72.6902L259.21 70.4702L258.77 68.1002L258.99 66.2502V65.7302C258.94 65.4802 258.92 65.2802 258.92 65.1402C258.92 65.0002 258.94 64.8202 258.99 64.6202V64.1802L258.62 60.7702L258.99 59.1402L258.77 57.3602L259.21 54.4002L258.54 53.2102L258.91 51.4302L258.84 50.0202L258.25 48.6902C258.64 47.8002 258.84 47.1102 258.84 46.6202C258.84 46.3202 258.79 46.1002 258.69 45.9502L258.39 44.6202L257.95 43.3602L257.21 42.7702L256.77 42.1002C255.93 41.6602 254.82 40.5702 253.44 38.8402L252.26 38.1002L251.22 36.1702L248.26 33.5102L247.67 32.4702L246.49 30.9902L244.27 29.2102V28.4702L243.16 27.7302C242.96 26.5002 242.44 25.8802 241.6 25.8802C239.58 24.7402 238.54 23.0202 238.49 20.7002L238.86 18.7802H239.75C240.09 18.4802 240.64 18.3402 241.38 18.3402C242.12 18.3402 243.16 18.5602 244.49 19.0102L245.01 20.1902L246.19 20.5602L247.52 22.6302L249.44 24.0402L249.51 24.7102L251.06 27.1502L252.17 27.9602L256.24 33.5902L257.57 35.2902C259.35 37.1202 260.73 38.6002 261.72 39.7302V39.5102C261.72 38.9202 262.02 38.3002 262.61 37.6602L262.54 38.0302C262.88 37.2402 263.3 36.6002 263.8 36.1002C263.95 35.4102 264.29 34.8702 264.84 34.4702C264.94 34.1302 265.41 33.5802 266.25 32.8402L266.92 32.5402L267.14 32.2402C267.58 30.9602 268.47 30.3202 269.81 30.3202L269.96 30.6202L270.63 29.3602C271.22 29.2102 271.47 29.1402 271.37 29.1402C271.81 28.6002 272.18 28.1502 272.48 27.8102L273 26.8502C273.84 25.7602 274.9 25.1202 276.18 24.9202V24.0302L276.7 23.4402L277.44 22.8502L277.88 21.3002C278.03 21.5502 278.22 21.6702 278.47 21.6702C278.91 21.6702 279.31 21.0802 279.65 19.8902L281.87 18.9302L283.06 17.7402L285.13 17.8902L286.68 17.4502L287.35 19.0102C287.5 19.8002 287.57 20.4402 287.57 20.9302L287.53 20.9502Z" stroke="white" stroke-width="0.98" stroke-miterlimit="10"/>
<path d="M318.63 40.9402L318.19 42.2702C318.19 43.5502 318.12 44.5702 317.97 45.3102L317.53 46.0502V46.8602L317.16 47.3802L316.94 48.4202L316.13 49.2302L315.61 51.0802L315.02 51.3002L314.72 52.1102L313.83 52.6302L313.24 53.8902L312.35 54.3302L312.28 55.2202L310.87 55.7402C310.23 56.6302 309.44 57.1902 308.5 57.4402L308.2 57.5102C307.51 58.5502 306.59 59.0602 305.46 59.0602C304.97 59.3602 304.4 59.5002 303.76 59.5002L303.02 60.0202L302.28 60.2402L301.32 60.9802H300.36L299.32 61.2002L298.06 60.6802L294.88 60.4602L293.77 58.7602L292.14 57.0602L292.51 55.8802L291.4 53.3602L291.77 52.4002L291.55 50.6202L291.77 49.5102V48.0302C291.77 47.0902 292.02 46.4002 292.54 45.9602C292.59 45.4702 292.92 44.6502 293.54 43.5202H293.92L293.7 43.0002L293.92 41.9602V40.8502C294.31 40.4102 294.54 40.1102 294.59 39.9602L294.37 38.9202V38.6202C294.71 37.9302 294.89 37.2102 294.89 36.4702L296.44 34.3202C296.69 34.1202 296.86 33.9802 296.96 33.8802L296.89 33.5802H297.19L298.3 32.3202L298.37 30.6202L300.22 29.9502C300.91 29.5102 301.35 28.7702 301.55 27.7302H302.51C303.05 27.4302 303.55 27.2802 303.99 27.2802C304.43 27.2802 304.85 27.3802 305.25 27.5802L306.06 27.6502L307.98 26.9102L309.02 27.8702L309.83 28.3902H310.42L311.53 28.9802H312.12C312.76 29.5702 313.5 30.3902 314.34 31.4202L314.49 31.7902L315.01 32.0902L316.57 34.0902L317.98 37.5702V38.3102L318.65 40.9002L318.63 40.9402ZM313.74 42.6902L313.67 42.3202C313.32 41.9802 313.13 41.6102 313.08 41.2102L313.3 40.8402L312.63 39.4402L312.78 38.0402L312.48 37.6702C311.84 37.1802 311.49 36.7802 311.44 36.4902C311 36.2902 310.77 35.8002 310.77 35.0102L310.33 34.9402L309.44 33.4602L308.77 32.9402L307.22 32.3502L306.63 32.2002C306.33 32.2002 306.14 32.1002 306.04 31.9002L304.56 33.5202L303.6 35.5802L302.05 36.3902L301.83 37.2002L301.09 37.5702L300.79 39.4802L299.9 39.9202C299.7 40.6102 299.6 41.2502 299.6 41.8302L298.42 42.9302L298.79 43.1502C298.79 43.7402 298.54 44.2502 298.04 44.6902C297.88 45.1302 297.65 45.6202 297.38 46.1602V47.9202L296.57 49.9102L296.72 50.2802V52.3402L296.42 53.3702L296.49 54.4002L297.16 55.3602L298.2 55.7302L298.57 55.8802H301.08L301.38 55.1402H301.68C301.98 55.1402 302.15 55.2102 302.2 55.3602L302.87 55.1402L303.46 55.3602L304.42 54.6902L304.57 54.4702L305.24 54.3202C305.58 53.7802 306.4 53.2302 307.68 52.6802L307.83 52.3102L309.31 51.2702L310.12 50.0802L311.3 49.4902L311.38 49.1202L311.77 48.3102V47.3502L312.66 46.6102L312.96 46.0902L313.33 45.6502C313.13 45.0602 313.03 44.6402 313.03 44.3902C313.03 43.9502 313.18 43.4802 313.47 42.9902L313.77 42.7002L313.74 42.6902Z" stroke="white" stroke-width="0.98" stroke-miterlimit="10"/>
<path d="M366.9 53.9696C366.9 54.5596 366.46 55.2796 365.57 56.1196L364.98 56.3396L364.46 57.0096L363.13 57.3796C362.88 57.7296 362.64 57.8996 362.39 57.8996C362.34 57.8996 362.29 57.8796 362.24 57.8296H362.02C360.93 58.3696 359.62 58.6396 358.1 58.6396H357.51L355.66 58.2696L354.4 57.6796L351.59 55.3096L351 53.3096L349.82 52.3496C349.97 52.1496 350.04 51.8296 350.04 51.3896C350.04 51.0896 349.84 50.5996 349.45 49.9096L349.67 48.1296V47.8296C349.67 47.2396 349.5 46.4696 349.15 45.5396L349.59 43.3196L348.63 45.2496L347.52 45.3996L347.37 46.9496C346.97 47.1496 346.51 47.2396 345.96 47.2396L345.15 49.0196L344.19 50.1296C343.79 50.5696 343.45 50.8196 343.15 50.8696L342.93 51.0196L340.26 53.7596H339.96L338.55 55.4396L337.22 56.1296L336.48 57.1196L334.78 57.6596L332.34 58.6496L330.86 57.8996C329.87 57.8996 329.18 57.4496 328.79 56.5496L328.12 56.1796C328.12 56.0296 328.14 55.8296 328.19 55.5796V55.0496L327.01 53.9996L327.31 53.5496L326.42 51.4496L326.72 51.1496V50.5496C326.57 50.3996 326.5 50.2796 326.5 50.1696C326.5 49.6196 326.55 49.0996 326.67 48.5996L326.73 46.6496L326.51 45.0796C326.66 44.6896 326.73 44.3396 326.73 44.0396C326.73 43.6996 326.63 43.3696 326.43 43.0796L327.24 42.4896V41.5996L326.94 39.1596L327.75 34.4196C327.75 33.6296 327.53 32.4696 327.08 30.9396C327.23 29.3596 328.26 28.4996 330.19 28.3496L330.78 28.5696L331.82 28.7196L333.15 30.1996L332.56 32.1296V35.3196L332.78 37.7696L332.34 38.6596L332.56 39.2496L331.97 40.4396V42.0696C331.97 42.7096 331.92 43.3796 331.82 44.0696L331.97 44.5896L331.81 45.6996L331.93 46.5696L331.96 47.6096C332.35 47.8996 332.55 48.2796 332.55 48.7196C332.55 49.1096 332.35 49.5096 331.96 49.8996V50.1996C332.22 51.0396 332.35 51.5796 332.35 51.8296L333.05 52.4996C333.36 52.2996 333.72 52.0496 334.14 51.7596C334.3 51.2696 334.66 50.9496 335.23 50.7996V50.0596C335.53 50.0596 335.99 49.9896 336.64 49.8396L336.79 49.1696L338.05 48.6496L338.27 48.4296C338.61 48.0896 339.18 47.7596 339.97 47.4696V47.1696L341.38 46.1296C341.72 45.1896 342.34 44.5696 343.23 44.2796C343.77 43.7396 344.14 43.4196 344.34 43.3196L345.3 42.0596V41.8396L345.6 41.6896L346.27 41.3896L346.64 40.3496L348.19 39.6796L348.49 39.6096L349.01 39.0896V38.4196L349.44 38.2696C349.58 37.4796 349.97 36.8896 350.59 36.4896L351.67 33.9696L352.08 32.6496L352.23 32.3596H352.54L353.07 31.9896L352.63 31.8396C353.17 30.9496 353.59 30.0096 353.89 29.0296L356.04 28.9596L357.74 30.3696L358.48 31.5496L357.67 34.7296L356.56 36.2096L355.67 39.0996L354.93 39.5396V40.6496L354.49 41.4596L354.71 42.7896L354.12 43.3096L354.42 45.6796L354.57 49.0096H354.94V50.9396L355.98 52.1996L356.94 52.7196L357.01 53.0896C357.35 53.1396 357.77 53.2596 358.27 53.4596L360.12 53.6096L361.23 53.3196L363.23 52.3596C363.62 52.1596 364.12 52.0596 364.71 52.0596C366.19 52.0596 366.93 52.6996 366.93 53.9896L366.9 53.9696Z" stroke="white" stroke-width="0.98" stroke-miterlimit="10"/>
<path d="M400.96 30.7197L400.37 33.1597L397.63 33.5297L396.15 34.4897L395.19 34.0497L394.15 34.6297L393.04 35.0597L392.3 35.5697L392.28 35.8597L390.74 36.6297L389.7 37.9797H389.18C388.39 38.8197 387.82 39.3397 387.48 39.5297L386.44 41.2297L386.07 41.3797C385.92 41.7697 385.75 42.3697 385.55 43.1597L384.51 43.5297L384.07 44.4197L383.48 45.1597L383.34 46.2697L382.75 46.4897V47.5997L382.53 47.8197C382.68 48.0697 382.85 48.3397 383.05 48.6297L381.94 49.0697L381.79 50.0297L381.05 51.2897L381.49 52.2497L380.53 53.5797C380.63 54.0697 380.68 54.4197 380.68 54.6197V54.9197C380.63 55.0697 380.61 55.1897 380.61 55.2897L380.76 55.9597L382.02 57.2897L381.06 58.9897L380.17 59.6597L378.1 60.6997L375.36 59.5897V57.8897L375.06 57.2197L375.28 56.1097C375.18 55.3197 375.13 54.7297 375.13 54.3297C375.13 54.1797 375.15 53.9897 375.2 53.7397V53.2197L375.13 52.4797C374.78 52.1297 374.61 51.7397 374.61 51.2897C374.61 50.8997 374.78 50.4497 375.13 49.9597C375.13 49.7097 375.08 48.9697 374.98 47.7397L375.2 47.5197L374.98 46.5597L375.13 45.6697L374.98 45.1497L375.2 43.4497L374.76 42.7097L375.06 41.8997L374.76 40.9397C374.81 40.6397 374.83 40.2497 374.83 39.7597C374.83 39.0197 374.73 38.5297 374.53 38.2797L374.83 37.8397L374.53 36.5097L373.86 35.5497L374.23 34.3697L373.93 33.9297L373.63 32.1497V31.5597C373.38 31.2597 373.26 30.8897 373.26 30.4497C373.26 29.4597 374.34 28.6197 376.52 27.9297L378.37 28.2997L378.74 29.7097L379.48 30.6697L379.26 32.6697C379.41 33.6597 379.58 34.7397 379.78 35.9297L380 37.1097C380.05 37.2097 380.1 37.4797 380.15 37.9197C380.15 38.2197 380.03 38.5397 379.78 38.8797L380 40.3597L379.85 41.9897L379.55 42.7297L379.77 43.0297L379.92 43.7697C380.22 43.4197 380.39 43.0597 380.44 42.6597L380.74 41.5497C380.89 41.2497 381.11 41.0297 381.41 40.8797L381.71 39.7697L382.75 39.1797L382.9 38.2897L383.71 37.3997L384.3 36.2897C384.94 35.5997 385.56 35.1597 386.15 34.9597L386.3 34.7397L386.97 33.6997L387.71 33.5497L387.93 33.3297L388.23 32.8797L389.04 32.4397L389.48 31.9197L389.92 31.9897L390.51 31.6897L390.81 31.2397L391.7 30.7997L392.96 29.9897L394.74 29.3997C395.43 29.2997 395.8 29.2497 395.85 29.2497V29.3197C395.85 29.3197 395.78 29.3497 395.78 29.3897H395.85C396.05 29.3897 396.34 29.2897 396.74 29.0897C396.99 28.8897 397.33 28.7897 397.78 28.7897C397.98 28.7897 398.32 28.8397 398.82 28.9397C400.1 28.9897 400.82 29.5797 400.97 30.7197H400.96Z" stroke="white" stroke-width="0.98" stroke-miterlimit="10"/>
<path d="M469.66 51.3C469.66 52.59 468.8 53.27 467.07 53.37C466.53 53.77 465.96 53.96 465.37 53.96L462.63 54.33H461.3L460.26 55.07H458.56L457.89 55.66H454.26L452.19 56.77H451.82C451.47 56.77 451.23 56.8 451.08 56.85L450.71 57.25C450.22 57.52 449.75 57.65 449.3 57.65C449 57.65 448.61 57.53 448.12 57.28L446.49 57.65L444.79 57.72L443.01 58.24H438.64L436.2 57.65H434.2L433.53 57.06L432.12 56.99C429.95 55.37 428.44 53.67 427.6 51.9C427.25 50.72 426.88 49.54 426.49 48.36L425.9 46.96L426.64 44.45L426.2 41.43L426.87 40.99L427.02 38.19L427.54 36.71L427.91 34.5V29.93L428.58 28.75L428.73 28.16V25.5L429.17 24.91L428.5 24.39L429.39 21.73L429.61 21.66L429.17 20.48L430.8 19.82C431.54 19.18 432.16 18.81 432.65 18.71L434.57 19.01L436.27 22.56L435.23 23.37C435.48 23.72 435.6 24.11 435.6 24.56L434.79 26.78V29.3L434.03 31.59L433.82 33.74L432.64 38.18V38.77C432.64 39.31 432.57 39.78 432.42 40.18L432.27 41.22L432.12 42.55L432.27 44.84L432.05 45.43L432.64 48.69L433.68 50.98V51.2L436.42 52.83L440.42 53.2H441.6L444.41 52.68H446.41L446.93 52.31H451L451.89 51.57H454.85L456.18 51.13L460.99 50.91L462.99 50.39C463.48 50.44 464.07 50.46 464.77 50.46L465.51 49.87C466.15 49.62 466.74 49.5 467.29 49.5C468.87 49.5 469.66 50.09 469.66 51.28V51.3Z" stroke="white" stroke-width="0.98" stroke-miterlimit="10"/>
<path d="M492.46 47.4503C492.46 48.5903 492.26 49.3003 491.87 49.6003L491.5 49.9003L491.13 50.9403L489.94 51.3103C489.59 52.1003 489.08 52.7203 488.39 53.1603L487.72 53.3803L486.76 54.4203L485.87 54.6403C485.52 55.5303 484.81 56.0003 483.72 56.0503C483.62 56.2003 483.4 56.5003 483.05 56.9403C482.31 57.4303 481.54 57.7303 480.75 57.8303L480.38 57.9003L479.86 58.5703H478.38L477.2 59.4603L474.16 57.2403L472.75 54.3503L472.68 50.7203L472.38 49.8303L473.27 43.3103L473.57 43.0103C473.42 42.2703 473.35 41.5503 473.35 40.8603C473.35 40.4203 473.5 39.5003 473.79 38.1203L474.16 36.4203C474.06 36.1203 473.86 35.8003 473.57 35.4603L474.01 34.0503L474.16 32.3503L474.31 32.1303C474.11 31.6903 473.99 31.1903 473.94 30.6503C473.99 30.5503 474.04 30.4203 474.09 30.2403C474.14 30.0703 474.16 29.9303 474.16 29.8303C474.01 29.3903 473.94 28.9703 473.94 28.5703C473.94 27.3803 474.61 26.8403 475.94 26.9403H476.83C477.42 26.6903 477.79 26.5703 477.94 26.5703C478.93 26.5703 479.59 27.1103 479.94 28.2003V28.5003C480.14 29.0903 480.24 29.6603 480.24 30.2003C480.24 30.6403 480.19 30.9703 480.09 31.1603L479.57 34.8603L480.09 35.9003C480.09 36.7903 479.79 37.5803 479.2 38.2703L479.5 39.1603L478.54 41.9703C478.44 43.2003 478.32 44.1403 478.17 44.7803V46.6303L477.73 47.6703L477.8 48.4103L477.65 50.1103L477.8 51.4403L478.91 52.3303L479.8 52.1803L479.95 51.9603L480.54 52.0303L481.5 51.7403L482.31 50.9303L482.6 50.4803L483.12 50.4103L483.27 50.0403L483.49 49.7403L483.93 50.0403L484.67 49.3003L485.11 49.3703L485.26 48.8503H485.41L485.62 48.2503L486.29 47.9503L487.7 47.2903C488.84 46.5003 489.95 46.1103 491.04 46.1103H491.34C491.88 46.4603 492.25 46.9003 492.45 47.4403L492.46 47.4503ZM484.91 8.20031C484.91 8.79031 484.51 9.33031 483.73 9.82031V9.97031C482.79 11.1003 481.97 11.7403 481.28 11.8903L480.17 13.2203L479.43 14.1803L477.72 14.6103L476.98 15.6603L475.8 16.2603L473.88 17.9903L472.7 16.8803L472.92 15.0303L473.73 13.7003C473.78 13.0103 474.17 12.4203 474.91 11.9203V11.6203L475.35 11.3203L475.42 10.2103L476.6 9.91031V9.24031L477.49 9.09031C477.69 8.10031 478.11 7.39031 478.75 6.94031L478.97 6.79031L479.41 6.35031L480 4.57031C483.26 5.36031 484.89 6.56031 484.89 8.19031L484.91 8.20031Z" stroke="white" stroke-width="0.98" stroke-miterlimit="10"/>
<path d="M531.33 14.0598C531.33 15.0498 530.74 16.0298 529.55 17.0198L528.96 16.6498L527.78 17.3198L526.3 14.4298C526.2 13.6898 526 13.0698 525.71 12.5798L525.27 12.7998L524.01 12.1298L523.57 12.0598L522.61 12.6498L521.06 12.1998L520.54 12.4198C520.1 12.9098 519.65 13.1598 519.21 13.1598C519.01 13.1598 518.84 13.1398 518.69 13.0898L518.67 13.8198C518.18 14.6098 517.57 15.5798 516.83 16.7098C516.78 17.1998 516.61 18.1198 516.31 19.4498L515.65 19.8898L515.36 20.6998L514.99 21.3698L515.36 22.8498L514.52 24.1798L514.24 25.2898L513.96 25.8798V26.9198L512.92 29.5898L513.07 30.8498C513.02 31.0498 512.75 31.7398 512.25 32.9198L512.18 33.2198C512.67 33.0198 513.09 32.8998 513.43 32.8498H517.26L517.48 32.6998C518.07 32.5998 518.41 32.5498 518.51 32.5498C519 32.5498 519.54 32.6498 520.13 32.8498H523.37L524.33 33.0798C526.1 33.1298 526.98 33.8598 526.98 35.2598C526.98 35.6598 526.91 36.1398 526.76 36.6898L523.43 37.6698L521.51 37.3698C520.97 37.5598 520.05 37.7798 518.77 38.0398L518.4 37.5198C518.05 37.8698 517.59 38.0398 516.99 38.0398H516.18L514.11 38.9998L513.07 38.4798H512.7C512.3 38.9698 511.81 39.2998 511.22 39.4398L511.29 39.8798L510.99 40.9198L511.43 42.1798L510.47 44.1098L510.71 47.0698L510.29 48.0898L510.69 49.1298L509.8 50.7598L510.02 51.6498C510.02 51.6498 510.09 51.8198 510.09 52.0198C510.09 52.0698 509.99 52.5998 509.79 53.6098C509.59 54.6198 509.49 55.6198 509.49 56.6098V57.2798C509.49 57.2798 509.81 57.6498 510.3 58.2398L509.78 59.4998L510.3 60.9798L510.08 62.1598L510.84 65.7898L511.05 69.7898L512.16 71.2698L511.49 72.8998C512.08 73.9398 512.38 74.7798 512.38 75.4198V75.6398C512.38 75.7398 512.4 75.8598 512.45 76.0098V76.3798C512.45 78.2598 511.36 79.2398 509.19 79.3398L508.6 78.1598L507.71 77.6398L507.56 76.3098L506.08 72.1598V71.3498C505.88 70.4598 505.78 69.9398 505.78 69.7998C505.78 69.5498 505.8 69.3798 505.85 69.2798L505.55 68.0198L505.85 66.7598L505.55 65.9498V64.3198L504.96 59.6598V57.6598L504.52 56.6998L504.96 55.8898V52.0398L505.33 51.5998V48.9298L505.55 48.3398L505.33 46.0498L505.63 45.1598C505.73 44.3198 506.02 42.4498 506.52 39.5298H506.22L505.26 39.2298H504.15L502.08 39.5298L500.82 39.2298L498.67 39.6798L497.93 39.5298C497.68 39.5798 497.39 39.5998 497.04 39.5998C494.87 38.6098 493.71 37.8498 493.56 37.3098L493.19 36.0498C493.83 34.1298 494.72 33.1598 495.86 33.1598C495.91 33.1598 496.75 33.3298 498.38 33.6798L502.67 33.8298L504.74 33.4598H506.52L507.19 33.5298L507.41 32.5698L507.56 30.4198L507.93 29.5298L507.71 28.0498C507.71 27.5098 507.91 27.0398 508.3 26.6398V25.8298L509.07 24.9398L509.42 22.7198L509.7 22.3498L509.48 21.3898C510.07 20.6998 510.37 20.1298 510.37 19.6898L510.3 19.2498C510.3 19.6498 510.67 18.5098 511.41 15.8398L511.93 15.4698V13.8398L512.15 14.2098V13.9898C512.15 13.1498 512.49 12.5298 513.19 12.1398L513.63 11.4698L514.52 9.31977H514.67C515.21 9.31977 515.48 8.99977 515.48 8.35977V8.05977L517.55 7.31977H518.14C518.78 7.11977 519.45 7.02977 520.14 7.02977H520.66L521.03 6.87977L522.66 6.50977L524.58 6.95977C524.68 7.00977 524.88 7.07977 525.17 7.17977C525.66 6.97977 526.01 6.87977 526.21 6.87977C526.9 6.87977 527.54 7.39977 528.13 8.42977L529.17 9.16977L529.91 10.6498L531.02 11.7598L531.32 13.8298V14.0498L531.33 14.0598Z" stroke="white" stroke-width="0.98" stroke-miterlimit="10"/>
<path d="M553.32 52.1901C553.32 52.7801 552.88 53.5201 551.99 54.4101C551.74 55.2001 551.37 55.8401 550.88 56.3401L550.44 56.4101L549.63 57.8201L548.3 58.0401L546.89 58.9301L546.15 60.2601H545.34C544.8 60.4701 544.35 60.6001 544.01 60.6401L543.57 61.2201H542.9C542.26 61.2201 541.64 61.6401 541.05 62.4801L540.01 61.5901H539.12C538.48 61.5901 537.94 61.4701 537.49 61.2201H536.23L535.64 60.8501C533.76 60.5601 532.58 59.8501 532.09 58.7201V58.5001L531.2 58.0601L530.76 56.8101L529.87 56.2201V55.1201L528.98 51.8901V49.2501L529.42 48.0801V46.5401L529.79 45.3701L529.72 44.8501L530.24 43.9701L530.09 44.1201C530.09 43.6801 530.21 43.2101 530.46 42.7101V42.3401L530.24 40.5601C530.24 39.7201 530.61 38.9801 531.35 38.3401C531.4 38.2401 531.42 38.0901 531.42 37.9001C531.42 37.7101 531.33 37.3001 531.16 36.6801C530.99 36.0601 530.9 35.6301 530.9 35.3801C530.9 34.7901 531.05 34.1701 531.34 33.5301C531.73 34.1201 532.3 34.4201 533.04 34.4201H533.26C533.36 34.2201 533.58 34.0001 533.93 33.7501C534.32 32.5201 534.87 31.4801 535.56 30.6401L535.86 30.3401C535.86 30.1401 536.01 29.5801 536.3 28.6401H536.89L537.04 28.2701L537.63 28.1201C537.88 27.7301 538.04 27.4901 538.11 27.4201C538.18 27.3501 538.71 27.0401 539.7 26.4901C539.9 26.1501 540.19 25.8201 540.59 25.5301C540.79 25.4301 541.03 25.3301 541.33 25.2301L541.63 24.7901C542.96 24.3501 543.8 24.1201 544.15 24.1201C544.54 24.1201 544.91 24.2201 545.26 24.4201L545.63 24.3501L546.15 24.6501C546.74 25.0901 547.33 25.4601 547.93 25.7601L549.19 26.7201V27.0201C550.32 27.9101 550.89 29.1701 550.89 30.8001L550.67 31.5401L550.89 33.9801L550.22 34.4201L549.48 36.3501L548.07 37.9001L548 39.0801C546.42 40.2201 544.96 41.1301 543.63 41.8201C543.19 42.5101 542.49 42.8601 541.56 42.8601H541.34L539.93 43.7501H538.75L536.97 44.4901L535.64 43.8201H535.49C535.39 44.2201 535.29 44.8101 535.19 45.6101L534.6 46.0601L534.53 46.9501L534.09 48.2201C534.19 49.4101 534.24 50.1801 534.24 50.5301L533.99 50.7501C533.99 51.4001 533.97 51.8701 533.93 52.1601C533.93 52.2101 533.91 52.2801 533.87 52.3801V52.6001C533.87 53.0001 534.07 53.3201 534.46 53.5701C534.61 54.1701 534.85 54.5401 535.2 54.6901L535.72 55.1401L537.35 55.5901V55.8101L537.94 55.9601H540.46L541.94 55.7401L542.68 55.2301L543.12 55.0801L543.86 53.9801L544.23 53.9101L546.08 53.3201C546.28 52.9801 546.6 52.6901 547.04 52.4401L547.26 52.0701C548.25 51.8701 548.81 51.3601 548.96 50.5301C549.65 49.8501 550.54 49.5101 551.63 49.5101H551.93C552.87 50.6001 553.34 51.4801 553.34 52.1801L553.32 52.1901ZM545.99 30.8701C545.99 30.7201 545.92 30.4301 545.77 29.9801L545.4 29.9101L545.25 29.9801H544.95C544.85 30.0301 544.75 30.0501 544.65 30.0501C544.6 30.0501 544.53 30.0301 544.43 29.9801H544.21L543.47 30.5001L542.8 30.5701L542.43 30.7201L541.17 32.3501L540.36 32.9401L539.18 35.0101L538.51 35.4501C538.36 36.2901 538.02 37.0001 537.47 37.6001L537.17 38.1201C537.71 37.7701 538.33 37.6001 539.02 37.6001L539.54 37.3801L539.76 36.7101L540.8 36.7801L541.39 35.8901H541.83L542.64 36.1901L543.01 35.0801H543.53V34.2701L544.49 34.0501L544.71 33.8301L544.86 33.1601L545.82 31.7501C545.92 31.5001 545.97 31.2101 545.97 30.8601L545.99 30.8701Z" stroke="white" stroke-width="0.98" stroke-miterlimit="10"/>
</g>
<defs>
<clipPath id="clip0_355_568">
<rect width="553.81" height="79.41" fill="white" transform="translate(0 4)"/>
</clipPath>
</defs>
</svg>
