<svg width="208" height="75" viewBox="0 0 208 75" fill="none" xmlns="http://www.w3.org/2000/svg">
<g clip-path="url(#clip0_714_395)">
<path d="M16.7284 59.6037L16.3678 60.4703C16.2927 61.1066 16.0148 61.4541 15.534 61.5126L15.3387 61.9186L14.3923 62.5237L14.1707 62.8126L13.6974 63.2732C13.5322 63.2927 13.3181 63.3318 13.059 63.3903C12.5782 63.8549 12.0036 64.1984 11.335 64.4326L10.8355 64.6942C10.5013 64.7332 9.99047 64.8777 9.30691 65.1275L8.77735 65.475L8.24778 65.3891C7.91351 65.5218 7.6168 65.5921 7.35765 65.5921C7.15484 65.5921 6.94076 65.553 6.71917 65.475C6.71917 65.553 6.61776 65.5921 6.41495 65.5921C6.24969 65.5921 5.98679 65.5335 5.6375 65.4203H5.4159L5.52858 65.3032L5.02906 65.4476L4.80746 65.3891L4.52954 65.475L3.69575 65.1392L3.33519 64.9128L2.64037 64.6864L2.5014 64.378C1.92677 64.3038 1.60001 64.0501 1.52865 63.6207V63.5074H1.58499C1.40095 63.3162 1.21316 62.9687 1.02913 62.4651C0.878897 62.4456 0.717397 62.2582 0.54463 61.903C0.368108 61.5477 0.281724 61.1847 0.281724 60.8177V60.0682C0.225387 59.8964 0.199097 59.6427 0.199097 59.3148L0.281724 58.8229V58.1593L0.510828 58.0421L0.540875 57.8704L0.912699 56.5704L1.28452 55.7311L1.51363 55.126C1.55119 54.8566 1.71644 54.5365 2.00188 54.1735L2.11831 54.029L1.97935 53.4513L2.59154 53.1351C2.7568 52.9633 2.88825 52.8384 2.98214 52.7603L3.09482 52.0967L3.51171 51.8937L3.65068 51.3745C4.0225 51.3354 4.27038 51.2495 4.40184 51.1129C4.60465 50.8045 4.8638 50.582 5.17929 50.4493L5.43093 50.2189L6.15204 50.0159L6.56893 49.7544L7.0985 50.0159C7.52291 49.9184 7.80459 49.8715 7.93229 49.8715H8.23651L8.40177 49.9301L8.73603 49.9574C9.198 50.1877 9.64494 50.3517 10.0693 50.4493L10.4299 50.7655L12.0712 51.718L12.2665 52.124L12.5444 52.3855L12.7397 52.9945L12.905 53.4279L12.9876 53.9783V55.165C12.9876 55.7623 12.4393 56.1956 11.3426 56.465L10.7754 56.0902L10.4637 55.6569L10.2947 55.0518L10.2759 54.6185L10.2045 54.154L10.2121 53.4318L10.2947 53.1117L10.1557 52.8813C10.0806 52.8228 9.96042 52.7369 9.79517 52.6198L9.71254 52.5612C9.17546 52.4051 8.89753 52.2528 8.87875 52.0967H8.34918L8.12759 51.9522L7.98863 52.2684L7.45906 51.921L7.32009 52.0069L6.98583 51.9483L6.65156 52.1786C6.46753 52.1201 6.29101 52.0928 6.12199 52.0928L5.76144 52.612L4.98399 53.3342L4.31545 54.2867L4.17649 54.3453L3.98119 54.9816L3.64692 55.2119V55.4734L3.09857 56.3128L2.83942 57.4683V57.5854L2.64412 58.046L2.83942 58.5067L2.50516 58.7682V58.8854L2.39248 58.9712L2.41877 59.7793L2.3061 60.3844L2.52769 60.7592L2.58403 60.9309L2.83567 61.1613V61.5673L3.13989 62.0006L3.02721 62.2036L3.41782 62.6096L3.44411 62.754L4.44691 63.1288L4.42062 63.3005L5.14549 63.3864L5.42342 63.648L6.06566 63.4177L6.37363 63.7651L6.54264 63.7417C6.76424 63.5855 6.97832 63.5035 7.18489 63.5035H7.85342L8.04872 63.648L8.30036 63.5348C8.48439 63.5348 8.62711 63.527 8.71725 63.5074C8.9764 63.2576 9.30316 63.1366 9.69 63.1366C9.84024 62.9843 10.0994 62.9063 10.4712 62.9063C10.5651 62.7931 10.8318 62.6564 11.2787 62.5042C11.5003 62.5042 11.6768 62.4573 11.8083 62.3597L12.0299 61.985L12.4468 61.8718L12.8374 61.6688L13.1604 61.3135L13.6599 61.0832L15.1322 59.6076L16.0223 59.1157L16.7434 59.6076L16.7284 59.6037Z" stroke="white" stroke-width="0.98" stroke-miterlimit="10"/>
<path d="M30.0765 64.8932C30.0765 65.6622 29.6746 66.0487 28.8671 66.0487C28.4727 66.0487 28.1835 65.8848 27.9957 65.5568C27.808 65.2875 27.6502 64.7761 27.5188 64.0266V63.6206C27.5939 63.523 27.6314 63.4293 27.6314 63.3317C27.6314 63.2926 27.6202 63.2458 27.6051 63.1872L27.2145 62.5821L27.5188 62.0317L27.3798 61.4266L27.5188 61.0792V60.357L27.4361 59.8378L27.5188 59.5762V57.3784L27.3798 56.4259L27.5188 56.0784L27.3235 55.3562L27.0981 55.5592L26.4784 55.8208L25.6371 56.9177L25.2991 56.8904L24.7958 57.7297L24.7132 58.0772L24.409 58.2216L24.086 58.7135L23.9395 59.0297L23.7592 60.0603L23.2109 60.6927L23.0869 61.0948L22.7827 61.3251L22.6588 62.0161L22.0503 62.5353L21.9602 63.601H21.7085L21.6259 63.7728L21.1264 64.6707L20.6532 65.1899L20.2363 65.7676L19.7931 65.6232H19.4325L19.0983 65.1626L18.794 64.1202V62.59L18.7114 62.0981L18.794 61.5203V60.1618L18.9818 60.1032L19.0983 58.1084L19.1546 57.7336V57.1286L19.2823 57.0427L19.3837 56.1175L19.4851 55.8013L19.3724 55.3953L19.4551 55.2508L19.3987 55.1649L19.4813 54.3569L19.2598 54.1539L19.4551 53.7479L19.4288 52.9086L19.1471 52.0692L19.3424 51.8077L19.1471 51.0269V50.5663L19.0645 50.3633L18.9255 49.4381L18.7865 49.0048L18.3696 48.1654L18.6738 47.7595L18.9518 47.2676H19.1997C19.6053 47.2676 19.9095 47.4237 20.1123 47.7321L20.4992 48.0522L20.6644 48.5714L21.0888 48.9462L20.9762 49.3522L21.1977 49.9573V51.0269L21.224 52.2996L21.4193 53.1076L21.2804 53.4551L21.3367 53.947L21.1977 54.353L21.2804 55.0478L21.1977 55.6256V57.9093L21.0325 58.1123L20.9499 59.0648L20.8372 59.4982L20.9762 60.2789L20.8372 60.5092V61.087C21.04 61.0284 21.1414 60.9113 21.1414 60.7396L21.363 60.5092L21.5583 60.1345L21.6146 59.584L21.9189 59.1234L22.0841 58.5456L22.471 58.085L22.5761 57.5385L22.8353 57.5111V57.2535L22.8691 56.9099L23.2522 56.7108V56.4805L23.5301 56.422L23.5864 55.9613L23.5677 55.731L24.0672 55.4968L24.1949 55.3718L24.1348 55.083L24.3864 54.9971L24.5817 54.5052H24.916L25.224 54.3022C25.224 54.1695 25.2315 54.0719 25.2503 54.0133L25.5582 53.8689C25.8925 53.58 26.2117 53.4043 26.5084 53.3497V53.2911C26.9892 53.0413 27.3235 52.9164 27.5112 52.9164C27.7892 52.9164 28.0408 53.053 28.2624 53.3224C28.4652 53.4004 28.5967 53.5449 28.653 53.7557L28.9046 53.9313L28.9873 54.3373L29.3478 55.001V58.3231L29.4868 58.5847V60.7239L29.3478 61.0987V61.6765L29.4868 62.3128L29.3478 62.8632C29.4267 63.1521 29.4755 63.3941 29.4943 63.5854L29.8211 63.9016V64.132L29.9337 64.2178C30.0276 64.5458 30.0727 64.7761 30.0727 64.9127L30.0765 64.8932Z" stroke="white" stroke-width="0.98" stroke-miterlimit="10"/>
<path d="M43.4508 58.4204L43.2855 58.9396C43.2855 59.4393 43.2593 59.8375 43.2029 60.1263L43.0377 60.4152V60.7314L42.8987 60.9344L42.8161 61.3404L42.5119 61.6566L42.3165 62.3788L42.095 62.4647L41.9823 62.7809L41.648 62.9839L41.4264 63.4758L41.0922 63.6476L41.0659 63.995L40.5363 64.198C40.2959 64.5454 39.9992 64.764 39.6462 64.8616L39.5335 64.889C39.2744 65.295 38.9288 65.494 38.5044 65.494C38.3204 65.6112 38.1063 65.6658 37.8659 65.6658L37.588 65.8688L37.3101 65.9547L36.9495 66.2436H36.589L36.1983 66.3295L35.7251 66.1265L34.5308 66.0406L34.1139 65.3769L33.5017 64.7133L33.6406 64.2526L33.2238 63.2689L33.3627 62.8941L33.2801 62.1992L33.3627 61.7659V61.1882C33.3627 60.8212 33.4566 60.5518 33.6519 60.3801C33.6707 60.1888 33.7946 59.8687 34.0275 59.4276H34.1702L34.0876 59.2246L34.1702 58.8186V58.3852C34.3167 58.2135 34.4031 58.0964 34.4219 58.0378L34.3392 57.6318V57.5147C34.4669 57.2453 34.5345 56.9643 34.5345 56.6754L35.1167 55.8361C35.2106 55.758 35.2744 55.7033 35.312 55.6643L35.2857 55.5472H35.3984L35.8153 55.0553L35.8415 54.3917L36.5364 54.1301C36.7955 53.9583 36.9608 53.6695 37.0359 53.2635H37.3964C37.5993 53.1464 37.7871 53.0878 37.9523 53.0878C38.1176 53.0878 38.2753 53.1268 38.4255 53.2049L38.7298 53.2322L39.4509 52.9434L39.8415 53.3181L40.1457 53.5211H40.3673L40.7842 53.7514H41.0058C41.2461 53.9818 41.5241 54.3019 41.8396 54.704L41.8959 54.8484L42.0912 54.9655L42.6771 55.7463L43.2067 57.1048V57.3937L43.4583 58.4048L43.4508 58.4204ZM41.6142 59.1035L41.5879 58.9591C41.4565 58.8264 41.3851 58.6819 41.3663 58.5258L41.449 58.3813L41.1973 57.8348L41.2537 57.2883L41.141 57.1438C40.9006 56.9526 40.7692 56.7964 40.7504 56.6832C40.5851 56.6051 40.4987 56.4138 40.4987 56.1054L40.3335 56.0781L39.9992 55.5003L39.7476 55.2973L39.1654 55.067L38.9438 55.0085C38.8312 55.0085 38.7598 54.9694 38.7222 54.8914L38.1664 55.5238L37.8058 56.3279L37.2237 56.6442L37.1411 56.9604L36.8631 57.1048L36.7505 57.8504L36.4162 58.0222C36.3411 58.2916 36.3035 58.5414 36.3035 58.7678L35.8603 59.1972L35.9993 59.2831C35.9993 59.5134 35.9054 59.7125 35.7176 59.8843C35.6575 60.0561 35.5711 60.2474 35.4697 60.4582V61.1452L35.1655 61.9221L35.2218 62.0665V62.8707L35.1092 63.2728L35.1355 63.6749L35.3871 64.0496L35.7777 64.1941L35.9167 64.2526H36.8594L36.972 63.9638H37.0847C37.1974 63.9638 37.2612 63.9911 37.28 64.0496L37.5317 63.9638L37.7532 64.0496L38.1138 63.7881L38.1701 63.7022L38.4218 63.6436C38.5495 63.4328 38.8575 63.2181 39.3382 63.0034L39.3945 62.859L39.9504 62.453L40.2546 61.9884L40.6978 61.7581L40.7278 61.6137L40.8743 61.2975V60.9227L41.2086 60.6338L41.3213 60.4308L41.4602 60.2591C41.3851 60.0287 41.3476 59.8648 41.3476 59.7672C41.3476 59.5954 41.4039 59.4119 41.5128 59.2207L41.6255 59.1074L41.6142 59.1035Z" stroke="white" stroke-width="0.98" stroke-miterlimit="10"/>
<path d="M55.8826 58.4204L55.7173 58.9396C55.7173 59.4393 55.691 59.8375 55.6347 60.1263L55.4694 60.4152V60.7314L55.3305 60.9344L55.2478 61.3404L54.9436 61.6566L54.7483 62.3788L54.5267 62.4647L54.414 62.7809L54.0798 62.9839L53.8582 63.4758L53.5239 63.6476L53.4976 63.995L52.9681 64.198C52.7277 64.5454 52.431 64.764 52.0779 64.8616L51.9653 64.889C51.7061 65.295 51.3606 65.494 50.9362 65.494C50.7521 65.6112 50.5381 65.6658 50.2977 65.6658L50.0198 65.8688L49.7418 65.9547L49.3813 66.2436H49.0207L48.6301 66.3295L48.1569 66.1265L46.9625 66.0406L46.5456 65.3769L45.9334 64.7133L46.0724 64.2526L45.6555 63.2689L45.7945 62.8941L45.7119 62.1992L45.7945 61.7659V61.1882C45.7945 60.8212 45.8884 60.5518 46.0837 60.3801C46.1025 60.1888 46.2264 59.8687 46.4593 59.4276H46.602L46.5194 59.2246L46.602 58.8186V58.3852C46.7485 58.2135 46.8348 58.0964 46.8536 58.0378L46.771 57.6318V57.5147C46.8987 57.2453 46.9663 56.9643 46.9663 56.6754L47.5484 55.8361C47.6423 55.758 47.7062 55.7033 47.7437 55.6643L47.7175 55.5472H47.8301L48.247 55.0553L48.2733 54.3917L48.9681 54.1301C49.2273 53.9583 49.3925 53.6695 49.4677 53.2635H49.8282C50.031 53.1464 50.2188 53.0878 50.3841 53.0878C50.5493 53.0878 50.7071 53.1268 50.8573 53.2049L51.1615 53.2322L51.8826 52.9434L52.2732 53.3181L52.5775 53.5211H52.7991L53.2159 53.7514H53.4375C53.6779 53.9818 53.9558 54.3019 54.2713 54.704L54.3277 54.8484L54.523 54.9655L55.1089 55.7463L55.6384 57.1048V57.3937L55.8901 58.4048L55.8826 58.4204ZM54.046 59.1035L54.0197 58.9591C53.8882 58.8264 53.8169 58.6819 53.7981 58.5258L53.8807 58.3813L53.6291 57.8348L53.6854 57.2883L53.5727 57.1438C53.3324 56.9526 53.2009 56.7964 53.1821 56.6832C53.0169 56.6051 52.9305 56.4138 52.9305 56.1054L52.7653 56.0781L52.431 55.5003L52.1793 55.2973L51.5972 55.067L51.3756 55.0085C51.2629 55.0085 51.1916 54.9694 51.154 54.8914L50.5982 55.5238L50.2376 56.3279L49.6554 56.6442L49.5728 56.9604L49.2949 57.1048L49.1822 57.8504L48.8479 58.0222C48.7728 58.2916 48.7353 58.5414 48.7353 58.7678L48.2921 59.1972L48.4311 59.2831C48.4311 59.5134 48.3372 59.7125 48.1494 59.8843C48.0855 60.0561 48.0029 60.2474 47.9015 60.4582V61.1452L47.5973 61.9221L47.6536 62.0665V62.8707L47.5409 63.2728L47.5672 63.6749L47.8189 64.0496L48.2095 64.1941L48.3484 64.2526H49.2911L49.4038 63.9638H49.5165C49.6292 63.9638 49.693 63.9911 49.7118 64.0496L49.9634 63.9638L50.185 64.0496L50.5456 63.7881L50.6019 63.7022L50.8535 63.6436C50.9812 63.4328 51.2892 63.2181 51.77 63.0034L51.8263 62.859L52.3822 62.453L52.6864 61.9884L53.1296 61.7581L53.1596 61.6137L53.3061 61.2975V60.9227L53.6404 60.6338L53.753 60.4308L53.892 60.2591C53.8169 60.0287 53.7793 59.8648 53.7793 59.7672C53.7793 59.5954 53.8357 59.4119 53.9446 59.2207L54.0572 59.1074L54.046 59.1035Z" stroke="white" stroke-width="0.98" stroke-miterlimit="10"/>
<path d="M68.9227 62.8123L68.5885 63.2183L68.2843 63.9679L68.0627 64.1396L67.8674 64.5456L67.3115 64.6042L66.951 64.979H66.3951L66.0608 65.2678L65.7566 65.1819L65.3961 65.2678V65.4982L64.367 65.4123H63.9238L63.5895 65.6153L63.3116 65.4435C63.4956 65.424 63.6459 65.4162 63.7548 65.4162C63.6045 65.4318 63.1614 65.4591 62.4215 65.5021L62.3388 65.4591L62.1172 65.4162L61.7567 65.6192C61.644 65.5684 61.4412 65.5138 61.1445 65.4552C60.7351 65.4318 60.4684 65.4201 60.337 65.4201H60.1154C59.9839 65.3615 59.845 65.3342 59.6985 65.3342C59.552 65.3342 59.4018 65.3615 59.2553 65.4201L58.8647 65.1624L58.6431 65.1039C58.5868 65.1039 58.4854 65.0765 58.3389 65.018C57.6516 64.9399 57.3098 64.3504 57.3098 63.2418V62.9841L57.8394 62.582L58.5079 62.3244L59.0074 62.5859H59.398V62.6718C59.5821 62.7499 59.7323 62.9021 59.8412 63.1325L60.0628 63.1598V63.5345L60.4234 63.6204L60.506 63.679L64.0665 63.4487L64.9266 63.3042H65.0092L65.0655 63.1598L65.4561 63.1012L65.5125 63.0153C65.9031 62.9568 66.2636 62.8436 66.5979 62.6679L66.6242 62.5235C66.6242 62.5235 66.5679 62.4376 66.5115 62.3205L66.3726 62.3478L66.012 62.0589H65.7604L65.6214 61.8559L65.704 61.7388L65.3998 61.7974L65.1782 61.567H64.9003C64.6599 61.567 64.4195 61.5202 64.1792 61.4226H63.9275L63.7322 61.3367L63.3416 61.4812L63.12 61.2196H63.0374L62.6468 60.9034L61.7867 60.556L61.5088 60.3256L60.4534 60.1226L60.3407 59.9196L59.5633 59.4004L59.1464 58.4479L58.8121 57.956L58.6995 56.4531L58.8121 56.2813C58.8497 55.8402 58.9962 55.4537 59.2553 55.1258C59.5333 54.9735 59.6722 54.751 59.6722 54.4621L60.0891 54.3763C60.1642 54.224 60.3107 54.0796 60.5323 53.9429L60.9492 53.5955L62.6994 52.9006L63.0036 52.8147L63.5595 52.7562L64.4759 52.4946L66.2261 52.6117L66.2824 52.7562C66.4477 52.8147 66.6355 52.967 66.8383 53.2168V53.3613L67.2815 53.6502L67.0862 54.345L67.0298 54.6066C66.9172 55.0867 66.658 55.3288 66.2524 55.3288C65.9181 55.3288 65.6702 55.1648 65.5012 54.8369V54.751H65.1745L64.7839 54.8642L64.4195 54.5753L64.2242 54.7276C63.9801 54.7276 63.7585 54.8096 63.552 54.9696C63.2703 54.9696 63.0036 55.0906 62.7407 55.3288L62.3764 55.321L62.1248 55.4927L61.7379 55.5786L61.6816 55.6372L61.5163 55.7231L61.2684 55.9846L61.1858 56.0119L60.9379 56.4179L60.6337 56.5936C60.5586 56.8435 60.5135 57.0582 60.4947 57.2299C60.5135 57.4993 60.5473 57.6789 60.5924 57.7647C60.6375 57.8506 60.7652 57.9443 60.968 58.0419V58.1864L61.3285 58.3894C61.6252 58.5065 61.8468 58.6314 61.9971 58.7641H62.5529L62.906 59.092L63.5482 59.1779L63.7998 59.3497L64.8853 59.662L65.0242 59.9743L65.1369 59.7713C65.3773 59.7713 65.704 59.8884 66.1134 60.1187L66.6129 60.2046L66.6693 60.4076H67.1162L67.8974 60.8683C67.9913 61.1181 68.1941 61.3484 68.5096 61.5631L68.8176 61.7661L68.735 62.1136C68.8627 62.3049 68.9303 62.5079 68.9303 62.7226V62.8084L68.9227 62.8123Z" stroke="white" stroke-width="0.98" stroke-miterlimit="10"/>
<path d="M80.4342 62.8124C80.4342 63.0428 80.269 63.3316 79.9347 63.6791C79.8408 63.9875 79.7018 64.2373 79.5178 64.4325L79.3525 64.4598L79.0483 65.0103L78.5488 65.0961L78.0192 65.4436L77.7413 65.9628H77.4371C77.2343 66.0448 77.0653 66.0955 76.9376 66.1111L76.7723 66.3376H76.5207C76.2803 66.3376 76.0474 66.5015 75.8259 66.8294L75.4353 66.482H75.101C74.8606 66.482 74.6578 66.4351 74.4888 66.3376H74.0156L73.794 66.1931C73.0879 66.0799 72.6447 65.8027 72.4607 65.3616V65.2757L72.1264 65.104L71.9611 64.616L71.6269 64.3857V63.9562L71.2926 62.6953V61.6647L71.4579 61.208V60.6068L71.5968 60.15L71.5705 59.947L71.7658 59.6035L71.7095 59.6621C71.7095 59.4903 71.7546 59.3068 71.8485 59.1116V58.9672L71.7658 58.2723C71.7658 57.9444 71.9048 57.6555 72.1827 57.4057C72.2015 57.3666 72.209 57.3081 72.209 57.2339C72.209 57.1597 72.1752 56.9997 72.1114 56.7577C72.0475 56.5156 72.0137 56.3478 72.0137 56.2502C72.0137 56.0198 72.07 55.7778 72.179 55.528C72.3254 55.7583 72.5395 55.8754 72.8175 55.8754H72.9001C72.9376 55.7973 73.0203 55.7114 73.1517 55.6138C73.2982 55.1337 73.5048 54.7277 73.7639 54.3998L73.8766 54.2826C73.8766 54.2046 73.9329 53.986 74.0418 53.619H74.2634L74.3198 53.4746L74.5414 53.416C74.6353 53.2638 74.6954 53.1701 74.7216 53.1427C74.7479 53.1154 74.947 52.9944 75.3188 52.7797C75.3939 52.647 75.5028 52.5181 75.6531 52.4049C75.7282 52.3659 75.8183 52.3269 75.931 52.2878L76.0437 52.116C76.5432 51.9443 76.8587 51.8545 76.9902 51.8545C77.1366 51.8545 77.2756 51.8935 77.407 51.9716L77.546 51.9443L77.7413 52.0614C77.9629 52.2332 78.1845 52.3776 78.4098 52.4947L78.8831 52.8695V52.9866C79.3075 53.334 79.5216 53.8259 79.5216 54.4622L79.4389 54.7511L79.5216 55.7036L79.2699 55.8754L78.992 56.6288L78.4624 57.2339L78.4361 57.6946C77.8427 58.1396 77.2944 58.4948 76.7948 58.7642C76.6296 59.0336 76.3667 59.1702 76.0174 59.1702H75.9348L75.4052 59.5176H74.962L74.2935 59.8065L73.794 59.545H73.7376C73.7001 59.7011 73.6625 59.9314 73.625 60.2437L73.4034 60.4194L73.3771 60.7668L73.2118 61.2626C73.2494 61.7272 73.2682 62.0278 73.2682 62.1644L73.1743 62.2503C73.1743 62.504 73.1667 62.6875 73.1517 62.8007C73.1517 62.8202 73.1442 62.8476 73.1292 62.8866V62.9725C73.1292 63.1286 73.2043 63.2536 73.3508 63.3512C73.4071 63.5854 73.4973 63.7298 73.6287 63.7884L73.824 63.964L74.4362 64.1397V64.2256L74.6578 64.2842H75.6043L76.1601 64.1983L76.438 63.9992L76.6033 63.9406L76.8812 63.5112L77.0202 63.4839L77.715 63.2536C77.7901 63.1208 77.9103 63.0076 78.0756 62.91L78.1582 62.7656C78.53 62.6875 78.7404 62.4884 78.7967 62.1644C79.0558 61.8989 79.3901 61.7662 79.7995 61.7662H79.9122C80.2652 62.1917 80.4417 62.5353 80.4417 62.8085L80.4342 62.8124ZM77.6812 54.4896C77.6812 54.431 77.6549 54.3178 77.5986 54.1421L77.4596 54.1148L77.4033 54.1421H77.2906C77.2531 54.1616 77.2155 54.1694 77.1779 54.1694C77.1592 54.1694 77.1329 54.1616 77.0953 54.1421H77.0127L76.7348 54.3451L76.4831 54.3724L76.3442 54.431L75.8709 55.0673L75.5667 55.2976L75.1235 56.1057L74.8719 56.2775C74.8155 56.6054 74.6878 56.8826 74.4813 57.1168L74.3686 57.3198C74.5714 57.1832 74.8043 57.1168 75.0634 57.1168L75.2587 57.0309L75.3414 56.7694L75.732 56.7967L75.9535 56.4493H76.1188L76.423 56.5664L76.562 56.133H76.7573V55.8168L77.1178 55.731L77.2005 55.6451L77.2568 55.3835L77.6174 54.8331C77.6549 54.7355 77.6737 54.6223 77.6737 54.4856L77.6812 54.4896Z" stroke="white" stroke-width="0.98" stroke-miterlimit="10"/>
<path d="M107.991 50.6168C107.991 50.7339 107.889 50.8784 107.686 51.0501C107.484 51.2219 107.371 51.4171 107.352 51.6279C107.258 51.7997 107.131 51.9558 106.962 52.0885C106.905 52.3189 106.721 52.4633 106.406 52.5219L105.906 52.9279L105.546 53.6227H105.268C105.136 53.814 104.971 53.9975 104.768 54.1732C104.712 54.1927 104.554 54.2708 104.295 54.4035L103.713 55.0671L102.935 55.6449L102.684 55.7308L102.432 56.1914L101.82 56.5662L101.516 56.8824L101.238 57.6046L100.209 58.7914L99.8743 59.3106L99.7353 59.5994L99.9006 59.8883L99.679 60.4075L99.818 60.8994L99.5964 61.563L99.6527 61.969L99.848 62.7771C99.5701 63.1246 99.4311 63.4408 99.4311 63.7296C99.4311 63.8663 99.4536 64.0654 99.5025 64.3347C99.5475 64.6041 99.5701 64.7993 99.5701 64.9125L99.3485 66.1851L99.4048 66.9073L99.2922 67.1689L99.4875 68.2112L99.2659 68.5586L99.4612 69.0778L99.2959 69.3394L99.4086 69.5697C99.4649 69.6868 99.4912 69.8118 99.4912 69.9445V70.0889L99.2959 70.8111L99.4612 71.5919L99.2095 72.1423L99.4612 72.4898V72.6927C99.4612 73.4618 99.356 74.0083 99.1457 74.3245C98.9354 74.6407 98.5523 74.8008 98.0002 74.8008L97.7523 73.4189L97.5044 72.5834L97.4781 72.0369L97.1213 71.8066L97.3579 71.221L97.2415 70.815L97.3542 69.9484L97.1889 69.0232L97.2715 68.301V68.098C97.2527 68.0004 97.2452 67.9223 97.2452 67.8677C97.2452 67.813 97.2527 67.7427 97.2715 67.6647V67.4929L97.1326 66.1617L97.2715 65.5254L97.1889 64.8305L97.3542 63.675L97.1025 63.2104L97.2415 62.5156L97.2152 61.9651L96.9936 61.4459C97.1401 61.0985 97.2152 60.8291 97.2152 60.6378C97.2152 60.5207 97.1964 60.4348 97.1589 60.3763L97.0462 59.8571L96.8809 59.3652L96.603 59.1349L96.4377 58.8733C96.1223 58.7016 95.7054 58.2761 95.1871 57.6007L94.7439 57.3118L94.3533 56.5584L93.2416 55.52L93.02 55.114L92.5768 54.5362L91.743 53.8413V53.5525L91.3261 53.2636C91.251 52.7834 91.0557 52.5414 90.7402 52.5414C89.9815 52.0964 89.5909 51.4249 89.5721 50.5192L89.7111 49.7697H90.0454C90.1731 49.6526 90.3796 49.5979 90.6576 49.5979C90.9355 49.5979 91.3261 49.6838 91.8256 49.8595L92.0209 50.3201L92.4641 50.4646L92.9636 51.2727L93.6847 51.8231L93.711 52.0846L94.2932 53.0372L94.7101 53.3534L96.2387 55.5512L96.7382 56.2148C97.4067 56.9292 97.925 57.507 98.2969 57.9481V57.8622C98.2969 57.6319 98.4095 57.3899 98.6311 57.14L98.6048 57.2845C98.7325 56.9761 98.8903 56.7262 99.0781 56.5311C99.1344 56.2617 99.2621 56.0509 99.4687 55.8947C99.5062 55.762 99.6828 55.5473 99.9982 55.2584L100.25 55.1413L100.333 55.0242C100.498 54.5245 100.832 54.2747 101.335 54.2747L101.392 54.3918L101.643 53.8999C101.865 53.8413 101.959 53.814 101.921 53.814C102.086 53.6032 102.225 53.4275 102.338 53.2948L102.533 52.9201C102.849 52.4945 103.247 52.2447 103.728 52.1666V51.8192L103.923 51.5889L104.201 51.3585L104.366 50.7534C104.423 50.851 104.494 50.8979 104.588 50.8979C104.753 50.8979 104.903 50.6676 105.031 50.203L105.865 49.8282L106.312 49.3637L107.089 49.4223L107.671 49.2505L107.923 49.8595C107.979 50.1679 108.006 50.4177 108.006 50.609L107.991 50.6168Z" stroke="white" stroke-width="0.98" stroke-miterlimit="10"/>
<path d="M119.671 58.4204L119.506 58.9396C119.506 59.4393 119.48 59.8375 119.423 60.1263L119.258 60.4152V60.7314L119.119 60.9344L119.036 61.3404L118.732 61.6566L118.537 62.3788L118.315 62.4647L118.203 62.7809L117.868 62.9839L117.647 63.4758L117.312 63.6476L117.286 63.995L116.757 64.198C116.516 64.5454 116.22 64.764 115.867 64.8616L115.754 64.889C115.495 65.295 115.149 65.494 114.725 65.494C114.541 65.6112 114.327 65.6658 114.086 65.6658L113.808 65.8688L113.53 65.9547L113.17 66.2436H112.809L112.419 66.3295L111.945 66.1265L110.751 66.0406L110.334 65.3769L109.722 64.7133L109.861 64.2526L109.444 63.2689L109.583 62.8941L109.5 62.1992L109.583 61.7659V61.1882C109.583 60.8212 109.677 60.5518 109.872 60.3801C109.891 60.1888 110.015 59.8687 110.248 59.4276H110.391L110.308 59.2246L110.391 58.8186V58.3852C110.537 58.2135 110.623 58.0964 110.642 58.0378L110.56 57.6318V57.5147C110.687 57.2453 110.755 56.9643 110.755 56.6754L111.337 55.8361C111.431 55.758 111.495 55.7033 111.532 55.6643L111.506 55.5472H111.619L112.036 55.0553L112.062 54.3917L112.757 54.1301C113.016 53.9583 113.181 53.6695 113.256 53.2635H113.617C113.82 53.1464 114.007 53.0878 114.173 53.0878C114.338 53.0878 114.496 53.1268 114.646 53.2049L114.95 53.2322L115.671 52.9434L116.062 53.3181L116.366 53.5211H116.588L117.005 53.7514H117.226C117.466 53.9818 117.744 54.3019 118.06 54.704L118.116 54.8484L118.312 54.9655L118.897 55.7463L119.427 57.1048V57.3937L119.679 58.4048L119.671 58.4204ZM117.835 59.1035L117.808 58.9591C117.677 58.8264 117.605 58.6819 117.587 58.5258L117.669 58.3813L117.418 57.8348L117.474 57.2883L117.361 57.1438C117.121 56.9526 116.989 56.7964 116.971 56.6832C116.805 56.6051 116.719 56.4138 116.719 56.1054L116.554 56.0781L116.22 55.5003L115.968 55.2973L115.386 55.067L115.164 55.0085C115.052 55.0085 114.98 54.9694 114.943 54.8914L114.387 55.5238L114.026 56.3279L113.444 56.6442L113.361 56.9604L113.083 57.1048L112.971 57.8504L112.637 58.0222C112.561 58.2916 112.524 58.5414 112.524 58.7678L112.081 59.1972L112.22 59.2831C112.22 59.5134 112.126 59.7125 111.938 59.8843C111.878 60.0561 111.791 60.2474 111.69 60.4582V61.1452L111.386 61.9221L111.442 62.0665V62.8707L111.33 63.2728L111.356 63.6749L111.607 64.0496L111.998 64.1941L112.137 64.2526H113.08L113.192 63.9638H113.305C113.418 63.9638 113.482 63.9911 113.5 64.0496L113.752 63.9638L113.974 64.0496L114.334 63.7881L114.39 63.7022L114.642 63.6436C114.77 63.4328 115.078 63.2181 115.559 63.0034L115.615 62.859L116.171 62.453L116.475 61.9884L116.918 61.7581L116.948 61.6137L117.095 61.2975V60.9227L117.429 60.6338L117.542 60.4308L117.681 60.2591C117.605 60.0287 117.568 59.8648 117.568 59.7672C117.568 59.5954 117.624 59.4119 117.733 59.2207L117.846 59.1074L117.835 59.1035Z" stroke="white" stroke-width="0.98" stroke-miterlimit="10"/>
<path d="M137.8 63.5074C137.8 63.7377 137.635 64.0188 137.301 64.3467L137.079 64.4326L136.884 64.6941L136.384 64.8386C136.29 64.9752 136.2 65.0416 136.106 65.0416C136.088 65.0416 136.069 65.0338 136.05 65.0142H135.967C135.558 65.225 135.066 65.3304 134.495 65.3304H134.274L133.579 65.186L133.106 64.9557L132.05 64.0305L131.829 63.2497L131.385 62.875C131.442 62.7969 131.468 62.672 131.468 62.5002C131.468 62.3831 131.393 62.1918 131.246 61.9224L131.329 61.2276V61.1104C131.329 60.8801 131.265 60.5795 131.134 60.2165L131.299 59.3498L130.938 60.1033L130.522 60.1618L130.465 60.7669C130.315 60.845 130.142 60.8801 129.936 60.8801L129.631 61.575L129.271 62.0083C129.121 62.1801 128.993 62.2777 128.88 62.2972L128.798 62.3558L127.795 63.4254H127.682L127.153 64.0812L126.653 64.3506L126.375 64.7371L125.737 64.9479L124.82 65.3343L124.264 65.0416C123.893 65.0416 123.633 64.8659 123.487 64.5145L123.235 64.3701C123.235 64.3116 123.243 64.2335 123.262 64.1359V63.929L122.818 63.5191L122.931 63.3434L122.597 62.5236L122.709 62.4065V62.1723C122.653 62.1137 122.627 62.0669 122.627 62.0239C122.627 61.8092 122.646 61.6062 122.691 61.411L122.713 60.6498L122.631 60.0369C122.687 59.8847 122.713 59.748 122.713 59.6309C122.713 59.4982 122.676 59.3694 122.601 59.2561L122.905 59.0258V58.6784L122.792 57.7259L123.096 55.8755C123.096 55.5671 123.014 55.1142 122.845 54.5169C122.901 53.9001 123.288 53.5644 124.013 53.5059L124.234 53.5917L124.625 53.6503L125.124 54.2281L124.903 54.9815V56.2268L124.985 57.1832L124.82 57.5307L124.903 57.761L124.681 58.2255V58.8619C124.681 59.1117 124.662 59.3733 124.625 59.6426L124.681 59.8456L124.621 60.2789L124.666 60.6186L124.678 61.0246C124.824 61.1378 124.899 61.2861 124.899 61.4579C124.899 61.6101 124.824 61.7663 124.678 61.9185V62.0356C124.775 62.3636 124.824 62.5744 124.824 62.672L125.087 62.9335C125.203 62.8554 125.339 62.7578 125.496 62.6446C125.556 62.4533 125.692 62.3284 125.906 62.2699V61.981C126.018 61.981 126.191 61.9537 126.435 61.8951L126.492 61.6335L126.965 61.4306L127.047 61.3447C127.175 61.2119 127.389 61.0831 127.686 60.9699V60.8528L128.215 60.4468C128.343 60.0798 128.576 59.8378 128.91 59.7246C129.113 59.5138 129.252 59.3889 129.327 59.3498L129.688 58.858V58.7721L129.8 58.7135L130.052 58.5964L130.191 58.1904L130.773 57.9289L130.886 57.9015L131.081 57.6985V57.437L131.243 57.3784C131.295 57.07 131.442 56.8397 131.675 56.6835L132.08 55.6998L132.234 55.1845L132.291 55.0713H132.407L132.606 54.9268L132.441 54.8683C132.644 54.5208 132.801 54.1539 132.914 53.7713L133.721 53.744L134.36 54.2944L134.638 54.7551L134.334 55.9965L133.917 56.5742L133.583 57.7024L133.305 57.8742V58.3075L133.139 58.6237L133.222 59.1429L133 59.3459L133.113 60.2711L133.169 61.5711H133.308V62.3245L133.699 62.8164L134.06 63.0194L134.086 63.1638C134.213 63.1834 134.371 63.2302 134.559 63.3083L135.254 63.3668L135.671 63.2536L136.422 62.8789C136.568 62.8008 136.756 62.7617 136.978 62.7617C137.534 62.7617 137.812 63.0116 137.812 63.5152L137.8 63.5074Z" stroke="white" stroke-width="0.98" stroke-miterlimit="10"/>
<path d="M150.593 54.431L150.371 55.3835L149.342 55.5279L148.786 55.9027L148.425 55.7309L148.035 55.9573L147.618 56.1252L147.34 56.3243L147.332 56.4375L146.754 56.7381L146.364 57.2651H146.168C145.871 57.593 145.657 57.796 145.53 57.8702L145.139 58.5338L145 58.5924C144.944 58.7446 144.88 58.9789 144.805 59.2873L144.414 59.4317L144.249 59.7791L144.027 60.068L143.975 60.5013L143.753 60.5872V61.0206L143.671 61.1064C143.727 61.204 143.791 61.3094 143.866 61.4226L143.449 61.5944L143.393 61.9692L143.115 62.4611L143.28 62.8358L142.919 63.355C142.957 63.5463 142.976 63.6829 142.976 63.761V63.8781C142.957 63.9367 142.949 63.9835 142.949 64.0226L143.006 64.2841L143.479 64.8033L143.118 65.467L142.784 65.7285L142.007 66.1345L140.978 65.7012V65.0376L140.865 64.776L140.948 64.3427C140.91 64.0343 140.891 63.804 140.891 63.6478C140.891 63.5892 140.899 63.5151 140.918 63.4175V63.2145L140.891 62.9256C140.76 62.789 140.696 62.6367 140.696 62.4611C140.696 62.3088 140.76 62.1331 140.891 61.9418C140.891 61.8443 140.873 61.5554 140.835 61.0752L140.918 60.9893L140.835 60.6146L140.891 60.2671L140.835 60.0641L140.918 59.4005L140.752 59.1116L140.865 58.7954L140.752 58.4206C140.771 58.3035 140.779 58.1513 140.779 57.96C140.779 57.6711 140.741 57.4798 140.666 57.3822L140.779 57.2105L140.666 56.6912L140.414 56.3165L140.553 55.8558L140.441 55.6841L140.328 54.9892V54.7589C140.234 54.6418 140.189 54.4973 140.189 54.3256C140.189 53.9391 140.595 53.6112 141.413 53.3418L142.108 53.4862L142.247 54.0367L142.525 54.4114L142.442 55.1922C142.499 55.5787 142.563 56.0003 142.638 56.4648L142.72 56.9255C142.739 56.9645 142.758 57.0699 142.777 57.2417C142.777 57.3588 142.732 57.4837 142.638 57.6164L142.72 58.1942L142.664 58.8305L142.551 59.1194L142.634 59.2365L142.69 59.5254C142.803 59.3888 142.867 59.2482 142.886 59.0921L142.998 58.6588C143.055 58.5416 143.137 58.4558 143.25 58.3972L143.363 57.9639L143.753 57.7336L143.81 57.3861L144.114 57.0387L144.335 56.6054C144.576 56.336 144.809 56.1642 145.03 56.0862L145.087 56.0003L145.338 55.5943L145.616 55.5357L145.699 55.4498L145.811 55.2742L146.116 55.1024L146.281 54.8994L146.446 54.9267L146.668 54.8096L146.78 54.634L147.115 54.4622L147.588 54.146L148.256 53.9157C148.516 53.8766 148.655 53.8571 148.673 53.8571V53.8844C148.673 53.8844 148.647 53.8961 148.647 53.9117H148.673C148.748 53.9117 148.857 53.8727 149.008 53.7946C149.101 53.7166 149.229 53.6775 149.398 53.6775C149.473 53.6775 149.601 53.697 149.789 53.7361C150.27 53.7556 150.54 53.9859 150.596 54.431H150.593Z" stroke="white" stroke-width="0.98" stroke-miterlimit="10"/>
<path d="M176.395 62.4651C176.395 62.9687 176.072 63.2342 175.422 63.2732C175.219 63.4294 175.005 63.5035 174.784 63.5035L173.755 63.648H173.255L172.865 63.9369H172.226L171.974 64.1672H170.611L169.834 64.6005H169.695C169.563 64.6005 169.473 64.6122 169.417 64.6317L169.278 64.7879C169.094 64.8933 168.917 64.944 168.748 64.944C168.635 64.944 168.489 64.8972 168.305 64.7996L167.693 64.944L167.054 64.9714L166.386 65.1744H164.744L163.828 64.944H163.077L162.825 64.7137L162.296 64.6864C161.481 64.054 160.914 63.3903 160.598 62.6994C160.467 62.2387 160.328 61.7781 160.181 61.3174L159.96 60.7709L160.238 59.791L160.072 58.6121L160.324 58.4403L160.38 57.3473L160.576 56.7695L160.715 55.9068V54.1227L160.966 53.6621L161.022 53.4318V52.3933L161.188 52.163L160.936 51.96L161.27 50.9216L161.353 50.8943L161.188 50.4336L161.8 50.176C162.078 49.9262 162.311 49.7817 162.495 49.7427L163.216 49.8598L163.854 51.2456L163.464 51.5618C163.558 51.6985 163.603 51.8507 163.603 52.0264L163.299 52.893V53.8768L163.013 54.7708L162.934 55.6101L162.491 57.3434V57.5737C162.491 57.7845 162.465 57.968 162.408 58.1241L162.352 58.5301L162.296 59.0493L162.352 59.9433L162.269 60.1736L162.491 61.4462L162.882 62.3402V62.4261L163.911 63.0624L165.413 63.2069H165.856L166.912 63.0039H167.663L167.858 62.8594H169.387L169.721 62.5705H170.833L171.332 62.3988L173.139 62.3129L173.89 62.1099C174.074 62.1294 174.295 62.1372 174.558 62.1372L174.836 61.9069C175.077 61.8093 175.298 61.7624 175.505 61.7624C176.098 61.7624 176.395 61.9928 176.395 62.4573V62.4651Z" stroke="white" stroke-width="0.98" stroke-miterlimit="10"/>
<path d="M184.958 60.9621C184.958 61.4071 184.883 61.6843 184.737 61.8014L184.598 61.9185L184.459 62.3245L184.012 62.469C183.88 62.7774 183.689 63.0194 183.43 63.1912L183.178 63.2771L182.817 63.683L182.483 63.7689C182.352 64.1164 182.085 64.2998 181.676 64.3194C181.638 64.3779 181.555 64.495 181.424 64.6668C181.146 64.8581 180.857 64.9752 180.56 65.0142L180.421 65.0416L180.226 65.3031H179.67L179.227 65.6506L178.085 64.7839L177.555 63.6557L177.529 62.2386L177.417 61.8912L177.751 59.3459L177.863 59.2288C177.807 58.9399 177.781 58.6589 177.781 58.3895C177.781 58.2177 177.837 57.8586 177.946 57.3199L178.085 56.6562C178.047 56.5391 177.972 56.4142 177.863 56.2815L178.029 55.731L178.085 55.0674L178.141 54.9815C178.066 54.8097 178.021 54.6145 178.002 54.4037C178.021 54.3647 178.04 54.314 178.059 54.2437C178.078 54.1773 178.085 54.1227 178.085 54.0836C178.029 53.9119 178.002 53.7479 178.002 53.5918C178.002 53.1272 178.254 52.9164 178.754 52.9554H179.088C179.309 52.8578 179.448 52.811 179.505 52.811C179.877 52.811 180.124 53.0218 180.256 53.4473V53.5644C180.331 53.7947 180.369 54.0173 180.369 54.2281C180.369 54.3998 180.35 54.5287 180.312 54.6028L180.117 56.0472L180.312 56.4532C180.312 56.8007 180.2 57.1091 179.978 57.3784L180.091 57.7259L179.73 58.8228C179.693 59.303 179.647 59.67 179.591 59.9198V60.642L179.426 61.048L179.452 61.3369L179.396 62.0005L179.452 62.5197L179.869 62.8672L180.203 62.8086L180.26 62.7227L180.481 62.75L180.842 62.6368L181.146 62.3206L181.255 62.145L181.45 62.1176L181.507 61.9732L181.589 61.8561L181.754 61.9732L182.032 61.6843L182.198 61.7116L182.254 61.5086H182.31L182.389 61.2744L182.641 61.1573L183.17 60.8996C183.599 60.5912 184.015 60.439 184.425 60.439H184.537C184.74 60.5756 184.879 60.7474 184.954 60.9582L184.958 60.9621ZM182.123 45.6397C182.123 45.8701 181.972 46.0809 181.679 46.2721V46.3307C181.326 46.7718 181.018 47.0217 180.759 47.0802L180.342 47.5994L180.064 47.9742L179.422 48.1421L179.144 48.552L178.701 48.7862L177.98 49.4615L177.537 49.0282L177.619 48.306L177.924 47.7868C177.942 47.5175 178.089 47.2871 178.367 47.0919V46.9748L178.532 46.8577L178.558 46.4244L179.001 46.3073V46.0457L179.336 45.9872C179.411 45.6007 179.569 45.3235 179.809 45.1479L179.892 45.0893L180.057 44.9175L180.278 44.2227C181.503 44.5311 182.115 44.9995 182.115 45.6358L182.123 45.6397Z" stroke="white" stroke-width="0.98" stroke-miterlimit="10"/>
<path d="M199.557 47.9273C199.557 48.3138 199.335 48.6964 198.888 49.0829L198.667 48.9384L198.224 49.2L197.668 48.0718C197.63 47.7829 197.555 47.5409 197.446 47.3496L197.281 47.4355L196.808 47.1739L196.642 47.1466L196.282 47.3769L195.7 47.2012L195.504 47.2871C195.339 47.4784 195.17 47.576 195.005 47.576C194.93 47.576 194.866 47.5682 194.81 47.5487L194.802 47.8337C194.618 48.1421 194.389 48.5207 194.111 48.9618C194.092 49.1531 194.028 49.5123 193.916 50.0315L193.668 50.2033L193.559 50.5195L193.42 50.781L193.559 51.3588L193.243 51.878L193.138 52.3113L193.033 52.5416V52.9476L192.642 53.9899L192.699 54.4818C192.68 54.5599 192.579 54.8292 192.391 55.2899L192.365 55.407C192.549 55.3289 192.706 55.2821 192.834 55.2626H194.273L194.355 55.204C194.577 55.165 194.704 55.1454 194.742 55.1454C194.926 55.1454 195.129 55.1845 195.35 55.2626H196.567L196.928 55.3524C197.593 55.3719 197.923 55.6568 197.923 56.2034C197.923 56.3595 197.897 56.5469 197.841 56.7616L196.59 57.1442L195.869 57.0271C195.666 57.1012 195.32 57.1871 194.84 57.2886L194.701 57.0856C194.569 57.2223 194.396 57.2886 194.171 57.2886H193.867L193.089 57.6634L192.699 57.4604H192.56C192.41 57.6517 192.226 57.7805 192.004 57.8352L192.03 58.0069L191.918 58.4129L192.083 58.9048L191.722 59.6582L191.812 60.8138L191.655 61.2119L191.805 61.6179L191.471 62.2543L191.553 62.6017C191.553 62.6017 191.58 62.6681 191.58 62.7461C191.58 62.7656 191.542 62.9726 191.467 63.3668C191.392 63.7611 191.354 64.1515 191.354 64.538V64.7995C191.354 64.7995 191.474 64.944 191.658 65.1743L191.463 65.6662L191.658 66.2439L191.576 66.7046L191.861 68.1216L191.94 69.6832L192.357 70.2609L192.105 70.8972C192.327 71.3032 192.44 71.6312 192.44 71.881V71.9669C192.44 72.0059 192.447 72.0528 192.466 72.1113V72.2558C192.466 72.9897 192.057 73.3722 191.242 73.4113L191.02 72.9506L190.686 72.7476L190.629 72.2284L190.074 70.6084V70.2922C189.998 69.9447 189.961 69.7417 189.961 69.6871C189.961 69.5895 189.968 69.5231 189.987 69.4841L189.874 68.9922L189.987 68.5003L189.874 68.1841V67.5478L189.653 65.7286V64.9479L189.488 64.5731L189.653 64.2569V62.7539L189.792 62.5822V61.5399L189.874 61.3095L189.792 60.4156L189.905 60.0681C189.942 59.7402 190.051 59.0102 190.239 57.8703H190.126L189.766 57.7532H189.349L188.571 57.8703L188.098 57.7532L187.29 57.9289L187.013 57.8703C186.919 57.8898 186.81 57.8976 186.678 57.8976C185.863 57.5111 185.428 57.2145 185.371 57.0037L185.232 56.5118C185.473 55.7622 185.807 55.3836 186.235 55.3836C186.254 55.3836 186.569 55.4499 187.182 55.5866L188.793 55.6451L189.57 55.5007H190.239L190.49 55.528L190.573 55.1533L190.629 54.3139L190.768 53.9665L190.686 53.3887C190.686 53.1779 190.761 52.9945 190.907 52.8383V52.5221L191.197 52.1747L191.328 51.308L191.433 51.1636L191.351 50.7888C191.572 50.5195 191.685 50.2969 191.685 50.1252L191.658 49.9534C191.658 50.1096 191.797 49.6645 192.075 48.6222L192.271 48.4778V47.8415L192.353 47.9859V47.9C192.353 47.5721 192.481 47.3301 192.744 47.1778L192.909 46.9163L193.243 46.0769H193.3C193.503 46.0769 193.604 45.952 193.604 45.7022V45.5851L194.381 45.2962H194.603C194.843 45.2181 195.095 45.183 195.354 45.183H195.549L195.688 45.1244L196.301 44.98L197.022 45.1557C197.059 45.1752 197.134 45.2025 197.243 45.2415C197.427 45.1635 197.559 45.1244 197.634 45.1244C197.893 45.1244 198.133 45.3274 198.355 45.7295L198.746 46.0184L199.024 46.5961L199.441 47.0295L199.553 47.8376V47.9234L199.557 47.9273Z" stroke="white" stroke-width="0.98" stroke-miterlimit="10"/>
<path d="M207.816 62.8124C207.816 63.0428 207.651 63.3316 207.316 63.6791C207.223 63.9875 207.084 64.2373 206.9 64.4325L206.734 64.4598L206.43 65.0103L205.931 65.0961L205.401 65.4436L205.123 65.9628H204.819C204.616 66.0448 204.447 66.0955 204.319 66.1111L204.154 66.3376H203.902C203.662 66.3376 203.429 66.5015 203.208 66.8294L202.817 66.482H202.483C202.242 66.482 202.04 66.4351 201.871 66.3376H201.397L201.176 66.1931C200.47 66.0799 200.026 65.8027 199.842 65.3616V65.2757L199.508 65.104L199.343 64.616L199.009 64.3857V63.9562L198.674 62.6953V61.6647L198.84 61.208V60.6068L198.979 60.15L198.952 59.947L199.148 59.6035L199.091 59.6621C199.091 59.4903 199.136 59.3068 199.23 59.1116V58.9672L199.148 58.2723C199.148 57.9444 199.287 57.6555 199.564 57.4057C199.583 57.3666 199.591 57.3081 199.591 57.2339C199.591 57.1597 199.557 56.9997 199.493 56.7577C199.429 56.5156 199.395 56.3478 199.395 56.2502C199.395 56.0198 199.452 55.7778 199.561 55.528C199.707 55.7583 199.921 55.8754 200.199 55.8754H200.282C200.319 55.7973 200.402 55.7114 200.533 55.6138C200.68 55.1337 200.886 54.7277 201.146 54.3998L201.258 54.2826C201.258 54.2046 201.315 53.986 201.424 53.619H201.645L201.701 53.4746L201.923 53.416C202.017 53.2638 202.077 53.1701 202.103 53.1427C202.13 53.1154 202.329 52.9944 202.701 52.7797C202.776 52.647 202.885 52.5181 203.035 52.4049C203.11 52.3659 203.2 52.3269 203.313 52.2878L203.425 52.116C203.925 51.9443 204.24 51.8545 204.372 51.8545C204.518 51.8545 204.657 51.8935 204.789 51.9716L204.928 51.9443L205.123 52.0614C205.345 52.2332 205.566 52.3776 205.792 52.4947L206.265 52.8695V52.9866C206.689 53.334 206.903 53.8259 206.903 54.4622L206.821 54.7511L206.903 55.7036L206.652 55.8754L206.374 56.6288L205.844 57.2339L205.818 57.6946C205.224 58.1396 204.676 58.4948 204.177 58.7642C204.011 59.0336 203.748 59.1702 203.399 59.1702H203.317L202.787 59.5176H202.344L201.675 59.8065L201.176 59.545H201.119C201.082 59.7011 201.044 59.9314 201.007 60.2437L200.785 60.4194L200.759 60.7668L200.594 61.2626C200.631 61.7272 200.65 62.0278 200.65 62.1644L200.556 62.2503C200.556 62.504 200.548 62.6875 200.533 62.8007C200.533 62.8202 200.526 62.8476 200.511 62.8866V62.9725C200.511 63.1286 200.586 63.2536 200.733 63.3512C200.789 63.5854 200.879 63.7298 201.01 63.7884L201.206 63.964L201.818 64.1397V64.2256L202.04 64.2842H202.986L203.542 64.1983L203.82 63.9992L203.985 63.9406L204.263 63.5112L204.402 63.4839L205.097 63.2536C205.172 63.1208 205.292 63.0076 205.457 62.91L205.54 62.7656C205.912 62.6875 206.122 62.4884 206.178 62.1644C206.438 61.8989 206.772 61.7662 207.181 61.7662H207.294C207.647 62.1917 207.823 62.5353 207.823 62.8085L207.816 62.8124ZM205.063 54.4896C205.063 54.431 205.037 54.3178 204.98 54.1421L204.841 54.1148L204.785 54.1421H204.672C204.635 54.1616 204.597 54.1694 204.56 54.1694C204.541 54.1694 204.515 54.1616 204.477 54.1421H204.394L204.116 54.3451L203.865 54.3724L203.726 54.431L203.253 55.0673L202.948 55.2976L202.505 56.1057L202.254 56.2775C202.197 56.6054 202.07 56.8826 201.863 57.1168L201.75 57.3198C201.953 57.1832 202.186 57.1168 202.445 57.1168L202.64 57.0309L202.723 56.7694L203.114 56.7967L203.335 56.4493H203.501L203.805 56.5664L203.944 56.133H204.139V55.8168L204.5 55.731L204.582 55.6451L204.639 55.3835L204.999 54.8331C205.037 54.7355 205.055 54.6223 205.055 54.4856L205.063 54.4896Z" stroke="white" stroke-width="0.98" stroke-miterlimit="10"/>
</g>
<path d="M47.595 10.858V13.265H56.933V10.858H47.595ZM46.928 20.109V22.574H57.977V20.109H46.928ZM51.51 21.385V33.333C51.51 33.681 51.394 33.768 50.988 33.797C50.582 33.797 49.219 33.797 47.856 33.768C48.204 34.522 48.581 35.624 48.697 36.378C50.669 36.378 52.032 36.349 52.96 35.914C53.917 35.508 54.149 34.754 54.149 33.391V21.385H51.51ZM56.092 10.858V11.38C55.28 12.975 53.54 15.324 52.003 16.687C52.467 17.064 53.192 17.818 53.569 18.311C55.425 16.716 57.484 14.164 58.905 11.902L57.194 10.713L56.701 10.858H56.092ZM57.194 20.109V20.486C56.701 22.516 55.947 25.039 55.309 26.547L57.368 27.04C58.093 25.387 58.963 22.777 59.659 20.457L57.948 20.022L57.571 20.109H57.194ZM48.262 16.455C50.698 17.702 53.627 19.703 54.99 21.182L56.527 19.152C55.077 17.731 52.09 15.846 49.683 14.657L48.262 16.455ZM58.934 10.8V13.12H73.724V10.8H58.934ZM62.53 21.936H70.157V24.343H62.53V21.936ZM62.53 26.286H70.157V28.722H62.53V26.286ZM62.53 17.586H70.157V19.993H62.53V17.586ZM60.007 15.527V30.781H72.796V15.527H60.007ZM64.937 11.989C64.792 13.381 64.415 15.382 64.096 16.716L66.503 17.18C66.967 15.933 67.547 14.106 68.04 12.366L64.937 11.989ZM62.878 31.1C61.631 32.376 59.021 33.913 56.73 34.725C57.31 35.189 58.151 36.03 58.557 36.552C60.848 35.682 63.603 34.087 65.198 32.55L62.878 31.1ZM67.257 32.666C68.968 33.797 71.172 35.45 72.216 36.523L74.391 34.986C73.231 33.884 70.998 32.318 69.287 31.274L67.257 32.666ZM90.283 14.831V17.412H100.404V14.831H90.283ZM99.302 14.831V15.411C99.012 27.475 98.635 32.231 97.736 33.217C97.446 33.594 97.098 33.681 96.547 33.652C95.822 33.652 94.198 33.652 92.371 33.507C92.864 34.29 93.241 35.479 93.299 36.262C94.923 36.349 96.663 36.378 97.707 36.233C98.809 36.088 99.534 35.798 100.259 34.841C101.361 33.42 101.709 28.983 102.057 16.194C102.057 15.846 102.086 14.831 102.086 14.831H99.302ZM91.356 9.524C90.457 13.468 88.891 17.441 86.89 19.935C87.528 20.312 88.717 21.095 89.239 21.501C91.24 18.746 92.98 14.425 94.053 10.075L91.356 9.524ZM90.051 22.4C92.023 24.314 94.198 26.982 95.097 28.78L97.127 27.185C96.17 25.416 93.908 22.835 91.965 21.008L90.051 22.4ZM84.425 20.921C85.179 22.922 85.991 25.532 86.252 27.127L88.572 26.431C88.282 24.865 87.412 22.313 86.6 20.37L84.425 20.921ZM81.438 28.722C81.844 30.781 82.221 33.478 82.308 35.218L84.599 34.638C84.483 32.869 84.077 30.259 83.613 28.171L81.438 28.722ZM77.9 28.403C77.523 30.723 76.856 33.362 76.044 35.073C76.682 35.247 77.842 35.624 78.393 35.914C79.089 34.145 79.872 31.361 80.307 28.896L77.9 28.403ZM76.914 20.689C76.914 20.167 78.567 19.355 78.567 19.355V19.297C80.713 17.035 82.975 13.729 84.715 10.539L82.192 9.437C80.8 12.569 78.567 15.817 77.871 16.658C77.175 17.528 76.624 18.079 76.073 18.224C76.392 18.891 76.798 20.138 76.914 20.689ZM76.914 20.689C77.465 20.428 78.364 20.225 83.381 19.703C83.381 19.152 83.468 18.195 83.613 17.528L78.074 17.963L76.856 18.746L76.914 20.689ZM77.059 27.301C77.059 26.779 78.828 25.996 78.828 25.996V25.909C81.873 23.154 85.092 19.326 87.615 15.469L85.295 13.961C83.062 17.905 79.698 21.878 78.625 22.922C77.61 23.966 76.885 24.604 76.189 24.749C76.479 25.474 76.914 26.779 77.059 27.301ZM77.059 27.301C77.726 26.953 78.857 26.663 86.716 25.445C86.687 24.894 86.745 23.879 86.832 23.183L78.19 24.401L76.914 25.242L77.059 27.301ZM85.005 28.2C85.672 29.969 86.455 32.289 86.774 33.768L88.891 32.985C88.543 31.506 87.76 29.244 87.006 27.504L85.005 28.2ZM125.199 20.718V23.009H131.637V20.718H125.199ZM117.137 21.878V23.908H124.503V21.878H117.137ZM119.95 11.264V15.15H121.864V11.264H119.95ZM119.95 18.862V22.893H121.864V18.862H119.95ZM114.962 32.84V35.189H131.927V32.84H114.962ZM116.035 10.336V23.908H118.065V12.395H124.184V10.336H116.035ZM117.195 14.338V16.107H122.154V18.166H117.253V19.906H123.952V14.338H117.195ZM126.243 9.669C125.837 12.83 124.996 16.107 123.749 18.224C124.358 18.514 125.402 19.123 125.837 19.471C127.113 17.18 128.07 13.613 128.621 10.075L126.243 9.669ZM105.102 33.217L105.711 35.682C108.495 35.131 112.178 34.377 115.658 33.681L115.455 31.332C111.656 32.057 107.712 32.782 105.102 33.217ZM106.726 16.774V19.065H114.556V16.774H106.726ZM105.479 21.675V24.024H115.078V21.675H105.479ZM105.827 25.851C106.233 27.533 106.61 29.737 106.755 31.187L108.582 30.723C108.437 29.302 108.031 27.098 107.596 25.445L105.827 25.851ZM113.367 25.184C113.135 26.605 112.671 28.838 112.294 30.172L113.976 30.636C114.411 29.331 114.846 27.359 115.339 25.648L113.367 25.184ZM109.394 17.731V33.362L111.685 33.043V17.731H109.394ZM126.504 13.671L125.808 16.078H131.985V13.671H126.504ZM116.702 25.822V34.232H118.906V28.026H120.907V34.232H122.676V28.026H124.648V34.232H126.417V28.026H128.447V34.232H130.767V25.822H116.702ZM110.554 9.379C109.249 12.105 106.958 14.715 104.812 16.397C105.102 17.035 105.566 18.543 105.653 19.123C108.321 16.919 111.018 13.497 112.613 10.162L110.554 9.379ZM109.916 12.801C111.598 14.048 113.686 15.759 114.875 16.89L116.325 14.773C115.136 13.7 113.135 12.134 111.337 10.916L109.916 12.801ZM146.05 9.524V14.106H148.805V9.524H146.05ZM135.407 12.714V17.992H137.988V14.657H157.186V17.992H159.854V12.714H135.407ZM142.483 17.615H152.662V19.268H142.483V17.615ZM139.931 15.991V20.892H155.388V15.991H139.931ZM138.133 10.394C138.945 11.293 139.844 12.569 140.221 13.381L142.744 12.511C142.28 11.699 141.41 10.539 140.569 9.698L138.133 10.394ZM154.576 9.582C154.112 10.481 153.155 11.815 152.43 12.685L154.663 13.381C155.446 12.627 156.49 11.525 157.389 10.307L154.576 9.582ZM140.917 26.547H154.46V27.91H140.917V26.547ZM140.917 29.418H154.46V30.81H140.917V29.418ZM140.917 23.676H154.46V25.039H140.917V23.676ZM138.307 22.11V32.376H157.157V22.11H138.307ZM142.918 32.463C141.091 33.42 137.64 34.145 134.624 34.551C135.204 35.015 136.19 36.059 136.654 36.61C139.612 35.972 143.324 34.87 145.528 33.478L142.918 32.463ZM149.472 33.855C152.575 34.667 155.736 35.74 157.563 36.494L160.376 34.986C158.259 34.174 154.692 33.101 151.56 32.318L149.472 33.855Z" fill="white"/>
<defs>
<clipPath id="clip0_714_395">
<rect width="208" height="31" fill="white" transform="translate(0 44)"/>
</clipPath>
</defs>
</svg>
